<svg width="281" height="282" viewBox="0 0 281 282" fill="none" xmlns="http://www.w3.org/2000/svg">
<path d="M142.128 256.598C211.488 256.598 267.715 226.031 267.715 188.324C267.715 150.618 211.488 120.051 142.128 120.051C72.7689 120.051 16.542 150.618 16.542 188.324C16.542 226.031 72.7689 256.598 142.128 256.598Z" fill="#F5F5F5"/>
<path d="M205.663 180.102C220.127 180.102 231.852 173.332 231.852 164.981C231.852 156.629 220.127 149.859 205.663 149.859C191.2 149.859 179.475 156.629 179.475 164.981C179.475 173.332 191.2 180.102 205.663 180.102Z" fill="#E0E0E0"/>
<path d="M63.9953 218.446C78.4588 218.446 90.1839 211.676 90.1839 203.324C90.1839 194.973 78.4588 188.203 63.9953 188.203C49.5317 188.203 37.8066 194.973 37.8066 203.324C37.8066 211.676 49.5317 218.446 63.9953 218.446Z" fill="#E0E0E0"/>
<path d="M245.019 159.693L241.234 157.531C241.234 157.531 239.421 147.531 240.774 138.94C242.683 126.856 250.909 122.684 253.902 123.886C256.895 125.087 257.591 128.67 252.218 135.677C249.011 139.771 244.94 148.474 245.019 159.693Z" fill="#053D38"/>
<g opacity="0.1">
<path d="M245.019 159.693L241.234 157.531C241.234 157.531 239.421 147.531 240.774 138.94C242.683 126.856 250.909 122.684 253.902 123.886C256.895 125.087 257.591 128.67 252.218 135.677C249.011 139.771 244.94 148.474 245.019 159.693Z" fill="black"/>
</g>
<path d="M243.217 154.775H243.257C243.292 154.772 243.327 154.761 243.358 154.744C243.389 154.727 243.417 154.705 243.439 154.677C243.462 154.649 243.479 154.617 243.489 154.583C243.499 154.549 243.502 154.513 243.498 154.478C242.263 143.124 247.17 130.894 252.426 126.026C252.479 125.977 252.51 125.909 252.513 125.837C252.515 125.765 252.489 125.694 252.44 125.642C252.391 125.589 252.323 125.558 252.251 125.555C252.179 125.552 252.108 125.578 252.055 125.628C246.71 130.563 241.707 143.034 242.959 154.539C242.968 154.603 242.999 154.661 243.046 154.704C243.093 154.747 243.154 154.772 243.217 154.775Z" fill="white"/>
<path d="M255.514 165.749C256.109 166.092 257.339 165.345 257.811 165.025C258.62 164.476 259.274 163.728 259.709 162.852C260.196 161.856 260.362 160.734 260.186 159.64C260.087 159.071 259.952 158.508 259.782 157.956C259.619 157.394 259.461 156.833 259.304 156.299C259.109 155.76 259.027 155.187 259.063 154.615C259.203 153.492 260.186 152.689 261.124 152.004C262.134 151.246 263.19 150.246 263.184 148.882C263.108 147.823 262.686 146.819 261.983 146.024C261.331 145.198 260.556 144.468 259.967 143.598C259.5 142.991 259.258 142.241 259.282 141.476C259.342 141.009 259.499 140.559 259.742 140.156C260.296 139.311 260.78 138.423 261.191 137.5C261.522 136.546 261.477 135.355 260.73 134.693C260.396 134.448 260.016 134.272 259.613 134.175C259.21 134.079 258.792 134.064 258.383 134.131C257.609 134.225 256.864 134.486 256.199 134.895C254.032 136.102 252.796 138.668 250.5 139.594C249.596 139.861 248.677 140.074 247.748 140.235C247.277 140.32 246.828 140.505 246.432 140.776C246.037 141.047 245.703 141.398 245.452 141.807C244.61 143.491 246.176 145.569 245.581 147.354C245.053 148.938 243.515 149.544 242.656 150.971C242.302 151.6 242.161 152.326 242.251 153.043C242.325 154.254 242.62 155.441 243.122 156.546C243.685 157.644 244.329 158.699 245.048 159.702C245.053 159.724 255.419 165.699 255.514 165.749Z" fill="#053D38"/>
<path d="M249.371 162.485C249.407 162.484 249.442 162.476 249.475 162.462C249.508 162.447 249.537 162.426 249.562 162.4C249.586 162.374 249.606 162.343 249.618 162.309C249.631 162.276 249.636 162.24 249.635 162.204C249.191 151.496 254.234 139.676 257.906 136.24C257.932 136.216 257.952 136.187 257.967 136.154C257.981 136.122 257.989 136.087 257.99 136.051C257.991 136.016 257.986 135.981 257.973 135.948C257.96 135.914 257.941 135.884 257.917 135.858C257.893 135.832 257.863 135.812 257.831 135.797C257.799 135.783 257.764 135.775 257.728 135.774C257.693 135.773 257.658 135.778 257.624 135.791C257.591 135.804 257.561 135.823 257.535 135.847C253.79 139.351 248.647 151.367 249.113 162.238C249.118 162.303 249.147 162.365 249.195 162.41C249.242 162.456 249.305 162.482 249.371 162.485Z" fill="white"/>
<path d="M250.976 149.831H251.055C253.591 149.13 256.198 148.71 258.826 148.579C258.897 148.575 258.964 148.543 259.012 148.491C259.06 148.438 259.086 148.369 259.084 148.298C259.084 148.262 259.077 148.227 259.063 148.194C259.048 148.161 259.027 148.132 259.001 148.107C258.974 148.083 258.943 148.064 258.909 148.053C258.875 148.041 258.839 148.037 258.804 148.04C256.13 148.175 253.478 148.602 250.898 149.315C250.864 149.325 250.832 149.342 250.805 149.364C250.777 149.387 250.754 149.415 250.738 149.446C250.721 149.477 250.711 149.511 250.707 149.547C250.704 149.582 250.707 149.618 250.718 149.652C250.736 149.705 250.771 149.752 250.817 149.784C250.864 149.816 250.92 149.833 250.976 149.831Z" fill="white"/>
<path d="M27.3177 171.855L31.0798 169.682C31.0798 169.682 32.9047 159.681 31.5459 151.09C29.6424 139.007 21.4388 134.84 18.4235 136.037C15.4082 137.233 14.7344 140.821 20.108 147.828C23.3142 151.921 27.4188 160.642 27.3177 171.855Z" fill="#053D38"/>
<g opacity="0.1">
<path d="M27.3168 171.855L31.0789 169.682C31.0789 169.682 32.9038 159.681 31.5449 151.09C29.6414 139.007 21.4378 134.84 18.4225 136.037C15.4072 137.233 14.7334 140.821 20.107 147.828C23.3132 151.921 27.4178 160.642 27.3168 171.855Z" fill="black"/>
</g>
<path d="M29.322 171.276C29.2485 171.272 29.1796 171.239 29.1303 171.184C29.0809 171.13 29.055 171.058 29.0581 170.984C29.9452 154.139 27.5757 144.554 21.1296 138.866C21.0778 138.813 21.0488 138.741 21.0488 138.667C21.0488 138.592 21.0778 138.521 21.1296 138.467C21.183 138.416 21.2545 138.387 21.3289 138.387C21.4033 138.387 21.4748 138.416 21.5283 138.467C28.1147 144.279 30.546 154.021 29.6476 171.035C29.6429 171.072 29.6306 171.109 29.6114 171.141C29.5923 171.174 29.5667 171.202 29.5363 171.225C29.5059 171.248 29.4712 171.264 29.4344 171.273C29.3975 171.281 29.3593 171.283 29.322 171.276Z" fill="white"/>
<path d="M28.4572 171.192C28.5358 167.575 26.4302 155.599 19.344 151.241C12.2578 146.884 8.81573 152.314 11.685 155.604C13.7907 158.013 17.71 159.754 21.3991 164.734C23.9315 168.159 25.3914 172.972 25.3914 172.972L28.4572 171.192Z" fill="#053D38"/>
<path d="M27.1882 172.598C27.1166 172.598 27.0476 172.571 26.9954 172.522C26.9432 172.473 26.9117 172.406 26.9074 172.334C26.228 163.204 21.0453 155.012 14.3016 152.418C14.267 152.404 14.2353 152.384 14.2083 152.359C14.1814 152.333 14.1598 152.303 14.1446 152.269C14.1295 152.235 14.1212 152.198 14.1202 152.161C14.1192 152.124 14.1255 152.087 14.1388 152.053C14.1521 152.018 14.1721 151.986 14.1976 151.959C14.2231 151.932 14.2537 151.911 14.2876 151.896C14.3215 151.88 14.358 151.872 14.3951 151.871C14.4322 151.87 14.4691 151.877 14.5038 151.89C21.4608 154.568 26.7727 162.957 27.469 172.295C27.472 172.332 27.4676 172.37 27.4559 172.405C27.4442 172.441 27.4255 172.474 27.4009 172.502C27.3763 172.53 27.3463 172.553 27.3127 172.57C27.279 172.586 27.2424 172.596 27.205 172.598H27.1882Z" fill="white"/>
<path d="M169.966 64.6813C170.82 65.3832 171.797 65.7482 172.92 66.8375C173.63 67.6453 174.526 68.2679 175.531 68.6512C176.828 69.1678 178.046 69.0161 181.646 68.4378C186.042 67.7359 187.935 66.9947 189.832 65.3776C192.05 63.4853 197.014 57.7748 199.412 55.5344C201.95 53.1648 205.437 54.0801 205.437 54.0801C204.358 57.5922 202.752 60.9205 200.675 63.9514C198.755 66.6859 195.167 69.3081 193.544 70.6557C190.944 72.8175 189.563 73.671 183.858 74.1034C179.551 74.4291 178.979 74.5301 175.435 74.4291C174.161 74.3898 173.369 74.3785 171.28 74.2045C170.373 74.1451 169.476 73.9888 168.602 73.7384C167.614 73.511 166.667 73.1322 165.794 72.6154C164.656 71.876 163.737 70.8443 163.133 69.6282C162.803 68.9596 162.634 68.2232 162.639 67.4776C162.648 66.7262 162.922 66.0022 163.414 65.4337C163.51 65.3177 163.633 65.227 163.773 65.1698C164.045 65.1234 164.325 65.1838 164.554 65.3383C165.901 66.0289 167.26 66.9835 168.675 67.5282C169.865 67.983 170.775 68.1458 170.685 67.9044C170.595 67.6629 169.877 67.4439 169.135 66.6073C168.394 65.7706 168.209 64.6083 168.686 64.2434C169.163 63.8784 169.135 63.9738 169.966 64.6813Z" fill="#FFA8A7"/>
<path d="M206.459 54.0653C205.102 53.4129 203.563 53.2445 202.097 53.588C199.879 54.2281 198.099 55.6768 195.982 57.9509C193.865 60.225 190.288 63.8972 190.288 63.8972C190.288 63.8972 192.051 68.35 196.004 69.9334L204.292 62.2689L206.459 54.0653Z" fill="#E0E0E0"/>
<path d="M218.638 155.809H213.612V164.411H218.638V155.809Z" fill="#FFA8A7"/>
<path d="M204.729 157.977L199.709 158.151L199.456 149.049L204.729 148.875V157.977Z" fill="#FFA8A7"/>
<path d="M220.793 91.5916C220.793 96.3868 219.945 124.294 219.945 124.294C220.058 125.675 221.388 128.129 221.495 133.104C221.641 140.313 218.867 160.112 218.867 160.112C217.997 160.542 217.043 160.775 216.072 160.794C215.102 160.814 214.139 160.619 213.252 160.224C213.252 160.224 210.972 133.384 210.068 126.248C209.282 120.015 207.951 103.091 207.951 103.091L205.588 123.429C206.163 126.049 206.368 128.737 206.194 131.414C205.958 134.715 205.026 155.16 205.026 155.16C204.151 155.655 203.178 155.951 202.175 156.028C201.173 156.104 200.166 155.959 199.226 155.603C199.226 155.603 195.683 126.455 195.626 123.429C195.559 119.976 196.935 84.7188 196.935 84.7188L220.793 91.5916Z" fill="#37474F"/>
<path d="M217.475 56.2954C218.581 56.7856 219.45 57.6911 219.895 58.8165C220.411 60.2043 220.66 61.6768 220.631 63.157V73.0002L220.777 91.5916C213.561 95.393 204.397 95.6457 196.699 90.025C196.699 90.025 197.132 66.0993 197.132 62.1856C197.132 62.0115 197.132 61.8318 197.132 61.6241C197.412 56.009 202.915 52.1964 208.362 53.5889L212.932 54.7905L217.503 56.2954H217.475Z" fill="#F0F0F0"/>
<path d="M206.158 44.7165C209.871 43.8403 212.17 40.1206 211.294 36.4082C210.418 32.6958 206.698 30.3967 202.985 31.2729C199.273 32.1491 196.974 35.8688 197.85 39.5812C198.726 43.2936 202.446 45.5927 206.158 44.7165Z" fill="#053D38"/>
<path opacity="0.5" d="M206.158 44.7165C209.871 43.8403 212.17 40.1206 211.294 36.4082C210.418 32.6958 206.698 30.3967 202.985 31.2729C199.273 32.1491 196.974 35.8688 197.85 39.5812C198.726 43.2936 202.446 45.5927 206.158 44.7165Z" fill="black"/>
<path d="M216.509 42.8906C216.509 42.8906 215.386 48.1519 214.942 49.011C214.645 49.5484 214.152 49.9506 213.566 50.134L213.645 46.4337L216.509 42.8906Z" fill="#053D38"/>
<path opacity="0.5" d="M216.509 42.8906C216.509 42.8906 215.386 48.1519 214.942 49.011C214.645 49.5484 214.152 49.9506 213.566 50.134L213.645 46.4337L216.509 42.8906Z" fill="black"/>
<path d="M215.105 35.3612C215.497 35.3154 215.894 35.36 216.266 35.4914C216.637 35.6228 216.974 35.8375 217.25 36.1192C218.171 37.057 217.654 40.0049 216.509 42.891L214.403 43.1381L215.105 35.3612Z" fill="#053D38"/>
<path opacity="0.5" d="M215.105 35.3612C215.497 35.3154 215.894 35.36 216.266 35.4914C216.637 35.6228 216.974 35.8375 217.25 36.1192C218.171 37.057 217.654 40.0049 216.509 42.891L214.403 43.1381L215.105 35.3612Z" fill="black"/>
<path d="M213.768 43.139C214.19 43.3916 214.796 42.5775 215.313 42.0159C215.829 41.4544 217.559 40.7245 218.384 42.5157C219.209 44.3069 217.637 46.7438 216.295 47.165C213.987 47.8893 213.645 46.4069 213.645 46.4069L213.493 55.0092C210.624 58.6871 202.662 58.3782 205.98 54.5319V51.9995C204.952 52.1623 203.909 52.215 202.87 52.1567C201.185 51.8928 200.101 50.5564 199.585 48.7203C198.759 45.7668 198.462 43.386 199.147 37.5801C199.916 31.2182 207.317 31.1508 211.315 33.6495C215.313 36.1482 213.768 43.139 213.768 43.139Z" fill="#FFA8A7"/>
<path d="M213.769 43.845C213.982 43.845 214.791 42.5086 215.313 42.0313C216.043 41.3688 215.105 35.3606 215.105 35.3606C215.297 34.841 215.333 34.2766 215.208 33.7369C215.083 33.1972 214.804 32.7057 214.403 32.3229C213.404 31.1999 211.736 31.1044 208.884 30.6384C207.39 30.4026 205.121 29.987 203.628 29.7063C201.848 29.375 200.371 29.0269 199.136 30.1218C198.641 30.548 198.291 31.1173 198.134 31.751C197.977 32.3847 198.021 33.0516 198.26 33.6593C198.612 34.4163 199.241 35.0092 200.017 35.3157C200.017 35.3157 200.792 36.0064 203.499 36.3377C205.995 36.5225 208.502 36.4736 210.989 36.1917C211.775 36.085 211.944 36.8486 212.365 38.9206C212.747 40.7455 213.056 43.8338 213.769 43.845Z" fill="#053D38"/>
<path opacity="0.5" d="M213.769 43.845C213.982 43.845 214.791 42.5086 215.313 42.0313C216.043 41.3688 215.105 35.3606 215.105 35.3606C215.297 34.841 215.333 34.2766 215.208 33.7369C215.083 33.1972 214.804 32.7057 214.403 32.3229C213.404 31.1999 211.736 31.1044 208.884 30.6384C207.39 30.4026 205.121 29.987 203.628 29.7063C201.848 29.375 200.371 29.0269 199.136 30.1218C198.641 30.548 198.291 31.1173 198.134 31.751C197.977 32.3847 198.021 33.0516 198.26 33.6593C198.612 34.4163 199.241 35.0092 200.017 35.3157C200.017 35.3157 200.792 36.0064 203.499 36.3377C205.995 36.5225 208.502 36.4736 210.989 36.1917C211.775 36.085 211.944 36.8486 212.365 38.9206C212.747 40.7455 213.056 43.8338 213.769 43.845Z" fill="black"/>
<path d="M215.099 35.8269L217.654 34.4568C217.572 34.2873 217.457 34.136 217.316 34.0117C217.175 33.8873 217.01 33.7925 216.832 33.7329C216.653 33.6732 216.465 33.6499 216.277 33.6643C216.089 33.6787 215.907 33.7305 215.739 33.8167C215.394 34.0051 215.136 34.3191 215.016 34.6935C214.897 35.0679 214.927 35.4738 215.099 35.8269Z" fill="#053D38"/>
<path opacity="0.5" d="M215.099 35.8269L217.654 34.4568C217.572 34.2873 217.457 34.136 217.316 34.0117C217.175 33.8873 217.01 33.7925 216.832 33.7329C216.653 33.6732 216.465 33.6499 216.277 33.6643C216.089 33.6787 215.907 33.7305 215.739 33.8167C215.394 34.0051 215.136 34.3191 215.016 34.6935C214.897 35.0679 214.927 35.4738 215.099 35.8269Z" fill="black"/>
<path d="M205.964 51.9975C205.964 51.9975 209.754 51.2338 211.079 50.5263C211.867 50.1223 212.514 49.4877 212.932 48.707C212.733 49.4809 212.38 50.2066 211.893 50.8408C210.922 52.0817 205.986 52.9913 205.986 52.9913L205.964 51.9975Z" fill="#F28F8F"/>
<path d="M206.148 42.1906C206.153 42.3395 206.201 42.4838 206.287 42.6055C206.373 42.7272 206.493 42.8208 206.632 42.8748C206.77 42.9287 206.922 42.9406 207.068 42.9088C207.213 42.8771 207.346 42.8032 207.45 42.6963C207.554 42.5895 207.624 42.4544 207.651 42.308C207.679 42.1616 207.662 42.0104 207.604 41.8732C207.546 41.7359 207.449 41.6189 207.325 41.5365C207.201 41.4542 207.055 41.4102 206.906 41.4102C206.703 41.4146 206.509 41.4989 206.367 41.645C206.226 41.791 206.147 41.9871 206.148 42.1906Z" fill="#263238"/>
<path d="M206.952 39.3173L208.581 40.2157C208.695 39.9926 208.719 39.7341 208.648 39.4937C208.577 39.2533 208.416 39.0495 208.199 38.9243C208.092 38.8654 207.974 38.8289 207.852 38.8169C207.731 38.8049 207.608 38.8176 207.491 38.8543C207.375 38.8911 207.267 38.951 207.174 39.0306C207.082 39.1102 207.006 39.2077 206.952 39.3173Z" fill="#263238"/>
<path d="M206.306 47.4336L204.571 48.0849C204.61 48.2003 204.672 48.3068 204.753 48.3978C204.834 48.4889 204.932 48.5629 205.042 48.6152C205.152 48.6676 205.271 48.6973 205.393 48.7027C205.515 48.7081 205.636 48.6889 205.75 48.6464C205.981 48.5546 206.168 48.3773 206.271 48.1514C206.375 47.9255 206.388 47.6684 206.306 47.4336Z" fill="#F28F8F"/>
<path d="M199.596 39.9536L201.079 38.8306C201.012 38.7277 200.925 38.6395 200.823 38.5716C200.721 38.5036 200.606 38.4574 200.486 38.4358C200.365 38.4143 200.241 38.4177 200.122 38.446C200.003 38.4743 199.891 38.5269 199.793 38.6004C199.59 38.7554 199.455 38.9839 199.418 39.2369C199.382 39.4899 199.445 39.7472 199.596 39.9536Z" fill="#263238"/>
<path d="M200.051 41.9675C200.056 42.1172 200.106 42.262 200.193 42.3838C200.28 42.5057 200.401 42.5992 200.541 42.6527C200.681 42.7062 200.834 42.7174 200.98 42.6848C201.126 42.6523 201.26 42.5774 201.364 42.4696C201.468 42.3617 201.538 42.2257 201.565 42.0784C201.592 41.9311 201.576 41.779 201.517 41.6411C201.459 41.5032 201.361 41.3855 201.236 41.3028C201.111 41.2201 200.964 41.1759 200.815 41.1758C200.712 41.1772 200.611 41.1989 200.518 41.2396C200.424 41.2802 200.339 41.339 200.268 41.4126C200.197 41.4862 200.141 41.5732 200.104 41.6684C200.067 41.7636 200.049 41.8653 200.051 41.9675Z" fill="#263238"/>
<path d="M203.92 41.25L203.673 45.8207L201.286 45.0065L203.92 41.25Z" fill="#F28F8F"/>
<path d="M213.611 161.93V161.212C213.129 161.425 212.011 165.704 210.018 167.501C208.434 168.949 206.273 170.617 205.722 172.229C205.172 173.84 208.732 174.828 210.214 174.57C211.933 174.261 214.914 173.054 215.667 171.931C216.419 170.808 216.762 169.151 217.351 168.326C217.941 167.501 219.361 166.585 219.687 165.631C219.867 165.109 219.653 163.946 219.401 162.997C219.148 162.048 218.918 161.133 218.614 161.212C218.614 161.324 218.614 161.773 218.614 161.773C217.897 162.335 217.01 162.634 216.099 162.621C215.386 162.638 213.606 162.492 213.611 161.93Z" fill="#263238"/>
<path d="M199.658 156.602C199.394 156.602 199.181 156.979 198.608 157.602C197.749 158.471 196.751 159.19 195.655 159.73C193.774 160.668 190.113 162.116 188.456 162.863C187.423 163.329 187.474 164.581 188.54 165.289C189.607 165.996 192.19 166.513 195.278 165.822C196.963 165.441 199.164 163.885 200.557 163.969C201.949 164.054 204.549 164.031 205.576 163.324C206.604 162.616 206.194 161.106 205.902 159.803C205.588 158.388 205.189 156.176 204.723 156.277V156.765C204.117 157.681 201 158.051 199.669 157.377L199.658 156.602Z" fill="#263238"/>
<path d="M207.957 103.087C205.36 102.279 202.972 100.91 200.961 99.0781C200.961 99.0781 202.309 101.605 206.323 103.958L205.762 121.718L207.957 103.087Z" fill="#263238"/>
<path d="M58.9308 70.7969H60.722C63.3892 70.7969 65.9471 71.8564 67.8331 73.7424C69.7191 75.6284 70.7786 78.1863 70.7786 80.8534V102.191H48.8799V80.8534C48.8799 78.1863 49.9394 75.6284 51.8254 73.7424C53.7114 71.8564 56.2693 70.7969 58.9364 70.7969H58.9308Z" fill="#263238"/>
<path d="M58.2111 207.09L56.8017 205.838C55.4373 204.591 54.3985 202.469 53.7977 201.042C53.4586 200.219 53.2831 199.338 53.2811 198.448V195.641H48.3623V200.206V200.312C48.5981 201.334 50.861 204.058 52.1412 205.832C53.006 207.022 54.6399 208.533 56.594 208.797C58.4638 209.077 59.4127 208.493 58.2111 207.09Z" fill="#FFA8A7"/>
<path d="M72.4349 199.6C72.5728 199.52 72.6932 199.413 72.7886 199.286C73.1704 198.758 72.8672 198.471 72.5865 198.05C72.2493 197.466 71.9673 196.851 71.7442 196.214C71.514 195.653 71.2164 194.653 71.2164 194.653C71.2164 194.653 71.2164 193.918 71.2164 193.62V190.812H66.292V195.501C66.5447 196.624 67.5442 197.652 68.1955 198.522C68.7009 199.196 70.0035 199.538 70.7897 199.707C71.1341 199.795 71.4919 199.82 71.8453 199.78C72.0516 199.758 72.2518 199.697 72.4349 199.6Z" fill="#FFA8A7"/>
<path d="M49.3398 123.871C45.5215 132.21 49.4801 161.576 49.4801 161.576C49.3622 162.93 47.7956 165.591 47.2341 171.543C46.5547 178.579 48.301 196.249 48.301 196.249C49.0526 196.685 49.899 196.93 50.7669 196.964C51.6348 196.999 52.498 196.821 53.2815 196.446C53.2815 196.446 57.9701 169.842 58.8517 162.845C59.6209 156.742 61.0977 143.322 61.0977 143.322L64.0344 162.84C63.4242 164.809 62.9827 166.826 62.7148 168.87C62.3162 172.981 66.3028 192.139 66.3028 192.139C66.3028 192.139 67.9874 192.762 71.2272 192.285C71.2272 192.285 72.6366 166.866 73.0072 161.908C73.6305 153.586 72.6815 127.588 71.1542 122.664L49.3398 123.871Z" fill="#37474F"/>
<path d="M61.1094 143.317L62.3447 135.574C62.3447 135.574 67.5891 134.485 69.9643 132.25C69.9643 132.25 67.4712 135.355 63.7878 136.371L62.3952 142.329L63.6418 160.016L61.1094 143.317Z" fill="#263238"/>
<path d="M53.2985 199.471V198.758C53.7702 198.966 54.8707 203.154 56.8304 204.934C58.3857 206.355 60.5138 207.995 61.0529 209.578C61.5919 211.161 58.0938 212.133 56.6395 211.88C54.9549 211.577 52.0239 210.387 51.2883 209.286C50.5527 208.185 50.2046 206.557 49.6038 205.749C49.003 204.94 47.6273 204.042 47.2904 203.121C47.1107 202.61 47.3241 201.481 47.5711 200.532C47.8182 199.583 48.0484 198.702 48.346 198.78V199.342C49.0488 199.893 49.9182 200.188 50.811 200.178C51.5522 200.167 53.3041 200.021 53.2985 199.471Z" fill="#263238"/>
<path d="M71.2164 194.652C71.4691 194.652 71.7779 195.045 72.3394 195.657C73.184 196.51 74.1651 197.216 75.2424 197.746C77.0897 198.673 80.6834 200.093 82.3117 200.829C83.3281 201.284 83.2775 202.513 82.2275 203.21C81.1775 203.906 78.6451 204.411 75.6018 203.732C73.9172 203.361 71.7835 201.828 70.4134 201.912C69.0434 201.997 66.4829 201.974 65.4834 201.278C64.4839 200.582 64.877 199.099 65.1634 197.825C65.4778 196.432 65.8653 194.259 66.3257 194.355V194.837C66.9209 195.736 69.9811 196.101 71.2838 195.438L71.2164 194.652Z" fill="#263238"/>
<path d="M64.2196 94.6833C65.4169 94.5781 66.6211 94.7808 67.7179 95.2722C68.8147 95.7636 69.7676 96.5273 70.486 97.4908C72.4569 100.063 77.6452 110.596 77.6452 110.596C77.6452 110.596 89.0382 109.833 89.5828 109.176C90.1275 108.519 89.8243 107.182 89.6727 106.447C89.5211 105.711 89.274 104.083 89.1112 103.639C88.8248 102.836 90.0096 103.078 90.7058 103.802C91.4021 104.527 91.7109 106.009 92.0591 106.262C92.4072 106.514 95.0519 103.454 96.3321 102C97.6124 100.545 98.2188 99.5067 99.0779 100.113C99.7012 100.551 99.3025 101.421 98.3816 102.679C97.9515 103.216 97.554 103.779 97.1912 104.364C97.0845 104.594 97.4215 104.774 97.5562 104.891C97.8089 105.116 98.2469 105.481 98.2806 105.829C98.275 106.017 98.2863 106.205 98.3142 106.391C98.4322 106.812 98.9544 107.008 99.1004 107.418C99.207 107.716 99.1004 108.047 99.1453 108.356C99.1846 108.553 99.2969 108.732 99.3306 108.917C99.344 109.116 99.3143 109.315 99.2435 109.501C99.1728 109.687 99.0626 109.856 98.9207 109.996C98.0166 111.068 96.7869 111.478 95.6022 112.135C94.6195 112.696 93.6088 112.915 92.4746 113.421C91.3403 113.926 77.4936 117.509 75.4217 116.357C73.3497 115.206 65.4044 102.73 65.4044 102.73C62.3049 97.5919 64.2196 94.6833 64.2196 94.6833Z" fill="#FFA8A7"/>
<path d="M56.0722 94.9097C51.1814 95.2466 50.8389 97.6105 49.6148 100.193C48.6771 102.164 48.986 104.511 49.6991 106.567L52.793 116.365C52.793 116.365 51.1927 120.228 49.3397 123.872C57.8971 128.651 68.5825 126.118 71.1542 122.654C71.2665 121.912 70.5927 116.135 70.1996 112.356C71.7045 108.577 72.1031 106.179 71.4686 103.68C70.2839 99.0423 65.702 94.5222 63.6749 94.6963L56.0722 94.9097Z" fill="#053D38"/>
<path d="M48.3462 75.3164L49.8286 77.6972C49.6773 77.8022 49.5063 77.8754 49.3258 77.9125C49.1454 77.9496 48.9594 77.9498 48.7789 77.9131C48.5984 77.8763 48.4272 77.8035 48.2757 77.6988C48.1241 77.5942 47.9953 77.4599 47.897 77.3041C47.7036 76.9782 47.6424 76.5905 47.7259 76.2208C47.8095 75.8511 48.0314 75.5275 48.3462 75.3164Z" fill="#263238"/>
<path d="M67.1846 75.2266C68.3413 75.906 69.7675 78.8146 69.6271 84.9182C69.5092 90.084 67.8303 91.3642 66.9936 91.7292C66.157 92.0942 64.5286 91.8752 62.9508 91.6113V94.7164C62.9508 94.7164 65.1294 97.2488 64.9947 98.647C64.8599 100.045 61.8446 100.404 59.8064 99.0176C58.4758 98.0664 57.3334 96.8764 56.4373 95.5082V88.012C56.4373 88.012 55.3761 89.4327 53.6298 88.276C51.8835 87.1193 51.8218 84.2556 52.8325 83.2224C53.8432 82.1892 56.0274 82.5205 56.4317 83.9411C56.4317 83.9411 58.9473 84.031 62.2995 82.1948C63.6033 81.498 64.7249 80.5042 65.5735 79.2937C66.4222 78.0831 66.9741 76.6899 67.1846 75.2266Z" fill="#FFA8A7"/>
<path d="M63.2762 83.6171C63.2783 83.7449 63.2427 83.8705 63.1738 83.9782C63.105 84.0859 63.006 84.171 62.8891 84.2228C62.7723 84.2746 62.6428 84.291 62.5167 84.2697C62.3907 84.2485 62.2737 84.1906 62.1803 84.1033C62.0869 84.0161 62.0212 83.9032 61.9915 83.7789C61.9618 83.6546 61.9693 83.5243 62.0131 83.4042C62.0569 83.2841 62.1351 83.1796 62.2379 83.1036C62.3407 83.0276 62.4636 82.9836 62.5912 82.977C62.6782 82.974 62.765 82.9881 62.8465 83.0187C62.9281 83.0492 63.0028 83.0956 63.0664 83.155C63.13 83.2145 63.1813 83.2859 63.2173 83.3652C63.2533 83.4444 63.2733 83.53 63.2762 83.6171Z" fill="#263238"/>
<path d="M64.0277 88.0117L65.5382 88.4946C65.513 88.5974 65.4671 88.694 65.4033 88.7786C65.3396 88.8631 65.2593 88.9338 65.1674 88.9863C65.0755 89.0388 64.9738 89.0721 64.8686 89.0841C64.7635 89.0961 64.6569 89.0866 64.5555 89.0561C64.3476 88.9868 64.1755 88.8382 64.0766 88.6426C63.9778 88.447 63.9602 88.2202 64.0277 88.0117Z" fill="#F28F8F"/>
<path d="M68.6284 81.6249L67.292 80.7153C67.3471 80.6264 67.4199 80.5497 67.5057 80.4898C67.5915 80.43 67.6886 80.3883 67.7911 80.3673C67.8936 80.3462 67.9993 80.3463 68.1017 80.3676C68.2042 80.3888 68.3012 80.4307 68.3869 80.4907C68.5659 80.6119 68.691 80.7978 68.736 81.0092C68.7811 81.2206 68.7425 81.4413 68.6284 81.6249Z" fill="#263238"/>
<path d="M68.302 83.1508C68.3089 83.2372 68.2984 83.3242 68.2712 83.4066C68.244 83.489 68.2006 83.5651 68.1436 83.6305C68.0866 83.6958 68.0171 83.7492 67.9392 83.7873C67.8613 83.8255 67.7766 83.8477 67.6899 83.8527C67.5559 83.8648 67.4214 83.8366 67.3035 83.7717C67.1857 83.7067 67.09 83.6079 67.0288 83.4881C66.9676 83.3683 66.9437 83.2329 66.9601 83.0993C66.9766 82.9658 67.0326 82.8402 67.121 82.7388C67.2095 82.6374 67.3262 82.5647 67.4563 82.5303C67.5864 82.4958 67.7238 82.5011 67.8508 82.5454C67.9779 82.5897 68.0888 82.6711 68.1692 82.779C68.2496 82.8869 68.2958 83.0164 68.302 83.1508Z" fill="#263238"/>
<path d="M65.1289 82.7734L65.23 86.6871L67.2907 86.0526L65.1289 82.7734Z" fill="#F28F8F"/>
<path d="M62.951 91.6134C61.2665 91.3945 57.8974 90.4118 57.3359 89.0586C57.5465 89.7447 57.9643 90.3489 58.5319 90.788C59.5539 91.664 62.951 92.6466 62.951 92.6466V91.6134Z" fill="#F28F8F"/>
<path opacity="0.1" d="M58.2615 124.797C55.9312 124.235 53.5673 121.697 54.6341 119.21C54.9382 118.511 55.4603 117.93 56.1221 117.553C56.3662 117.414 56.6478 117.356 56.9271 117.386C57.2063 117.416 57.4688 117.534 57.6775 117.722C56.5545 116.986 54.6285 113.409 54.3702 112.107L53.0507 107.704C52.9279 106.697 53.0178 105.676 53.3146 104.706L49.8726 100.73L49.2381 101.168C48.6766 102.892 49.1033 104.841 49.6985 106.565L52.7924 116.363C52.7924 116.363 51.1921 120.226 49.3391 123.87C52.1237 125.365 55.1964 126.246 58.3501 126.454C61.5039 126.661 64.6655 126.19 67.6218 125.072C64.5122 125.571 61.3364 125.477 58.2615 124.797Z" fill="black"/>
<path d="M98.6785 222.492L87.5495 216.068C86.3928 215.383 85.7471 213.665 85.7471 211.452L85.7021 162.641L96.9323 169.115L96.8873 218.084C96.8705 220.24 97.5668 221.778 98.6785 222.492Z" fill="#053D38"/>
<path opacity="0.2" d="M98.6785 222.492L87.5495 216.068C86.3928 215.383 85.7471 213.665 85.7471 211.452L85.7021 162.641L96.9323 169.115L96.8873 218.084C96.8705 220.24 97.5668 221.778 98.6785 222.492Z" fill="black"/>
<path d="M98.7574 222.534L98.6788 222.489C97.5558 221.776 96.8707 220.243 96.8707 218.082L96.9157 169.113L85.6855 162.639L95.3827 156.984L95.4726 156.934L96.8483 156.136L98.398 155.058L98.4598 155.019L98.5216 154.974C98.6058 154.918 98.6732 154.856 98.7462 154.8L98.836 154.738L99.1055 154.536L99.3638 154.334C99.4349 154.267 99.5079 154.205 99.5828 154.149L99.667 154.081L99.7456 154.014C99.8916 153.902 100.032 153.778 100.167 153.66L100.38 153.464L100.459 153.379C100.723 153.138 100.987 152.874 101.228 152.61L101.318 152.526C101.419 152.417 101.514 152.311 101.604 152.206C101.652 152.155 101.695 152.101 101.733 152.043C101.779 152 101.82 151.953 101.857 151.903V151.863L101.891 151.813L101.952 151.745L102.25 151.369C102.329 151.257 102.413 151.139 102.486 151.021L102.548 150.948V150.914C102.654 150.763 102.75 150.611 102.845 150.46C102.941 150.308 103.008 150.196 103.087 150.061L103.115 150.01C103.176 149.887 103.244 149.774 103.306 149.651L103.401 149.477C103.48 149.325 103.553 149.174 103.62 149.016L103.744 148.73C103.793 148.636 103.834 148.539 103.867 148.438C103.908 148.359 103.942 148.276 103.968 148.191C103.996 148.112 104.036 148.023 104.064 147.944C104.137 147.747 104.198 147.545 104.266 147.338C104.316 147.175 104.372 147.001 104.417 146.827C104.417 146.827 104.417 146.782 104.417 146.754C104.474 146.568 104.513 146.377 104.552 146.192V146.13C104.552 145.984 104.62 145.833 104.648 145.676C104.687 145.462 104.732 145.215 104.76 144.985V144.867C104.76 144.816 104.76 144.766 104.76 144.71C104.763 144.689 104.763 144.668 104.76 144.648C104.757 144.596 104.757 144.543 104.76 144.491C104.788 144.216 104.81 143.929 104.833 143.682V143.559V143.25C104.833 142.846 104.844 142.436 104.867 142.02V141.919C104.867 141.801 104.867 141.694 104.867 141.571V141.268C104.867 141.133 104.867 140.987 104.867 140.858C104.87 140.822 104.87 140.787 104.867 140.751C104.869 140.716 104.869 140.68 104.867 140.644V140.493C104.867 140.285 104.839 140.083 104.822 139.898V139.864C104.822 139.684 104.782 139.516 104.766 139.353C104.664 138.594 104.508 137.844 104.299 137.107C104.17 136.658 104.03 136.248 103.906 135.86C103.579 134.981 103.349 134.067 103.221 133.137C103.221 132.952 103.176 132.761 103.16 132.576C103.143 132.39 103.16 132.143 103.12 131.913V131.812C103.115 131.758 103.115 131.703 103.12 131.649C103.109 131.531 103.109 131.413 103.12 131.295C103.12 128.707 104.693 125.68 106.641 124.557C106.834 124.443 107.042 124.357 107.259 124.299C107.398 124.261 107.541 124.238 107.685 124.232C107.823 124.214 107.963 124.214 108.101 124.232C108.168 124.241 108.233 124.256 108.297 124.277C108.493 124.335 108.682 124.416 108.859 124.518L120.286 131.026C120.352 131.063 120.415 131.104 120.476 131.149C121.139 131.655 121.51 132.615 121.51 133.861C121.51 134.03 121.51 134.204 121.476 134.473V134.546C121.399 136.167 121.139 137.774 120.701 139.336C120.606 139.735 120.51 140.133 120.42 140.555C120.381 140.695 120.353 140.841 120.325 140.981C120.224 141.408 120.134 141.852 120.061 142.329C120.033 142.481 120.01 142.643 119.988 142.801L127.849 138.348L139.079 144.822V157.703C139.079 161.319 138.804 163.734 138.242 165.081C137.849 166.013 137.249 166.597 135.862 167.395C134.773 168.067 133.525 168.437 132.246 168.467C131.841 168.467 131.459 168.54 131.072 168.591L130.617 168.669C130.471 168.697 130.331 168.725 130.179 168.765C129.91 168.826 129.618 168.916 129.348 169.006L129.124 169.09C128.7 169.254 128.286 169.442 127.883 169.652C127.831 169.672 127.782 169.699 127.737 169.73H127.697L127.63 169.764C127.478 169.831 127.304 169.916 127.125 170.017C125.46 171.052 124.047 172.445 122.986 174.093C122.425 174.928 121.931 175.807 121.51 176.721C121.108 177.586 120.767 178.477 120.488 179.388L121.105 178.731C121.69 178.074 122.312 177.451 122.97 176.867C123.518 176.393 124.11 175.972 124.738 175.609C125.637 175.093 126.355 174.677 126.889 175.009L138.018 181.64L138.147 181.735C138.178 181.765 138.206 181.796 138.231 181.831C138.252 181.844 138.267 181.864 138.276 181.887C138.309 181.923 138.337 181.963 138.36 182.005C138.36 182.005 138.36 182.005 138.36 182.033C138.395 182.087 138.425 182.143 138.45 182.201C138.737 182.808 138.928 183.886 139.012 185.694C139.012 185.891 139.012 186.098 139.012 186.323C139.012 186.884 139.012 187.525 139.012 188.226V201.102L102.345 222.271C101.749 222.636 101.077 222.859 100.38 222.922C100.16 222.942 99.938 222.942 99.7176 222.922C99.6445 222.918 99.5725 222.903 99.5042 222.877C99.2398 222.8 98.9882 222.685 98.7574 222.534Z" fill="#053D38"/>
<path opacity="0.1" d="M126.883 175.009L138 181.641C137.473 181.304 136.748 181.73 135.85 182.247C135.222 182.607 134.632 183.029 134.087 183.505C133.425 184.084 132.8 184.705 132.217 185.363C130.932 186.853 129.454 188.164 127.82 189.26C127.601 189.417 127.343 189.58 127.102 189.721C123.031 192.073 119.718 189.569 119.718 184.139C119.738 182.523 119.997 180.918 120.487 179.378C120.695 179.159 120.891 178.94 121.093 178.732C121.678 178.075 122.3 177.452 122.958 176.868C123.504 176.393 124.094 175.972 124.721 175.61C125.625 175.093 126.355 174.678 126.883 175.009Z" fill="black"/>
<path opacity="0.1" d="M119.955 142.806L127.855 138.348L139.085 144.827L129.433 150.398L126.53 151.914H126.496H126.468L126.26 152.003L126.154 152.043L125.671 152.239L125.401 152.335L125.328 152.363C125.171 152.413 125.019 152.47 124.873 152.509L124.559 152.593C124.396 152.638 124.244 152.666 124.093 152.694H124.042L123.835 152.728C123.648 152.753 123.461 152.768 123.273 152.773H123.093C122.875 152.77 122.657 152.747 122.442 152.705L122.33 152.677C122.164 152.632 122.003 152.574 121.847 152.503C121.801 152.488 121.757 152.465 121.718 152.436C121.577 152.355 121.442 152.265 121.313 152.166H121.285L121.19 152.082C121.045 151.948 120.913 151.799 120.797 151.638L120.741 151.571C120.437 151.104 120.214 150.59 120.078 150.049L120.05 149.954C119.977 149.668 119.927 149.392 119.876 149.084V148.932C119.825 148.595 119.786 148.236 119.764 147.871C119.73 147.388 119.719 146.967 119.719 146.546C119.703 145.295 119.782 144.045 119.955 142.806Z" fill="black"/>
<path opacity="0.1" d="M96.9157 169.115L85.6855 162.641L95.3827 156.986L95.467 156.936H95.5007L96.8764 156.138L98.4317 155.06L98.4879 155.021L98.5496 154.976C98.6339 154.92 98.7012 154.858 98.7742 154.802L98.8585 154.74L99.1336 154.538L99.3919 154.336C99.463 154.268 99.536 154.207 99.6109 154.151L99.6951 154.083L99.7737 154.016C99.9197 153.903 100.06 153.78 100.195 153.662L100.408 153.466L100.487 153.381C100.751 153.14 101.015 152.876 101.256 152.612L101.346 152.528C101.447 152.419 101.542 152.313 101.632 152.208C101.68 152.157 101.723 152.103 101.761 152.045C101.806 152 101.84 151.949 101.879 151.905L101.913 151.865L101.952 151.82L102.009 151.747C102.11 151.624 102.216 151.5 102.306 151.371L102.548 151.029L102.604 150.95V150.916C102.71 150.765 102.806 150.613 102.901 150.461C102.997 150.31 103.064 150.198 103.143 150.063V150.007C103.21 149.889 103.278 149.776 103.339 149.653C103.376 149.597 103.41 149.539 103.44 149.479C103.508 149.322 103.586 149.17 103.654 149.018L103.777 148.732C103.822 148.642 103.861 148.547 103.906 148.446C103.951 148.345 103.974 148.283 104.002 148.193C104.03 148.103 104.069 148.025 104.097 147.946C104.17 147.744 104.232 147.553 104.299 147.339C104.35 147.177 104.406 147.003 104.451 146.829C104.451 146.829 104.451 146.784 104.451 146.756C104.496 146.576 104.547 146.379 104.586 146.194V146.138C104.614 145.981 104.648 145.835 104.676 145.677C104.715 145.464 104.76 145.217 104.788 144.987V144.869C104.788 144.824 104.788 144.768 104.788 144.712C104.791 144.691 104.791 144.67 104.788 144.65C104.788 144.599 104.788 144.543 104.788 144.487C104.822 144.206 104.844 143.926 104.861 143.684V143.561C104.861 143.454 104.861 143.364 104.861 143.252C104.861 142.847 104.872 142.438 104.895 142.022V141.921C104.895 141.803 104.895 141.696 104.895 141.573V141.27C104.895 141.135 104.895 140.989 104.895 140.854V140.753C104.897 140.718 104.897 140.682 104.895 140.646V140.495C104.895 140.287 104.867 140.085 104.85 139.9V139.86L104.799 139.355C104.698 138.596 104.542 137.845 104.333 137.109C104.21 136.654 104.069 136.244 103.94 135.862C103.612 134.983 103.382 134.069 103.255 133.139C103.255 132.954 103.21 132.763 103.193 132.577C103.176 132.392 103.193 132.151 103.16 131.915V131.814C103.16 131.758 103.16 131.702 103.16 131.645C103.149 131.528 103.149 131.409 103.16 131.292C103.16 128.703 104.732 125.677 106.68 124.554C106.873 124.44 107.081 124.353 107.298 124.295C107.437 124.257 107.58 124.235 107.725 124.228C107.862 124.205 108.003 124.205 108.14 124.228C108.207 124.237 108.273 124.252 108.337 124.273C108.533 124.331 108.721 124.412 108.898 124.514L120.286 131.028C120.047 130.89 119.78 130.809 119.505 130.792C119.305 130.784 119.105 130.801 118.91 130.842C118.583 130.916 118.27 131.041 117.983 131.213C117.64 131.417 117.322 131.66 117.034 131.937C116.249 132.711 115.625 133.633 115.198 134.649C115.097 134.868 115.019 135.093 114.934 135.323C114.828 135.646 114.74 135.974 114.67 136.306C114.547 136.84 114.483 137.386 114.48 137.934C114.48 138.086 114.48 138.26 114.48 138.451V138.507C114.503 139.417 114.633 140.322 114.867 141.202C114.901 141.348 114.946 141.489 114.985 141.629C115.075 141.915 115.165 142.19 115.254 142.471C115.384 142.859 115.524 143.263 115.653 143.718C115.698 143.875 115.737 144.032 115.777 144.189C115.816 144.347 115.855 144.521 115.9 144.695C116.025 145.281 116.117 145.873 116.175 146.469V146.497C116.17 146.596 116.17 146.696 116.175 146.795V147.098V147.177V147.255C116.175 147.323 116.175 147.39 116.175 147.463C116.181 147.532 116.181 147.602 116.175 147.671C116.175 147.738 116.175 147.811 116.175 147.879V148.187C116.175 148.294 116.175 148.406 116.175 148.53V148.58C116.175 148.788 116.175 148.996 116.175 149.204C116.175 149.411 116.175 149.614 116.147 149.821C116.147 149.922 116.147 150.029 116.147 150.125V150.248C116.147 150.512 116.108 150.782 116.074 151.051C116.074 151.18 116.041 151.304 116.024 151.438V151.545L115.906 152.247L115.805 152.702V152.758C115.805 152.865 115.76 152.971 115.726 153.084C115.692 153.196 115.67 153.297 115.642 153.393C115.614 153.488 115.642 153.482 115.614 153.527C115.586 153.572 115.53 153.78 115.496 153.909C115.434 154.111 115.367 154.313 115.294 154.51C115.221 154.706 115.165 154.847 115.103 155.01C115.041 155.172 114.94 155.397 114.856 155.571L114.626 156.043C114.581 156.127 114.536 156.222 114.485 156.307L114.345 156.571L114.311 156.627C114.276 156.697 114.237 156.764 114.193 156.829L114.154 156.896C114.13 156.94 114.102 156.981 114.07 157.02C113.974 157.177 113.879 157.329 113.778 157.48V157.514L113.722 157.593C113.684 157.651 113.643 157.708 113.598 157.761C113.562 157.819 113.523 157.876 113.48 157.929L113.373 158.07C113.314 158.154 113.25 158.234 113.182 158.311L113.126 158.384L113.065 158.469L112.935 158.62L112.896 158.665C112.896 158.699 112.84 158.738 112.806 158.772L112.66 158.935C112.621 158.985 112.57 159.036 112.52 159.092L112.436 159.176C112.192 159.446 111.933 159.703 111.661 159.945L111.582 160.03L111.363 160.226C111.234 160.35 111.094 160.467 110.948 160.585L110.869 160.647L110.83 160.686L110.79 160.72L110.571 160.9L110.01 161.304L109.926 161.372L109.701 161.54L109.578 161.624L108.022 162.702L106.647 163.5L106.602 163.533L106.512 163.578L96.9157 169.115Z" fill="black"/>
<mask id="mask0_579_21008" style="mask-type:luminance" maskUnits="userSpaceOnUse" x="119" y="113" width="66" height="89">
<path d="M127.115 184.561C127.233 184.494 127.367 184.398 127.513 184.297C128.742 183.468 129.853 182.477 130.815 181.349C131.315 180.788 131.758 180.339 132.264 179.85L132.342 179.772L132.488 179.631L132.556 179.564C132.808 179.328 133.055 179.109 133.303 178.896L137.957 181.675C138.053 181.734 138.137 181.81 138.205 181.9C138.245 181.947 138.28 181.998 138.311 182.051V182.085C138.341 182.136 138.367 182.188 138.39 182.242V182.293L138.457 182.467C138.457 182.467 138.457 182.512 138.457 182.534C138.481 182.597 138.502 182.66 138.519 182.725C138.519 182.753 138.519 182.781 138.519 182.809C138.519 182.837 138.558 182.961 138.581 183.045V183.118C138.581 183.219 138.62 183.326 138.642 183.444C138.642 183.573 138.682 183.708 138.704 183.848V183.882L138.755 184.286C138.755 184.331 138.755 184.376 138.755 184.421L138.788 184.769C138.788 184.831 138.788 184.893 138.788 184.949C138.788 185.005 138.788 185.179 138.817 185.302C138.845 185.426 138.817 185.443 138.817 185.516V185.881C138.817 185.959 138.817 186.044 138.817 186.128C138.817 186.212 138.817 186.392 138.817 186.526C138.817 186.661 138.817 186.689 138.817 186.774C138.817 186.858 138.817 187.094 138.817 187.256V187.481C138.817 187.728 138.817 187.975 138.817 188.239V201.103L184.86 174.51V167.25C184.863 167.207 184.863 167.164 184.86 167.121V113.07L175.202 118.646L175.022 118.753L174.91 118.82L173.007 119.999C172.244 120.504 171.511 121.051 170.811 121.639L170.766 121.678L170.648 121.774C170.474 121.92 170.311 122.071 170.149 122.223L170.104 122.268L169.896 122.47C169.744 122.616 169.598 122.762 169.452 122.914L169.177 123.211C169.042 123.363 168.908 123.514 168.778 123.672C168.649 123.829 168.61 123.879 168.515 124.008C168.419 124.138 168.262 124.334 168.144 124.497L167.942 124.795L167.897 124.873L167.841 124.952C167.745 125.098 167.65 125.244 167.566 125.39C167.481 125.536 167.436 125.609 167.38 125.727L167.33 125.811C167.161 126.125 166.993 126.457 166.847 126.794L166.808 126.878C166.746 127.018 166.678 127.158 166.622 127.304C166.566 127.45 166.51 127.602 166.459 127.754L166.42 127.866C166.358 128.04 166.297 128.209 166.246 128.388C166.196 128.568 166.139 128.753 166.089 128.95C166.038 129.146 165.993 129.332 165.949 129.511C165.904 129.691 165.87 129.882 165.836 130.073C165.803 130.264 165.763 130.477 165.735 130.685V130.724C165.735 130.893 165.685 131.061 165.662 131.235C165.64 131.409 165.617 131.684 165.595 131.926V132.06C165.595 132.19 165.595 132.319 165.567 132.448C165.567 132.723 165.567 133.009 165.567 133.414V133.47C165.567 133.543 165.567 133.61 165.567 133.683C165.522 135.752 165.865 137.81 166.577 139.753C167.048 141.012 167.31 142.34 167.352 143.684V143.745C167.352 143.931 167.38 144.105 167.38 144.262C167.353 145.636 166.999 146.983 166.347 148.193C165.793 149.34 164.932 150.311 163.86 151C163.69 151.095 163.514 151.178 163.332 151.247L163.242 151.281C163.082 151.336 162.916 151.373 162.748 151.393H162.658C162.499 151.41 162.339 151.41 162.181 151.393H162.147C161.987 151.367 161.832 151.318 161.687 151.247L161.642 151.219L156.785 148.367C156.785 148.221 156.785 148.08 156.824 147.934C156.863 147.788 156.863 147.597 156.886 147.429C156.931 147.081 156.976 146.744 157.032 146.418C157.088 146.092 157.133 145.823 157.189 145.537C157.223 145.385 157.251 145.239 157.279 145.099C157.414 144.475 157.554 143.852 157.717 143.184C158.202 141.469 158.459 139.699 158.48 137.917C158.48 136.232 158.334 135.474 157.88 135.205L152.343 132.01L142.944 137.428L139.075 135.182V139.674L135.706 141.634L134.628 142.252L139.12 144.835V151.505V157.716C139.12 161.332 138.845 163.746 138.283 165.094C137.89 166.02 137.289 166.604 135.902 167.407C134.812 168.08 133.562 168.45 132.281 168.48C131.888 168.48 131.495 168.553 131.118 168.603L130.658 168.682C130.517 168.71 130.372 168.738 130.22 168.777C129.939 168.844 129.662 168.924 129.389 169.019H129.333L129.164 169.075C128.74 169.238 128.326 169.426 127.923 169.636L127.772 169.709H127.738H127.671C127.496 169.784 127.325 169.869 127.16 169.962C125.498 170.997 124.088 172.389 123.033 174.039C122.763 174.432 122.51 174.842 122.269 175.263L122.174 175.448C121.966 175.819 121.769 176.195 121.612 176.571L121.573 176.661C121.171 177.525 120.829 178.416 120.551 179.328C120.299 180.151 120.111 180.992 119.989 181.844L124.908 184.685C125.255 184.856 125.641 184.935 126.028 184.913C126.414 184.892 126.789 184.77 127.115 184.561Z" fill="white"/>
</mask>
<g mask="url(#mask0_579_21008)">
<path d="M139.754 169.165L127.8 162.265L128.064 161.9L128.092 161.866L128.221 161.681C128.412 161.4 128.592 161.119 128.782 160.821L128.833 160.732C129.007 160.423 129.175 160.086 129.338 159.732C129.372 159.648 129.411 159.564 129.445 159.474V159.418C129.529 159.216 129.63 158.974 129.726 158.705C129.771 158.587 129.81 158.469 129.855 158.34V158.267C129.922 158.064 129.99 157.862 130.046 157.655C130.102 157.447 130.141 157.323 130.186 157.149C130.231 156.975 130.276 156.773 130.327 156.588C130.377 156.402 130.405 156.217 130.439 156.026C130.473 155.835 130.512 155.672 130.54 155.498V155.414C130.574 155.246 130.602 155.066 130.63 154.886C130.658 154.707 130.658 154.679 130.675 154.578V154.465C130.798 153.567 130.871 152.623 130.933 151.602V151.489L130.995 148.732V135.621L142.904 142.595V155.712L142.843 158.474V158.581C142.792 159.603 142.713 160.546 142.595 161.439V161.557C142.595 161.664 142.567 161.765 142.551 161.871C142.534 161.978 142.5 162.225 142.466 162.394V162.472C142.438 162.658 142.405 162.826 142.371 163.006C142.337 163.185 142.292 163.371 142.247 163.567C142.202 163.764 142.163 163.949 142.118 164.129C142.073 164.308 142.023 164.471 141.978 164.634C141.933 164.797 141.854 165.044 141.781 165.241V165.325C141.742 165.443 141.697 165.572 141.652 165.69C141.562 165.948 141.456 166.195 141.371 166.403L141.343 166.453L141.242 166.712C141.079 167.06 140.911 167.397 140.737 167.717L140.686 167.807C140.524 168.087 140.344 168.368 140.153 168.666C140.113 168.727 140.068 168.786 140.018 168.84V168.879L139.754 169.165Z" fill="#053D38"/>
<path d="M131.001 191.967L131.035 181.141L130.866 181.315C131.36 180.753 131.815 180.299 132.309 179.816L132.394 179.737L132.54 179.597L132.641 179.541C133.585 178.631 134.633 177.836 135.763 177.171L135.886 177.109H135.914L135.998 177.059C136.268 176.907 136.56 176.772 136.801 176.643C136.874 176.604 136.953 176.576 137.026 176.542L137.105 176.503C137.284 176.435 137.475 176.351 137.666 176.289C137.767 176.244 137.863 176.222 137.952 176.188H137.997C138.16 176.149 138.317 176.104 138.463 176.076C138.609 176.048 138.688 176.031 138.795 176.02C138.933 176.009 139.072 176.009 139.21 176.02C139.315 176.014 139.42 176.014 139.525 176.02C139.648 176.03 139.77 176.051 139.89 176.082H139.94L140.17 176.138C140.288 176.179 140.4 176.232 140.507 176.295C140.628 176.354 140.742 176.423 140.85 176.503C140.98 176.595 141.102 176.699 141.215 176.812C141.279 176.879 141.339 176.95 141.394 177.025L141.434 177.081L141.467 177.12C141.526 177.194 141.58 177.271 141.63 177.351C141.702 177.458 141.765 177.571 141.821 177.688C141.877 177.794 141.928 177.89 141.973 177.996C142.018 178.103 142.085 178.266 142.141 178.412C142.197 178.558 142.214 178.625 142.248 178.738C142.282 178.85 142.343 179.052 142.388 179.22L142.456 179.501V179.546C142.495 179.731 142.54 179.922 142.574 180.108C142.574 180.158 142.574 180.214 142.574 180.27V180.338C142.697 181.13 142.787 182.022 142.849 183.072V183.117L142.911 185.622V198.918L131.001 191.967Z" fill="#053D38"/>
<path d="M124.678 184.662L112.926 177.857C112.145 177.441 111.69 176.352 111.69 174.909C111.74 173.197 112.278 171.535 113.24 170.119L113.465 169.805C113.409 169.895 113.341 169.984 113.285 170.069L125.234 176.97C125.203 177.008 125.175 177.05 125.15 177.093C124.184 178.506 123.646 180.167 123.6 181.877C123.6 183.23 124.015 184.196 124.678 184.662Z" fill="#053D38"/>
<path d="M139.754 169.165L127.8 162.265L128.064 161.9L128.092 161.866L128.221 161.681C128.412 161.4 128.592 161.119 128.782 160.821L128.833 160.732C129.007 160.423 129.175 160.086 129.338 159.732C129.372 159.648 129.411 159.564 129.445 159.474V159.418C129.529 159.216 129.63 158.974 129.726 158.705C129.771 158.587 129.81 158.469 129.855 158.34V158.267C129.922 158.064 129.99 157.862 130.046 157.655C130.102 157.447 130.141 157.323 130.186 157.149C130.231 156.975 130.276 156.773 130.327 156.588C130.377 156.402 130.405 156.217 130.439 156.026C130.473 155.835 130.512 155.672 130.54 155.498V155.414C130.574 155.246 130.602 155.066 130.63 154.886C130.658 154.707 130.658 154.679 130.675 154.578V154.465C130.798 153.567 130.871 152.623 130.933 151.602V151.489L130.995 148.732V135.621L142.904 142.595V155.712L142.843 158.474V158.581C142.792 159.603 142.713 160.546 142.595 161.439V161.557C142.595 161.664 142.567 161.765 142.551 161.871C142.534 161.978 142.5 162.225 142.466 162.394V162.472C142.438 162.658 142.405 162.826 142.371 163.006C142.337 163.185 142.292 163.371 142.247 163.567C142.202 163.764 142.163 163.949 142.118 164.129C142.073 164.308 142.023 164.471 141.978 164.634C141.933 164.797 141.854 165.044 141.781 165.241V165.325C141.742 165.443 141.697 165.572 141.652 165.69C141.562 165.948 141.456 166.195 141.371 166.403L141.343 166.453L141.242 166.712C141.079 167.06 140.911 167.397 140.737 167.717L140.686 167.807C140.524 168.087 140.344 168.368 140.153 168.666C140.113 168.727 140.068 168.786 140.018 168.84V168.879L139.754 169.165Z" fill="#263238"/>
<path d="M131.001 191.967L131.035 181.141L130.866 181.315C131.36 180.753 131.815 180.299 132.309 179.816L132.394 179.737L132.54 179.597L132.641 179.541C133.585 178.631 134.633 177.836 135.763 177.171L135.886 177.109H135.914L135.998 177.059C136.268 176.907 136.56 176.772 136.801 176.643C136.874 176.604 136.953 176.576 137.026 176.542L137.105 176.503C137.284 176.435 137.475 176.351 137.666 176.289C137.767 176.244 137.863 176.222 137.952 176.188H137.997C138.16 176.149 138.317 176.104 138.463 176.076C138.609 176.048 138.688 176.031 138.795 176.02C138.933 176.009 139.072 176.009 139.21 176.02C139.315 176.014 139.42 176.014 139.525 176.02C139.648 176.03 139.77 176.051 139.89 176.082H139.94L140.17 176.138C140.288 176.179 140.4 176.232 140.507 176.295C140.628 176.354 140.742 176.423 140.85 176.503C140.98 176.595 141.102 176.699 141.215 176.812C141.279 176.879 141.339 176.95 141.394 177.025L141.434 177.081L141.467 177.12C141.526 177.194 141.58 177.271 141.63 177.351C141.702 177.458 141.765 177.571 141.821 177.688C141.877 177.794 141.928 177.89 141.973 177.996C142.018 178.103 142.085 178.266 142.141 178.412C142.197 178.558 142.214 178.625 142.248 178.738C142.282 178.85 142.343 179.052 142.388 179.22L142.456 179.501V179.546C142.495 179.731 142.54 179.922 142.574 180.108C142.574 180.158 142.574 180.214 142.574 180.27V180.338C142.697 181.13 142.787 182.022 142.849 183.072V183.117L142.911 185.622V198.918L131.001 191.967Z" fill="#263238"/>
<path d="M124.678 184.662L112.926 177.857C112.145 177.441 111.69 176.352 111.69 174.909C111.74 173.197 112.278 171.535 113.24 170.119L113.465 169.805C113.409 169.895 113.341 169.984 113.285 170.069L125.234 176.97C125.203 177.008 125.175 177.05 125.15 177.093C124.184 178.506 123.646 180.167 123.6 181.877C123.6 183.23 124.015 184.196 124.678 184.662Z" fill="#263238"/>
<path d="M124.779 184.702L124.701 184.657C124.038 184.191 123.622 183.225 123.622 181.894C123.668 180.184 124.206 178.523 125.172 177.11C125.197 177.067 125.225 177.026 125.256 176.987L113.308 170.086C113.364 170.002 113.431 169.912 113.487 169.822C113.639 169.625 113.796 169.44 113.959 169.26C114.035 169.172 114.116 169.088 114.2 169.008C114.283 168.916 114.373 168.832 114.47 168.755C114.701 168.54 114.955 168.352 115.228 168.194C115.328 168.135 115.431 168.083 115.537 168.036L115.672 167.98H115.705C116.202 167.715 116.727 167.51 117.272 167.368L117.463 167.323C117.955 167.223 118.455 167.157 118.956 167.127C120.725 167.065 122.446 166.54 123.948 165.605L124.341 165.364C124.459 165.296 124.566 165.223 124.678 165.145C124.79 165.066 124.852 165.038 124.936 164.982H124.97L125.386 164.678L125.779 164.37L125.852 164.314L125.913 164.257L125.958 164.218L126.127 164.072C126.177 164.027 126.239 163.982 126.29 163.932C126.34 163.881 126.492 163.752 126.593 163.651L126.733 163.511L126.795 163.443L127.042 163.185C127.143 163.078 127.244 162.966 127.34 162.854L127.379 162.809L127.542 162.618C127.615 162.517 127.705 162.416 127.778 162.309L139.738 169.215L139.951 168.923V168.884C140.001 168.83 140.046 168.772 140.086 168.71C140.277 168.418 140.456 168.149 140.619 167.851L140.67 167.761C140.844 167.441 141.012 167.104 141.175 166.756L141.276 166.498L141.304 166.447C141.389 166.239 141.495 165.992 141.585 165.734C141.63 165.616 141.675 165.487 141.714 165.369V165.285C141.787 165.088 141.849 164.886 141.911 164.678C141.972 164.471 142.001 164.347 142.051 164.173C142.102 163.999 142.141 163.797 142.18 163.612C142.22 163.426 142.264 163.247 142.304 163.05C142.343 162.854 142.371 162.702 142.399 162.517V162.438C142.433 162.27 142.455 162.096 142.483 161.916C142.512 161.736 142.512 161.708 142.528 161.601V161.484C142.646 160.591 142.725 159.647 142.775 158.625V158.519L142.837 155.756V142.6L130.928 135.626L135.813 132.819L138.334 131.364L140.58 130.062L141.456 129.568C141.686 129.455 141.894 129.332 142.107 129.231C142.852 128.822 143.639 128.495 144.454 128.254L144.701 128.192C144.955 128.131 145.217 128.112 145.476 128.136C145.622 128.136 145.701 128.265 145.813 128.332L157.863 135.183C157.979 135.258 158.078 135.356 158.155 135.471C158.233 135.586 158.286 135.715 158.312 135.851C158.312 135.946 158.363 136.059 158.385 136.176C158.408 136.294 158.419 136.429 158.436 136.575V136.8C158.436 136.957 158.436 137.125 158.436 137.311C158.436 137.496 158.436 137.693 158.436 137.906C158.436 138.439 158.436 138.922 158.368 139.383C158.368 139.501 158.368 139.613 158.368 139.725C158.368 139.837 158.368 139.944 158.329 140.056C158.29 140.169 158.329 140.27 158.279 140.382C158.228 140.494 158.251 140.596 158.234 140.702C158.194 140.91 158.161 141.112 158.121 141.325C158.082 141.539 158.032 141.735 157.992 141.938C157.987 141.952 157.987 141.968 157.992 141.982C158.958 139.821 159.48 137.488 159.525 135.121C159.525 134.79 159.525 134.458 159.491 134.178C159.435 132.377 159.09 130.597 158.47 128.905C157.936 127.504 157.675 126.013 157.7 124.514C157.7 121.74 157.7 120.213 163.585 116.827L173.192 111.324L185.141 118.225V167.11C185.141 171.181 182.659 175.925 179.61 177.689L142.944 198.857V185.572L142.882 183.068V183.023C142.82 181.984 142.731 181.08 142.607 180.288V180.221C142.607 180.165 142.607 180.109 142.607 180.058C142.573 179.856 142.528 179.665 142.489 179.497V179.452L142.422 179.171C142.377 179.003 142.337 178.845 142.281 178.688C142.225 178.531 142.214 178.469 142.175 178.362C142.135 178.256 142.068 178.076 142.006 177.947C141.944 177.818 141.911 177.745 141.855 177.638C141.799 177.521 141.735 177.409 141.664 177.301C141.613 177.222 141.559 177.145 141.501 177.071L141.467 177.032L141.428 176.975C141.372 176.901 141.312 176.83 141.248 176.762C141.135 176.649 141.013 176.546 140.883 176.453C140.776 176.374 140.661 176.304 140.541 176.246C140.434 176.182 140.321 176.129 140.204 176.088L139.974 176.032H139.923C139.803 176.002 139.681 175.981 139.558 175.97C139.453 175.965 139.348 175.965 139.244 175.97C139.105 175.96 138.966 175.96 138.828 175.97C138.721 175.97 138.615 176.004 138.497 176.027C138.379 176.049 138.194 176.1 138.031 176.139H137.986C137.896 176.173 137.8 176.195 137.699 176.24C137.509 176.302 137.318 176.386 137.138 176.453L137.059 176.493C136.986 176.526 136.908 176.554 136.835 176.594C136.565 176.723 136.301 176.858 136.032 177.009L135.948 177.06H135.919L135.796 177.121C134.652 177.8 133.592 178.612 132.64 179.542L132.567 179.609L132.421 179.749L132.337 179.828C131.843 180.311 131.388 180.794 130.894 181.327C129.931 182.454 128.821 183.446 127.592 184.275C127.446 184.376 127.317 184.472 127.194 184.539C126.865 184.742 126.498 184.874 126.116 184.926C125.88 184.972 125.638 184.972 125.402 184.926C125.183 184.889 124.972 184.813 124.779 184.702Z" fill="#37474F"/>
<path d="M142.95 142.595L131.04 135.621L135.925 132.814L138.446 131.359L140.692 130.057L141.568 129.563C141.798 129.45 142.006 129.327 142.22 129.226C142.965 128.817 143.752 128.49 144.567 128.249L144.814 128.187C145.067 128.126 145.329 128.107 145.589 128.131C145.735 128.131 145.813 128.26 145.926 128.327L157.829 135.183C157.787 135.16 157.742 135.143 157.695 135.133C157.637 135.104 157.574 135.091 157.509 135.093C157.323 135.066 157.134 135.066 156.948 135.093C156.79 135.113 156.634 135.147 156.482 135.195C155.121 135.638 153.82 136.247 152.607 137.008L150.361 138.311L147.835 139.771L142.95 142.595Z" fill="black"/>
<path d="M158.357 155.919C157.234 154.796 156.672 152.904 156.672 150.618C156.667 150.29 156.68 149.962 156.711 149.636C156.711 149.636 156.711 149.636 156.711 149.596C156.711 149.035 156.768 148.513 156.829 147.912C156.829 147.743 156.869 147.581 156.891 147.412C156.93 147.064 156.981 146.722 157.037 146.401C157.093 146.081 157.138 145.806 157.194 145.52C157.228 145.368 157.256 145.222 157.284 145.082C157.419 144.459 157.559 143.835 157.722 143.167C157.829 142.746 157.924 142.342 158.014 141.938C158.974 139.791 159.492 137.472 159.536 135.121C159.536 134.79 159.536 134.464 159.497 134.183C159.443 132.379 159.1 130.595 158.48 128.899C157.949 127.499 157.688 126.011 157.711 124.514C157.711 121.746 157.711 120.218 163.596 116.821L173.203 111.324L185.152 118.225L175.505 123.795C169.621 127.164 169.62 128.72 169.62 131.488C169.591 132.988 169.852 134.479 170.39 135.879C171.005 137.574 171.348 139.355 171.406 141.157C171.406 141.438 171.445 141.763 171.44 142.089C171.44 147.519 168.133 153.853 164.05 156.2C161.838 157.486 159.766 157.379 158.357 155.919Z" fill="black"/>
<path d="M125.234 176.994L113.285 170.093C113.341 170.009 113.409 169.919 113.465 169.829C113.616 169.633 113.774 169.448 113.937 169.268C114.013 169.18 114.093 169.095 114.178 169.015C114.261 168.924 114.351 168.839 114.447 168.762C114.679 168.548 114.933 168.359 115.206 168.201C115.305 168.143 115.409 168.09 115.514 168.044L115.649 167.993H115.683C116.179 167.729 116.705 167.523 117.249 167.381L117.44 167.336C117.933 167.236 118.432 167.17 118.934 167.14C120.702 167.078 122.424 166.554 123.926 165.618L124.319 165.377C124.437 165.309 124.543 165.236 124.656 165.158C124.743 165.107 124.828 165.05 124.908 164.989H124.942L125.358 164.686L125.756 164.377L125.824 164.321L125.885 164.265L125.936 164.226L126.099 164.08C126.149 164.035 126.211 163.99 126.262 163.939C126.312 163.889 126.464 163.759 126.565 163.658L126.705 163.518C126.725 163.494 126.747 163.474 126.773 163.456L127.014 163.192C127.115 163.086 127.216 162.973 127.312 162.861L127.351 162.816L127.514 162.625C127.587 162.524 127.677 162.423 127.75 162.316L139.715 169.223L139.665 169.279C139.586 169.391 139.502 169.498 139.418 169.61C139.333 169.723 139.311 169.728 139.26 169.79L139.215 169.835C139.036 170.043 138.856 170.239 138.654 170.425L138.542 170.537C138.514 170.571 138.48 170.599 138.457 170.632L138.149 170.913L137.823 171.194L137.778 171.239L137.638 171.345C137.379 171.564 137.11 171.767 136.835 171.963C136.835 171.963 136.801 171.963 136.773 172.002C136.458 172.227 136.132 172.435 135.796 172.626L135.448 172.805L135.038 173.013C134.125 173.488 133.14 173.812 132.124 173.973L131.607 174.041H131.349L130.872 174.086C130.16 174.111 129.456 174.232 128.777 174.445C128.569 174.512 128.35 174.597 128.109 174.698C127.957 174.765 127.789 174.844 127.62 174.933L127.48 174.99C127.374 175.035 127.271 175.088 127.171 175.147C126.897 175.311 126.638 175.499 126.396 175.708C126.31 175.781 126.227 175.857 126.149 175.939C126.065 176.017 125.981 176.107 125.902 176.197C125.796 176.302 125.699 176.414 125.61 176.534C125.548 176.605 125.49 176.68 125.436 176.758C125.341 176.865 125.279 176.927 125.234 176.994Z" fill="black"/>
</g>
<mask id="mask1_579_21008" style="mask-type:luminance" maskUnits="userSpaceOnUse" x="127" y="51" width="59" height="106">
<path d="M139.08 139.674V126.76L139.209 122.829V122.75C139.209 122.655 139.209 122.565 139.209 122.481V122.352C139.209 122.099 139.254 121.858 139.282 121.622C139.288 121.501 139.303 121.381 139.327 121.262V121.15C139.327 120.92 139.383 120.69 139.411 120.471C139.439 120.252 139.456 120.168 139.484 120.027C139.529 119.78 139.563 119.539 139.613 119.303V119.224C139.613 119.129 139.652 119.028 139.675 118.932C139.742 118.607 139.827 118.292 139.905 117.978C139.905 117.978 139.905 117.916 139.933 117.865C140.029 117.512 140.152 117.147 140.276 116.787L140.326 116.636C140.439 116.332 140.568 116.035 140.686 115.743C140.686 115.687 140.742 115.619 140.775 115.558V115.513C140.905 115.243 141.034 114.951 141.18 114.704L141.292 114.513C141.462 114.209 141.649 113.914 141.854 113.632C142.29 112.994 142.785 112.398 143.33 111.852L143.375 111.807C143.605 111.582 143.869 111.341 144.15 111.11L144.206 111.054C144.8 110.573 145.431 110.139 146.093 109.757C146.804 109.334 147.556 108.986 148.339 108.718C148.732 108.588 149.134 108.483 149.541 108.404C150.05 108.317 150.563 108.259 151.079 108.23C152.215 108.201 153.33 107.911 154.336 107.382H154.364C154.516 107.32 154.664 107.248 154.807 107.169C155.878 106.48 156.737 105.508 157.289 104.361C157.457 104.047 157.605 103.722 157.733 103.39C158.112 102.457 158.312 101.46 158.322 100.453C158.322 100.285 158.322 100.122 158.322 99.9645C158.326 99.9216 158.326 99.8784 158.322 99.8354C158.318 99.7259 158.305 99.617 158.283 99.5097C158.283 99.4592 158.283 99.4255 158.283 99.3806C158.283 99.3357 158.238 99.1784 158.216 99.0942C158.193 99.01 158.188 99.0156 158.177 98.9819C158.165 98.9482 158.115 98.7966 158.075 98.7068L158.036 98.6282C158.001 98.5383 157.958 98.4519 157.907 98.3699C157.899 98.3483 157.885 98.329 157.868 98.3137C157.817 98.2295 157.761 98.1509 157.699 98.0667C157.637 97.9824 157.699 98.0667 157.671 98.033L157.458 97.8196C157.378 97.7515 157.291 97.6914 157.199 97.6399L152.095 94.6976C151.282 95.4275 150.508 96.1997 149.776 97.011C148.744 98.2432 147.517 99.2978 146.143 100.133C145.262 100.638 144.538 101.059 144.015 100.756L139.08 97.9038C139.046 96.7808 139.046 95.5623 139.08 94.2709V83.3945L127.131 76.4992L169.699 51.8828L185.191 60.822L185.162 118.236L175.51 123.806C169.631 127.175 169.631 128.73 169.631 131.499C169.604 132.998 169.863 134.488 170.395 135.89C171.017 137.583 171.362 139.365 171.417 141.168C171.417 141.443 171.451 141.774 171.456 142.106C171.375 145.211 170.513 148.247 168.952 150.932L159.17 156.576C158.872 156.389 158.597 156.169 158.351 155.919C157.261 154.796 156.666 152.909 156.666 150.624C156.666 150.315 156.666 149.989 156.711 149.63C156.711 149.63 156.711 149.63 156.711 149.596C156.711 149.035 156.762 148.512 156.829 147.912C156.829 147.749 156.868 147.575 156.891 147.412C156.93 147.058 156.981 146.721 157.037 146.401C157.093 146.081 157.138 145.806 157.194 145.52C157.228 145.368 157.256 145.222 157.284 145.082C157.413 144.458 157.559 143.835 157.727 143.167C158.208 141.452 158.462 139.681 158.485 137.9C158.485 136.215 158.339 135.457 157.879 135.188L152.348 131.993L142.943 137.428L139.08 139.674Z" fill="white"/>
</mask>
<g mask="url(#mask1_579_21008)">
<path d="M161.747 151.235L149.77 144.317C149.714 144.289 149.66 144.257 149.608 144.222C148.939 143.717 148.631 142.667 148.631 141.414C148.618 141.212 148.618 141.01 148.631 140.808V140.735C148.716 139.115 148.977 137.509 149.411 135.945C149.602 135.142 149.804 134.261 149.973 133.357L152.567 131.858L152.668 131.801L152.73 131.768L154.773 130.673L154.83 130.645C155.472 130.325 156.136 130.051 156.817 129.825H156.896L157.16 129.741C157.264 129.707 157.371 129.68 157.48 129.662H157.542C157.665 129.628 157.794 129.595 157.923 129.572L158.26 129.527C158.389 129.527 158.524 129.527 158.653 129.527C158.783 129.527 158.856 129.527 158.951 129.527C159.085 129.53 159.219 129.545 159.35 129.572H159.4L159.591 129.606C159.746 129.648 159.898 129.7 160.046 129.763L160.181 129.819C160.582 130.033 160.927 130.339 161.186 130.712C161.209 130.744 161.23 130.778 161.248 130.813C161.37 130.99 161.476 131.178 161.562 131.375C161.562 131.414 161.601 131.459 161.618 131.493V131.532C161.702 131.74 161.775 131.964 161.848 132.2L161.893 132.38C161.968 132.655 162.024 132.934 162.062 133.216L162.09 133.346C162.199 134.144 162.25 134.949 162.241 135.754C162.218 138.199 161.879 140.63 161.231 142.987C160.802 144.553 160.542 146.16 160.456 147.782V147.849C160.456 148.108 160.428 148.293 160.428 148.461C160.428 149.713 160.793 150.674 161.455 151.179L161.747 151.235Z" fill="#053D38"/>
<path d="M142.942 137.428L131.038 130.46V117.579C130.998 115.689 131.118 113.8 131.397 111.93C131.813 109.634 132.442 108.937 134.25 107.893C135.342 107.22 136.594 106.85 137.877 106.82C138.298 106.787 138.697 106.747 139.101 106.686L139.421 106.63L139.983 106.512C140.213 106.444 140.46 106.377 140.718 106.287C140.825 106.256 140.93 106.219 141.033 106.175C141.444 106.025 141.845 105.848 142.234 105.647L142.285 105.619C142.527 105.521 142.762 105.405 142.987 105.271C145.199 103.996 147.276 101.486 148.68 98.3979C148.776 98.1957 148.854 97.9936 148.939 97.7971L148.641 98.0947C149.023 97.7185 149.393 97.3142 149.764 96.8987C151.051 95.4166 152.527 94.1102 154.155 93.013C154.385 92.8403 154.627 92.6846 154.879 92.547C158.95 90.1887 162.269 92.6986 162.269 98.1227C162.222 100.63 161.648 103.1 160.584 105.372C159.175 108.466 157.097 110.987 154.885 112.25C154.659 112.38 154.424 112.494 154.183 112.593C154.167 112.598 154.149 112.598 154.132 112.593C153.743 112.803 153.342 112.991 152.931 113.154L152.616 113.267C152.375 113.35 152.129 113.421 151.881 113.48C151.684 113.53 151.505 113.57 151.319 113.603L150.994 113.66C150.595 113.716 150.191 113.766 149.77 113.794C148.488 113.821 147.237 114.191 146.148 114.867C144.34 115.906 143.705 116.602 143.295 118.898C143.012 120.771 142.888 122.665 142.925 124.558V133.037L142.942 137.428Z" fill="#053D38"/>
<path d="M144.036 100.641L132.076 93.7235C131.375 93.2968 131.054 91.5224 131.054 87.064L131.004 74.2617L142.953 81.1626V94.0323C142.953 98.5244 143.329 100.237 144.042 100.636L144.036 100.641Z" fill="#053D38"/>
<path opacity="0.2" d="M161.747 151.235L149.77 144.317C149.714 144.289 149.66 144.257 149.608 144.222C148.939 143.717 148.631 142.667 148.631 141.414C148.618 141.212 148.618 141.01 148.631 140.808V140.735C148.716 139.115 148.977 137.509 149.411 135.945C149.602 135.142 149.804 134.261 149.973 133.357L152.567 131.858L152.668 131.801L152.73 131.768L154.773 130.673L154.83 130.645C155.472 130.325 156.136 130.051 156.817 129.825H156.896L157.16 129.741C157.264 129.707 157.371 129.68 157.48 129.662H157.542C157.665 129.628 157.794 129.595 157.923 129.572L158.26 129.527C158.389 129.527 158.524 129.527 158.653 129.527C158.783 129.527 158.856 129.527 158.951 129.527C159.085 129.53 159.219 129.545 159.35 129.572H159.4L159.591 129.606C159.746 129.648 159.898 129.7 160.046 129.763L160.181 129.819C160.582 130.033 160.927 130.339 161.186 130.712C161.209 130.744 161.23 130.778 161.248 130.813C161.37 130.99 161.476 131.178 161.562 131.375C161.562 131.414 161.601 131.459 161.618 131.493V131.532C161.702 131.74 161.775 131.964 161.848 132.2L161.893 132.38C161.968 132.655 162.024 132.934 162.062 133.216L162.09 133.346C162.199 134.144 162.25 134.949 162.241 135.754C162.218 138.199 161.879 140.63 161.231 142.987C160.802 144.553 160.542 146.16 160.456 147.782V147.849C160.456 148.108 160.428 148.293 160.428 148.461C160.428 149.713 160.793 150.674 161.455 151.179L161.747 151.235Z" fill="black"/>
<path opacity="0.2" d="M142.942 137.428L131.038 130.46V117.579C130.998 115.689 131.118 113.8 131.397 111.93C131.813 109.634 132.442 108.937 134.25 107.893C135.342 107.22 136.594 106.85 137.877 106.82C138.298 106.787 138.697 106.747 139.101 106.686L139.421 106.63L139.983 106.512C140.213 106.444 140.46 106.377 140.718 106.287C140.825 106.256 140.93 106.219 141.033 106.175C141.444 106.025 141.845 105.848 142.234 105.647L142.285 105.619C142.527 105.521 142.762 105.405 142.987 105.271C145.199 103.996 147.276 101.486 148.68 98.3979C148.776 98.1957 148.854 97.9936 148.939 97.7971L148.641 98.0947C149.023 97.7185 149.393 97.3142 149.764 96.8987C151.051 95.4166 152.527 94.1102 154.155 93.013C154.385 92.8403 154.627 92.6846 154.879 92.547C158.95 90.1887 162.269 92.6986 162.269 98.1227C162.222 100.63 161.648 103.1 160.584 105.372C159.175 108.466 157.097 110.987 154.885 112.25C154.659 112.38 154.424 112.494 154.183 112.593C154.167 112.598 154.149 112.598 154.132 112.593C153.743 112.803 153.342 112.991 152.931 113.154L152.616 113.267C152.375 113.35 152.129 113.421 151.881 113.48C151.684 113.53 151.505 113.57 151.319 113.603L150.994 113.66C150.595 113.716 150.191 113.766 149.77 113.794C148.488 113.821 147.237 114.191 146.148 114.867C144.34 115.906 143.705 116.602 143.295 118.898C143.012 120.771 142.888 122.665 142.925 124.558V133.037L142.942 137.428Z" fill="black"/>
<path opacity="0.2" d="M144.036 100.641L132.076 93.7235C131.375 93.2968 131.054 91.5224 131.054 87.064L131.004 74.2617L142.953 81.1626V94.0323C142.953 98.5244 143.329 100.237 144.042 100.636L144.036 100.641Z" fill="black"/>
<path d="M161.837 151.29L161.747 151.24L161.556 151.116C160.894 150.611 160.529 149.651 160.529 148.399C160.529 148.23 160.529 148.045 160.557 147.787V147.719C160.643 146.098 160.903 144.49 161.332 142.924C161.98 140.567 162.319 138.136 162.342 135.692C162.35 134.886 162.3 134.081 162.191 133.283L162.163 133.154C162.125 132.871 162.069 132.592 161.994 132.317L161.949 132.137C161.876 131.902 161.803 131.677 161.719 131.469V131.43C161.719 131.396 161.685 131.351 161.663 131.312C161.576 131.115 161.471 130.927 161.348 130.751C161.33 130.715 161.31 130.682 161.287 130.649C161.027 130.276 160.683 129.97 160.282 129.757L160.147 129.701C159.999 129.637 159.847 129.585 159.692 129.543L159.501 129.51H159.451C159.319 129.482 159.186 129.467 159.052 129.465C158.956 129.465 158.855 129.465 158.754 129.465C158.653 129.465 158.49 129.465 158.361 129.465L158.024 129.51C157.895 129.51 157.766 129.566 157.642 129.599H157.581C157.472 129.618 157.365 129.644 157.261 129.678L156.997 129.762H156.918C156.237 129.988 155.573 130.262 154.93 130.582L154.874 130.61L152.83 131.705L152.769 131.739L152.668 131.795L150.073 133.294L142.942 137.427V133.03V124.552C142.904 122.66 143.026 120.768 143.307 118.897C143.717 116.601 144.352 115.904 146.16 114.866C147.249 114.19 148.5 113.82 149.781 113.793C150.203 113.793 150.607 113.714 151.005 113.658L151.331 113.602C151.516 113.568 151.696 113.529 151.893 113.479C152.141 113.42 152.387 113.349 152.628 113.265L152.943 113.153C153.354 112.989 153.755 112.802 154.144 112.591C154.161 112.597 154.178 112.597 154.195 112.591C154.436 112.493 154.671 112.379 154.897 112.249C157.109 110.963 159.187 108.464 160.596 105.37C161.66 103.099 162.234 100.629 162.281 98.1214C162.281 92.6973 158.962 90.1874 154.891 92.5457C154.639 92.6832 154.397 92.839 154.167 93.0117C152.539 94.1089 151.063 95.4153 149.776 96.8974C149.388 97.3129 149.018 97.7172 148.653 98.0934C148.059 98.6878 147.409 99.222 146.71 99.688L146.457 99.8453L146.165 100.019C145.828 100.21 145.525 100.39 145.239 100.519L144.964 100.631C144.881 100.667 144.794 100.692 144.705 100.704C144.628 100.731 144.546 100.744 144.464 100.744C144.315 100.749 144.167 100.712 144.037 100.637C143.324 100.238 142.948 98.537 142.948 94.0337V81.164L130.999 74.2631L167.71 53.0269C167.845 52.9539 167.969 52.8809 168.103 52.8192C168.223 52.7573 168.347 52.7048 168.474 52.6619L168.845 52.544C168.96 52.5054 169.078 52.4772 169.198 52.4598C169.348 52.4322 169.5 52.4153 169.653 52.4093C170.269 52.3817 170.879 52.5444 171.399 52.8753L183.191 59.6751C183.555 59.8754 183.875 60.1488 184.129 60.4781C184.216 60.5911 184.297 60.7092 184.37 60.8318C184.423 60.9134 184.472 60.9977 184.516 61.0845C184.606 61.2642 184.69 61.4495 184.769 61.646C184.797 61.7471 184.836 61.8482 184.864 61.9549C185.076 62.6844 185.176 63.4415 185.162 64.2009V113.086L175.51 118.656L175.336 118.768L175.218 118.835H175.19L173.275 120.02C172.511 120.521 171.778 121.067 171.079 121.654L171.029 121.693L170.916 121.789L170.417 122.238L170.377 122.283C170.304 122.345 170.231 122.418 170.164 122.485C170.097 122.553 169.866 122.777 169.726 122.929C169.586 123.08 169.535 123.125 169.451 123.226C169.367 123.327 169.176 123.53 169.047 123.687L168.783 124.018L168.412 124.512L168.21 124.81L168.165 124.888L168.115 124.967C168.019 125.107 167.918 125.253 167.828 125.405C167.738 125.557 167.705 125.624 167.649 125.736L167.604 125.826C167.43 126.141 167.261 126.472 167.109 126.809L167.076 126.893C167.008 127.033 166.947 127.179 166.89 127.32C166.84 127.466 166.784 127.612 166.733 127.763L166.688 127.876L166.52 128.392C166.464 128.578 166.413 128.763 166.363 128.954C166.312 129.145 166.267 129.336 166.222 129.515C166.177 129.695 166.144 129.891 166.11 130.077C166.076 130.262 166.037 130.487 166.009 130.694V130.728C166.009 130.902 165.953 131.076 165.936 131.25C165.919 131.424 165.891 131.688 165.869 131.935V132.07C165.869 132.199 165.869 132.328 165.84 132.458C165.84 132.733 165.84 133.019 165.84 133.423V133.496C165.84 133.564 165.84 133.637 165.84 133.704C165.799 135.772 166.142 137.831 166.851 139.774C167.322 141.033 167.583 142.361 167.626 143.704V143.766C167.626 143.946 167.654 144.131 167.66 144.283C167.66 146.871 166.076 149.898 164.133 151.021C163.779 151.238 163.383 151.377 162.971 151.431C162.887 151.439 162.803 151.439 162.718 151.431H162.679C162.627 151.439 162.574 151.439 162.522 151.431C162.476 151.439 162.428 151.439 162.382 151.431L162.269 151.403L162.135 151.363C162.099 151.357 162.064 151.344 162.033 151.324C161.966 151.333 161.898 151.321 161.837 151.29Z" fill="#053D38"/>
<path opacity="0.3" d="M142.942 81.164L130.993 74.2631L167.704 53.0269C167.839 52.9539 167.963 52.8809 168.097 52.8192C168.217 52.7573 168.341 52.7048 168.468 52.6619L168.839 52.544C168.954 52.5054 169.072 52.4772 169.192 52.4598C169.343 52.4322 169.495 52.4153 169.647 52.4093C170.263 52.3817 170.873 52.5444 171.393 52.8753L183.05 59.6134C182.949 59.5601 182.841 59.5187 182.73 59.4898C182.705 59.483 182.681 59.4736 182.657 59.4618C182.555 59.4268 182.45 59.4024 182.343 59.3888H182.236C182.167 59.3799 182.097 59.3799 182.028 59.3888H181.826C181.81 59.3859 181.792 59.3859 181.776 59.3888C181.679 59.3803 181.581 59.3803 181.484 59.3888L181.259 59.4225C181.106 59.4412 180.956 59.4751 180.81 59.5235L180.585 59.5909L180.147 59.765C179.979 59.8436 179.81 59.9334 179.631 60.0345L142.942 81.164Z" fill="white"/>
</g>
<mask id="mask2_579_21008" style="mask-type:luminance" maskUnits="userSpaceOnUse" x="84" y="76" width="75" height="89">
<path d="M96.8722 164.037L84.9121 157.142L84.957 108.167C85.0005 106.219 85.466 104.303 86.3215 102.552C87.3378 100.407 88.8314 98.5598 90.4991 97.5941L127.12 76.5039L139.069 83.3992V94.1633V97.7962L143.999 100.643C144.533 100.952 145.246 100.536 146.133 100.025C147.506 99.1902 148.734 98.1356 149.766 96.9034C150.498 96.0921 151.272 95.3198 152.085 94.59L157.189 97.5323C157.229 97.5526 157.267 97.5771 157.301 97.6053C157.308 97.6023 157.314 97.6008 157.321 97.6008C157.328 97.6008 157.335 97.6023 157.341 97.6053C157.386 97.6312 157.428 97.6633 157.464 97.7007C157.646 97.8601 157.798 98.0501 157.913 98.2623C157.956 98.3189 157.99 98.3813 158.015 98.4475C158.042 98.4955 158.065 98.5463 158.082 98.5992C158.178 98.8209 158.249 99.0525 158.295 99.2898C158.298 99.3272 158.298 99.3647 158.295 99.4021C158.295 99.5425 158.34 99.6997 158.357 99.8569C158.374 100.014 158.357 100.177 158.357 100.345C158.366 100.503 158.366 100.66 158.357 100.817C158.357 100.986 158.329 101.148 158.307 101.306C158.284 101.463 158.256 101.631 158.228 101.794C158.2 101.957 158.177 102.041 158.144 102.165C158.124 102.254 158.1 102.342 158.071 102.429C157.897 103.062 157.652 103.675 157.341 104.254C156.788 105.401 155.929 106.372 154.859 107.061C154.715 107.141 154.567 107.212 154.415 107.274H154.387C153.381 107.803 152.267 108.093 151.13 108.122C150.771 108.122 150.406 108.178 150.007 108.235L149.598 108.296C148.616 108.491 147.669 108.834 146.79 109.313C146.683 109.363 146.582 109.414 146.487 109.47L146.167 109.65C145.504 110.031 144.874 110.465 144.28 110.947L144.224 111.003C143.943 111.233 143.662 111.474 143.449 111.699L143.404 111.744C142.858 112.291 142.364 112.887 141.927 113.524C141.723 113.807 141.536 114.101 141.366 114.406L141.254 114.596C141.108 114.866 140.978 115.158 140.849 115.405V115.45C140.816 115.512 140.788 115.579 140.759 115.635C140.642 115.927 140.512 116.225 140.4 116.528L140.35 116.68C140.226 117.039 140.103 117.404 140.007 117.758C140.007 117.808 139.979 117.853 139.979 117.87C139.9 118.184 139.816 118.499 139.749 118.825C139.749 118.92 139.709 119.021 139.687 119.117V119.195C139.636 119.431 139.603 119.672 139.558 119.92C139.558 120.06 139.507 120.212 139.485 120.363C139.462 120.515 139.423 120.812 139.401 121.043V121.155C139.377 121.273 139.362 121.393 139.356 121.514C139.356 121.75 139.305 121.991 139.283 122.244V122.373C139.283 122.458 139.283 122.547 139.283 122.643V122.721L139.154 126.652V139.567L135.785 141.521L134.712 142.144L132.595 143.351L129.513 145.137C127.368 146.378 125.885 147.007 124.964 147.08C124.823 147.097 124.679 147.097 124.538 147.08C124.442 147.059 124.349 147.025 124.262 146.978L119.866 144.407C119.863 144.388 119.863 144.369 119.866 144.351C119.916 143.789 119.984 143.228 120.062 142.722C120.113 142.397 120.169 142.082 120.231 141.79C120.394 140.869 120.601 140.044 120.792 139.258C121.228 137.695 121.486 136.089 121.562 134.468V134.434V134.39C121.562 134.126 121.562 133.952 121.59 133.789C121.59 132.537 121.219 131.571 120.556 131.071C120.524 131.047 120.49 131.024 120.455 131.004L120.366 130.953L115.452 128.118C114.091 129.626 112.993 131.353 112.207 133.227C112.1 133.486 111.994 133.744 111.898 133.991C111.803 134.238 111.702 134.513 111.617 134.777L111.578 134.889C111.488 135.153 111.41 135.417 111.331 135.681C111.252 135.945 111.185 136.214 111.123 136.478C111.061 136.742 111.039 136.843 111 137.04C110.96 137.236 110.927 137.405 110.904 137.601C110.835 137.973 110.787 138.348 110.758 138.724C110.73 138.926 110.713 139.134 110.702 139.336C110.691 139.539 110.674 139.859 110.674 140.111C110.674 140.364 110.674 140.448 110.674 140.611C110.674 140.774 110.674 140.92 110.708 141.06C110.708 141.302 110.708 141.526 110.747 141.745C110.777 142.253 110.835 142.76 110.921 143.261C110.921 143.463 110.983 143.66 111.022 143.823C111.2 144.664 111.433 145.493 111.718 146.305C112.061 147.209 112.293 148.152 112.409 149.112V149.219V149.303V149.421C112.443 149.837 112.46 150.246 112.46 150.673C112.46 153.441 112.46 154.969 106.575 158.366L96.8722 164.037Z" fill="white"/>
</mask>
<g mask="url(#mask2_579_21008)">
<path d="M124.156 147.065L112.246 140.08C111.78 139.805 111.634 139.035 111.634 137.373C111.636 136.004 111.8 134.639 112.123 133.308C111.764 134.135 111.46 134.985 111.213 135.852C112.336 131.725 114.958 127.8 117.951 126.059C119.922 124.936 121.775 124.874 123.173 125.93C124.571 126.985 125.34 129.001 125.34 131.64C125.34 131.893 125.34 132.14 125.312 132.365V132.488C125.312 132.55 125.312 132.612 125.312 132.673C125.312 133.235 125.245 133.796 125.183 134.386C125.177 134.48 125.166 134.574 125.149 134.667V134.751C125.099 135.15 125.048 135.537 124.987 135.925C124.942 136.155 124.897 136.385 124.857 136.61C124.818 136.834 124.768 137.064 124.723 137.289C124.599 137.851 124.459 138.463 124.313 139.075C123.826 140.791 123.567 142.563 123.544 144.347C123.538 146.02 123.656 146.79 124.156 147.065Z" fill="#053D38"/>
<path d="M96.8722 164.034L84.9121 157.139L84.957 108.17C84.9964 106.221 85.4621 104.304 86.3215 102.555L98.2591 109.444C97.3809 111.219 96.9036 113.164 96.8609 115.144L96.8722 164.034Z" fill="#053D38"/>
<path d="M124.155 147.065L112.246 140.08C111.78 139.805 111.634 139.035 111.634 137.373C111.636 136.004 111.8 134.639 112.122 133.308C113.47 130.18 115.587 127.435 117.973 126.059C119.944 124.936 121.797 124.874 123.195 125.93C124.593 126.985 125.34 129.001 125.34 131.64C125.34 131.893 125.34 132.14 125.312 132.365V132.488C125.312 132.55 125.312 132.612 125.312 132.673C125.312 133.235 125.245 133.796 125.183 134.386C125.177 134.48 125.166 134.574 125.149 134.667V134.751C125.099 135.15 125.048 135.537 124.986 135.925C124.941 136.155 124.897 136.385 124.857 136.61C124.818 136.834 124.767 137.064 124.722 137.289C124.599 137.851 124.459 138.463 124.313 139.075C123.826 140.791 123.567 142.563 123.543 144.347C123.538 146.02 123.656 146.79 124.155 147.065Z" fill="#263238"/>
<path d="M96.8722 164.034L84.9121 157.139L84.957 108.17C84.9964 106.221 85.4621 104.304 86.3215 102.555L98.2591 109.444C97.3809 111.219 96.9036 113.164 96.8609 115.144L96.8722 164.034Z" fill="#263238"/>
<path d="M96.8725 164.033V115.137C96.9151 113.158 97.3924 111.212 98.2706 109.438L86.333 102.548C86.3667 102.476 86.3948 102.408 86.4285 102.341C86.4778 102.229 86.5341 102.12 86.5969 102.015C86.6755 101.863 86.7541 101.717 86.8384 101.571C86.9226 101.425 87.0405 101.218 87.1528 101.055L87.2146 100.937C87.2296 100.913 87.2465 100.891 87.2651 100.87C87.3606 100.712 87.4729 100.55 87.5852 100.392L87.6862 100.252C87.7435 100.163 87.8073 100.079 87.8771 99.9993C87.9378 99.9132 88.0034 99.8307 88.0737 99.7522L88.1298 99.6792C88.2309 99.5501 88.3376 99.4209 88.4499 99.303L88.5846 99.1626C88.6135 99.1263 88.6455 99.0924 88.6801 99.0615L88.7419 98.9886L88.8598 98.8819L89.0675 98.6797C89.0855 98.6599 89.1063 98.6429 89.1293 98.6292C89.1911 98.573 89.2472 98.5113 89.3034 98.4663L89.3651 98.4158H89.3932L89.5448 98.3035C89.601 98.253 89.6627 98.2137 89.7189 98.1687C89.775 98.1238 89.8312 98.0789 89.8873 98.034C89.9539 97.9834 90.0233 97.9365 90.0951 97.8936C90.2172 97.7991 90.3468 97.7146 90.4825 97.6409L127.11 76.5508L139.058 83.4517V94.2101L139.232 94.0305C140.195 92.9017 141.308 91.9099 142.54 91.0826H142.585C142.7 90.9957 142.82 90.9151 142.944 90.8411C143.279 90.6094 143.673 90.4783 144.08 90.4634C144.487 90.4485 144.89 90.5503 145.241 90.7569L157.15 97.6353C157.215 97.6673 157.275 97.7069 157.33 97.7532L157.431 97.8319C157.845 98.2184 158.128 98.725 158.239 99.2805C158.273 99.4209 158.301 99.5725 158.324 99.7241C158.356 99.9736 158.371 100.225 158.369 100.477C158.338 101.84 157.986 103.177 157.341 104.379C156.786 105.526 155.925 106.497 154.854 107.187C154.71 107.269 154.562 107.344 154.41 107.411H154.382C153.376 107.94 152.261 108.231 151.125 108.259C149.356 108.324 147.634 108.853 146.133 109.792C145.471 110.17 144.841 110.604 144.252 111.089L144.185 111.14C143.91 111.37 143.623 111.606 143.41 111.841L143.376 111.881C142.828 112.423 142.333 113.017 141.9 113.655C141.714 113.93 141.535 114.217 141.338 114.537L141.254 114.688V114.733C141.108 114.991 140.973 115.295 140.844 115.542V115.581C140.813 115.643 140.787 115.707 140.765 115.772C140.636 116.058 140.518 116.333 140.406 116.665L140.35 116.811C140.221 117.17 140.103 117.541 140.007 117.889L139.979 118.007C139.895 118.316 139.816 118.636 139.749 118.961C139.749 119.051 139.704 119.152 139.687 119.248V119.326C139.642 119.568 139.603 119.804 139.558 120.051C139.558 120.191 139.508 120.343 139.491 120.489C139.474 120.635 139.423 120.943 139.395 121.179V121.292C139.395 121.404 139.367 121.522 139.362 121.645C139.362 121.881 139.311 122.128 139.294 122.37V122.499C139.294 122.589 139.294 122.678 139.266 122.768V122.853L139.137 126.783V139.698L135.768 141.657L132.584 143.493L129.502 145.273C127.362 146.514 125.869 147.143 124.959 147.211C124.888 147.216 124.817 147.216 124.746 147.211C124.572 147.209 124.401 147.166 124.246 147.087C123.769 146.812 123.628 146.043 123.628 144.369C123.652 142.586 123.91 140.813 124.397 139.097C124.543 138.485 124.684 137.89 124.807 137.311C124.852 137.087 124.903 136.862 124.942 136.632C124.981 136.402 125.026 136.177 125.071 135.947C125.133 135.559 125.184 135.172 125.234 134.773V134.689C125.251 134.596 125.262 134.502 125.268 134.408C125.33 133.819 125.375 133.285 125.397 132.696C125.397 132.634 125.397 132.572 125.397 132.51V132.37C125.397 132.145 125.431 131.898 125.425 131.646C125.425 129.012 124.661 126.985 123.263 125.93C121.865 124.874 120.012 124.913 118.041 126.059C115.655 127.434 113.549 130.18 112.19 133.308C111.913 133.925 111.673 134.559 111.472 135.206C111.404 135.419 111.337 135.638 111.281 135.851C111.225 136.065 111.146 136.362 111.084 136.621C111.066 136.664 111.055 136.709 111.05 136.755C110.994 137.002 110.944 137.255 110.904 137.502C110.808 138.036 110.739 138.573 110.697 139.114C110.685 139.275 110.685 139.436 110.697 139.597C110.697 139.788 110.697 139.978 110.697 140.158C110.697 140.489 110.697 140.838 110.736 141.107C110.791 142.906 111.134 144.684 111.752 146.374C112.092 147.279 112.324 148.222 112.443 149.182V149.294V149.328V149.372C112.44 149.412 112.44 149.451 112.443 149.49C112.471 149.906 112.494 150.316 112.494 150.743C112.494 153.511 112.494 155.038 106.615 158.435L96.8725 164.033Z" fill="#37474F"/>
<path d="M145.302 90.6422L157.212 97.5207C156.846 97.3391 156.439 97.2604 156.032 97.2931C155.625 97.3257 155.235 97.4684 154.904 97.706C154.803 97.7621 154.674 97.852 154.544 97.9418L154.505 97.9811H154.477C153.244 98.8071 152.131 99.7991 151.17 100.929C149.739 102.591 148.054 104.016 146.178 105.152L145.942 105.281L145.852 105.326L145.785 105.359C145.605 105.455 145.431 105.556 145.268 105.634L144.954 105.769L144.847 105.809L144.785 105.842L144.392 105.988C144.275 106.034 144.155 106.072 144.033 106.1H143.988L143.589 106.196C143.455 106.23 143.331 106.235 143.202 106.258H142.831C142.714 106.258 142.596 106.258 142.483 106.258C142.371 106.258 142.264 106.218 142.158 106.202C142.05 106.181 141.945 106.151 141.843 106.112C141.744 106.078 141.648 106.035 141.557 105.983H141.506C141.423 105.942 141.343 105.897 141.265 105.848C141.189 105.794 141.118 105.734 141.051 105.668L141.007 105.634L140.962 105.59C140.9 105.539 140.832 105.477 140.771 105.415C140.699 105.331 140.631 105.243 140.569 105.152L140.535 105.101C140.41 104.921 140.298 104.734 140.198 104.539L140.164 104.467C140.116 104.381 140.073 104.293 140.035 104.203C139.996 104.107 139.951 103.989 139.912 103.877V103.798V103.731C139.878 103.63 139.839 103.54 139.805 103.428C139.771 103.315 139.726 103.125 139.687 102.967C139.648 102.81 139.614 102.698 139.592 102.557C139.569 102.417 139.524 102.22 139.496 102.041C139.468 101.861 139.446 101.749 139.423 101.603C139.401 101.457 139.378 101.227 139.356 101.041C139.333 100.856 139.322 100.732 139.305 100.575C139.288 100.418 139.266 100.165 139.255 99.9464C139.255 99.8341 139.255 99.6993 139.255 99.5702V99.4017C139.255 99.2052 139.255 98.9974 139.221 98.7841V98.6998L139.182 96.4538V94.1292C139.232 94.0674 139.294 94.0113 139.344 93.9551C140.307 92.8264 141.42 91.8346 142.652 91.0072H142.68L142.725 90.9735C142.837 90.8872 142.956 90.8084 143.078 90.7377C143.405 90.5211 143.785 90.3977 144.177 90.3809C144.569 90.3641 144.958 90.4544 145.302 90.6422Z" fill="black"/>
<path d="M98.276 109.445L86.3271 102.545C86.3608 102.472 86.3889 102.41 86.4282 102.342C86.4776 102.231 86.5339 102.122 86.5967 102.017C86.6753 101.865 86.7539 101.719 86.8381 101.573C86.9223 101.427 87.0403 101.219 87.1526 101.057C87.1846 100.992 87.2221 100.93 87.2649 100.871C87.3603 100.714 87.4726 100.551 87.5849 100.394L87.686 100.254C87.7433 100.165 87.8071 100.08 87.8769 100.001C87.9549 99.8895 88.0392 99.7826 88.1296 99.6809C88.2306 99.5518 88.3373 99.4226 88.4496 99.3047L88.5844 99.1643C88.6133 99.128 88.6452 99.0942 88.6799 99.0632L88.8595 98.8836L89.0673 98.6814C89.0853 98.6616 89.1061 98.6446 89.1291 98.6309C89.2022 98.554 89.2811 98.4827 89.3649 98.4175H89.393L89.5446 98.3052C89.6538 98.2093 89.7681 98.1193 89.8871 98.0357C89.9537 97.9851 90.023 97.9382 90.0948 97.8953C90.217 97.8008 90.3465 97.7163 90.4823 97.6426L127.104 76.5469L139.053 83.4478L122.954 92.7407L102.381 104.628C102.223 104.718 102.072 104.813 101.92 104.914C101.769 105.015 101.639 105.116 101.51 105.229C101.434 105.278 101.363 105.335 101.297 105.397C101.162 105.504 101.027 105.633 100.898 105.756C100.769 105.88 100.584 106.065 100.432 106.222C100.095 106.591 99.7814 106.981 99.4945 107.39C99.3822 107.548 99.2699 107.705 99.1632 107.873C98.8346 108.378 98.5383 108.903 98.276 109.445Z" fill="#455A64"/>
</g>
<path d="M80.671 121.55C81.2562 121.583 81.8335 121.402 82.2938 121.039C83.5347 120.079 84.4612 120.157 85.7919 119.584C86.8363 119.13 87.2575 118.574 87.4765 118.765C87.6941 119.006 87.8122 119.321 87.807 119.646C87.8018 119.971 87.6736 120.282 87.4484 120.517C87.0471 120.984 86.5821 121.392 86.0671 121.729C87.3012 121.653 88.5184 121.403 89.6832 120.988C92.4907 120.034 93.8215 120.427 92.5469 123.992C91.7495 126.238 89.7393 127.474 84.2309 127.361C82.1953 127.224 80.1712 126.95 78.1723 126.541C72.7201 125.469 61.7427 123.824 59.8279 121.246C54.4094 113.947 49.4401 107.928 48.755 102.481C48.1935 97.9103 51.001 95.3555 53.6008 95.3555C55.0776 96.9108 55.976 98.7638 57.3348 103.127C57.3348 103.127 64.3873 115.755 65.1005 116.676C66.8748 117.647 79.5143 121.364 80.671 121.55Z" fill="#FFA8A7"/>
<path d="M182.511 74.7617C183.46 75.3232 184.476 75.5646 185.74 76.4855C186.556 77.1866 187.532 77.6781 188.581 77.9173C189.934 78.2486 200.586 74.6494 202.557 73.1277C206.572 70.0338 210.036 64.211 211.968 62.0042C213.557 60.185 215.337 57.4448 217.319 57.4336C220.559 58.4106 219.829 63.2283 217.117 67.5407C214.871 71.1287 210.615 75.6601 205.797 78.8213C203.461 80.3543 192.697 83.1337 189.12 83.3695C188.036 83.4369 187.233 83.684 185.19 83.976C184.34 84.1483 183.47 84.1956 182.607 84.1163C181.547 83.9515 180.517 83.6357 179.546 83.1786C178.315 82.6044 177.26 81.7105 176.492 80.5901C176.073 79.974 175.803 79.2682 175.706 78.5294C175.608 77.7851 175.779 77.0302 176.189 76.4013C176.266 76.2699 176.376 76.1614 176.509 76.0868C176.77 76.0018 177.054 76.022 177.3 76.143C178.738 76.6427 180.209 77.3951 181.686 77.7376C182.932 78.024 183.853 78.0577 183.73 77.8331C183.606 77.6085 182.865 77.485 182.017 76.7662C181.169 76.0475 180.821 74.9133 181.242 74.4865C181.663 74.0598 181.568 74.1777 182.511 74.7617Z" fill="#FFA8A7"/>
<path d="M217.527 56.295C219.919 57.4686 220.896 59.2542 219.83 63.2296C218.875 66.8008 215.214 72.8932 212.333 75.8747C212.333 75.8747 207.403 73.5389 204.781 70.5011C207.375 66.5313 208.628 64.1954 211.064 60.832C213.501 57.4686 216.068 55.8964 217.527 56.295Z" fill="#E0E0E0"/>
</svg>
