<svg width="450" height="450" viewBox="0 0 450 450" fill="none" xmlns="http://www.w3.org/2000/svg">
<path d="M404.91 358.641H375.102V358.866H404.91V358.641Z" fill="#CEE6F3"/>
<path d="M298.098 361.089H290.277V361.314H298.098V361.089Z" fill="#CEE6F3"/>
<path d="M374.202 350.289H356.931V350.514H374.202V350.289Z" fill="#CEE6F3"/>
<path d="M86.085 351.801H47.214V352.026H86.085V351.801Z" fill="#CEE6F3"/>
<path d="M99.801 351.801H94.104V352.026H99.801V351.801Z" fill="#CEE6F3"/>
<path d="M202.635 355.599H118.323V355.824H202.635V355.599Z" fill="#CEE6F3"/>
<path d="M213.3 304.02H39.528C38.1651 304.02 36.858 303.479 35.8942 302.515C34.9305 301.551 34.389 300.244 34.389 298.881V54.594C34.4009 53.2389 34.9476 51.9433 35.91 50.9892C36.8725 50.0352 38.1729 49.4999 39.528 49.5H213.3C214.663 49.5 215.97 50.0414 216.934 51.0052C217.898 51.9689 218.439 53.2761 218.439 54.639V298.881C218.439 300.244 217.898 301.551 216.934 302.515C215.97 303.479 214.663 304.02 213.3 304.02ZM39.528 49.68C38.2255 49.6824 36.977 50.2009 36.0559 51.1219C35.1349 52.0429 34.6164 53.2915 34.614 54.594V298.881C34.6164 300.184 35.1349 301.432 36.0559 302.353C36.977 303.274 38.2255 303.793 39.528 303.795H213.3C214.603 303.793 215.851 303.274 216.772 302.353C217.693 301.432 218.212 300.184 218.214 298.881V54.594C218.212 53.2915 217.693 52.0429 216.772 51.1219C215.851 50.2009 214.603 49.6824 213.3 49.68H39.528Z" fill="#CEE6F3"/>
<path d="M407.979 304.02H234.189C232.827 304.018 231.521 303.475 230.558 302.512C229.595 301.549 229.052 300.243 229.05 298.881V54.594C229.064 53.2396 229.612 51.9454 230.574 50.9918C231.536 50.0383 232.835 49.5023 234.189 49.5H407.979C409.331 49.5047 410.627 50.042 411.585 50.9956C412.544 51.9491 413.088 53.242 413.1 54.594V298.881C413.1 300.241 412.561 301.545 411.601 302.508C410.641 303.472 409.339 304.015 407.979 304.02ZM234.189 49.68C232.886 49.6824 231.638 50.2009 230.717 51.1219C229.796 52.0429 229.277 53.2915 229.275 54.594V298.881C229.277 300.184 229.796 301.432 230.717 302.353C231.638 303.274 232.886 303.793 234.189 303.795H407.979C409.282 303.793 410.53 303.274 411.451 302.353C412.372 301.432 412.891 300.184 412.893 298.881V54.594C412.891 53.2915 412.372 52.0429 411.451 51.1219C410.53 50.2009 409.282 49.6824 407.979 49.68H234.189Z" fill="#CEE6F3"/>
<path d="M450 344.16H0V344.385H450V344.16Z" fill="#CEE6F3"/>
<path d="M153.81 323.46H174.663L163.701 234.18C163.438 232.314 162.521 230.601 161.113 229.347C159.706 228.093 157.899 227.379 156.015 227.331H65.025L78.363 323.46H153.81Z" fill="#F5F5F5"/>
<path d="M87.669 323.46H66.816L55.854 234.18C55.7193 233.322 55.7747 232.444 56.0165 231.61C56.2582 230.775 56.6803 230.004 57.253 229.351C57.8256 228.697 58.5348 228.178 59.3303 227.829C60.1259 227.48 60.9885 227.31 61.857 227.331H69.057C70.9404 227.379 72.7456 228.093 74.1515 229.348C75.5573 230.602 76.4724 232.314 76.734 234.18L87.669 323.46Z" fill="#4FA0CF"/>
<path d="M95.4 323.352L91.62 280.152C91.5382 279.212 91.1359 278.329 90.4804 277.651C89.825 276.972 88.9564 276.54 88.02 276.426L86.463 276.228C85.2123 276.069 84.0537 275.486 83.1795 274.578C82.3053 273.669 81.7681 272.489 81.657 271.233L81 263.376C80.9368 262.619 81.0306 261.857 81.2754 261.138C81.5202 260.419 81.9109 259.759 82.4229 259.198C82.9349 258.637 83.5572 258.187 84.2508 257.878C84.9445 257.569 85.6945 257.406 86.454 257.4H51.606C50.8403 257.399 50.0828 257.558 49.3818 257.867C48.6808 258.175 48.0517 258.626 47.5344 259.19C47.0172 259.755 46.6231 260.421 46.3774 261.146C46.1316 261.872 46.0396 262.64 46.107 263.403L46.791 271.278C46.8988 272.535 47.435 273.717 48.3098 274.626C49.1846 275.535 50.345 276.117 51.597 276.273L53.145 276.471C54.0807 276.587 54.9485 277.02 55.6036 277.698C56.2587 278.376 56.6616 279.258 56.745 280.197L60.525 323.397C60.6664 324.91 61.3678 326.315 62.4917 327.337C63.6155 328.359 65.0808 328.925 66.6 328.923H101.43C99.912 328.911 98.4531 328.333 97.3381 327.303C96.2231 326.273 95.5321 324.864 95.4 323.352Z" fill="#CEE6F3"/>
<path d="M191.259 269.361C191.551 266.093 193.057 263.052 195.479 260.839C197.901 258.625 201.064 257.398 204.345 257.4H173.997C170.713 257.401 167.549 258.632 165.128 260.852C162.707 263.071 161.206 266.116 160.92 269.388L157.923 303.588H188.271L191.259 269.361Z" fill="#CEE6F3"/>
<path d="M217.8 257.4H204.3C201.015 257.399 197.848 258.629 195.425 260.849C193.003 263.068 191.5 266.115 191.214 269.388L188.226 303.588H116.01L113.013 269.388C112.727 266.11 111.22 263.06 108.792 260.84C106.364 258.62 103.19 257.392 99.9 257.4H86.4C85.6451 257.413 84.901 257.582 84.2137 257.894C83.5265 258.207 82.9106 258.657 82.4044 259.217C81.8982 259.778 81.5124 260.436 81.2708 261.151C81.0293 261.866 80.9371 262.624 81 263.376L81.684 271.251C81.7951 272.507 82.3323 273.687 83.2065 274.596C84.0807 275.504 85.2393 276.087 86.49 276.246L88.047 276.444C88.9834 276.558 89.852 276.991 90.5075 277.669C91.1629 278.347 91.5652 279.23 91.647 280.17L95.427 323.37C95.5598 324.89 96.2572 326.305 97.3817 327.336C98.5062 328.368 99.9763 328.94 101.502 328.941H202.842C204.368 328.94 205.838 328.368 206.962 327.336C208.087 326.305 208.784 324.89 208.917 323.37L212.697 280.17C212.78 279.231 213.183 278.349 213.838 277.671C214.494 276.993 215.361 276.56 216.297 276.444L217.845 276.246C219.097 276.09 220.257 275.509 221.132 274.599C222.007 273.69 222.543 272.508 222.651 271.251L223.335 263.376C223.399 262.612 223.303 261.844 223.053 261.119C222.803 260.395 222.405 259.73 221.885 259.168C221.364 258.606 220.732 258.158 220.029 257.854C219.325 257.549 218.566 257.395 217.8 257.4Z" fill="#4FA0CF"/>
<path d="M126.837 173.457C148.901 173.457 166.788 155.571 166.788 133.506C166.788 111.442 148.901 93.5552 126.837 93.5552C104.773 93.5552 86.886 111.442 86.886 133.506C86.886 155.571 104.773 173.457 126.837 173.457Z" fill="#F5F5F5"/>
<path d="M126.837 167.382C145.546 167.382 160.713 152.215 160.713 133.506C160.713 114.797 145.546 99.6299 126.837 99.6299C108.128 99.6299 92.9609 114.797 92.9609 133.506C92.9609 152.215 108.128 167.382 126.837 167.382Z" fill="#FAFAFA"/>
<path d="M126.837 99.6301C126.306 99.6301 125.775 99.6301 125.244 99.6301C133.949 100.032 142.164 103.772 148.182 110.075C154.201 116.377 157.559 124.756 157.559 133.47C157.559 142.184 154.201 150.563 148.182 156.866C142.164 163.168 133.949 166.908 125.244 167.31C125.775 167.31 126.306 167.31 126.837 167.31C135.821 167.31 144.438 163.741 150.791 157.388C157.144 151.035 160.713 142.419 160.713 133.434C160.713 124.45 157.144 115.833 150.791 109.48C144.438 103.127 135.821 99.5581 126.837 99.5581V99.6301Z" fill="#CEE6F3"/>
<path d="M126.846 167.346C127.701 167.301 128.547 167.22 129.393 167.121V136.053H159.03C159.093 135.207 159.129 134.361 159.129 133.506C159.129 132.651 159.129 131.805 159.03 130.959H129.384V99.8998C128.538 99.7918 127.692 99.7108 126.837 99.6748H124.29V130.968H92.9969V136.062H124.29V167.355L126.846 167.346Z" fill="#4FA0CF"/>
<path d="M124.29 99.666H121.743V130.959H124.29V99.666Z" fill="#CEE6F3"/>
<path d="M124.29 136.053H121.743V167.346H124.29V136.053Z" fill="#CEE6F3"/>
<path d="M323.163 173.457C345.227 173.457 363.114 155.571 363.114 133.506C363.114 111.442 345.227 93.5552 323.163 93.5552C301.099 93.5552 283.212 111.442 283.212 133.506C283.212 155.571 301.099 173.457 323.163 173.457Z" fill="#F5F5F5"/>
<path d="M323.163 167.382C341.872 167.382 357.039 152.215 357.039 133.506C357.039 114.797 341.872 99.6299 323.163 99.6299C304.454 99.6299 289.287 114.797 289.287 133.506C289.287 152.215 304.454 167.382 323.163 167.382Z" fill="#FAFAFA"/>
<path d="M323.163 99.6301C322.632 99.6301 322.101 99.6301 321.579 99.6301C330.284 100.032 338.499 103.772 344.517 110.075C350.536 116.377 353.894 124.756 353.894 133.47C353.894 142.184 350.536 150.563 344.517 156.866C338.499 163.168 330.284 166.908 321.579 167.31C322.101 167.31 322.632 167.31 323.163 167.31C332.147 167.31 340.764 163.741 347.117 157.388C353.47 151.035 357.039 142.419 357.039 133.434C357.039 124.45 353.47 115.833 347.117 109.48C340.764 103.127 332.147 99.5581 323.163 99.5581V99.6301Z" fill="#CEE6F3"/>
<path d="M323.181 167.346C324.081 167.301 324.891 167.22 325.728 167.121V136.053H355.365C355.428 135.207 355.473 134.361 355.473 133.506C355.473 132.651 355.428 131.805 355.365 130.959H325.71V99.8998C324.873 99.7918 324.027 99.7108 323.163 99.6748H320.616V130.968H289.323V136.062H320.616V167.355L323.181 167.346Z" fill="#4FA0CF"/>
<path d="M320.625 99.666H318.078V130.959H320.625V99.666Z" fill="#CEE6F3"/>
<path d="M320.625 136.053H318.078V167.346H320.625V136.053Z" fill="#CEE6F3"/>
<path d="M254.304 319.293H323.487V295.416H254.304V319.293Z" fill="#CEE6F3"/>
<path d="M254.304 343.179H323.487V319.302H254.304V343.179Z" fill="#CEE6F3"/>
<path d="M325.899 319.293H395.082V295.416H325.899V319.293Z" fill="#CEE6F3"/>
<path d="M325.899 343.179H395.082V319.302H325.899V343.179Z" fill="#CEE6F3"/>
<path d="M368.793 319.293L360.18 295.416H373.428L382.041 319.293H368.793Z" fill="#4FA0CF"/>
<path d="M353.772 295.416H356.679L365.292 319.293H362.376L353.772 295.416Z" fill="#4FA0CF"/>
<path d="M377.397 343.179L368.793 319.293H382.041L390.645 343.179H377.397Z" fill="#4FA0CF"/>
<path d="M362.376 319.293H365.292L373.896 343.179H370.989L362.376 319.293Z" fill="#4FA0CF"/>
<path d="M269.838 319.293L261.234 295.416H274.482L283.086 319.293H269.838Z" fill="#4FA0CF"/>
<path d="M254.826 295.416H257.733L266.337 319.293H263.43L254.826 295.416Z" fill="#4FA0CF"/>
<path d="M278.451 343.179L269.838 319.293H283.086L291.699 343.179H278.451Z" fill="#4FA0CF"/>
<path d="M263.43 319.293H266.337L274.95 343.179H272.034L263.43 319.293Z" fill="#4FA0CF"/>
<path d="M395.082 299.088V296.676H325.899V299.088H395.082Z" fill="#FEEAA2"/>
<path d="M395.082 322.776V320.364H325.899V322.776H395.082Z" fill="#FEEAA2"/>
<path d="M358.722 310.41C358.448 310.41 358.184 310.301 357.99 310.107C357.796 309.913 357.687 309.649 357.687 309.375C357.687 309.1 357.796 308.837 357.99 308.643C358.184 308.449 358.448 308.34 358.722 308.34H362.259C362.534 308.34 362.797 308.449 362.991 308.643C363.185 308.837 363.294 309.1 363.294 309.375C363.294 309.649 363.185 309.913 362.991 310.107C362.797 310.301 362.534 310.41 362.259 310.41H358.722Z" fill="#FEEAA2"/>
<path d="M358.722 310.05C358.577 310.063 358.432 310.046 358.294 310C358.156 309.954 358.029 309.88 357.922 309.782C357.815 309.684 357.729 309.565 357.67 309.432C357.612 309.299 357.581 309.156 357.581 309.01C357.581 308.865 357.612 308.721 357.67 308.588C357.729 308.456 357.815 308.336 357.922 308.239C358.029 308.141 358.156 308.066 358.294 308.02C358.432 307.974 358.577 307.957 358.722 307.971H362.259C362.518 307.995 362.759 308.115 362.934 308.307C363.109 308.499 363.206 308.75 363.206 309.01C363.206 309.27 363.109 309.521 362.934 309.713C362.759 309.906 362.518 310.026 362.259 310.05H358.722Z" fill="#F5F5F5"/>
<path d="M358.722 332.46C358.577 332.473 358.432 332.457 358.294 332.41C358.156 332.364 358.029 332.29 357.922 332.192C357.815 332.094 357.729 331.975 357.67 331.842C357.612 331.709 357.581 331.566 357.581 331.42C357.581 331.275 357.612 331.132 357.67 330.999C357.729 330.866 357.815 330.747 357.922 330.649C358.029 330.551 358.156 330.477 358.294 330.43C358.432 330.384 358.577 330.367 358.722 330.381H362.259C362.518 330.405 362.759 330.525 362.934 330.717C363.109 330.91 363.206 331.16 363.206 331.42C363.206 331.681 363.109 331.931 362.934 332.124C362.759 332.316 362.518 332.436 362.259 332.46H358.722Z" fill="#FEEAA2"/>
<path d="M358.722 332.1C358.577 332.114 358.432 332.097 358.294 332.051C358.156 332.004 358.029 331.93 357.922 331.832C357.815 331.734 357.729 331.615 357.67 331.482C357.612 331.35 357.581 331.206 357.581 331.061C357.581 330.915 357.612 330.772 357.67 330.639C357.729 330.506 357.815 330.387 357.922 330.289C358.029 330.191 358.156 330.117 358.294 330.071C358.432 330.024 358.577 330.008 358.722 330.021H362.259C362.518 330.045 362.759 330.165 362.934 330.357C363.109 330.55 363.206 330.8 363.206 331.061C363.206 331.321 363.109 331.571 362.934 331.764C362.759 331.956 362.518 332.076 362.259 332.1H358.722Z" fill="#F5F5F5"/>
<path d="M324.693 294.345V344.223H396.288V294.345H324.693ZM327.105 320.562H393.876V341.802H327.105V320.562ZM327.105 296.901H393.876V318.141H327.105V296.901Z" fill="#F5F5F5"/>
<path d="M323.487 299.088V296.676H254.304V299.088H323.487Z" fill="#FEEAA2"/>
<path d="M323.478 322.785V320.373H254.295V322.785H323.478Z" fill="#FEEAA2"/>
<path d="M287.1 310.41C286.825 310.41 286.562 310.301 286.368 310.107C286.174 309.913 286.065 309.649 286.065 309.375C286.065 309.1 286.174 308.837 286.368 308.643C286.562 308.449 286.825 308.34 287.1 308.34H290.7C290.974 308.34 291.238 308.449 291.432 308.643C291.626 308.837 291.735 309.1 291.735 309.375C291.735 309.649 291.626 309.913 291.432 310.107C291.238 310.301 290.974 310.41 290.7 310.41H287.1Z" fill="#FEEAA2"/>
<path d="M287.1 310.05C286.841 310.026 286.6 309.906 286.425 309.714C286.25 309.522 286.153 309.271 286.153 309.011C286.153 308.751 286.25 308.5 286.425 308.308C286.6 308.115 286.841 307.995 287.1 307.971H290.7C290.959 307.995 291.2 308.115 291.375 308.308C291.55 308.5 291.647 308.751 291.647 309.011C291.647 309.271 291.55 309.522 291.375 309.714C291.2 309.906 290.959 310.026 290.7 310.05H287.1Z" fill="#F5F5F5"/>
<path d="M287.1 332.46C286.841 332.436 286.6 332.316 286.425 332.124C286.25 331.931 286.153 331.68 286.153 331.42C286.153 331.16 286.25 330.909 286.425 330.717C286.6 330.525 286.841 330.405 287.1 330.381H290.7C290.959 330.405 291.2 330.525 291.375 330.717C291.55 330.909 291.647 331.16 291.647 331.42C291.647 331.68 291.55 331.931 291.375 332.124C291.2 332.316 290.959 332.436 290.7 332.46H287.1Z" fill="#FEEAA2"/>
<path d="M287.1 332.1C286.841 332.076 286.6 331.956 286.425 331.764C286.25 331.571 286.153 331.321 286.153 331.06C286.153 330.8 286.25 330.55 286.425 330.357C286.6 330.165 286.841 330.045 287.1 330.021H290.7C290.959 330.045 291.2 330.165 291.375 330.357C291.55 330.55 291.647 330.8 291.647 331.06C291.647 331.321 291.55 331.571 291.375 331.764C291.2 331.956 290.959 332.076 290.7 332.1H287.1Z" fill="#F5F5F5"/>
<path d="M253.089 294.345V344.223H324.693V294.345H253.089ZM255.51 320.562H322.272V341.802H255.51V320.562ZM255.51 296.901H322.272V318.141H255.51V296.901Z" fill="#F5F5F5"/>
<path d="M355.5 290.403H344.826L342.351 279.9H338.076L335.61 290.403H324.9C324.465 290.402 324.035 290.486 323.633 290.652C323.231 290.817 322.866 291.06 322.559 291.367C322.251 291.674 322.007 292.038 321.84 292.44C321.674 292.841 321.588 293.271 321.588 293.706V294.345H358.794V293.706C358.794 292.831 358.447 291.993 357.83 291.374C357.212 290.754 356.374 290.405 355.5 290.403Z" fill="#FEEAA2"/>
<path d="M293.405 284.8V224.546H387.04V284.8H293.405Z" fill="#3EB449" stroke="black"/>
<path d="M385.74 225.846H294.705V280.8H385.74V225.846Z" fill="#F5F5F5"/>
<path d="M344.88 280.8H378.369L358.56 225.846H325.071L344.88 280.8Z" fill="#FAFAFA"/>
<path d="M328.671 280.8H336.033L316.224 225.846H308.862L328.671 280.8Z" fill="#FAFAFA"/>
<path d="M198.783 344.268H104.076V328.023H201.483L198.783 344.268Z" fill="#F5F5F5"/>
<path d="M111.771 344.385H69.741L67.941 328.023H109.971L111.771 344.385Z" fill="#FEEAA2"/>
<path d="M220.662 381.339C317.036 381.339 395.163 376.778 395.163 371.151C395.163 365.524 317.036 360.963 220.662 360.963C124.288 360.963 46.161 365.524 46.161 371.151C46.161 376.778 124.288 381.339 220.662 381.339Z" fill="#F5F5F5"/>
<path d="M337.662 369.873H333.351L332.406 304.101H338.607L337.662 369.873Z" fill="#263238"/>
<path opacity="0.5" d="M337.662 369.873H333.351L332.406 304.101H338.607L337.662 369.873Z" fill="white"/>
<path d="M299.592 369.873H295.272L294.336 304.101H300.537L299.592 369.873Z" fill="#263238"/>
<path opacity="0.5" d="M299.592 369.873H295.272L294.336 304.101H300.537L299.592 369.873Z" fill="white"/>
<path d="M290.754 369.873H286.443L285.498 304.101H291.699L290.754 369.873Z" fill="#263238"/>
<path opacity="0.5" d="M290.754 369.873H286.443L285.498 304.101H291.699L290.754 369.873Z" fill="white"/>
<path d="M252.684 369.873H248.364L247.428 304.101H253.629L252.684 369.873Z" fill="#263238"/>
<path opacity="0.5" d="M252.684 369.873H248.364L247.428 304.101H253.629L252.684 369.873Z" fill="white"/>
<path d="M316.98 305.613H247.005C246.247 305.613 245.497 305.464 244.797 305.174C244.097 304.884 243.461 304.459 242.926 303.923C242.39 303.387 241.965 302.751 241.675 302.051C241.385 301.352 241.236 300.601 241.236 299.844V292.158C241.238 290.629 241.847 289.164 242.929 288.084C244.01 287.004 245.476 286.398 247.005 286.398H308.961L314.298 235.62C314.661 232.646 316.084 229.902 318.305 227.892C320.527 225.882 323.399 224.74 326.394 224.676H352.395L346.185 243.63L340.515 286.083L336.528 297.945L316.98 305.613Z" fill="#8CB817"/>
<path opacity="0.2" d="M316.98 305.613H247.005C246.247 305.613 245.497 305.464 244.797 305.174C244.097 304.884 243.461 304.459 242.926 303.923C242.39 303.387 241.965 302.751 241.675 302.051C241.385 301.352 241.236 300.601 241.236 299.844V292.158C241.238 290.629 241.847 289.164 242.929 288.084C244.01 287.004 245.476 286.398 247.005 286.398H308.961L314.298 235.62C314.661 232.646 316.084 229.902 318.305 227.892C320.527 225.882 323.399 224.74 326.394 224.676H352.395L346.185 243.63L340.515 286.083L336.528 297.945L316.98 305.613Z" fill="black"/>
<path d="M354.546 224.676H349.353C346.359 224.741 343.488 225.883 341.268 227.893C339.048 229.903 337.627 232.647 337.266 235.62L331.929 286.398H293.751C292.224 286.4 290.76 287.008 289.681 288.088C288.601 289.167 287.993 290.631 287.991 292.158V299.844C287.991 301.372 288.598 302.838 289.678 303.92C290.757 305.002 292.223 305.611 293.751 305.613H339.939C341.693 305.614 343.384 304.964 344.687 303.791C345.99 302.618 346.812 301.003 346.995 299.259L353.043 241.713C355.465 241.664 357.78 240.707 359.53 239.032C361.281 237.357 362.338 235.086 362.493 232.668C362.512 231.617 362.32 230.573 361.928 229.597C361.536 228.622 360.953 227.735 360.211 226.99C359.47 226.244 358.587 225.655 357.613 225.258C356.64 224.86 355.597 224.662 354.546 224.676Z" fill="#8CB817"/>
<path d="M254.178 342.702L257.175 362.286L263.358 361.755L262.494 341.991L254.178 342.702Z" fill="#EBB376"/>
<path d="M263.574 354.096C263.574 354.096 263.871 359.154 265.086 361.674C266.301 364.194 267.984 367.542 263.871 367.911C261.441 368.127 257.193 369.135 252.54 369.585C249.327 369.891 244.926 369.585 244.773 367.884C244.593 365.913 255.987 361.782 255.942 359.883C255.897 357.984 255.384 354.708 255.384 354.708L263.574 354.096Z" fill="#263238"/>
<path opacity="0.1" d="M263.574 354.096C263.574 354.096 263.871 359.154 265.086 361.674C266.301 364.194 267.984 367.542 263.871 367.911C261.441 368.127 257.193 369.135 252.54 369.585C249.327 369.891 244.926 369.585 244.773 367.884C244.593 365.913 255.987 361.782 255.942 359.883C255.897 357.984 255.384 354.708 255.384 354.708L263.574 354.096Z" fill="white"/>
<path d="M294.471 249.543L292.797 263.475C292.797 263.475 245.25 267.651 242.541 279.54C239.976 290.844 254.007 348.237 254.007 348.237L263.502 347.292C263.502 347.292 264.825 302.913 260.667 287.082C260.667 287.082 296.811 286.812 308.862 287.082C314.262 287.208 328.113 287.028 324.684 271.278C320.778 253.278 316.647 249.543 316.647 249.543L316.503 241.659H294.903L294.471 249.543Z" fill="#8CB817"/>
<path opacity="0.2" d="M294.471 249.543L292.797 263.475C292.797 263.475 245.25 267.651 242.541 279.54C239.976 290.844 254.007 348.237 254.007 348.237L263.502 347.292C263.502 347.292 264.825 302.913 260.667 287.082C260.667 287.082 296.811 286.812 308.862 287.082C314.262 287.208 328.113 287.028 324.684 271.278C320.778 253.278 316.647 249.543 316.647 249.543L316.503 241.659H294.903L294.471 249.543Z" fill="white"/>
<path d="M253.089 348.48L253.881 350.811C253.956 351.02 254.098 351.2 254.285 351.32C254.472 351.441 254.694 351.496 254.916 351.477L263.205 350.712C263.437 350.691 263.654 350.59 263.819 350.426C263.983 350.261 264.085 350.044 264.105 349.812L264.258 347.4C264.265 347.257 264.241 347.114 264.188 346.981C264.135 346.848 264.055 346.728 263.951 346.629C263.848 346.53 263.725 346.455 263.59 346.408C263.455 346.36 263.311 346.343 263.169 346.356L253.935 347.202C253.789 347.216 253.648 347.264 253.523 347.339C253.397 347.415 253.29 347.518 253.209 347.64C253.128 347.763 253.075 347.901 253.055 348.046C253.034 348.192 253.045 348.34 253.089 348.48Z" fill="#8CB817"/>
<path opacity="0.6" d="M253.089 348.48L253.881 350.811C253.956 351.02 254.098 351.2 254.285 351.32C254.472 351.441 254.694 351.496 254.916 351.477L263.205 350.712C263.437 350.691 263.654 350.59 263.819 350.426C263.983 350.261 264.085 350.044 264.105 349.812L264.258 347.4C264.265 347.257 264.241 347.114 264.188 346.981C264.135 346.848 264.055 346.728 263.951 346.629C263.848 346.53 263.725 346.455 263.59 346.408C263.455 346.36 263.311 346.343 263.169 346.356L253.935 347.202C253.789 347.216 253.648 347.264 253.523 347.339C253.397 347.415 253.29 347.518 253.209 347.64C253.128 347.763 253.075 347.901 253.055 348.046C253.034 348.192 253.045 348.34 253.089 348.48Z" fill="white"/>
<path d="M272.394 342.306L273.717 362.079H279.918L280.746 342.306H272.394Z" fill="#EBB376"/>
<path d="M280.629 356.085C280.629 356.085 280.467 361.152 281.457 363.771C282.447 366.39 283.824 369.873 279.657 369.873C277.227 369.873 272.916 369.927 268.317 369.585C265.095 369.351 260.64 369.873 260.64 368.136C260.64 366.156 272.691 362.943 272.808 361.053C272.925 359.163 272.808 355.977 272.808 355.977L280.629 356.085Z" fill="#263238"/>
<path d="M301.914 249.543L300.393 263.475C300.393 263.475 270.819 267.498 266.076 274.581C261.333 281.664 272.475 351.36 272.475 351.36H280.746C286.65 312.66 283.581 287.028 283.581 287.028H320.67C344.295 287.028 323.271 249.543 323.271 249.543L323.361 241.263L301.5 242.523L301.914 249.543Z" fill="#8CB817"/>
<path opacity="0.3" d="M301.914 249.543L300.393 263.475C300.393 263.475 270.819 267.498 266.076 274.581C261.333 281.664 272.475 351.36 272.475 351.36H280.746C286.65 312.66 283.581 287.028 283.581 287.028H320.67C344.295 287.028 323.271 249.543 323.271 249.543L323.361 241.263L301.5 242.523L301.914 249.543Z" fill="white"/>
<path d="M270.963 350.01L271.584 352.557C271.631 352.758 271.747 352.937 271.911 353.063C272.075 353.19 272.277 353.256 272.484 353.25H280.719C280.928 353.255 281.133 353.186 281.297 353.056C281.461 352.927 281.575 352.744 281.619 352.539L282.168 349.983C282.198 349.85 282.197 349.711 282.166 349.578C282.134 349.444 282.073 349.32 281.986 349.214C281.899 349.108 281.79 349.024 281.665 348.967C281.541 348.91 281.405 348.882 281.268 348.885H271.854C271.715 348.882 271.577 348.911 271.451 348.97C271.326 349.03 271.215 349.117 271.129 349.226C271.042 349.335 270.983 349.463 270.954 349.599C270.925 349.735 270.928 349.875 270.963 350.01Z" fill="#8CB817"/>
<path opacity="0.6" d="M270.963 350.01L271.584 352.557C271.631 352.758 271.747 352.937 271.911 353.063C272.075 353.19 272.277 353.256 272.484 353.25H280.719C280.928 353.255 281.133 353.186 281.297 353.056C281.461 352.927 281.575 352.744 281.619 352.539L282.168 349.983C282.198 349.85 282.197 349.711 282.166 349.578C282.134 349.444 282.073 349.32 281.986 349.214C281.899 349.108 281.79 349.024 281.665 348.967C281.541 348.91 281.405 348.882 281.268 348.885H271.854C271.715 348.882 271.577 348.911 271.451 348.97C271.326 349.03 271.215 349.117 271.129 349.226C271.042 349.335 270.983 349.463 270.954 349.599C270.925 349.735 270.928 349.875 270.963 350.01Z" fill="white"/>
<path d="M259.443 241.596L252.747 242.901L246.447 241.056C245.574 240.938 244.686 241.045 243.866 241.368C243.047 241.691 242.324 242.219 241.767 242.901C240.855 243.991 240.357 245.368 240.363 246.789V247.032H253.314L260.343 246.087L259.443 241.596Z" fill="#EBB376"/>
<path d="M295.623 202.869C295.613 202.561 295.511 202.262 295.332 202.011C295.152 201.76 294.903 201.568 294.614 201.458C294.326 201.348 294.011 201.327 293.71 201.395C293.41 201.463 293.136 201.619 292.923 201.843C290.763 203.967 287.658 206.46 286.209 219.843C284.346 237.078 255.609 241.353 255.609 241.353L256.977 247.653C256.977 247.653 278.145 248.373 286.911 239.229C298.251 227.484 296.595 209.853 295.623 202.869Z" fill="#8CB817"/>
<path opacity="0.2" d="M295.623 202.869C295.613 202.561 295.511 202.262 295.332 202.011C295.152 201.76 294.903 201.568 294.614 201.458C294.326 201.348 294.011 201.327 293.71 201.395C293.41 201.463 293.136 201.619 292.923 201.843C290.763 203.967 287.658 206.46 286.209 219.843C284.346 237.078 255.609 241.353 255.609 241.353L256.977 247.653C256.977 247.653 278.145 248.373 286.911 239.229C298.251 227.484 296.595 209.853 295.623 202.869Z" fill="white"/>
<path d="M321.381 175.05C318.78 157.617 304.101 163.899 304.101 163.899C294.615 167.319 297.801 179.1 297.801 185.499C297.801 191.898 296.991 194.112 296.991 194.112C298.089 193.869 299.106 193.662 300.087 193.464L300.429 191.457L301.023 193.257C308.997 191.736 313.299 191.754 315.621 192.24C316.274 191.051 316.744 189.771 317.016 188.442C317.016 188.442 318.15 189.18 317.016 192.672C318.393 193.293 318.33 194.094 318.33 194.094C318.33 194.094 324 192.483 321.381 175.05Z" fill="#263238"/>
<path d="M330.399 200.844L296.1 200.439C295.299 200.426 294.519 200.699 293.901 201.209C293.283 201.718 292.866 202.431 292.725 203.22C288.675 225.612 291.438 224.82 291.438 224.82L293.166 252.225H297C298.122 252.226 299.209 251.838 300.077 251.128C300.945 250.417 301.54 249.428 301.761 248.328L302.148 246.402L303.165 249.102C303.51 250.019 304.125 250.809 304.928 251.37C305.731 251.931 306.685 252.235 307.665 252.243H325.17C323.136 231.201 329.805 210.897 332.127 203.31C332.218 203.032 332.243 202.737 332.2 202.448C332.157 202.159 332.048 201.884 331.88 201.644C331.712 201.405 331.491 201.208 331.234 201.069C330.977 200.93 330.691 200.853 330.399 200.844Z" fill="#8CB817"/>
<path opacity="0.4" d="M330.399 200.844L296.1 200.439C295.299 200.426 294.519 200.699 293.901 201.209C293.283 201.718 292.866 202.431 292.725 203.22C288.675 225.612 291.438 224.82 291.438 224.82L293.166 252.225H297C298.122 252.226 299.209 251.838 300.077 251.128C300.945 250.417 301.54 249.428 301.761 248.328L302.148 246.402L303.165 249.102C303.51 250.019 304.125 250.809 304.928 251.37C305.731 251.931 306.685 252.235 307.665 252.243H325.17C323.136 231.201 329.805 210.897 332.127 203.31C332.218 203.032 332.243 202.737 332.2 202.448C332.157 202.159 332.048 201.884 331.88 201.644C331.712 201.405 331.491 201.208 331.234 201.069C330.977 200.93 330.691 200.853 330.399 200.844Z" fill="white"/>
<path d="M254.7 241.254L255.969 247.896C256.014 248.123 256.138 248.327 256.32 248.47C256.501 248.614 256.728 248.688 256.959 248.679L258.237 248.625C258.371 248.619 258.502 248.585 258.622 248.525C258.741 248.465 258.847 248.38 258.932 248.277C259.017 248.173 259.079 248.053 259.114 247.924C259.15 247.795 259.157 247.659 259.137 247.527L258.084 240.453C258.065 240.314 258.015 240.18 257.938 240.062C257.862 239.944 257.76 239.844 257.641 239.77C257.522 239.695 257.388 239.648 257.248 239.63C257.109 239.613 256.967 239.627 256.833 239.67L255.33 240.156C255.111 240.234 254.927 240.387 254.812 240.588C254.696 240.79 254.657 241.026 254.7 241.254Z" fill="#8CB817"/>
<path opacity="0.6" d="M254.7 241.254L255.969 247.896C256.014 248.123 256.138 248.327 256.32 248.47C256.501 248.614 256.728 248.688 256.959 248.679L258.237 248.625C258.371 248.619 258.502 248.585 258.622 248.525C258.741 248.465 258.847 248.38 258.932 248.277C259.017 248.173 259.079 248.053 259.114 247.924C259.15 247.795 259.157 247.659 259.137 247.527L258.084 240.453C258.065 240.314 258.015 240.18 257.938 240.062C257.862 239.944 257.76 239.844 257.641 239.77C257.522 239.695 257.388 239.648 257.248 239.63C257.109 239.613 256.967 239.627 256.833 239.67L255.33 240.156C255.111 240.234 254.927 240.387 254.812 240.588C254.696 240.79 254.657 241.026 254.7 241.254Z" fill="white"/>
<path d="M314.1 184.194C313.596 188.784 313.434 197.118 316.854 199.854C316.854 199.854 315.549 204.489 306.756 205.353C300.51 202.599 302.832 201.069 302.832 201.069C307.755 199.404 308.232 195.714 307.116 192.285L314.1 184.194Z" fill="#EBB376"/>
<path opacity="0.1" d="M313.326 189.297L311.526 188.829L309.294 189.729L307.098 192.267C307.393 193.138 307.56 194.048 307.593 194.967C312.435 194.229 313.326 189.297 313.326 189.297Z" fill="black"/>
<path d="M317.322 174.051C317.538 181.62 317.799 184.851 314.352 189.027C309.159 195.327 299.817 193.977 297.333 186.624C295.101 180.009 295.11 168.75 302.202 165.078C303.765 164.263 305.511 163.861 307.274 163.911C309.036 163.961 310.757 164.46 312.272 165.362C313.787 166.264 315.046 167.538 315.93 169.063C316.814 170.589 317.293 172.315 317.322 174.078V174.051Z" fill="#EBB376"/>
<path d="M319.644 179.838C319.354 181.274 318.506 182.537 317.286 183.348C315.657 184.41 314.262 183.096 314.226 181.251C314.226 179.604 315.009 177.057 316.872 176.751C317.28 176.693 317.695 176.737 318.082 176.878C318.468 177.02 318.814 177.255 319.088 177.562C319.363 177.869 319.557 178.239 319.654 178.639C319.751 179.039 319.747 179.457 319.644 179.856V179.838Z" fill="#EBB376"/>
<path d="M301.113 178.704C300.699 180.149 300.094 181.533 299.313 182.817C299.644 183.013 300.013 183.135 300.396 183.172C300.779 183.209 301.165 183.162 301.527 183.033L301.113 178.704Z" fill="#D58745"/>
<path d="M306.198 174.375C306.251 174.359 306.298 174.328 306.333 174.285C306.387 174.228 306.418 174.152 306.418 174.073C306.418 173.995 306.387 173.919 306.333 173.862C305.928 173.473 305.434 173.189 304.895 173.032C304.356 172.875 303.787 172.851 303.237 172.962C303.16 172.983 303.094 173.033 303.054 173.102C303.014 173.171 303.002 173.253 303.021 173.331C303.04 173.407 303.089 173.473 303.156 173.513C303.224 173.554 303.305 173.566 303.381 173.547C303.839 173.466 304.309 173.495 304.753 173.631C305.197 173.767 305.603 174.007 305.937 174.33C305.975 174.356 306.017 174.373 306.063 174.381C306.108 174.389 306.154 174.387 306.198 174.375Z" fill="#2E353A"/>
<path d="M295.632 175.05C295.58 175.04 295.531 175.019 295.488 174.987C295.457 174.962 295.431 174.932 295.412 174.897C295.393 174.863 295.38 174.824 295.376 174.785C295.372 174.746 295.376 174.706 295.387 174.668C295.399 174.63 295.418 174.595 295.443 174.564C295.79 174.12 296.238 173.765 296.75 173.53C297.262 173.295 297.823 173.187 298.386 173.214C298.464 173.225 298.535 173.266 298.583 173.328C298.632 173.39 298.655 173.469 298.647 173.547C298.638 173.624 298.599 173.695 298.538 173.744C298.478 173.793 298.4 173.816 298.323 173.808C297.858 173.794 297.396 173.89 296.975 174.088C296.554 174.287 296.186 174.583 295.902 174.951C295.87 174.99 295.828 175.019 295.78 175.037C295.733 175.054 295.682 175.059 295.632 175.05Z" fill="#2E353A"/>
<path d="M305.343 177.3C305.406 177.912 305.118 178.434 304.713 178.479C304.308 178.524 303.948 178.056 303.894 177.435C303.84 176.814 304.119 176.301 304.515 176.256C304.911 176.211 305.289 176.679 305.343 177.3Z" fill="#2E353A"/>
<path d="M298.413 177.93C298.476 178.533 298.188 179.064 297.792 179.1C297.396 179.136 297.027 178.668 296.964 178.056C296.901 177.444 297.189 176.922 297.585 176.886C297.981 176.85 298.368 177.3 298.413 177.93Z" fill="#2E353A"/>
<path d="M297.765 176.895L296.262 176.607C296.262 176.607 297.117 177.687 297.765 176.895Z" fill="#2E353A"/>
<path d="M304.695 176.265L303.192 175.977C303.192 175.977 304.047 177.057 304.695 176.265Z" fill="#2E353A"/>
<path d="M301.149 185.463C302.071 185.578 303.008 185.481 303.887 185.18C304.767 184.879 305.566 184.382 306.225 183.726C306.225 183.726 308.475 187.821 302.409 188.487C302.312 187.373 301.872 186.316 301.149 185.463Z" fill="#263238"/>
<path d="M301.689 185.508L302.13 186.408C302.13 186.408 304.992 186.408 306.513 184.437C306.441 184.179 306.344 183.929 306.225 183.69C305.635 184.29 304.928 184.761 304.147 185.074C303.367 185.386 302.53 185.534 301.689 185.508Z" fill="white"/>
<path d="M302.823 188.424C305.793 187.992 306.567 186.624 306.63 185.526C303.696 186.3 302.985 187.767 302.823 188.424Z" fill="#DE5753"/>
<path d="M304.101 168.03C303.554 169.045 302.775 169.917 301.827 170.574C300.879 171.23 299.79 171.654 298.647 171.81C294.561 172.521 296.019 183.186 296.019 183.186C296.019 183.186 287.19 161.658 306.414 163.188L304.101 168.03Z" fill="#263238"/>
<path d="M306.9 163.602C306.58 163.529 306.249 163.524 305.927 163.586C305.605 163.649 305.299 163.777 305.03 163.965C304.76 164.152 304.533 164.393 304.362 164.673C304.192 164.953 304.081 165.266 304.038 165.591C303.813 167.391 304.191 169.641 307.098 170.577C312.237 172.224 311.76 177.66 311.76 177.66L312.66 173.628C312.66 173.628 312.948 179.388 315.846 178.704C318.744 178.02 319.032 172.584 319.032 172.584L314.244 165.258L306.9 163.602Z" fill="#263238"/>
<path d="M303.642 199.593C303.708 199.566 303.78 199.558 303.85 199.569C303.921 199.581 303.987 199.612 304.041 199.658C304.095 199.705 304.135 199.765 304.156 199.833C304.178 199.901 304.181 199.974 304.164 200.043C303.822 201.528 303.525 204.75 307.44 204.75C311.355 204.75 314.874 201.555 316.377 200.016C316.606 199.781 316.898 199.62 317.219 199.551C317.539 199.482 317.872 199.509 318.177 199.629L319.203 200.034C319.311 200.077 319.409 200.143 319.489 200.228C319.569 200.313 319.629 200.414 319.666 200.524C319.703 200.635 319.715 200.752 319.702 200.868C319.689 200.984 319.651 201.095 319.59 201.195C317.853 204.075 311.625 213.255 306.594 205.812C306.594 205.812 303.669 210.312 301.869 206.289C301.207 204.769 301.064 203.074 301.464 201.465C301.549 201.109 301.72 200.78 301.961 200.505C302.203 200.231 302.508 200.019 302.85 199.89L303.642 199.593Z" fill="#8CB817"/>
<path opacity="0.6" d="M303.642 199.593C303.708 199.566 303.78 199.558 303.85 199.569C303.921 199.581 303.987 199.612 304.041 199.658C304.095 199.705 304.135 199.765 304.156 199.833C304.178 199.901 304.181 199.974 304.164 200.043C303.822 201.528 303.525 204.75 307.44 204.75C311.355 204.75 314.874 201.555 316.377 200.016C316.606 199.781 316.898 199.62 317.219 199.551C317.539 199.482 317.872 199.509 318.177 199.629L319.203 200.034C319.311 200.077 319.409 200.143 319.489 200.228C319.569 200.313 319.629 200.414 319.666 200.524C319.703 200.635 319.715 200.752 319.702 200.868C319.689 200.984 319.651 201.095 319.59 201.195C317.853 204.075 311.625 213.255 306.594 205.812C306.594 205.812 303.669 210.312 301.869 206.289C301.207 204.769 301.064 203.074 301.464 201.465C301.549 201.109 301.72 200.78 301.961 200.505C302.203 200.231 302.508 200.019 302.85 199.89L303.642 199.593Z" fill="white"/>
<path d="M286.029 205.038C286.15 204.944 286.289 204.877 286.438 204.839C286.586 204.802 286.741 204.796 286.892 204.821C287.043 204.846 287.187 204.901 287.316 204.984C287.445 205.067 287.555 205.176 287.64 205.304C287.724 205.431 287.782 205.575 287.809 205.725C287.836 205.876 287.831 206.031 287.796 206.18C287.761 206.329 287.695 206.469 287.603 206.591C287.511 206.714 287.395 206.816 287.262 206.892L270.981 217.692C270.859 217.772 270.723 217.828 270.58 217.855C270.436 217.883 270.289 217.882 270.146 217.853C269.858 217.794 269.604 217.623 269.442 217.377C269.28 217.131 269.222 216.831 269.281 216.542C269.34 216.253 269.511 216 269.757 215.838L286.029 205.038Z" fill="#263238"/>
<path opacity="0.6" d="M286.029 205.038C286.15 204.944 286.289 204.877 286.438 204.839C286.586 204.802 286.741 204.796 286.892 204.821C287.043 204.846 287.187 204.901 287.316 204.984C287.445 205.067 287.555 205.176 287.64 205.304C287.724 205.431 287.782 205.575 287.809 205.725C287.836 205.876 287.831 206.031 287.796 206.18C287.761 206.329 287.695 206.469 287.603 206.591C287.511 206.714 287.395 206.816 287.262 206.892L270.981 217.692C270.859 217.772 270.723 217.828 270.58 217.855C270.436 217.883 270.289 217.882 270.146 217.853C269.858 217.794 269.604 217.623 269.442 217.377C269.28 217.131 269.222 216.831 269.281 216.542C269.34 216.253 269.511 216 269.757 215.838L286.029 205.038Z" fill="white"/>
<path d="M269.757 215.811C269.241 216.346 268.805 216.952 268.461 217.611C268.429 217.668 268.413 217.732 268.415 217.798C268.417 217.863 268.438 217.927 268.475 217.981C268.511 218.035 268.562 218.078 268.622 218.105C268.681 218.132 268.747 218.142 268.812 218.133C269.554 218.078 270.284 217.917 270.981 217.656C271.103 217.576 271.207 217.472 271.289 217.351C271.371 217.23 271.428 217.095 271.457 216.952C271.486 216.809 271.487 216.662 271.46 216.518C271.432 216.375 271.376 216.239 271.296 216.117C271.216 215.995 271.112 215.891 270.991 215.809C270.87 215.727 270.735 215.67 270.592 215.641C270.449 215.611 270.302 215.611 270.158 215.638C270.015 215.666 269.879 215.722 269.757 215.802V215.811Z" fill="#263238"/>
<path opacity="0.8" d="M269.757 215.811C269.241 216.346 268.805 216.952 268.461 217.611C268.429 217.668 268.413 217.732 268.415 217.798C268.417 217.863 268.438 217.927 268.475 217.981C268.511 218.035 268.562 218.078 268.622 218.105C268.681 218.132 268.747 218.142 268.812 218.133C269.554 218.078 270.284 217.917 270.981 217.656C271.103 217.576 271.207 217.472 271.289 217.351C271.371 217.23 271.428 217.095 271.457 216.952C271.486 216.809 271.487 216.662 271.46 216.518C271.432 216.375 271.376 216.239 271.296 216.117C271.216 215.995 271.112 215.891 270.991 215.809C270.87 215.727 270.735 215.67 270.592 215.641C270.449 215.611 270.302 215.611 270.158 215.638C270.015 215.666 269.879 215.722 269.757 215.802V215.811Z" fill="white"/>
<path d="M292.239 223.002L285.138 218.025L283.5 211.212C283.348 210.554 283.015 209.952 282.537 209.474C282.06 208.997 281.458 208.663 280.8 208.512C279.947 208.318 279.053 208.441 278.285 208.859C277.516 209.276 276.926 209.959 276.624 210.78L276.075 212.256C275.928 212.656 275.851 213.08 275.85 213.507V214.758C275.85 215.657 276.187 216.524 276.795 217.188L277.767 218.25C278.028 218.533 278.331 218.773 278.667 218.961L282.879 221.31L289.53 227.952L292.239 223.002Z" fill="#EBB376"/>
<path d="M328.554 202.824C328.714 202.374 328.988 201.973 329.35 201.661C329.712 201.349 330.15 201.138 330.619 201.047C331.088 200.956 331.572 200.989 332.025 201.143C332.477 201.297 332.882 201.566 333.198 201.924C334.701 203.778 335.565 207.324 333 214.317C327.879 228.222 319.725 239.139 309.51 239.139C297.396 239.139 285.138 225.117 285.138 225.117L289.386 220.113C289.386 220.113 301.689 228.456 309.897 228.456C314.586 228.492 322.2 219.384 328.554 202.824Z" fill="#8CB817"/>
<path opacity="0.2" d="M328.554 202.824C328.714 202.374 328.988 201.973 329.35 201.661C329.712 201.349 330.15 201.138 330.619 201.047C331.088 200.956 331.572 200.989 332.025 201.143C332.477 201.297 332.882 201.566 333.198 201.924C334.701 203.778 335.565 207.324 333 214.317C327.879 228.222 319.725 239.139 309.51 239.139C297.396 239.139 285.138 225.117 285.138 225.117L289.386 220.113C289.386 220.113 301.689 228.456 309.897 228.456C314.586 228.492 322.2 219.384 328.554 202.824Z" fill="white"/>
<path d="M284.076 224.604L288.864 218.826C288.945 218.729 289.06 218.666 289.185 218.651C289.311 218.636 289.437 218.669 289.539 218.745L291.591 220.239C291.646 220.278 291.693 220.329 291.727 220.388C291.762 220.446 291.785 220.511 291.793 220.579C291.801 220.647 291.796 220.715 291.777 220.781C291.757 220.846 291.725 220.907 291.681 220.959L286.281 227.448C286.232 227.508 286.168 227.557 286.097 227.588C286.025 227.62 285.947 227.634 285.869 227.63C285.791 227.625 285.715 227.603 285.647 227.563C285.579 227.524 285.522 227.469 285.48 227.403L284.022 225.198C283.967 225.106 283.942 224.999 283.952 224.892C283.961 224.785 284.005 224.684 284.076 224.604Z" fill="#8CB817"/>
<path opacity="0.6" d="M284.076 224.604L288.864 218.826C288.945 218.729 289.06 218.666 289.185 218.651C289.311 218.636 289.437 218.669 289.539 218.745L291.591 220.239C291.646 220.278 291.693 220.329 291.727 220.388C291.762 220.446 291.785 220.511 291.793 220.579C291.801 220.647 291.796 220.715 291.777 220.781C291.757 220.846 291.725 220.907 291.681 220.959L286.281 227.448C286.232 227.508 286.168 227.557 286.097 227.588C286.025 227.62 285.947 227.634 285.869 227.63C285.791 227.625 285.715 227.603 285.647 227.563C285.579 227.524 285.522 227.469 285.48 227.403L284.022 225.198C283.967 225.106 283.942 224.999 283.952 224.892C283.961 224.785 284.005 224.684 284.076 224.604Z" fill="white"/>
<path d="M306.18 163.116H304.497V163.179C307.594 163.503 310.46 164.963 312.544 167.277C314.628 169.59 315.782 172.593 315.783 175.707H318.771C318.769 172.368 317.441 169.167 315.081 166.806C312.72 164.445 309.519 163.118 306.18 163.116Z" fill="#263238"/>
<path opacity="0.6" d="M306.18 163.116H304.497V163.179C307.594 163.503 310.46 164.963 312.544 167.277C314.628 169.59 315.782 172.593 315.783 175.707H318.771C318.769 172.368 317.441 169.167 315.081 166.806C312.72 164.445 309.519 163.118 306.18 163.116Z" fill="white"/>
<path d="M317.322 185.535C319.579 185.535 321.408 183.089 321.408 180.072C321.408 177.055 319.579 174.609 317.322 174.609C315.065 174.609 313.236 177.055 313.236 180.072C313.236 183.089 315.065 185.535 317.322 185.535Z" fill="#8CB817"/>
<path d="M321.876 180.072C321.876 182.511 321.138 183.672 319.176 183.672C317.214 183.672 316.476 182.529 316.476 180.072C316.476 177.615 317.223 176.472 319.176 176.472C321.129 176.472 321.876 177.624 321.876 180.072Z" fill="#263238"/>
<path opacity="0.5" d="M321.876 180.072C321.876 182.511 321.138 183.672 319.176 183.672C317.214 183.672 316.476 182.529 316.476 180.072C316.476 177.615 317.223 176.472 319.176 176.472C321.129 176.472 321.876 177.624 321.876 180.072Z" fill="white"/>
<path d="M319.77 183.321C321.112 183.321 322.2 181.866 322.2 180.072C322.2 178.277 321.112 176.823 319.77 176.823C318.428 176.823 317.34 178.277 317.34 180.072C317.34 181.866 318.428 183.321 319.77 183.321Z" fill="#263238"/>
<path opacity="0.7" d="M319.77 183.321C321.112 183.321 322.2 181.866 322.2 180.072C322.2 178.277 321.112 176.823 319.77 176.823C318.428 176.823 317.34 178.277 317.34 180.072C317.34 181.866 318.428 183.321 319.77 183.321Z" fill="white"/>
<path d="M153.072 369.873H148.761L146.871 257.103H154.962L153.072 369.873Z" fill="#263238"/>
<path opacity="0.7" d="M153.072 369.873H148.761L146.871 257.103H154.962L153.072 369.873Z" fill="white"/>
<path d="M200.691 369.873H196.371L194.481 257.103H202.581L200.691 369.873Z" fill="#263238"/>
<path opacity="0.7" d="M200.691 369.873H196.371L194.481 257.103H202.581L200.691 369.873Z" fill="white"/>
<path d="M232.308 255.213H150.912V264.033H232.308V255.213Z" fill="#263238"/>
<path opacity="0.5" d="M232.308 255.213H150.912V264.033H232.308V255.213Z" fill="white"/>
<path d="M280.053 255.213H232.317V264.033H280.053V255.213Z" fill="#263238"/>
<path opacity="0.5" d="M280.053 255.213H232.317V264.033H280.053V255.213Z" fill="white"/>
<path d="M282.087 369.873H277.767L275.877 257.103H283.968L282.087 369.873Z" fill="#263238"/>
<path opacity="0.7" d="M282.087 369.873H277.767L275.877 257.103H283.968L282.087 369.873Z" fill="white"/>
<path d="M286.524 249.543H222.966C221.649 249.543 220.581 250.611 220.581 251.928V254.718C220.581 256.035 221.649 257.103 222.966 257.103H286.524C287.841 257.103 288.909 256.035 288.909 254.718V251.928C288.909 250.611 287.841 249.543 286.524 249.543Z" fill="#263238"/>
<path d="M228.834 249.543H142.551C141.234 249.543 140.166 250.611 140.166 251.928V254.718C140.166 256.035 141.234 257.103 142.551 257.103H228.834C230.151 257.103 231.219 256.035 231.219 254.718V251.928C231.219 250.611 230.151 249.543 228.834 249.543Z" fill="#263238"/>
<path opacity="0.2" d="M228.834 249.543H142.551C141.234 249.543 140.166 250.611 140.166 251.928V254.718C140.166 256.035 141.234 257.103 142.551 257.103H228.834C230.151 257.103 231.219 256.035 231.219 254.718V251.928C231.219 250.611 230.151 249.543 228.834 249.543Z" fill="white"/>
<path d="M234.468 369.873H230.157L228.267 257.103H236.358L234.468 369.873Z" fill="#263238"/>
<path opacity="0.7" d="M234.468 369.873H230.157L228.267 257.103H236.358L234.468 369.873Z" fill="white"/>
<path d="M232.2 249.552C231.866 249.552 231.545 249.419 231.309 249.183C231.073 248.946 230.94 248.626 230.94 248.292C230.94 247.958 231.073 247.637 231.309 247.401C231.545 247.164 231.866 247.032 232.2 247.032H266.535C266.869 247.032 267.19 247.164 267.426 247.401C267.662 247.637 267.795 247.958 267.795 248.292C267.795 248.626 267.662 248.946 267.426 249.183C267.19 249.419 266.869 249.552 266.535 249.552H232.2Z" fill="#8CB817"/>
<path d="M235.152 247.374L230.58 214.848C230.484 214.256 230.184 213.716 229.732 213.322C229.28 212.927 228.705 212.703 228.105 212.688H223.731V249.543H233.289C233.565 249.559 233.841 249.51 234.096 249.402C234.35 249.294 234.576 249.128 234.756 248.919C234.936 248.709 235.066 248.46 235.134 248.193C235.203 247.925 235.209 247.645 235.152 247.374Z" fill="#8CB817"/>
<path d="M231.399 249.543H192.6C192 249.527 191.425 249.301 190.974 248.905C190.524 248.508 190.226 247.967 190.134 247.374L185.562 214.848C185.506 214.578 185.514 214.299 185.583 214.032C185.652 213.765 185.782 213.518 185.962 213.309C186.142 213.101 186.367 212.936 186.621 212.828C186.875 212.721 187.15 212.673 187.425 212.688H226.242C226.841 212.705 227.416 212.93 227.867 213.324C228.319 213.718 228.619 214.257 228.717 214.848L233.289 247.374C233.347 247.647 233.341 247.929 233.271 248.199C233.2 248.47 233.069 248.72 232.885 248.93C232.702 249.14 232.472 249.305 232.214 249.412C231.956 249.518 231.677 249.563 231.399 249.543Z" fill="#8CB817"/>
<path opacity="0.7" d="M231.399 249.543H192.6C192 249.527 191.425 249.301 190.974 248.905C190.524 248.508 190.226 247.967 190.134 247.374L185.562 214.848C185.506 214.578 185.514 214.299 185.583 214.032C185.652 213.765 185.782 213.518 185.962 213.309C186.142 213.101 186.367 212.936 186.621 212.828C186.875 212.721 187.15 212.673 187.425 212.688H226.242C226.841 212.705 227.416 212.93 227.867 213.324C228.319 213.718 228.619 214.257 228.717 214.848L233.289 247.374C233.347 247.647 233.341 247.929 233.271 248.199C233.2 248.47 233.069 248.72 232.885 248.93C232.702 249.14 232.472 249.305 232.214 249.412C231.956 249.518 231.677 249.563 231.399 249.543Z" fill="white"/>
<path opacity="0.7" d="M211.293 230.229C211.337 230.475 211.326 230.727 211.26 230.969C211.195 231.21 211.076 231.433 210.913 231.623C210.75 231.813 210.547 231.963 210.319 232.065C210.09 232.166 209.842 232.215 209.592 232.209C209.045 232.191 208.52 231.984 208.108 231.623C207.696 231.262 207.422 230.769 207.333 230.229C207.289 229.983 207.3 229.73 207.366 229.489C207.431 229.247 207.55 229.024 207.713 228.834C207.876 228.645 208.079 228.494 208.307 228.392C208.536 228.291 208.784 228.242 209.034 228.249C209.583 228.263 210.109 228.469 210.521 228.83C210.934 229.192 211.207 229.687 211.293 230.229Z" fill="white"/>
<path d="M177.975 230.814H162.981C162.743 230.814 162.508 230.867 162.292 230.968C162.076 231.069 161.885 231.216 161.732 231.398C161.58 231.581 161.469 231.795 161.408 232.025C161.347 232.256 161.337 232.497 161.379 232.731V232.866C160.631 232.68 159.846 232.705 159.111 232.938C156.411 233.748 156.33 236.16 157.14 238.869C157.95 241.578 159.336 243.549 162.045 242.739C162.481 242.606 162.896 242.412 163.278 242.163C163.815 243.431 164.686 244.529 165.798 245.34V247.32H175.104V245.34C176.671 244.204 177.741 242.509 178.092 240.606L179.55 232.731C179.592 232.499 179.583 232.26 179.523 232.032C179.464 231.804 179.355 231.591 179.205 231.409C179.056 231.226 178.868 231.079 178.656 230.976C178.443 230.873 178.211 230.818 177.975 230.814ZM161.694 241.02C159.894 241.551 158.994 240.255 158.472 238.473C157.95 236.691 157.995 235.116 159.768 234.585C160.421 234.369 161.133 234.421 161.748 234.729L162.801 240.417C162.481 240.697 162.103 240.902 161.694 241.02Z" fill="#8CB817"/>
<path opacity="0.5" d="M177.975 230.814H162.981C162.743 230.814 162.508 230.867 162.292 230.968C162.076 231.069 161.885 231.216 161.732 231.398C161.58 231.581 161.469 231.795 161.408 232.025C161.347 232.256 161.337 232.497 161.379 232.731V232.866C160.631 232.68 159.846 232.705 159.111 232.938C156.411 233.748 156.33 236.16 157.14 238.869C157.95 241.578 159.336 243.549 162.045 242.739C162.481 242.606 162.896 242.412 163.278 242.163C163.815 243.431 164.686 244.529 165.798 245.34V247.32H175.104V245.34C176.671 244.204 177.741 242.509 178.092 240.606L179.55 232.731C179.592 232.499 179.583 232.26 179.523 232.032C179.464 231.804 179.355 231.591 179.205 231.409C179.056 231.226 178.868 231.079 178.656 230.976C178.443 230.873 178.211 230.818 177.975 230.814ZM161.694 241.02C159.894 241.551 158.994 240.255 158.472 238.473C157.95 236.691 157.995 235.116 159.768 234.585C160.421 234.369 161.133 234.421 161.748 234.729L162.801 240.417C162.481 240.697 162.103 240.902 161.694 241.02Z" fill="white"/>
<path d="M175.5 249.651H165.429C164.801 249.653 164.182 249.498 163.629 249.201L160.209 247.329C160.076 247.254 159.972 247.137 159.913 246.997C159.853 246.857 159.841 246.701 159.879 246.553C159.917 246.406 160.003 246.275 160.122 246.181C160.242 246.087 160.39 246.035 160.542 246.033H180.342C180.494 246.035 180.642 246.087 180.762 246.181C180.881 246.275 180.967 246.406 181.005 246.553C181.043 246.701 181.031 246.857 180.971 246.997C180.912 247.137 180.808 247.254 180.675 247.329L177.255 249.201C176.715 249.491 176.113 249.645 175.5 249.651Z" fill="#8CB817"/>
<path opacity="0.4" d="M175.5 249.651H165.429C164.801 249.653 164.182 249.498 163.629 249.201L160.209 247.329C160.076 247.254 159.972 247.137 159.913 246.997C159.853 246.857 159.841 246.701 159.879 246.553C159.917 246.406 160.003 246.275 160.122 246.181C160.242 246.087 160.39 246.035 160.542 246.033H180.342C180.494 246.035 180.642 246.087 180.762 246.181C180.881 246.275 180.967 246.406 181.005 246.553C181.043 246.701 181.031 246.857 180.971 246.997C180.912 247.137 180.808 247.254 180.675 247.329L177.255 249.201C176.715 249.491 176.113 249.645 175.5 249.651Z" fill="white"/>
<path d="M242.613 123.561H183.078C180.473 123.561 178.362 125.672 178.362 128.277V175.608C178.362 178.213 180.473 180.324 183.078 180.324H242.613C245.218 180.324 247.329 178.213 247.329 175.608V128.277C247.329 125.672 245.218 123.561 242.613 123.561Z" fill="#8CB817"/>
<path opacity="0.6" d="M242.613 123.561H183.078C180.473 123.561 178.362 125.672 178.362 128.277V175.608C178.362 178.213 180.473 180.324 183.078 180.324H242.613C245.218 180.324 247.329 178.213 247.329 175.608V128.277C247.329 125.672 245.218 123.561 242.613 123.561Z" fill="white"/>
<path d="M210.447 134.217C210.447 134.217 205.317 131.589 202.707 137.367C200.097 143.145 193.5 139.671 196.272 151.38C199.044 163.089 187.2 159.111 192.897 167.661C198.594 176.211 207.297 170.361 212.067 170.514C216.837 170.667 226.053 173.664 228.267 168.336C230.481 163.008 226.692 161.217 226.611 158.328C226.53 155.439 231.327 148.518 227.439 145.386C220.329 139.626 223.128 130.986 210.447 134.217Z" fill="#2E353A"/>
<path d="M212.067 163.998C218.24 163.998 223.245 157.595 223.245 149.697C223.245 141.799 218.24 135.396 212.067 135.396C205.894 135.396 200.889 141.799 200.889 149.697C200.889 157.595 205.894 163.998 212.067 163.998Z" fill="#B97964"/>
<path d="M212.823 150.345C213.091 151.661 213.542 152.934 214.164 154.125C213.857 154.277 213.521 154.359 213.179 154.367C212.837 154.375 212.497 154.307 212.184 154.17L212.823 150.345Z" fill="#A24E3F"/>
<path d="M207.9 150.39C207.9 150.912 208.107 151.353 208.449 151.38C208.791 151.407 209.088 150.993 209.124 150.48C209.16 149.967 208.908 149.526 208.575 149.508C208.242 149.49 207.9 149.877 207.9 150.39Z" fill="#2E353A"/>
<path d="M206.037 148.563C205.989 148.572 205.941 148.572 205.893 148.563C205.84 148.504 205.811 148.427 205.811 148.347C205.811 148.267 205.84 148.19 205.893 148.131C206.206 147.759 206.602 147.465 207.049 147.275C207.496 147.084 207.982 147.001 208.467 147.033C208.548 147.046 208.62 147.09 208.668 147.156C208.717 147.221 208.738 147.303 208.728 147.384C208.724 147.424 208.711 147.463 208.691 147.498C208.672 147.533 208.645 147.563 208.613 147.588C208.581 147.612 208.544 147.63 208.505 147.64C208.466 147.65 208.426 147.651 208.386 147.645C208.001 147.624 207.617 147.694 207.265 147.851C206.913 148.007 206.603 148.245 206.361 148.545C206.314 148.577 206.259 148.596 206.202 148.599C206.144 148.602 206.088 148.59 206.037 148.563Z" fill="#2E353A"/>
<path d="M217.233 150.39C217.233 150.912 217.017 151.353 216.675 151.38C216.333 151.407 216.036 150.993 216 150.48C215.964 149.967 216.216 149.526 216.558 149.508C216.9 149.49 217.197 149.877 217.233 150.39Z" fill="#2E353A"/>
<path d="M219.087 148.563C219.138 148.572 219.189 148.572 219.24 148.563C219.293 148.503 219.322 148.427 219.322 148.347C219.322 148.267 219.293 148.19 219.24 148.131C218.928 147.758 218.532 147.464 218.085 147.273C217.637 147.083 217.151 147 216.666 147.033C216.587 147.048 216.516 147.093 216.467 147.158C216.419 147.223 216.397 147.303 216.405 147.384C216.41 147.424 216.424 147.463 216.445 147.498C216.465 147.533 216.493 147.564 216.526 147.588C216.558 147.612 216.596 147.63 216.635 147.64C216.675 147.649 216.716 147.651 216.756 147.645C217.141 147.625 217.524 147.696 217.876 147.853C218.228 148.009 218.538 148.246 218.781 148.545C218.825 148.576 218.877 148.595 218.931 148.598C218.986 148.601 219.039 148.589 219.087 148.563Z" fill="#2E353A"/>
<path d="M212.832 158.328C213.134 158.326 213.435 158.299 213.732 158.247C213.774 158.238 213.812 158.214 213.837 158.179C213.862 158.144 213.872 158.1 213.867 158.058C213.864 158.036 213.856 158.016 213.845 157.997C213.834 157.979 213.819 157.963 213.801 157.95C213.783 157.938 213.763 157.929 213.742 157.924C213.721 157.919 213.699 157.919 213.678 157.923C212.996 158.052 212.294 158.022 211.625 157.834C210.957 157.647 210.341 157.308 209.826 156.843C209.794 156.813 209.753 156.796 209.709 156.796C209.666 156.796 209.624 156.813 209.592 156.843C209.576 156.858 209.564 156.876 209.555 156.896C209.547 156.916 209.542 156.938 209.542 156.96C209.542 156.982 209.547 157.003 209.555 157.023C209.564 157.043 209.576 157.062 209.592 157.077C210.468 157.899 211.63 158.348 212.832 158.328Z" fill="#2E353A"/>
<path d="M211.023 173.349C215.531 173.288 219.955 172.116 223.902 169.938C222.469 169.669 221.014 169.53 219.555 169.524C217.202 170.818 214.545 171.459 211.86 171.378C207.018 171.378 204.408 169.524 204.408 169.524C203.334 169.523 202.261 169.586 201.195 169.713C202.608 171.108 205.695 173.349 211.023 173.349Z" fill="#577AFB"/>
<path d="M218.286 171.126L220.329 169.83C219.278 169.675 218.281 169.267 217.422 168.642C214.785 166.671 216.216 161.64 216.216 161.64H208.647C208.467 164.655 208.548 167.319 206.847 168.57C205.843 169.344 204.622 169.784 203.355 169.83L206.055 171.441C205.884 171.819 207.855 172.53 207.855 172.53L215.37 172.953L216.81 172.053C216.81 172.053 218.7 171.693 218.286 171.126Z" fill="#B97964"/>
<path d="M204.408 169.524C204.408 169.524 207.018 171.378 211.86 171.378C214.545 171.458 217.202 170.818 219.555 169.524C219.555 169.524 234.558 169.227 234.558 180.324H191.205C191.205 180.324 189.261 169.524 204.408 169.524Z" fill="#8CB817"/>
<path d="M200.277 146.988C200.277 146.988 200.772 151.794 202.347 151.632C203.922 151.47 202.815 144.054 205.785 143.532C208.755 143.01 210.447 142.353 210.564 140.49C210.681 138.627 215.289 139.932 214.668 137.565C216.252 138.262 217.517 139.527 218.214 141.111C219.501 143.865 219.861 142.461 220.806 144.378C221.751 146.295 222.606 151.947 224.118 147.816C225.63 143.685 221.751 140.211 221.751 140.211L218.322 136.161L215.118 135.432L212.373 134.865H208.692L206.226 135.432L202.707 139.203L200.547 142.911L200.277 146.988Z" fill="#2E353A"/>
<path d="M202.167 150.408C203.013 152.046 202.851 153.927 201.807 154.611C200.763 155.295 199.224 154.503 198.387 152.865C197.55 151.227 197.703 149.346 198.747 148.662C199.791 147.978 201.33 148.77 202.167 150.408Z" fill="#B97964"/>
<path d="M221.346 150.408C220.5 152.046 220.671 153.927 221.715 154.611C222.759 155.295 224.289 154.503 225.135 152.865C225.981 151.227 225.819 149.346 224.766 148.662C223.713 147.978 222.192 148.77 221.346 150.408Z" fill="#B97964"/>
<path d="M200.565 151.659C200.339 151.716 200.145 151.859 200.022 152.057C199.9 152.255 199.859 152.493 199.908 152.721L200.367 155.664C200.38 155.741 200.424 155.81 200.488 155.856C200.552 155.901 200.632 155.92 200.709 155.907C200.787 155.893 200.856 155.85 200.901 155.786C200.947 155.722 200.965 155.642 200.952 155.565L200.628 153.522H200.817C201.034 153.453 201.219 153.308 201.339 153.115C201.458 152.922 201.505 152.692 201.47 152.467C201.436 152.242 201.322 152.037 201.149 151.889C200.976 151.741 200.757 151.659 200.529 151.659H200.565Z" fill="white"/>
<path d="M223.488 151.659C223.714 151.716 223.908 151.859 224.031 152.057C224.153 152.255 224.194 152.493 224.145 152.721L223.677 155.664C223.664 155.741 223.62 155.81 223.556 155.856C223.492 155.901 223.413 155.92 223.335 155.907C223.257 155.893 223.187 155.85 223.14 155.787C223.093 155.723 223.073 155.643 223.083 155.565L223.407 153.522H223.2C222.983 153.452 222.797 153.307 222.677 153.113C222.558 152.919 222.511 152.688 222.547 152.463C222.583 152.237 222.699 152.032 222.873 151.885C223.047 151.737 223.269 151.657 223.497 151.659H223.488Z" fill="white"/>
<path d="M246.411 131.661C250.889 131.661 254.52 128.03 254.52 123.552C254.52 119.073 250.889 115.443 246.411 115.443C241.933 115.443 238.302 119.073 238.302 123.552C238.302 128.03 241.933 131.661 246.411 131.661Z" fill="#8CB817"/>
<path d="M241.74 128.223C241.614 128.096 241.543 127.925 241.543 127.746C241.543 127.567 241.614 127.396 241.74 127.269L250.128 118.881C250.255 118.755 250.426 118.684 250.605 118.684C250.784 118.684 250.955 118.755 251.082 118.881C251.208 119.008 251.279 119.179 251.279 119.358C251.279 119.537 251.208 119.708 251.082 119.835L242.703 128.223C242.574 128.348 242.401 128.418 242.222 128.418C242.042 128.418 241.869 128.348 241.74 128.223Z" fill="white"/>
<path d="M249.084 128.385H246.717V126.585C247.41 126.511 248.051 126.184 248.517 125.665C248.982 125.147 249.239 124.474 249.237 123.777V122.823C249.237 122.803 249.233 122.783 249.225 122.764C249.218 122.746 249.207 122.729 249.192 122.715C249.178 122.701 249.161 122.689 249.143 122.682C249.124 122.674 249.104 122.67 249.084 122.67H248.706C248.665 122.67 248.625 122.686 248.595 122.714C248.564 122.743 248.546 122.782 248.544 122.823C248.544 122.844 248.548 122.864 248.557 122.884C248.565 122.903 248.577 122.92 248.592 122.934C248.607 122.949 248.625 122.96 248.645 122.967C248.664 122.974 248.685 122.977 248.706 122.976H248.931V123.777C248.931 124.445 248.666 125.086 248.193 125.559C247.72 126.031 247.079 126.297 246.411 126.297C245.743 126.297 245.102 126.031 244.629 125.559C244.157 125.086 243.891 124.445 243.891 123.777V122.976H244.125C244.166 122.976 244.205 122.96 244.233 122.931C244.262 122.902 244.278 122.863 244.278 122.823C244.276 122.783 244.259 122.745 244.231 122.717C244.203 122.689 244.165 122.672 244.125 122.67H243.738C243.698 122.672 243.661 122.689 243.632 122.717C243.604 122.745 243.587 122.783 243.585 122.823V123.777C243.585 124.473 243.843 125.145 244.308 125.663C244.773 126.181 245.413 126.51 246.105 126.585V128.385H243.738C243.656 128.387 243.578 128.421 243.521 128.48C243.464 128.539 243.432 128.618 243.432 128.7V129.006H249.39V128.7C249.39 128.618 249.358 128.539 249.301 128.48C249.244 128.421 249.166 128.387 249.084 128.385Z" fill="white"/>
<path d="M244.512 123.813C244.545 124.295 244.76 124.747 245.114 125.077C245.467 125.406 245.932 125.59 246.416 125.59C246.899 125.59 247.364 125.406 247.718 125.077C248.071 124.747 248.286 124.295 248.319 123.813V120.006C248.337 119.745 248.301 119.483 248.214 119.236C248.126 118.99 247.989 118.764 247.81 118.573C247.632 118.382 247.416 118.229 247.176 118.125C246.936 118.021 246.677 117.967 246.416 117.967C246.154 117.967 245.895 118.021 245.655 118.125C245.415 118.229 245.199 118.382 245.021 118.573C244.842 118.764 244.705 118.99 244.618 119.236C244.53 119.483 244.494 119.745 244.512 120.006V123.813Z" fill="white"/>
<path d="M162.351 145.188H73.215C70.6104 145.188 68.499 147.299 68.499 149.904V216.459C68.499 219.064 70.6104 221.175 73.215 221.175H162.351C164.956 221.175 167.067 219.064 167.067 216.459V149.904C167.067 147.299 164.956 145.188 162.351 145.188Z" fill="#8CB817"/>
<path d="M111.798 151.578C111.798 151.578 107.226 150.183 106.209 159.993C105.192 169.803 98.172 173.07 105.624 176.67C113.076 180.27 120.276 176.328 123.201 176.67C126.126 177.012 131.409 175.095 131.076 170.253C130.743 165.411 122.13 151.353 122.13 151.353L111.798 151.578Z" fill="#263238"/>
<path d="M149.067 194.76C147.456 200.16 142.83 214.47 139.293 213.975C134.946 213.381 131.949 197.775 131.949 197.775L133.146 178.875C133.146 178.875 137.943 178.875 140.049 203.031L145.125 192.105L149.067 194.76Z" fill="#263238"/>
<path d="M145.557 192.267L147.357 188.343L150.183 186.03L151.713 184.383C152.102 183.963 152.613 183.678 153.175 183.568C153.736 183.458 154.318 183.529 154.836 183.771L155.736 184.194C156.262 184.438 156.695 184.844 156.973 185.353C157.25 185.862 157.356 186.446 157.275 187.02L156.798 190.44L149.148 192.915C149.148 192.915 148.932 193.68 148.563 194.922L145.557 192.267Z" fill="#EEC1BB"/>
<path d="M144.837 190.89L150.201 194.562L149.787 196.596L143.856 192.384L144.837 190.89Z" fill="#263238"/>
<path opacity="0.2" d="M144.837 190.89L150.201 194.562L149.787 196.596L143.856 192.384L144.837 190.89Z" fill="white"/>
<path d="M103.968 221.175C103.968 221.175 103.149 199.728 96.696 180.675C108.638 177.88 120.987 177.27 133.146 178.875C133.146 178.875 136.143 192.528 132.543 221.175H103.968Z" fill="#263238"/>
<path opacity="0.2" d="M103.968 221.175C103.968 221.175 103.149 199.728 96.696 180.675C108.638 177.88 120.987 177.27 133.146 178.875C133.146 178.875 136.143 192.528 132.543 221.175H103.968Z" fill="white"/>
<path d="M108.522 209.187C109.611 208.773 110.25 208.512 110.25 208.512L115.092 206.262L118.692 202.842C118.916 202.628 119.089 202.367 119.201 202.078C119.312 201.789 119.359 201.479 119.338 201.169C119.316 200.86 119.227 200.56 119.077 200.289C118.926 200.018 118.718 199.784 118.467 199.602L116.19 198C115.959 197.835 115.697 197.718 115.42 197.655C115.143 197.593 114.857 197.587 114.577 197.637C114.298 197.688 114.032 197.793 113.794 197.948C113.556 198.104 113.352 198.305 113.193 198.54L109.125 204.597C109.125 204.597 108.225 204.858 106.767 205.218L108.522 209.187Z" fill="#EEC1BB"/>
<path d="M108.612 209.745C103.338 211.734 87.534 217.179 82.782 212.895C77.049 207.72 96.696 180.675 96.696 180.675C101.943 186.606 100.053 192.735 100.053 192.735C100.053 192.735 89.946 203.4 90.9 206.028C91.737 208.377 102.123 206.028 106.875 204.849L108.612 209.745Z" fill="#263238"/>
<path d="M107.496 204.201L109.746 209.898L107.946 210.951L105.624 204.201H107.496Z" fill="#263238"/>
<path opacity="0.2" d="M107.496 204.201L109.746 209.898L107.946 210.951L105.624 204.201H107.496Z" fill="white"/>
<path d="M121.203 178.029H119.529C119.273 176.322 119.431 174.578 119.988 172.944L113.418 166.248C113.751 169.308 113.895 175.104 112.464 178.29C111.564 178.353 110.727 178.425 109.908 178.506C110.322 179.712 111.906 182.781 117.36 182.781C122.814 182.781 121.806 179.334 121.203 178.029Z" fill="#EEC1BB"/>
<path opacity="0.1" d="M114.651 168.705L113.895 170.73C115.076 173.032 117.034 174.843 119.421 175.842C119.5 174.858 119.69 173.885 119.988 172.944L115.632 168.498L114.651 168.705Z" fill="black"/>
<path d="M110.07 161.235C111.663 167.301 112.203 169.911 115.929 172.449C121.527 176.283 128.637 173.007 128.898 166.581C129.141 160.794 126.504 151.839 120.006 150.579C118.577 150.302 117.101 150.393 115.718 150.845C114.334 151.296 113.088 152.092 112.098 153.159C111.107 154.225 110.404 155.526 110.056 156.939C109.708 158.352 109.725 159.831 110.106 161.235H110.07Z" fill="#EEC1BB"/>
<path d="M109.575 166.374C109.855 166.907 110.238 167.379 110.701 167.764C111.165 168.148 111.7 168.438 112.275 168.615C113.814 169.083 114.615 167.715 114.21 166.239C113.85 164.916 112.617 163.08 111.051 163.26C110.509 163.342 110.022 163.635 109.695 164.075C109.368 164.515 109.228 165.066 109.305 165.609C109.345 165.879 109.436 166.139 109.575 166.374Z" fill="#EEC1BB"/>
<path d="M124.056 161.154C124.722 162.208 125.531 163.165 126.459 163.998C126.243 164.233 125.978 164.417 125.682 164.537C125.386 164.657 125.068 164.709 124.749 164.691L124.056 161.154Z" fill="#D58745"/>
<path d="M118.647 158.877C118.606 158.886 118.563 158.886 118.521 158.877C118.466 158.842 118.426 158.786 118.411 158.723C118.396 158.659 118.406 158.591 118.44 158.535C118.671 158.13 118.996 157.786 119.388 157.532C119.779 157.279 120.226 157.122 120.69 157.077C120.756 157.077 120.82 157.102 120.869 157.147C120.917 157.192 120.946 157.254 120.951 157.32C120.954 157.386 120.931 157.449 120.887 157.498C120.843 157.547 120.782 157.577 120.717 157.581C120.334 157.622 119.966 157.754 119.643 157.965C119.321 158.176 119.054 158.461 118.863 158.796C118.838 158.829 118.805 158.854 118.767 158.868C118.729 158.882 118.687 158.885 118.647 158.877Z" fill="#2E353A"/>
<path d="M124.605 156.285C124.576 156.254 124.554 156.217 124.542 156.177C124.533 156.145 124.529 156.113 124.533 156.08C124.536 156.047 124.546 156.016 124.562 155.987C124.578 155.959 124.6 155.934 124.626 155.914C124.652 155.894 124.681 155.879 124.713 155.871C125.16 155.732 125.633 155.703 126.093 155.784C126.553 155.866 126.987 156.056 127.359 156.339C127.39 156.358 127.417 156.384 127.437 156.414C127.457 156.444 127.47 156.478 127.476 156.514C127.481 156.55 127.479 156.587 127.469 156.622C127.459 156.657 127.442 156.69 127.418 156.717C127.394 156.745 127.365 156.767 127.332 156.782C127.299 156.798 127.263 156.805 127.226 156.805C127.19 156.805 127.154 156.797 127.121 156.782C127.088 156.767 127.059 156.745 127.035 156.717C126.726 156.486 126.366 156.333 125.985 156.271C125.605 156.208 125.215 156.238 124.848 156.357C124.805 156.366 124.76 156.365 124.717 156.352C124.675 156.34 124.636 156.316 124.605 156.285Z" fill="#2E353A"/>
<path d="M120.357 161.019C120.456 161.523 120.798 161.919 121.131 161.811C121.464 161.703 121.644 161.289 121.536 160.785C121.428 160.281 121.095 159.939 120.771 160.002C120.447 160.065 120.258 160.515 120.357 161.019Z" fill="#2E353A"/>
<path d="M126 159.912C126.09 160.407 126.441 160.758 126.765 160.695C127.089 160.632 127.278 160.182 127.179 159.678C127.08 159.174 126.738 158.823 126.414 158.886C126.09 158.949 125.91 159.408 126 159.912Z" fill="#2E353A"/>
<path d="M126.288 158.94L127.422 158.364C127.422 158.364 126.99 159.417 126.288 158.94Z" fill="#2E353A"/>
<path d="M120.6 160.056L121.725 159.48C121.725 159.48 121.329 160.533 120.6 160.056Z" fill="#2E353A"/>
<path d="M125.298 166.293C123.899 166.214 122.496 166.256 121.104 166.419C121.369 166.903 121.782 167.288 122.283 167.518C122.784 167.748 123.346 167.811 123.885 167.697C125.46 167.553 125.298 166.293 125.298 166.293Z" fill="#2E353A"/>
<path d="M123.084 167.103C123.697 167.013 124.322 167.104 124.884 167.364C124.604 167.564 124.273 167.679 123.93 167.697C123.317 167.787 122.692 167.696 122.13 167.436C122.41 167.236 122.741 167.121 123.084 167.103Z" fill="#DE5753"/>
<path d="M125.154 166.284C125.132 166.392 125.079 166.492 125.003 166.571C124.927 166.651 124.829 166.707 124.722 166.734C123.823 166.804 122.921 166.804 122.022 166.734C121.88 166.738 121.739 166.708 121.611 166.647C121.483 166.586 121.371 166.495 121.284 166.383C122.57 166.257 123.863 166.224 125.154 166.284Z" fill="white"/>
<path d="M111.798 165.978C111.798 165.978 114.498 163.71 113.895 158.877C113.292 154.044 119.412 158.553 120.636 154.503C121.86 150.453 127.134 158.67 129.726 153.72C132.318 148.77 120.492 147.564 119.313 148.995C118.134 150.426 101.97 148.095 111.798 165.978Z" fill="#263238"/>
<path d="M159.111 206.136H76.4461C75.2631 206.136 74.3041 207.095 74.3041 208.278V212.346C74.3041 213.529 75.2631 214.488 76.4461 214.488H159.111C160.294 214.488 161.253 213.529 161.253 212.346V208.278C161.253 207.095 160.294 206.136 159.111 206.136Z" fill="white"/>
<path d="M85.194 212.4V208.233L87.804 210.321L85.194 212.4Z" fill="#263238"/>
<path d="M92.0071 211.545L93.1501 210.339L92.0071 209.124V211.545Z" fill="#263238"/>
<path d="M93.15 209.169V210.339V211.509H93.663V209.169H93.15Z" fill="#263238"/>
<path d="M80.982 209.124L79.848 210.339L80.982 211.545V209.124Z" fill="#263238"/>
<path d="M79.8481 211.509V210.339V209.169H79.326V211.509H79.8481Z" fill="#263238"/>
<path d="M157.221 209.727H101.628V210.951H157.221V209.727Z" fill="#263238"/>
<path d="M127.962 207.576H125.982V213.048H127.962V207.576Z" fill="#8CB817"/>
<path d="M300.419 143.563C303.092 132.238 296.078 120.891 284.753 118.218C273.428 115.545 262.08 122.559 259.408 133.884C256.735 145.208 263.748 156.556 275.073 159.229C286.398 161.902 297.746 154.888 300.419 143.563Z" fill="#8CB817"/>
<path opacity="0.7" d="M300.419 143.563C303.092 132.238 296.078 120.891 284.753 118.218C273.428 115.545 262.08 122.559 259.408 133.884C256.735 145.208 263.748 156.556 275.073 159.229C286.398 161.902 297.746 154.888 300.419 143.563Z" fill="white"/>
<g opacity="0.8">
<path d="M275.67 145.89C276.81 144.783 278.337 144.164 279.927 144.164C281.517 144.164 283.044 144.783 284.184 145.89C285.327 146.943 287.055 145.233 285.903 144.171C284.298 142.625 282.156 141.761 279.927 141.761C277.698 141.761 275.556 142.625 273.951 144.171C272.799 145.233 274.518 146.943 275.67 145.89Z" fill="#8CB817"/>
<path d="M279.099 149.319C279.318 149.102 279.614 148.98 279.923 148.98C280.231 148.98 280.527 149.102 280.746 149.319C281.898 150.381 283.617 148.662 282.465 147.6C281.782 146.942 280.871 146.574 279.923 146.574C278.974 146.574 278.063 146.942 277.38 147.6C276.228 148.662 277.956 150.381 279.099 149.319Z" fill="#8CB817"/>
<path d="M271.152 141.372C273.503 139.093 276.648 137.819 279.922 137.819C283.197 137.819 286.342 139.093 288.693 141.372C289.845 142.425 291.564 140.715 290.412 139.653C287.596 136.937 283.835 135.419 279.922 135.419C276.01 135.419 272.249 136.937 269.433 139.653C268.281 140.715 270.009 142.434 271.152 141.372Z" fill="#8CB817"/>
<path d="M267.039 137.25C270.494 133.903 275.116 132.031 279.927 132.031C284.738 132.031 289.36 133.903 292.815 137.25C293.958 138.321 295.677 136.611 294.534 135.531C290.616 131.74 285.378 129.621 279.927 129.621C274.476 129.621 269.238 131.74 265.32 135.531C264.177 136.611 265.896 138.321 267.039 137.25Z" fill="#8CB817"/>
</g>
<path d="M112.14 271.215C124.109 271.215 133.812 261.512 133.812 249.543C133.812 237.574 124.109 227.871 112.14 227.871C100.171 227.871 90.468 237.574 90.468 249.543C90.468 261.512 100.171 271.215 112.14 271.215Z" fill="#8CB817"/>
<path opacity="0.7" d="M112.14 271.215C124.109 271.215 133.812 261.512 133.812 249.543C133.812 237.574 124.109 227.871 112.14 227.871C100.171 227.871 90.468 237.574 90.468 249.543C90.468 261.512 100.171 271.215 112.14 271.215Z" fill="white"/>
<path d="M107.424 242.649V248.238L100.692 243.315V255.771L107.424 250.839V256.437H123.579V242.649H107.424Z" fill="#8CB817"/>
<path d="M368.572 169.053C370.951 158.972 364.708 148.87 354.626 146.49C344.544 144.111 334.443 150.355 332.063 160.436C329.684 170.518 335.927 180.62 346.009 182.999C356.091 185.379 366.192 179.135 368.572 169.053Z" fill="#8CB817"/>
<path opacity="0.7" d="M368.572 169.053C370.951 158.972 364.708 148.87 354.626 146.49C344.544 144.111 334.443 150.355 332.063 160.436C329.684 170.518 335.927 180.62 346.009 182.999C356.091 185.379 366.192 179.135 368.572 169.053Z" fill="white"/>
<path d="M355.788 174.6H351V171C352.412 170.841 353.716 170.168 354.664 169.109C355.612 168.05 356.137 166.679 356.139 165.258V163.314C356.137 163.232 356.102 163.154 356.044 163.097C355.985 163.04 355.906 163.008 355.824 163.008H355.041C354.996 163 354.949 163.002 354.905 163.014C354.861 163.027 354.82 163.048 354.785 163.078C354.75 163.107 354.722 163.144 354.702 163.186C354.683 163.227 354.673 163.273 354.673 163.318C354.673 163.364 354.683 163.41 354.702 163.451C354.722 163.493 354.75 163.53 354.785 163.559C354.82 163.589 354.861 163.61 354.905 163.622C354.949 163.634 354.996 163.637 355.041 163.629H355.5V165.258C355.5 166.621 354.959 167.928 353.995 168.892C353.031 169.855 351.724 170.397 350.361 170.397C348.998 170.397 347.691 169.855 346.727 168.892C345.763 167.928 345.222 166.621 345.222 165.258V163.629H345.69C345.735 163.637 345.782 163.634 345.826 163.622C345.87 163.61 345.911 163.589 345.946 163.559C345.981 163.53 346.009 163.493 346.029 163.451C346.048 163.41 346.058 163.364 346.058 163.318C346.058 163.273 346.048 163.227 346.029 163.186C346.009 163.144 345.981 163.107 345.946 163.078C345.911 163.048 345.87 163.027 345.826 163.014C345.782 163.002 345.735 163 345.69 163.008H344.907C344.866 163.007 344.825 163.014 344.787 163.029C344.749 163.043 344.714 163.066 344.685 163.094C344.655 163.123 344.632 163.157 344.616 163.195C344.6 163.232 344.592 163.273 344.592 163.314V165.258C344.592 166.68 345.116 168.051 346.065 169.111C347.013 170.17 348.318 170.843 349.731 171V174.6H344.88C344.713 174.6 344.553 174.666 344.435 174.784C344.316 174.903 344.25 175.063 344.25 175.23V175.86H356.4V175.23C356.4 175.066 356.336 174.908 356.222 174.791C356.108 174.673 355.952 174.605 355.788 174.6Z" fill="#8CB817"/>
<path d="M350.334 169.2C351.365 169.2 352.354 168.79 353.083 168.061C353.812 167.332 354.222 166.343 354.222 165.312H346.446C346.445 165.823 346.544 166.329 346.739 166.801C346.934 167.274 347.221 167.703 347.582 168.064C347.943 168.425 348.372 168.712 348.845 168.906C349.317 169.101 349.823 169.201 350.334 169.2Z" fill="#8CB817"/>
<path d="M354.222 157.5C354.222 156.469 353.812 155.48 353.083 154.751C352.354 154.022 351.365 153.612 350.334 153.612C349.303 153.612 348.314 154.022 347.585 154.751C346.856 155.48 346.446 156.469 346.446 157.5V164.574H354.222V157.5Z" fill="#8CB817"/>
</svg>
