<svg width="450" height="450" viewBox="0 0 450 450" fill="none" xmlns="http://www.w3.org/2000/svg">
<g clip-path="url(#clip0_41_2282)">
<path d="M440.1 341.96H-9.90039V342.185H440.1V341.96Z" fill="#2B3807"/>
<path d="M288.198 358.889H280.377V359.114H288.198V358.889Z" fill="#2B3807"/>
<path d="M145.998 347.702H125.136V347.927H145.998V347.702Z" fill="#2B3807"/>
<path d="M402.993 352.526H351.99V352.751H402.993V352.526Z" fill="#2B3807"/>
<path d="M79.5506 352.526H28.5476V352.751H79.5506V352.526Z" fill="#2B3807"/>
<path d="M203.4 301.82H29.6186C28.2572 301.817 26.9524 301.275 25.9906 300.311C25.0288 299.348 24.4886 298.042 24.4886 296.681V52.3938C24.5004 51.0402 25.0459 49.746 26.0064 48.7922C26.9669 47.8384 28.265 47.3021 29.6186 47.2998H203.4C204.763 47.2998 206.07 47.8412 207.033 48.805C207.997 49.7687 208.539 51.0759 208.539 52.4388V296.681C208.539 298.044 207.997 299.351 207.033 300.315C206.07 301.278 204.763 301.82 203.4 301.82ZM29.6186 47.4798C28.3169 47.4822 27.0693 48.001 26.1497 48.9223C25.2301 49.8436 24.7136 51.0921 24.7136 52.3938V296.681C24.7136 297.983 25.2301 299.231 26.1497 300.152C27.0693 301.074 28.3169 301.592 29.6186 301.595H203.4C204.702 301.592 205.951 301.074 206.872 300.153C207.793 299.232 208.311 297.983 208.314 296.681V52.3938C208.311 51.0913 207.793 49.8427 206.872 48.9217C205.951 48.0007 204.702 47.4822 203.4 47.4798H29.6186Z" fill="#2B3807"/>
<path d="M398.079 301.82H224.289C222.926 301.817 221.621 301.275 220.657 300.312C219.694 299.349 219.152 298.043 219.15 296.681V52.3938C219.164 51.0394 219.711 49.7452 220.673 48.7916C221.635 47.8381 222.934 47.3021 224.289 47.2998H398.079C399.431 47.3045 400.726 47.8418 401.685 48.7954C402.644 49.7489 403.188 51.0418 403.2 52.3938V296.681C403.2 298.041 402.661 299.345 401.701 300.308C400.741 301.271 399.438 301.815 398.079 301.82ZM224.289 47.4798C222.986 47.4822 221.738 48.0007 220.816 48.9217C219.895 49.8427 219.377 51.0913 219.375 52.3938V296.681C219.377 297.983 219.895 299.232 220.816 300.153C221.738 301.074 222.986 301.592 224.289 301.595H398.079C399.381 301.592 400.63 301.074 401.551 300.153C402.472 299.232 402.99 297.983 402.993 296.681V52.3938C402.99 51.0913 402.472 49.8427 401.551 48.9217C400.63 48.0007 399.381 47.4822 398.079 47.4798H224.289Z" fill="#2B3807"/>
<path d="M92.0696 210.524L331.038 210.524V80.7169L92.0696 80.7169L92.0696 210.524Z" fill="#C3E861"/>
<path d="M89.3516 210.524L328.32 210.524V80.7169L89.3516 80.7169L89.3516 210.524Z" fill="#CEE6F3"/>
<path d="M323.451 205.052V86.189L94.2296 86.189V205.052H323.451Z" fill="white"/>
<path d="M96.2816 205.061L96.2816 86.1978H94.2296V205.061H96.2816Z" fill="#C3E861"/>
<path d="M91.3676 184.244L326.304 184.244V176.9L91.3676 176.9V184.244Z" fill="#CEE6F3"/>
<path d="M91.3676 121.838L326.304 121.838V114.494L91.3676 114.494V121.838Z" fill="#CEE6F3"/>
<path d="M84.0506 71.6626H336.348C336.547 71.665 336.737 71.7457 336.876 71.8872C337.016 72.0287 337.095 72.2196 337.095 72.4186C337.095 72.6167 337.016 72.8067 336.876 72.9468C336.736 73.0869 336.546 73.1656 336.348 73.1656H84.0506C83.8517 73.1656 83.6607 73.0872 83.5192 72.9474C83.3777 72.8075 83.297 72.6175 83.2946 72.4186C83.297 72.2188 83.3774 72.0279 83.5186 71.8866C83.6599 71.7453 83.8508 71.6649 84.0506 71.6626Z" fill="#C3E861"/>
<path d="M79.5506 72.419C79.5506 73.1617 79.771 73.8876 80.1837 74.505C80.5965 75.1224 81.1832 75.6034 81.8695 75.8872C82.5558 76.171 83.3108 76.2448 84.0391 76.0992C84.7674 75.9537 85.4361 75.5954 85.9606 75.0696C86.4851 74.5438 86.8418 73.8743 86.9856 73.1457C87.1294 72.4171 87.0538 71.6622 86.7683 70.9766C86.4829 70.291 86.0005 69.7054 85.3821 69.2941C84.7637 68.8828 84.0373 68.6642 83.2946 68.666C82.8022 68.666 82.3146 68.7632 81.8598 68.9519C81.4049 69.1406 80.9918 69.4172 80.644 69.7658C80.2962 70.1144 80.0206 70.5282 79.833 70.9835C79.6454 71.4388 79.5494 71.9266 79.5506 72.419Z" fill="#FEDBD7"/>
<path d="M330.03 76.6126C330.297 76.6126 330.553 76.5064 330.742 76.3174C330.931 76.1283 331.038 75.8719 331.038 75.6046V73.3996C331.038 73.1323 330.931 72.8759 330.742 72.6868C330.553 72.4978 330.297 72.3916 330.03 72.3916C329.761 72.3916 329.504 72.4975 329.314 72.6863C329.123 72.8751 329.015 73.1314 329.013 73.3996V75.5776C329.01 75.7127 329.035 75.8468 329.085 75.9723C329.135 76.0978 329.209 76.212 329.304 76.3084C329.399 76.4048 329.512 76.4813 329.636 76.5335C329.761 76.5857 329.895 76.6126 330.03 76.6126Z" fill="#C3E861"/>
<path d="M95.3996 76.613C95.6678 76.613 95.9251 76.5071 96.1155 76.3183C96.306 76.1295 96.4142 75.8731 96.4166 75.605V73.4C96.4072 73.1365 96.296 72.887 96.1063 72.704C95.9166 72.521 95.6632 72.4188 95.3996 72.419C95.2657 72.413 95.132 72.4337 95.0062 72.4799C94.8805 72.5262 94.7652 72.5971 94.6671 72.6884C94.5691 72.7798 94.4902 72.8898 94.4352 73.0119C94.3802 73.1341 94.35 73.266 94.3466 73.4V75.578C94.3427 75.7165 94.3675 75.8543 94.4193 75.9828C94.4711 76.1113 94.5488 76.2278 94.6476 76.3249C94.7464 76.422 94.8642 76.4977 94.9936 76.5473C95.1229 76.5969 95.2612 76.6192 95.3996 76.613Z" fill="#C3E861"/>
<path opacity="0.5" d="M84.2936 99.6709L326.313 99.6709V72.4189L84.2936 72.4189V99.6709Z" fill="#4FA0CF"/>
<path d="M317.961 76.172C320.033 76.172 321.714 74.4917 321.714 72.419C321.714 70.3463 320.033 68.666 317.961 68.666C315.888 68.666 314.208 70.3463 314.208 72.419C314.208 74.4917 315.888 76.172 317.961 76.172Z" fill="#FEDBD7"/>
<path d="M256.401 341.96H271.755V239.324H256.401V341.96Z" fill="#C3E861"/>
<path d="M260.442 341.96H256.401V327.983H264.672L260.442 341.96Z" fill="#9DE6F5"/>
<path d="M381.087 341.96H396.441V239.324H381.087V341.96Z" fill="#C3E861"/>
<path d="M256.401 333.383H384.606V239.324H256.401V333.383Z" fill="#9DE6F5"/>
<path d="M259.533 269.276H381.474V243.482H259.533V269.276Z" fill="#C3E861"/>
<path d="M283.725 251.501H354.6C358.533 251.501 362.304 248.324 365.013 242.699H273.312C276.021 248.324 279.783 251.501 283.725 251.501Z" fill="#9DE6F5"/>
<path d="M380.574 341.96H384.606V327.983H376.335L380.574 341.96Z" fill="#9DE6F5"/>
<path d="M259.533 299.246H381.474V273.452H259.533V299.246Z" fill="#C3E861"/>
<path d="M283.725 281.471H354.6C358.533 281.471 362.304 278.285 365.013 272.669H273.312C276.021 278.285 279.783 281.471 283.725 281.471Z" fill="#9DE6F5"/>
<path d="M259.533 329.216H381.474V303.422H259.533V329.216Z" fill="#C3E861"/>
<path d="M283.725 311.432H354.6C358.533 311.432 362.304 308.246 365.013 302.63H273.312C276.021 308.246 279.783 311.432 283.725 311.432Z" fill="#9DE6F5"/>
<path d="M349.398 187.862C346.968 179.681 377.235 138.749 390.519 139.973C403.803 141.197 380.448 190.85 373.275 195.242C365.184 200.201 352.044 196.763 349.398 187.862Z" fill="#FAB317"/>
<path d="M347.661 199.661C346.491 195.485 367.65 188.69 376.056 193.613C384.462 198.536 367.299 211.217 362.556 210.641C357.147 209.993 348.939 204.206 347.661 199.661Z" fill="#FAB317"/>
<path d="M373.365 195.917C376.29 190.427 354.744 158.36 343.26 157.766C331.776 157.172 346.527 194.666 352.188 198.509C358.587 202.874 370.17 201.884 373.365 195.917Z" fill="#FAB317"/>
<path d="M362.322 178.853H362.277C361.731 178.844 361.2 179.034 360.783 179.386C360.366 179.739 360.091 180.23 360.009 180.77C357.514 197.688 357.211 214.858 359.109 231.854C359.172 232.395 359.429 232.895 359.833 233.261C360.237 233.627 360.76 233.833 361.305 233.843H361.35C361.668 233.847 361.983 233.784 362.275 233.657C362.567 233.53 362.829 233.343 363.042 233.107C363.256 232.871 363.417 232.592 363.515 232.289C363.612 231.986 363.644 231.666 363.609 231.35C361.801 214.729 362.1 197.946 364.5 181.4C364.544 181.086 364.522 180.766 364.433 180.462C364.345 180.157 364.192 179.875 363.986 179.634C363.78 179.393 363.525 179.199 363.238 179.064C362.951 178.929 362.639 178.857 362.322 178.853Z" fill="#2B3807"/>
<path d="M360.675 239.315C368.631 239.315 375.336 234.635 376.965 228.29C377.364 226.596 377.933 224.946 378.666 223.367L378.792 223.106H342.558L342.684 223.367C343.416 224.946 343.986 226.596 344.385 228.29C346.014 234.635 352.728 239.315 360.675 239.315Z" fill="#FAB317"/>
<path d="M342.486 224.699H378.9C379.917 224.699 380.799 223.709 381.051 222.287C381.411 220.244 380.349 218.264 378.9 218.264H342.486C341.037 218.264 339.975 220.244 340.344 222.287C340.596 223.7 341.478 224.699 342.486 224.699Z" fill="#FAB317"/>
<path d="M230.319 277.304H185.49V341.96H230.319V277.304Z" fill="#9DE6F5"/>
<path d="M52.1726 341.96H185.499V277.304H52.1726V341.96Z" fill="#E5E5E5"/>
<path d="M63.8816 327.641H92.0696V298.94H63.8816V327.641Z" fill="#FAB317"/>
<path d="M102.15 327.641H130.338V298.94H102.15V327.641Z" fill="#FAB317"/>
<g style="mix-blend-mode:multiply" opacity="0.7">
<path d="M230.319 284.18H51.6956V287.861H230.319V284.18Z" fill="#C3E861"/>
</g>
<path d="M232.794 275.072H185.49V285.737H232.794V275.072Z" fill="#9DE6F5"/>
<path d="M49.6976 285.728H185.499V275.063H49.6976V285.728Z" fill="#E5E5E5"/>
<path d="M88.1096 256.919C88.1096 256.919 88.9646 275.072 121.68 275.072C154.395 275.072 155.25 256.919 155.25 256.919H88.1096Z" fill="#9DE6F5"/>
<path d="M88.1096 244.895C88.1096 244.895 88.9646 263.048 121.68 263.048C154.395 263.048 155.25 244.895 155.25 244.895H88.1096Z" fill="#9DE6F5"/>
<path d="M225 384.804C321.374 384.804 399.501 380.243 399.501 374.616C399.501 368.99 321.374 364.428 225 364.428C128.626 364.428 50.499 368.99 50.499 374.616C50.499 380.243 128.626 384.804 225 384.804Z" fill="#E5E5E5"/>
<path d="M172.206 355.014H83.835V371.646H172.206V355.014Z" fill="#8CB817"/>
<path opacity="0.2" d="M172.206 355.014H83.835V356.904H172.206V355.014Z" fill="black"/>
<path opacity="0.2" d="M93.789 355.014H90.306V371.646H93.789V355.014Z" fill="black"/>
<path opacity="0.2" d="M101.781 355.014H98.298V371.646H101.781V355.014Z" fill="black"/>
<path opacity="0.2" d="M109.782 355.014H106.299V371.646H109.782V355.014Z" fill="black"/>
<path opacity="0.2" d="M117.774 355.014H114.291V371.646H117.774V355.014Z" fill="black"/>
<path opacity="0.2" d="M125.766 355.014H122.283V371.646H125.766V355.014Z" fill="black"/>
<path opacity="0.2" d="M133.767 355.014H130.284V371.646H133.767V355.014Z" fill="black"/>
<path opacity="0.2" d="M141.759 355.014H138.276V371.646H141.759V355.014Z" fill="black"/>
<path opacity="0.2" d="M149.751 355.014H146.268V371.646H149.751V355.014Z" fill="black"/>
<path opacity="0.2" d="M157.752 355.014H154.269V371.646H157.752V355.014Z" fill="black"/>
<path opacity="0.2" d="M165.744 355.014H162.261V371.646H165.744V355.014Z" fill="black"/>
<path d="M168.615 338.382H80.244V355.014H168.615V338.382Z" fill="#8CB817"/>
<path opacity="0.2" d="M168.615 338.382H80.244V340.272H168.615V338.382Z" fill="black"/>
<path opacity="0.2" d="M90.189 338.382H86.706V355.014H90.189V338.382Z" fill="black"/>
<path opacity="0.2" d="M98.19 338.382H94.707V355.014H98.19V338.382Z" fill="black"/>
<path opacity="0.2" d="M106.182 338.382H102.699V355.014H106.182V338.382Z" fill="black"/>
<path opacity="0.2" d="M114.174 338.382H110.691V355.014H114.174V338.382Z" fill="black"/>
<path opacity="0.2" d="M122.175 338.382H118.692V355.014H122.175V338.382Z" fill="black"/>
<path opacity="0.2" d="M130.167 338.382H126.684V355.014H130.167V338.382Z" fill="black"/>
<path opacity="0.2" d="M138.159 338.382H134.676V355.014H138.159V338.382Z" fill="black"/>
<path opacity="0.2" d="M146.16 338.382H142.677V355.014H146.16V338.382Z" fill="black"/>
<path opacity="0.2" d="M154.152 338.382H150.669V355.014H154.152V338.382Z" fill="black"/>
<path opacity="0.2" d="M162.144 338.382H158.661V355.014H162.144V338.382Z" fill="black"/>
<path d="M166.068 321.75H77.697V338.382H166.068V321.75Z" fill="#8CB817"/>
<path opacity="0.2" d="M166.068 321.75H77.697V323.64H166.068V321.75Z" fill="black"/>
<path opacity="0.2" d="M87.651 321.75H84.168V338.382H87.651V321.75Z" fill="black"/>
<path opacity="0.2" d="M95.643 321.75H92.16V338.382H95.643V321.75Z" fill="black"/>
<path opacity="0.2" d="M103.644 321.75H100.161V338.382H103.644V321.75Z" fill="black"/>
<path opacity="0.2" d="M111.636 321.75H108.153V338.382H111.636V321.75Z" fill="black"/>
<path opacity="0.2" d="M119.628 321.75H116.145V338.382H119.628V321.75Z" fill="black"/>
<path opacity="0.2" d="M127.629 321.75H124.146V338.382H127.629V321.75Z" fill="black"/>
<path opacity="0.2" d="M135.621 321.75H132.138V338.382H135.621V321.75Z" fill="black"/>
<path opacity="0.2" d="M143.613 321.75H140.13V338.382H143.613V321.75Z" fill="black"/>
<path opacity="0.2" d="M151.614 321.75H148.131V338.382H151.614V321.75Z" fill="black"/>
<path opacity="0.2" d="M159.606 321.75H156.123V338.382H159.606V321.75Z" fill="black"/>
<path d="M170.073 305.127H81.702V321.759H170.073V305.127Z" fill="#8CB817"/>
<path opacity="0.2" d="M170.073 305.127H81.702V307.017H170.073V305.127Z" fill="black"/>
<path opacity="0.2" d="M91.647 305.127H88.164V321.759H91.647V305.127Z" fill="black"/>
<path opacity="0.2" d="M99.648 305.127H96.165V321.759H99.648V305.127Z" fill="black"/>
<path opacity="0.2" d="M107.64 305.127H104.157V321.759H107.64V305.127Z" fill="black"/>
<path opacity="0.2" d="M115.632 305.127H112.149V321.759H115.632V305.127Z" fill="black"/>
<path opacity="0.2" d="M123.633 305.127H120.15V321.759H123.633V305.127Z" fill="black"/>
<path opacity="0.2" d="M131.625 305.127H128.142V321.759H131.625V305.127Z" fill="black"/>
<path opacity="0.2" d="M139.617 305.127H136.134V321.759H139.617V305.127Z" fill="black"/>
<path opacity="0.2" d="M147.618 305.127H144.135V321.759H147.618V305.127Z" fill="black"/>
<path opacity="0.2" d="M155.61 305.127H152.127V321.759H155.61V305.127Z" fill="black"/>
<path opacity="0.2" d="M163.602 305.127H160.119V321.759H163.602V305.127Z" fill="black"/>
<path d="M77.823 305.118H166.194V288.486H77.823V305.118Z" fill="#8CB817"/>
<path opacity="0.2" d="M77.823 290.376H166.194V288.486H77.823V290.376Z" fill="black"/>
<path opacity="0.2" d="M156.24 305.118H159.723V288.486H156.24V305.118Z" fill="black"/>
<path opacity="0.2" d="M148.239 305.118H151.722V288.486H148.239V305.118Z" fill="black"/>
<path opacity="0.2" d="M140.247 305.118H143.73V288.486H140.247V305.118Z" fill="black"/>
<path opacity="0.2" d="M132.255 305.118H135.738V288.486H132.255V305.118Z" fill="black"/>
<path opacity="0.2" d="M124.254 305.118H127.737V288.486H124.254V305.118Z" fill="black"/>
<path opacity="0.2" d="M116.262 305.118H119.745V288.486H116.262V305.118Z" fill="black"/>
<path opacity="0.2" d="M108.27 305.118H111.753V288.486H108.27V305.118Z" fill="black"/>
<path opacity="0.2" d="M100.269 305.118H103.752V288.486H100.269V305.118Z" fill="black"/>
<path opacity="0.2" d="M92.277 305.118H95.76V288.486H92.277V305.118Z" fill="black"/>
<path opacity="0.2" d="M84.285 305.118H87.768V288.486H84.285V305.118Z" fill="black"/>
<path d="M81.414 288.495H169.785V271.863H81.414V288.495Z" fill="#8CB817"/>
<path opacity="0.2" d="M81.414 273.753H169.785V271.863H81.414V273.753Z" fill="black"/>
<path opacity="0.2" d="M159.831 288.495H163.314V271.863H159.831V288.495Z" fill="black"/>
<path opacity="0.2" d="M151.848 288.495H155.331V271.863H151.848V288.495Z" fill="black"/>
<path opacity="0.2" d="M143.847 288.495H147.33V271.863H143.847V288.495Z" fill="black"/>
<path opacity="0.2" d="M135.846 288.495H139.329V271.863H135.846V288.495Z" fill="black"/>
<path opacity="0.2" d="M127.863 288.495H131.346V271.863H127.863V288.495Z" fill="black"/>
<path opacity="0.2" d="M119.862 288.495H123.345V271.863H119.862V288.495Z" fill="black"/>
<path opacity="0.2" d="M111.861 288.495H115.344V271.863H111.861V288.495Z" fill="black"/>
<path opacity="0.2" d="M103.878 288.495H107.361V271.863H103.878V288.495Z" fill="black"/>
<path opacity="0.2" d="M95.877 288.495H99.36V271.863H95.877V288.495Z" fill="black"/>
<path opacity="0.2" d="M87.876 288.495H91.359V271.863H87.876V288.495Z" fill="black"/>
<path d="M83.961 271.863H172.332V255.231H83.961V271.863Z" fill="#8CB817"/>
<path opacity="0.2" d="M83.961 257.121H172.332V255.231H83.961V257.121Z" fill="black"/>
<path opacity="0.2" d="M162.378 271.863H165.861V255.231H162.378V271.863Z" fill="black"/>
<path opacity="0.2" d="M154.377 271.863H157.86V255.231H154.377V271.863Z" fill="black"/>
<path opacity="0.2" d="M146.385 271.863H149.868V255.231H146.385V271.863Z" fill="black"/>
<path opacity="0.2" d="M138.393 271.863H141.876V255.231H138.393V271.863Z" fill="black"/>
<path opacity="0.2" d="M130.392 271.863H133.875V255.231H130.392V271.863Z" fill="black"/>
<path opacity="0.2" d="M122.4 271.863H125.883V255.231H122.4V271.863Z" fill="black"/>
<path opacity="0.2" d="M114.408 271.863H117.891V255.231H114.408V271.863Z" fill="black"/>
<path opacity="0.2" d="M106.407 271.863H109.89V255.231H106.407V271.863Z" fill="black"/>
<path opacity="0.2" d="M98.415 271.863H101.898V255.231H98.415V271.863Z" fill="black"/>
<path opacity="0.2" d="M90.423 271.863H93.906V255.231H90.423V271.863Z" fill="black"/>
<path d="M79.956 255.231H168.327V238.599H79.956V255.231Z" fill="#8CB817"/>
<path opacity="0.2" d="M79.956 240.489H168.327V238.599H79.956V240.489Z" fill="black"/>
<path opacity="0.2" d="M158.373 255.231H161.856V238.599H158.373V255.231Z" fill="black"/>
<path opacity="0.2" d="M150.39 255.231H153.873V238.599H150.39V255.231Z" fill="black"/>
<path opacity="0.2" d="M142.389 255.231H145.872V238.599H142.389V255.231Z" fill="black"/>
<path opacity="0.2" d="M134.388 255.231H137.871V238.599H134.388V255.231Z" fill="black"/>
<path opacity="0.2" d="M126.405 255.231H129.888V238.599H126.405V255.231Z" fill="black"/>
<path opacity="0.2" d="M118.404 255.231H121.887V238.599H118.404V255.231Z" fill="black"/>
<path opacity="0.2" d="M110.403 255.231H113.886V238.599H110.403V255.231Z" fill="black"/>
<path opacity="0.2" d="M102.42 255.231H105.903V238.599H102.42V255.231Z" fill="black"/>
<path opacity="0.2" d="M94.419 255.231H97.902V238.599H94.419V255.231Z" fill="black"/>
<path opacity="0.2" d="M86.418 255.231H89.901V238.599H86.418V255.231Z" fill="black"/>
<path d="M360.594 172.8L325.35 178.839C324.672 178.953 324.043 179.266 323.544 179.739C323.044 180.211 322.697 180.822 322.545 181.492C322.394 182.163 322.445 182.864 322.693 183.505C322.941 184.146 323.374 184.699 323.937 185.094L330.435 189.693L290.592 246.015C290.333 246.381 290.004 246.693 289.624 246.932C289.245 247.171 288.822 247.332 288.38 247.408C287.937 247.483 287.485 247.47 287.047 247.37C286.61 247.27 286.197 247.085 285.831 246.825L227.268 205.425C226.526 204.903 225.608 204.696 224.714 204.849C223.82 205.003 223.023 205.504 222.498 206.244L104.445 373.104H146.871L230.778 254.493C231.037 254.127 231.366 253.815 231.746 253.576C232.125 253.337 232.548 253.176 232.99 253.1C233.433 253.025 233.885 253.038 234.323 253.138C234.76 253.238 235.173 253.423 235.539 253.683L294.102 295.083C294.469 295.343 294.883 295.527 295.322 295.627C295.76 295.726 296.214 295.738 296.657 295.662C297.1 295.586 297.523 295.424 297.904 295.184C298.284 294.944 298.613 294.631 298.872 294.264L358.713 209.664L365.22 214.263C365.781 214.649 366.443 214.863 367.124 214.876C367.805 214.889 368.475 214.702 369.05 214.337C369.626 213.973 370.081 213.447 370.36 212.826C370.639 212.205 370.73 211.515 370.62 210.843L364.572 175.599C364.409 174.703 363.901 173.908 363.157 173.384C362.412 172.86 361.492 172.651 360.594 172.8Z" fill="#8CB817"/>
<path opacity="0.2" d="M360.594 172.8L325.35 178.839C324.672 178.953 324.043 179.266 323.544 179.739C323.044 180.211 322.697 180.822 322.545 181.492C322.394 182.163 322.445 182.864 322.693 183.505C322.941 184.146 323.374 184.699 323.937 185.094L330.435 189.693L290.592 246.015C290.333 246.381 290.004 246.693 289.624 246.932C289.245 247.171 288.822 247.332 288.38 247.408C287.937 247.483 287.485 247.47 287.047 247.37C286.61 247.27 286.197 247.085 285.831 246.825L227.268 205.425C226.526 204.903 225.608 204.696 224.714 204.849C223.82 205.003 223.023 205.504 222.498 206.244L104.445 373.104H146.871L230.778 254.493C231.037 254.127 231.366 253.815 231.746 253.576C232.125 253.337 232.548 253.176 232.99 253.1C233.433 253.025 233.885 253.038 234.323 253.138C234.76 253.238 235.173 253.423 235.539 253.683L294.102 295.083C294.469 295.343 294.883 295.527 295.322 295.627C295.76 295.726 296.214 295.738 296.657 295.662C297.1 295.586 297.523 295.424 297.904 295.184C298.284 294.944 298.613 294.631 298.872 294.264L358.713 209.664L365.22 214.263C365.781 214.649 366.443 214.863 367.124 214.876C367.805 214.889 368.475 214.702 369.05 214.337C369.626 213.973 370.081 213.447 370.36 212.826C370.639 212.205 370.73 211.515 370.62 210.843L364.572 175.599C364.409 174.703 363.901 173.908 363.157 173.384C362.412 172.86 361.492 172.651 360.594 172.8Z" fill="black"/>
<path opacity="0.2" d="M144.216 368.199H114.354C114.313 368.197 114.273 368.185 114.238 368.163C114.203 368.141 114.175 368.11 114.156 368.073C114.135 368.038 114.123 367.997 114.123 367.956C114.123 367.915 114.135 367.874 114.156 367.839L223.524 213.219C223.798 212.825 224.147 212.49 224.552 212.231C224.956 211.973 225.407 211.797 225.88 211.713C226.352 211.63 226.836 211.64 227.305 211.744C227.773 211.848 228.216 212.043 228.609 212.319L287.163 253.719C287.507 253.969 287.898 254.147 288.312 254.244C288.726 254.34 289.155 254.353 289.574 254.282C289.993 254.211 290.393 254.057 290.752 253.829C291.111 253.601 291.421 253.303 291.663 252.954L337.302 188.442L330.102 183.321C330.063 183.297 330.034 183.262 330.018 183.219C330.001 183.177 329.999 183.131 330.012 183.087C330.022 183.044 330.044 183.005 330.076 182.975C330.108 182.944 330.149 182.924 330.192 182.916L359.892 177.831C359.92 177.826 359.95 177.827 359.978 177.833C360.006 177.839 360.032 177.851 360.056 177.868C360.079 177.885 360.099 177.906 360.114 177.931C360.13 177.955 360.14 177.983 360.144 178.011L365.229 207.711C365.236 207.755 365.23 207.801 365.213 207.842C365.195 207.883 365.166 207.919 365.13 207.945C365.092 207.969 365.049 207.982 365.004 207.982C364.959 207.982 364.916 207.969 364.878 207.945L357.678 202.824L297.963 287.244C297.689 287.637 297.34 287.971 296.937 288.229C296.533 288.486 296.083 288.662 295.611 288.745C295.14 288.829 294.657 288.819 294.189 288.716C293.722 288.613 293.279 288.418 292.887 288.144L234.324 246.744C233.981 246.502 233.594 246.329 233.185 246.236C232.775 246.144 232.352 246.132 231.938 246.203C231.524 246.274 231.129 246.426 230.774 246.65C230.419 246.874 230.111 247.166 229.869 247.509L144.405 368.1C144.384 368.13 144.355 368.155 144.322 368.172C144.29 368.19 144.253 368.199 144.216 368.199ZM114.786 367.749H144.099L229.365 247.212C229.92 246.419 230.768 245.879 231.721 245.71C232.675 245.541 233.656 245.758 234.45 246.312L293.013 287.712C293.356 287.955 293.743 288.127 294.152 288.22C294.562 288.313 294.985 288.324 295.399 288.253C295.813 288.182 296.208 288.03 296.563 287.806C296.918 287.582 297.226 287.29 297.468 286.947L357.309 202.347C357.324 202.322 357.345 202.301 357.37 202.285C357.395 202.269 357.424 202.26 357.453 202.257C357.48 202.244 357.509 202.238 357.538 202.238C357.568 202.238 357.597 202.244 357.624 202.257L364.599 207.189L359.64 178.38L330.741 183.33L337.716 188.262C337.762 188.298 337.794 188.349 337.806 188.406C337.828 188.461 337.828 188.522 337.806 188.577L292.041 253.278C291.766 253.67 291.416 254.003 291.011 254.258C290.607 254.513 290.155 254.685 289.683 254.763C288.738 254.92 287.768 254.7 286.983 254.151L228.429 212.751C228.085 212.502 227.694 212.323 227.28 212.227C226.866 212.13 226.437 212.117 226.018 212.188C225.599 212.259 225.199 212.413 224.84 212.641C224.481 212.87 224.171 213.167 223.929 213.516L114.786 367.749Z" fill="white"/>
<path d="M313.245 316.611H309.546V371.646H313.245V316.611Z" fill="#263238"/>
<path d="M345.609 286.623H341.91V371.646H345.609V286.623Z" fill="#263238"/>
<path d="M378.567 307.017H374.868V371.646H378.567V307.017Z" fill="#263238"/>
<path d="M309.555 316.611H283.617V371.646H309.555V316.611Z" fill="#FEEAA2"/>
<path opacity="0.2" d="M283.617 316.611V349.245L296.577 316.611H283.617Z" fill="white"/>
<path d="M341.91 286.623H315.972V371.646H341.91V286.623Z" fill="#6AD26A"/>
<path opacity="0.2" d="M315.972 286.623V319.257L328.941 286.623H315.972Z" fill="white"/>
<path d="M374.877 307.017H348.939V371.646H374.877V307.017Z" fill="#D1ED84"/>
<path opacity="0.2" d="M348.939 307.017V336.06L361.908 307.017H348.939Z" fill="white"/>
<path d="M223.272 367.146L216.315 365.841L217.494 349.38L224.451 350.694L223.272 367.146Z" fill="#7F3E3B"/>
<path d="M270.09 366.957H263.007L261.252 350.568H268.326L270.09 366.957Z" fill="#7F3E3B"/>
<path d="M262.431 366.138H271.053C271.194 366.138 271.33 366.187 271.439 366.275C271.549 366.363 271.625 366.486 271.656 366.624L273.06 372.924C273.092 373.077 273.09 373.235 273.053 373.388C273.016 373.54 272.945 373.681 272.845 373.802C272.746 373.923 272.621 374.021 272.479 374.087C272.337 374.153 272.182 374.186 272.025 374.184C269.244 374.139 267.219 373.968 263.727 373.968C261.576 373.968 255.087 374.193 252.117 374.193C249.147 374.193 248.76 371.259 249.975 370.989C255.429 369.801 259.533 368.154 261.279 366.588C261.593 366.299 262.004 366.139 262.431 366.138Z" fill="#263238"/>
<path d="M216.459 364.311L224.082 365.625C224.22 365.649 224.346 365.719 224.439 365.823C224.532 365.928 224.587 366.061 224.595 366.201L224.901 372.636C224.909 372.791 224.881 372.946 224.821 373.09C224.76 373.233 224.668 373.361 224.552 373.464C224.435 373.567 224.296 373.642 224.147 373.684C223.997 373.726 223.839 373.734 223.686 373.707C220.986 373.185 216.999 372.339 213.552 371.745C209.511 371.052 207.54 370.548 202.806 369.729C199.944 369.234 200.565 366.129 201.816 366.048C207.477 365.796 209.475 366.66 214.686 364.563C215.242 364.315 215.856 364.228 216.459 364.311Z" fill="#263238"/>
<path d="M240.696 150.381C240.453 151.101 240.264 151.623 240.039 152.181C239.814 152.739 239.589 153.333 239.355 153.9C238.887 155.043 238.392 156.159 237.87 157.275C236.827 159.514 235.659 161.693 234.369 163.8C231.73 168.307 228.293 172.296 224.226 175.572C223.094 176.435 221.889 177.2 220.626 177.858C220.302 178.038 219.969 178.191 219.627 178.344C219.285 178.497 218.979 178.641 218.574 178.794C217.776 179.088 216.954 179.31 216.117 179.46C214.758 179.689 213.382 179.807 212.004 179.811C210.708 179.811 209.466 179.811 208.242 179.694C203.468 179.313 198.743 178.457 194.139 177.138L194.85 171.873C199.35 171.702 203.913 171.558 208.197 171.18C209.268 171.081 210.321 170.955 211.32 170.802C212.235 170.678 213.138 170.479 214.02 170.208C214.308 170.126 214.586 170.011 214.848 169.866C215.145 169.686 215.55 169.515 215.883 169.281C216.617 168.818 217.312 168.298 217.962 167.724C219.398 166.451 220.692 165.026 221.823 163.476C223.055 161.832 224.18 160.109 225.189 158.319C226.242 156.519 227.187 154.602 228.114 152.676C228.564 151.713 229.014 150.732 229.41 149.751L230.013 148.284L230.562 146.898L240.696 150.381Z" fill="#7F3E3B"/>
<path d="M237.285 142.083C250.2 142.083 236.007 169.983 236.007 169.983L219.528 163.314C219.528 163.314 224.028 153.612 226.989 148.059C227.948 146.177 229.43 144.613 231.256 143.553C233.082 142.493 235.176 141.982 237.285 142.083Z" fill="#8CB817"/>
<g opacity="0.3">
<path d="M237.285 142.083C250.2 142.083 236.007 169.983 236.007 169.983L219.528 163.314C219.528 163.314 224.028 153.612 226.989 148.059C227.948 146.177 229.43 144.613 231.256 143.553C233.082 142.493 235.176 141.982 237.285 142.083Z" fill="white"/>
</g>
<path opacity="0.2" d="M234.126 151.101C229.401 154.422 226.116 160.587 225.18 165.591L234.594 169.407C236.304 166.851 237.969 163.836 239.805 161.19C240.309 159.813 240.804 158.364 241.236 156.897L234.126 151.101Z" fill="black"/>
<path d="M198.9 172.548L193.239 169.353L188.901 177.453C191.407 177.877 193.971 177.813 196.452 177.264L198.9 172.548Z" fill="#7F3E3B"/>
<path d="M187.821 169.353L184.671 176.499L188.865 177.48L193.203 169.353H187.821Z" fill="#7F3E3B"/>
<path opacity="0.2" d="M217.494 349.389L216.891 357.867L223.848 359.172L224.451 350.694L217.494 349.389Z" fill="black"/>
<path opacity="0.2" d="M268.326 350.577H261.243L262.161 359.028H269.235L268.326 350.577Z" fill="black"/>
<path d="M272.502 145.17C270.427 152.808 268.922 160.591 268.002 168.453C267.327 173.934 266.931 179.163 266.679 183.915C266.085 195.039 266.337 203.517 266.004 206.415C260.469 206.037 239.616 204.615 228.204 203.787C223.065 163.53 232.884 142.794 232.884 142.794C235.858 142.235 238.864 141.859 241.884 141.669C242.523 141.669 243.18 141.606 243.837 141.597C249.206 141.66 254.567 142.032 259.893 142.713C260.901 142.83 261.927 142.983 262.917 143.145C268.056 143.937 272.502 145.17 272.502 145.17Z" fill="#8CB817"/>
<g opacity="0.3">
<path d="M272.502 145.17C270.427 152.808 268.922 160.591 268.002 168.453C267.327 173.934 266.931 179.163 266.679 183.915C266.085 195.039 266.337 203.517 266.004 206.415C260.469 206.037 239.616 204.615 228.204 203.787C223.065 163.53 232.884 142.794 232.884 142.794C235.858 142.235 238.864 141.859 241.884 141.669C242.523 141.669 243.18 141.606 243.837 141.597C249.206 141.66 254.567 142.032 259.893 142.713C260.901 142.83 261.927 142.983 262.917 143.145C268.056 143.937 272.502 145.17 272.502 145.17Z" fill="white"/>
</g>
<path opacity="0.2" d="M262.971 155.358C262.899 161.151 264.523 166.838 267.642 171.72C267.75 170.64 267.876 169.551 268.011 168.453C268.515 164.331 269.163 160.065 270.018 155.754L262.971 155.358Z" fill="black"/>
<path d="M259.641 124.497C258.273 129.6 256.599 138.987 259.974 142.686C258.267 144.234 256.248 145.398 254.052 146.098C251.856 146.799 249.536 147.019 247.248 146.745C242.811 146.34 242.811 143.217 243.918 141.57C249.777 140.598 249.921 136.314 249.201 132.228L259.641 124.497Z" fill="#7F3E3B"/>
<path d="M243.999 148.428C244.103 149.222 244.29 150.003 244.557 150.759C244.633 151 244.785 151.21 244.989 151.358C245.192 151.507 245.438 151.587 245.691 151.587C246.43 151.576 247.169 151.639 247.896 151.776C248.049 151.812 248.208 151.816 248.363 151.788C248.518 151.76 248.665 151.701 248.796 151.614C249.696 151.047 250.848 150.21 250.551 149.166C250.2 147.942 248.094 146.835 248.094 146.835C248.094 146.835 244.476 147.726 243.999 148.428Z" fill="#263238"/>
<path d="M245.898 150.759C244.449 153.927 241.101 174.213 240.687 177.282C240.273 180.351 241.686 185.301 243.648 189.234C245.903 186.141 247.188 182.447 247.338 178.623C247.599 174.429 247.851 151.263 247.851 151.263L245.898 150.759Z" fill="#263238"/>
<path d="M248.067 146.835C249.407 147.952 250.514 149.322 251.325 150.867C253.602 150.687 263.655 146.277 262.224 142.875C260.973 142.524 259.875 141.804 259.524 142.173C259.047 142.902 254.781 145.476 248.067 146.835Z" fill="white"/>
<path d="M248.067 146.835C248.067 146.835 244.206 148.14 243.306 150.336C240.975 149.301 239.706 144.63 241.767 141.561C243.054 141.453 244.287 140.814 244.521 141.237C244.881 142.038 243.9 144.189 248.067 146.835Z" fill="white"/>
<path opacity="0.2" d="M255.384 127.656L249.201 132.219C249.388 133.171 249.487 134.138 249.498 135.108C251.721 134.946 254.898 132.741 255.312 130.455C255.508 129.534 255.532 128.585 255.384 127.656Z" fill="black"/>
<path d="M244.647 108.108C241.947 109.17 240.948 119.619 246.447 118.593C251.946 117.567 250.083 105.975 244.647 108.108Z" fill="#263238"/>
<path d="M262.476 118.557C260.271 125.226 259.326 129.24 254.988 131.823C248.454 135.702 240.903 130.392 241.065 123.201C241.209 116.73 244.782 106.902 252.135 105.957C253.754 105.738 255.402 105.936 256.922 106.534C258.443 107.132 259.785 108.108 260.821 109.371C261.858 110.634 262.554 112.141 262.844 113.749C263.133 115.356 263.007 117.012 262.476 118.557Z" fill="#7F3E3B"/>
<path d="M259.974 123.147C257.175 123.201 254.88 114.723 260.523 112.347C256.077 111.834 242.424 112.581 239.976 106.479C237.528 100.377 247.023 99.4318 250.254 101.736C249.228 98.3788 253.404 93.4288 260.91 97.9288C268.416 102.429 268.326 107.982 267.624 109.629C270.972 110.529 271.629 117.981 267.93 118.98C270.099 121.986 268.227 128.304 262.377 126.954C262.179 130.635 258.075 129.024 258.327 126.198C258.579 123.372 259.974 123.147 259.974 123.147Z" fill="#263238"/>
<path d="M247.5 124.776C248.291 125.007 249.126 125.046 249.936 124.89C250.745 124.733 251.505 124.386 252.153 123.876C252.187 123.841 252.205 123.794 252.205 123.745C252.205 123.697 252.187 123.65 252.153 123.615C252.119 123.582 252.074 123.563 252.027 123.563C251.98 123.563 251.935 123.582 251.901 123.615C251.303 124.095 250.6 124.426 249.849 124.582C249.098 124.739 248.321 124.716 247.581 124.515C247.559 124.508 247.535 124.506 247.512 124.509C247.488 124.512 247.466 124.519 247.446 124.531C247.425 124.543 247.408 124.559 247.394 124.578C247.38 124.596 247.37 124.618 247.365 124.641C247.372 124.674 247.388 124.705 247.412 124.729C247.436 124.753 247.467 124.769 247.5 124.776Z" fill="#263238"/>
<path d="M263.871 125.631C262.578 126.838 260.86 127.485 259.092 127.431C256.752 127.332 256.302 125.064 257.553 123.237C258.687 121.59 261.261 119.637 263.313 120.636C263.759 120.86 264.143 121.192 264.428 121.601C264.714 122.011 264.892 122.486 264.948 122.982C265.003 123.478 264.934 123.98 264.746 124.443C264.558 124.906 264.257 125.314 263.871 125.631Z" fill="#7F3E3B"/>
<path d="M214.542 355.122L226.242 357.885C226.242 357.885 230.382 312.3 233.937 287.253C234.882 280.611 236.34 271.269 238.563 261.315C241.362 248.778 244.863 235.215 247.761 224.595C250.794 213.408 253.107 205.497 253.107 205.497L228.285 203.76C228.285 203.76 214.848 262.35 213.426 283.86C211.905 306.306 214.542 355.122 214.542 355.122Z" fill="#263238"/>
<path opacity="0.2" d="M238.5 261.315C241.299 248.778 244.8 235.215 247.698 224.595L245.115 219.042C238.986 226.359 237.33 249.012 238.5 261.315Z" fill="black"/>
<path d="M241.641 204.696C241.641 204.696 244.341 265.284 247.311 285.804C250.578 308.304 258.885 357.39 258.885 357.39H271.854C271.854 357.39 268.254 310.707 265.815 288.702C263.034 263.637 266.004 206.397 266.004 206.397L241.641 204.696Z" fill="#263238"/>
<path d="M257.337 357.669H272.601L273.276 353.106L256.428 352.809L257.337 357.669Z" fill="#8CB817"/>
<path d="M213.795 355.905L227.088 358.407L228.591 353.772L213.435 350.901L213.795 355.905Z" fill="#8CB817"/>
<path d="M252.225 118.026C252.072 118.575 251.667 118.926 251.325 118.854C250.983 118.782 250.785 118.233 250.929 117.684C251.073 117.135 251.487 116.784 251.829 116.856C252.171 116.928 252.369 117.477 252.225 118.026Z" fill="#263238"/>
<path d="M245.979 116.388C245.835 116.937 245.421 117.288 245.079 117.207C244.737 117.126 244.548 116.595 244.692 116.037C244.836 115.479 245.25 115.137 245.592 115.209C245.934 115.281 246.123 115.83 245.979 116.388Z" fill="#263238"/>
<path d="M247.365 116.901C246.26 118.414 244.955 119.771 243.486 120.933C244.215 122.094 246.096 121.995 246.096 121.995L247.365 116.901Z" fill="#630F0F"/>
<path d="M254.16 116.235C254.097 116.231 254.037 116.209 253.986 116.173C253.935 116.136 253.896 116.086 253.872 116.028C253.72 115.635 253.478 115.282 253.165 115C252.853 114.717 252.478 114.511 252.072 114.399C252.029 114.391 251.988 114.374 251.951 114.35C251.914 114.326 251.883 114.294 251.858 114.258C251.833 114.222 251.816 114.181 251.807 114.138C251.798 114.095 251.798 114.05 251.806 114.007C251.815 113.964 251.831 113.923 251.856 113.886C251.88 113.85 251.911 113.818 251.947 113.793C251.984 113.769 252.024 113.752 252.067 113.743C252.11 113.734 252.155 113.734 252.198 113.742C252.714 113.873 253.191 114.127 253.588 114.481C253.986 114.835 254.293 115.279 254.484 115.776C254.502 115.817 254.511 115.86 254.511 115.905C254.512 115.949 254.504 115.993 254.487 116.034C254.47 116.075 254.445 116.113 254.414 116.144C254.382 116.175 254.345 116.2 254.304 116.217C254.258 116.234 254.209 116.24 254.16 116.235Z" fill="#263238"/>
<path d="M243.342 113.256C243.272 113.248 243.207 113.22 243.153 113.175C243.121 113.144 243.096 113.107 243.079 113.066C243.061 113.025 243.052 112.981 243.052 112.937C243.052 112.892 243.061 112.848 243.079 112.807C243.096 112.766 243.121 112.729 243.153 112.698C243.49 112.286 243.921 111.96 244.409 111.749C244.898 111.538 245.43 111.446 245.961 111.483C246.048 111.498 246.125 111.546 246.179 111.616C246.232 111.686 246.257 111.773 246.249 111.861C246.236 111.949 246.189 112.028 246.118 112.081C246.048 112.135 245.959 112.159 245.871 112.149C245.45 112.13 245.031 112.21 244.647 112.381C244.262 112.553 243.923 112.813 243.657 113.139C243.619 113.184 243.57 113.218 243.515 113.239C243.46 113.259 243.4 113.265 243.342 113.256Z" fill="#263238"/>
<path d="M260.1 367.38C259.617 367.417 259.135 367.29 258.732 367.02C258.604 366.91 258.506 366.77 258.447 366.613C258.387 366.456 258.367 366.286 258.39 366.12C258.388 366.022 258.413 365.926 258.465 365.843C258.516 365.76 258.59 365.693 258.678 365.652C259.461 365.247 261.738 366.651 261.999 366.813C262.026 366.829 262.048 366.853 262.061 366.882C262.074 366.911 262.077 366.944 262.071 366.975C262.068 367.009 262.054 367.041 262.032 367.067C262.009 367.093 261.979 367.111 261.945 367.119C261.342 367.274 260.723 367.362 260.1 367.38ZM259.047 365.913C258.972 365.906 258.897 365.922 258.831 365.958C258.786 365.958 258.732 366.021 258.723 366.156C258.707 366.267 258.72 366.38 258.759 366.486C258.798 366.591 258.863 366.685 258.948 366.759C259.738 367.119 260.636 367.164 261.459 366.885C260.723 366.407 259.9 366.077 259.038 365.913H259.047Z" fill="#8CB817"/>
<path d="M261.9 367.128H261.819C261.09 366.732 259.668 365.175 259.821 364.428C259.846 364.305 259.912 364.194 260.009 364.113C260.105 364.033 260.226 363.988 260.352 363.987C260.48 363.969 260.611 363.979 260.736 364.016C260.86 364.053 260.975 364.117 261.072 364.203C261.891 364.869 262.062 366.903 262.071 367.002C262.071 367.032 262.064 367.062 262.05 367.089C262.036 367.115 262.015 367.138 261.99 367.155C261.958 367.155 261.926 367.146 261.9 367.128ZM260.469 364.257H260.397C260.181 364.257 260.163 364.383 260.154 364.428C260.064 364.887 260.964 366.066 261.693 366.615C261.646 365.809 261.354 365.036 260.856 364.401C260.749 364.307 260.611 364.256 260.469 364.257Z" fill="#8CB817"/>
<path d="M215.613 365.157C214.452 365.157 212.409 365.112 211.761 364.311C211.659 364.187 211.589 364.04 211.559 363.883C211.529 363.725 211.54 363.563 211.59 363.411C211.609 363.322 211.651 363.24 211.711 363.173C211.771 363.105 211.847 363.054 211.932 363.024C212.832 362.709 215.424 364.599 215.712 364.824C215.74 364.843 215.76 364.872 215.77 364.904C215.78 364.937 215.778 364.972 215.766 365.004C215.762 365.043 215.745 365.079 215.717 365.107C215.689 365.135 215.652 365.153 215.613 365.157ZM212.067 363.357C212.032 363.368 212 363.389 211.976 363.418C211.952 363.447 211.937 363.482 211.932 363.519C211.903 363.613 211.897 363.714 211.916 363.811C211.935 363.908 211.978 364 212.04 364.077C212.4 364.536 213.534 364.797 215.118 364.806C214.047 364.104 212.607 363.249 212.067 363.366V363.357Z" fill="#8CB817"/>
<path d="M215.613 365.157C215.573 365.173 215.527 365.173 215.487 365.157C214.713 364.635 213.309 362.835 213.57 362.07C213.633 361.89 213.804 361.683 214.263 361.71C214.435 361.717 214.604 361.76 214.759 361.836C214.914 361.912 215.051 362.019 215.163 362.151C215.928 363.051 215.793 364.95 215.784 365.031C215.782 365.059 215.773 365.087 215.757 365.111C215.741 365.134 215.72 365.153 215.694 365.166L215.613 365.157ZM214.047 362.034C213.921 362.034 213.894 362.124 213.885 362.151C213.732 362.61 214.659 363.996 215.424 364.653C215.487 363.846 215.295 363.04 214.875 362.349C214.797 362.255 214.701 362.178 214.593 362.122C214.485 362.067 214.366 362.033 214.245 362.025C214.179 362.013 214.111 362.016 214.047 362.034Z" fill="#8CB817"/>
<path d="M240.399 176.778L237.528 174.726L190.458 240.615L193.329 242.667C202.077 248.594 212.796 250.867 223.196 249.001C233.597 247.135 242.857 241.278 248.999 232.68C255.142 224.081 257.681 213.423 256.074 202.979C254.467 192.535 248.842 183.132 240.399 176.778Z" fill="#8CB817"/>
<path opacity="0.1" d="M240.399 176.778L237.528 174.726L190.458 240.615L193.329 242.667C202.077 248.594 212.796 250.867 223.196 249.001C233.597 247.135 242.857 241.278 248.999 232.68C255.142 224.081 257.681 213.423 256.074 202.979C254.467 192.535 248.842 183.132 240.399 176.778Z" fill="black"/>
<path d="M170.685 212.823C170.015 207.255 170.427 201.611 171.9 196.2L172.8 196.434C171.354 201.736 170.95 207.268 171.612 212.724L170.685 212.823Z" fill="#8CB817"/>
<path d="M173.412 223.686C172.609 221.638 171.962 219.532 171.477 217.386L172.377 217.188C172.857 219.284 173.491 221.342 174.276 223.344L173.412 223.686Z" fill="#8CB817"/>
<path d="M222.176 247.308C244.074 242.797 258.168 221.389 253.657 199.491C249.147 177.593 227.738 163.498 205.84 168.009C183.942 172.52 169.848 193.928 174.359 215.826C178.869 237.724 200.278 251.819 222.176 247.308Z" fill="#8CB817"/>
<path d="M204.435 217.908L210.789 209.025C208.581 206.253 207.402 203.601 207.252 201.069C207.138 198.481 207.931 195.935 209.493 193.869C210.978 191.667 213.265 190.133 215.865 189.594C218.553 189.082 221.335 189.599 223.659 191.043L225.189 188.901L228.267 191.097L226.728 193.239C228.611 194.82 229.92 196.977 230.454 199.377C230.857 201.734 230.477 204.158 229.374 206.28L223.506 203.148C223.934 202.34 224.147 201.435 224.125 200.521C224.103 199.607 223.846 198.714 223.38 197.928L217.458 206.226C220.194 209.574 221.655 212.418 221.841 214.758C221.976 217.261 221.203 219.728 219.663 221.706C218.036 224.129 215.555 225.848 212.715 226.521C209.722 227.137 206.606 226.645 203.949 225.135L202.419 227.277L199.341 225.081L200.799 223.038C198.7 221.236 197.286 218.767 196.794 216.045C196.418 213.081 197.012 210.075 198.486 207.477L204.453 210.843C203.89 212.041 203.61 213.353 203.634 214.677C203.645 215.802 203.919 216.908 204.435 217.908ZM220.347 195.633C219.364 195.313 218.306 195.313 217.323 195.633C216.374 195.935 215.549 196.539 214.974 197.352C214.442 198.104 214.159 199.004 214.164 199.926C214.175 201.001 214.486 202.052 215.064 202.959L220.347 195.633ZM207.297 220.41C208.417 220.951 209.691 221.082 210.897 220.779C212.107 220.482 213.167 219.752 213.876 218.727C214.526 217.848 214.845 216.767 214.776 215.676C214.604 214.358 214.039 213.123 213.156 212.13L207.297 220.41Z" fill="white"/>
<path opacity="0.1" d="M246.789 204.3C244.905 196.12 239.972 188.966 232.995 184.297C226.019 179.628 217.525 177.795 209.244 179.173C200.963 180.55 193.52 185.033 188.43 191.709C183.341 198.385 180.989 206.75 181.854 215.1C180.844 210.713 180.742 206.166 181.555 201.739C182.369 197.312 184.08 193.098 186.584 189.357C189.087 185.616 192.33 182.428 196.113 179.987C199.896 177.547 204.138 175.908 208.578 175.169C213.019 174.43 217.563 174.609 221.932 175.693C226.301 176.778 230.401 178.745 233.981 181.474C237.561 184.203 240.544 187.636 242.747 191.562C244.949 195.487 246.325 199.823 246.789 204.3Z" fill="black"/>
<path d="M273.411 149.04C274.311 150.183 275.058 151.209 275.814 152.325C276.57 153.441 277.308 154.512 278.028 155.628C279.459 157.86 280.818 160.128 282.078 162.495C283.338 164.862 284.508 167.283 285.57 169.785L286.344 171.684L287.046 173.637C287.28 174.276 287.478 174.96 287.685 175.626L287.982 176.634L288.063 176.886L288.198 177.435C288.284 177.809 288.344 178.187 288.378 178.569C288.463 179.838 288.295 181.11 287.883 182.313C287.572 183.218 287.165 184.087 286.668 184.905C285.846 186.244 284.894 187.498 283.824 188.649C281.926 190.667 279.864 192.524 277.659 194.202C273.468 197.402 269.005 200.23 264.321 202.653L261.405 198.207C265.176 194.994 268.947 191.61 272.358 188.181C274.016 186.539 275.555 184.783 276.966 182.925C277.565 182.149 278.084 181.313 278.514 180.432C278.647 180.143 278.749 179.842 278.82 179.532C278.82 179.298 278.82 179.334 278.82 179.532C278.807 179.597 278.807 179.665 278.82 179.73C278.818 179.757 278.818 179.784 278.82 179.811L278.739 179.613L278.424 178.821C278.208 178.281 278.019 177.75 277.767 177.219L277.047 175.626L276.282 174.033C275.211 171.918 274.068 169.812 272.826 167.733C271.584 165.654 270.297 163.584 268.956 161.55C268.299 160.524 267.615 159.507 266.931 158.508L264.879 155.583L273.411 149.04Z" fill="#7F3E3B"/>
<path d="M272.502 145.17C279.135 146.511 284.958 162.729 284.958 162.729L271.116 174.006C271.116 174.006 266.616 165.762 262.944 157.806C258.993 149.139 264.465 143.55 272.502 145.17Z" fill="#8CB817"/>
<g opacity="0.3">
<path d="M272.502 145.17C279.135 146.511 284.958 162.729 284.958 162.729L271.116 174.006C271.116 174.006 266.616 165.762 262.944 157.806C258.993 149.139 264.465 143.55 272.502 145.17Z" fill="white"/>
</g>
<path d="M263.043 197.586L255.897 198.369L260.532 206.127C260.532 206.127 266.472 204.111 265.752 200.853L263.043 197.586Z" fill="#7F3E3B"/>
<path d="M251.64 202.464L255.771 208.701L260.532 206.127L255.897 198.369L251.64 202.464Z" fill="#7F3E3B"/>
</g>
<defs>
<clipPath id="clip0_41_2282">
<rect width="450" height="450" fill="white"/>
</clipPath>
</defs>
</svg>
