<svg width="450" height="450" viewBox="0 0 450 450" fill="none" xmlns="http://www.w3.org/2000/svg">
<path opacity="0.5" fill-rule="evenodd" clip-rule="evenodd" d="M407.417 276.302C410.593 262.197 414.029 246.931 419.64 230.1C434.869 184.411 413.918 157.739 380.606 115.332C379.298 113.667 377.972 111.978 376.627 110.263C359.625 89.6559 347.508 86.8623 328.096 82.3872C308.051 77.7659 280.228 71.3515 231.216 41.6766C158.464 -2.37293 132.068 40.2845 107.997 79.1847C100.149 91.868 92.5481 104.152 83.668 112.901C71.522 128.172 69.0842 144.314 66.368 162.3C63.3622 182.204 60.0154 204.365 42.7927 230.1C40.3756 233.712 37.4616 236.613 34.6979 239.365C22.1968 251.812 12.7703 261.198 66.3151 319.414C90.8952 346.138 114.997 367.633 137.5 383.732L338.5 380.366C355.257 370.403 370.323 358.428 381.113 344.285C396.717 323.833 401.634 301.99 407.417 276.302Z" fill="#D1ED84"/>
<path d="M450 344.16H0V344.385H450V344.16Z" fill="#C3E861"/>
<path d="M390.411 353.736H360.603V353.961H390.411V353.736Z" fill="#C3E861"/>
<path d="M281.763 353.628H273.942V353.853H281.763V353.628Z" fill="#C3E861"/>
<path d="M404.91 358.641H387.639V358.866H404.91V358.641Z" fill="#C3E861"/>
<path d="M103.14 361.629H64.269V361.854H103.14V361.629Z" fill="#C3E861"/>
<path d="M99.801 351.801H94.104V352.026H99.801V351.801Z" fill="#C3E861"/>
<path d="M223.605 352.764H168.795V352.989H223.605V352.764Z" fill="#C3E861"/>
<path d="M213.3 304.02H39.5192C38.1578 304.018 36.853 303.475 35.8912 302.512C34.9294 301.548 34.3892 300.242 34.3892 298.881V54.594C34.401 53.2404 34.9464 51.9462 35.907 50.9924C36.8675 50.0386 38.1655 49.5023 39.5192 49.5H213.3C214.663 49.5 215.97 50.0414 216.934 51.0052C217.898 51.9689 218.439 53.2761 218.439 54.639V298.881C218.439 300.244 217.898 301.551 216.934 302.515C215.97 303.479 214.663 304.02 213.3 304.02ZM39.5192 49.68C38.2174 49.6824 36.9699 50.2012 36.0503 51.1225C35.1306 52.0437 34.6142 53.2923 34.6142 54.594V298.881C34.6142 300.183 35.1306 301.431 36.0503 302.353C36.9699 303.274 38.2174 303.793 39.5192 303.795H213.3C214.603 303.793 215.851 303.274 216.772 302.353C217.693 301.432 218.212 300.184 218.214 298.881V54.594C218.212 53.2915 217.693 52.0429 216.772 51.1219C215.851 50.2009 214.603 49.6824 213.3 49.68H39.5192Z" fill="#FAB317"/>
<path d="M407.979 304.02H234.189C232.827 304.018 231.521 303.475 230.558 302.512C229.594 301.549 229.052 300.243 229.05 298.881V54.594C229.064 53.2396 229.611 51.9454 230.573 50.9918C231.535 50.0383 232.834 49.5023 234.189 49.5H407.979C409.331 49.5047 410.627 50.042 411.585 50.9956C412.544 51.9491 413.088 53.242 413.1 54.594V298.881C413.1 300.241 412.561 301.545 411.601 302.508C410.641 303.472 409.339 304.015 407.979 304.02ZM234.189 49.68C232.886 49.6824 231.638 50.2009 230.717 51.1219C229.796 52.0429 229.277 53.2915 229.275 54.594V298.881C229.277 300.184 229.796 301.432 230.717 302.353C231.638 303.274 232.886 303.793 234.189 303.795H407.979C409.281 303.793 410.53 303.274 411.451 302.353C412.372 301.432 412.89 300.184 412.893 298.881V54.594C412.89 53.2915 412.372 52.0429 411.451 51.1219C410.53 50.2009 409.281 49.6824 407.979 49.68H234.189Z" fill="#C3E861"/>
<path d="M386.001 86.697H63.999V220.698H386.001V86.697Z" fill="#FEDBD7"/>
<path d="M379.701 214.407V93.006L70.2992 93.006V214.407H379.701Z" fill="#FAFAFA"/>
<path d="M111.033 214.398L142.767 92.997H166.167L134.433 214.398H111.033Z" fill="white"/>
<path d="M139.833 214.398L171.567 92.997H182.034L150.3 214.398H139.833Z" fill="white"/>
<path d="M191.043 214.398L222.786 92.997H246.186L214.443 214.398H191.043Z" fill="white"/>
<path d="M250.047 214.398L281.781 92.997H292.257L260.514 214.398H250.047Z" fill="white"/>
<path d="M153.189 214.407V93.006H151.587V214.407H153.189Z" fill="#D1ED84"/>
<path d="M71.9009 214.407L71.9009 93.006H70.2989L70.2989 214.407H71.9009Z" fill="#D1ED84"/>
<path d="M151.587 214.407V93.006H145.287V214.407H151.587Z" fill="#2777A5"/>
<path d="M231.3 214.407V93.006H229.698V214.407H231.3Z" fill="#D1ED84"/>
<path d="M229.698 214.407V93.006H223.398V214.407H229.698Z" fill="#FEDBD7"/>
<path d="M309.447 214.398V92.997H307.845V214.398H309.447Z" fill="#D1ED84"/>
<path d="M307.845 214.398V92.997H301.545V214.398H307.845Z" fill="#2777A5"/>
<path d="M387.603 220.698V86.697H386.001V220.698H387.603Z" fill="#D1ED84"/>
<path d="M391.203 77.499H58.7969C58.4276 77.4966 58.0742 77.3489 57.8131 77.0878C57.5519 76.8267 57.4042 76.4732 57.4019 76.104C57.4018 75.7332 57.5485 75.3774 57.8099 75.1144C58.0713 74.8513 58.4261 74.7024 58.7969 74.7H391.203C391.574 74.7024 391.928 74.8513 392.19 75.1144C392.451 75.3774 392.598 75.7332 392.598 76.104C392.596 76.4732 392.448 76.8267 392.187 77.0878C391.926 77.3489 391.572 77.4966 391.203 77.499Z" fill="#FEDBD7"/>
<g opacity="0.6">
<path d="M128.106 72H60.1021V316.503H128.106V72Z" fill="#003A63"/>
<path d="M96.948 318.501H91.251L92.853 73.998H95.4L96.948 318.501Z" fill="#6FB2D8"/>
<path d="M78.0753 318.501H75.3213L76.0953 73.998H77.3283L78.0753 318.501Z" fill="#6FB2D8"/>
<path d="M115.875 318.501H113.121L113.895 73.998H115.128L115.875 318.501Z" fill="#6FB2D8"/>
</g>
<g opacity="0.6">
<path d="M389.088 72H321.084V316.503H389.088V72Z" fill="#003A63"/>
<path d="M347.733 318.501H342.036L343.638 73.998H346.185L347.733 318.501Z" fill="#6FB2D8"/>
<path d="M335.16 318.501H332.415L333.18 73.998H334.413L335.16 318.501Z" fill="#6FB2D8"/>
<path d="M364.257 318.501H361.512L362.286 73.998H363.51L364.257 318.501Z" fill="#6FB2D8"/>
<path d="M378.261 318.501H375.516L376.281 73.998H377.514L378.261 318.501Z" fill="#6FB2D8"/>
</g>
<path d="M292.689 342.63H305.469V269.388H292.689V342.63Z" fill="#2777A5"/>
<path d="M144.531 342.63H297.612V269.388H144.531V342.63Z" fill="#FAB317"/>
<path d="M294.174 342.63H289.566H151.137V344.16H289.566H294.174H298.863V342.63H294.174Z" fill="#D1ED84"/>
<path opacity="0.5" d="M148.896 303.525H293.247V273.969H148.896V303.525Z" fill="#FEF6D0"/>
<path opacity="0.5" d="M149 337.556H293.351V308H149V337.556Z" fill="#FEF6D0"/>
<path d="M170.775 288.747C170.775 289.39 170.584 290.018 170.227 290.552C169.87 291.086 169.363 291.503 168.769 291.749C168.176 291.995 167.522 292.059 166.892 291.934C166.262 291.808 165.683 291.499 165.228 291.044C164.774 290.59 164.465 290.011 164.339 289.381C164.214 288.751 164.278 288.097 164.524 287.504C164.77 286.91 165.187 286.403 165.721 286.046C166.255 285.689 166.883 285.498 167.526 285.498C167.953 285.498 168.375 285.582 168.769 285.745C169.163 285.909 169.522 286.148 169.823 286.45C170.125 286.751 170.364 287.109 170.528 287.504C170.691 287.898 170.775 288.32 170.775 288.747Z" fill="#D1ED84"/>
<path d="M277.857 288.747C277.857 289.39 277.666 290.018 277.309 290.552C276.952 291.086 276.445 291.503 275.851 291.749C275.258 291.995 274.604 292.059 273.974 291.934C273.344 291.808 272.765 291.499 272.31 291.044C271.856 290.59 271.547 290.011 271.421 289.381C271.296 288.751 271.36 288.097 271.606 287.504C271.852 286.91 272.269 286.403 272.803 286.046C273.337 285.689 273.965 285.498 274.608 285.498C275.035 285.498 275.457 285.582 275.851 285.745C276.245 285.909 276.604 286.148 276.905 286.45C277.207 286.751 277.446 287.109 277.61 287.504C277.773 287.898 277.857 288.32 277.857 288.747Z" fill="#D1ED84"/>
<path d="M167.526 326.322C169.32 326.322 170.775 324.867 170.775 323.073C170.775 321.279 169.32 319.824 167.526 319.824C165.731 319.824 164.277 321.279 164.277 323.073C164.277 324.867 165.731 326.322 167.526 326.322Z" fill="#D1ED84"/>
<path d="M277.857 323.1C277.857 323.743 277.666 324.371 277.309 324.905C276.952 325.439 276.445 325.856 275.851 326.102C275.258 326.348 274.604 326.412 273.974 326.287C273.344 326.161 272.765 325.852 272.31 325.397C271.856 324.943 271.547 324.364 271.421 323.734C271.296 323.104 271.36 322.45 271.606 321.857C271.852 321.263 272.269 320.756 272.803 320.399C273.337 320.042 273.965 319.851 274.608 319.851C275.47 319.851 276.296 320.193 276.905 320.803C277.515 321.412 277.857 322.238 277.857 323.1Z" fill="#D1ED84"/>
<path d="M224.316 288.747C224.316 289.39 224.125 290.018 223.768 290.552C223.411 291.086 222.904 291.503 222.31 291.749C221.717 291.995 221.063 292.059 220.433 291.934C219.803 291.808 219.224 291.499 218.769 291.044C218.315 290.59 218.006 290.011 217.88 289.381C217.755 288.751 217.819 288.097 218.065 287.504C218.311 286.91 218.728 286.403 219.262 286.046C219.796 285.689 220.424 285.498 221.067 285.498C221.494 285.498 221.916 285.582 222.31 285.745C222.704 285.909 223.063 286.148 223.364 286.45C223.666 286.751 223.905 287.109 224.069 287.504C224.232 287.898 224.316 288.32 224.316 288.747Z" fill="#D1ED84"/>
<path d="M221.067 326.322C222.861 326.322 224.316 324.867 224.316 323.073C224.316 321.279 222.861 319.824 221.067 319.824C219.272 319.824 217.818 321.279 217.818 323.073C217.818 324.867 219.272 326.322 221.067 326.322Z" fill="#D1ED84"/>
<path d="M288.144 256.95C288.144 260.249 286.834 263.412 284.501 265.745C282.168 268.078 279.005 269.388 275.706 269.388C272.407 269.388 269.244 268.078 266.911 265.745C264.579 263.412 263.268 260.249 263.268 256.95H288.144Z" fill="#3EB449"/>
<path d="M189.801 254.7C189.801 258.588 188.256 262.317 185.507 265.067C182.757 267.816 179.028 269.361 175.14 269.361C171.252 269.361 167.523 267.816 164.773 265.067C162.024 262.317 160.479 258.588 160.479 254.7H189.801Z" fill="#2777A5"/>
<path d="M252.828 260.757C252.828 263.046 251.919 265.241 250.3 266.86C248.681 268.479 246.486 269.388 244.197 269.388C241.908 269.388 239.713 268.479 238.094 266.86C236.475 265.241 235.566 263.046 235.566 260.757H252.828Z" fill="#3EB449"/>
<path d="M225 384.804C321.374 384.804 399.501 380.243 399.501 374.616C399.501 368.989 321.374 364.428 225 364.428C128.626 364.428 50.499 368.989 50.499 374.616C50.499 380.243 128.626 384.804 225 384.804Z" fill="#F5F5F5"/>
<path d="M313.335 103.824C311.418 101.907 307.728 94.644 311.265 91.224C314.802 87.804 317.952 90.909 318.195 92.574C318.438 94.239 317.79 108.27 313.335 103.824Z" fill="#263238"/>
<path d="M312.525 365.085L304.488 365.157L302.301 346.581L310.329 346.509L312.525 365.085Z" fill="#FF8B7B"/>
<path d="M304.479 364.23L313.245 364.149C313.407 364.151 313.564 364.205 313.693 364.302C313.822 364.399 313.918 364.534 313.965 364.689L316.089 371.808C316.146 371.974 316.161 372.151 316.135 372.324C316.108 372.497 316.041 372.661 315.937 372.802C315.834 372.943 315.698 373.058 315.541 373.135C315.384 373.213 315.211 373.252 315.036 373.248C311.877 373.248 307.287 373.077 303.336 373.113C298.692 373.113 296.622 373.437 291.168 373.491C287.874 373.491 286.668 370.197 288.063 369.891C294.246 368.46 297.441 368.271 302.616 364.878C303.161 364.485 303.808 364.26 304.479 364.23Z" fill="#263238"/>
<path opacity="0.2" d="M302.301 346.59L303.435 356.166L311.463 356.094L310.338 346.518L302.301 346.59Z" fill="black"/>
<path d="M301.158 365.661C302.025 365.646 302.887 365.54 303.732 365.346C303.772 365.34 303.809 365.321 303.837 365.292C303.864 365.262 303.881 365.224 303.885 365.184C303.889 365.145 303.88 365.106 303.861 365.072C303.842 365.039 303.812 365.012 303.777 364.995C303.399 364.806 300.024 363.195 299.097 363.762C299.011 363.817 298.941 363.893 298.894 363.983C298.847 364.073 298.824 364.173 298.827 364.275C298.825 364.448 298.863 364.619 298.938 364.776C299.013 364.932 299.123 365.068 299.259 365.175C299.822 365.54 300.489 365.711 301.158 365.661ZM303.084 365.085C301.347 365.391 300.024 365.328 299.484 364.896C299.39 364.823 299.316 364.728 299.268 364.62C299.219 364.512 299.197 364.393 299.205 364.275C299.2 364.238 299.205 364.201 299.221 364.167C299.237 364.133 299.263 364.105 299.295 364.086C299.799 363.78 301.707 364.5 303.084 365.085Z" fill="#2777A5"/>
<path d="M303.696 365.4C303.739 365.397 303.779 365.381 303.813 365.355C303.84 365.335 303.861 365.307 303.872 365.275C303.883 365.243 303.885 365.208 303.876 365.175C303.876 365.031 303.246 361.575 301.338 361.791C300.834 361.845 300.69 362.106 300.663 362.304C300.528 363.204 302.589 364.95 303.615 365.382L303.696 365.4ZM301.5 362.16C302.652 362.16 303.228 364.041 303.426 364.86C302.364 364.266 300.96 362.898 301.041 362.358C301.041 362.358 301.041 362.205 301.383 362.169L301.5 362.16Z" fill="#2777A5"/>
<path d="M306.846 144.387L306.018 145.287L305.244 146.052C304.731 146.556 304.2 147.033 303.669 147.501C302.613 148.449 301.533 149.349 300.429 150.201C298.201 151.972 295.856 153.589 293.409 155.043C292.176 155.772 290.907 156.465 289.62 157.122C288.333 157.779 286.974 158.346 285.606 158.922C282.801 160.041 279.878 160.841 276.894 161.307L276.228 161.406C275.795 161.462 275.359 161.489 274.923 161.487C273.921 161.478 272.929 161.282 271.998 160.911C271.075 160.54 270.229 160 269.505 159.318C268.928 158.768 268.426 158.145 268.011 157.464C267.436 156.476 267.003 155.413 266.724 154.305C266.506 153.447 266.346 152.575 266.247 151.695C266.083 150.174 266.038 148.642 266.112 147.114C266.175 145.656 266.292 144.252 266.454 142.875C266.796 140.112 267.282 137.475 267.876 134.775C268.47 132.075 269.145 129.582 270.018 126.972L275.931 128.142C275.715 133.2 275.472 138.384 275.634 143.28C275.664 145.553 275.905 147.819 276.354 150.048C276.443 150.46 276.566 150.863 276.723 151.254C276.849 151.56 277.002 151.749 276.993 151.668C276.941 151.531 276.858 151.408 276.75 151.308C276.505 151.071 276.218 150.882 275.904 150.75C275.581 150.614 275.237 150.532 274.887 150.507C274.725 150.507 274.653 150.507 274.554 150.507H274.653L274.842 150.453C276.974 149.905 279.048 149.152 281.034 148.203C283.112 147.2 285.124 146.064 287.055 144.801C289.008 143.505 290.934 142.101 292.788 140.616C293.688 139.878 294.633 139.104 295.488 138.321L296.802 137.133L297.432 136.548L297.981 136.026L306.846 144.387Z" fill="#FF8B7B"/>
<path d="M311.607 141.21C311.301 132.723 304.335 129.771 295.605 135.558C291.757 137.998 288.052 140.658 284.508 143.523L290.151 161.649C290.151 161.649 300.951 158.22 307.197 151.488C311.4 146.916 311.715 144.099 311.607 141.21Z" fill="#263238"/>
<path opacity="0.2" d="M300.978 144.828C300.978 144.828 295.767 152.28 293.922 160.2C296.484 159.108 298.952 157.807 301.302 156.312L300.978 144.828Z" fill="black"/>
<path d="M275.634 130.833L278.658 124.002L270.099 121.5C270.099 121.5 268.632 124.767 269.469 130.374L275.634 130.833Z" fill="#FF8B7B"/>
<path d="M279.567 115.992L272.124 116.883L270.099 121.5L278.658 124.002L279.567 115.992Z" fill="#FF8B7B"/>
<path d="M301.032 202.734C301.032 202.734 295.506 249.048 294.894 273.834C294.264 299.583 299.313 351.522 299.313 351.522L313.812 351.216C313.812 351.216 315.558 295.614 317.664 270.135C319.95 242.361 325.71 202.23 325.71 202.23L301.032 202.734Z" fill="#2777A5"/>
<path opacity="0.6" d="M301.032 202.734C301.032 202.734 295.506 249.048 294.894 273.834C294.264 299.583 299.313 351.522 299.313 351.522L313.812 351.216C313.812 351.216 315.558 295.614 317.664 270.135C319.95 242.361 325.71 202.23 325.71 202.23L301.032 202.734Z" fill="white"/>
<path opacity="0.2" d="M318.303 215.847C311.823 230.13 313.56 262.035 317.241 275.715C317.376 273.726 317.52 271.845 317.664 270.108C319.167 251.802 322.164 228.141 324.063 214.128C322.299 211.572 320.328 211.374 318.303 215.847Z" fill="black"/>
<path d="M315.594 351.837L298.548 352.179L297.288 346.518L315.387 346.473L315.594 351.837Z" fill="#2777A5"/>
<path d="M348.336 365.085L340.308 365.157L338.121 346.581L346.149 346.509L348.336 365.085Z" fill="#FF8B7B"/>
<path d="M340.29 364.23L349.065 364.149C349.226 364.153 349.382 364.207 349.512 364.304C349.641 364.4 349.736 364.535 349.785 364.689L351.909 371.808C351.963 371.974 351.977 372.15 351.95 372.322C351.923 372.494 351.855 372.657 351.752 372.798C351.649 372.939 351.514 373.053 351.358 373.131C351.202 373.21 351.03 373.25 350.856 373.248C347.688 373.248 343.107 373.077 339.156 373.113C334.512 373.113 332.433 373.437 326.988 373.491C323.694 373.491 322.488 370.197 323.883 369.891C330.057 368.46 333.252 368.271 338.436 364.878C338.977 364.485 339.622 364.26 340.29 364.23Z" fill="#263238"/>
<path opacity="0.2" d="M338.121 346.59L339.246 356.166L347.283 356.094L346.158 346.518L338.121 346.59Z" fill="black"/>
<path d="M336.978 365.661C337.845 365.644 338.707 365.539 339.552 365.346C339.591 365.34 339.627 365.32 339.653 365.291C339.679 365.261 339.695 365.223 339.696 365.184C339.702 365.146 339.696 365.107 339.678 365.073C339.66 365.039 339.632 365.012 339.597 364.995C339.21 364.806 335.835 363.195 334.917 363.762C334.83 363.815 334.759 363.891 334.712 363.981C334.664 364.072 334.642 364.173 334.647 364.275C334.645 364.447 334.683 364.618 334.756 364.773C334.829 364.929 334.937 365.067 335.07 365.175C335.637 365.539 336.306 365.71 336.978 365.661ZM338.904 365.085C337.167 365.391 335.844 365.328 335.304 364.896C335.211 364.822 335.137 364.727 335.087 364.62C335.037 364.512 335.013 364.394 335.016 364.275C335.011 364.238 335.017 364.201 335.033 364.167C335.049 364.133 335.074 364.105 335.106 364.086C335.61 363.78 337.5 364.5 338.904 365.085Z" fill="#2777A5"/>
<path d="M339.507 365.4C339.535 365.399 339.562 365.392 339.587 365.38C339.612 365.368 339.634 365.351 339.652 365.329C339.67 365.308 339.683 365.284 339.69 365.257C339.698 365.23 339.7 365.202 339.696 365.175C339.696 365.031 339.066 361.575 337.158 361.791C336.654 361.845 336.51 362.106 336.474 362.304C336.348 363.204 338.409 364.95 339.435 365.382L339.507 365.4ZM337.32 362.16C338.463 362.16 339.048 364.041 339.246 364.86C338.184 364.266 336.771 362.898 336.852 362.358C336.852 362.358 336.852 362.205 337.194 362.169L337.32 362.16Z" fill="#2777A5"/>
<path d="M315.18 202.428C315.18 202.428 319.185 252.261 322.11 276.849C325.143 302.427 335.133 351.495 335.133 351.495L349.632 351.189C349.632 351.189 345.654 295.479 344.115 269.955C342.432 242.1 342 201.816 342 201.816L315.18 202.428Z" fill="#2777A5"/>
<path opacity="0.6" d="M315.18 202.428C315.18 202.428 319.185 252.261 322.11 276.849C325.143 302.427 335.133 351.495 335.133 351.495L349.632 351.189C349.632 351.189 345.654 295.479 344.115 269.955C342.432 242.1 342 201.816 342 201.816L315.18 202.428Z" fill="white"/>
<path d="M351.414 351.837L334.359 352.179L333.108 346.518L351.207 346.473L351.414 351.837Z" fill="#2777A5"/>
<path d="M300.033 133.335C300.033 133.335 294.102 155.349 301.032 202.734C313.974 202.455 335.709 201.951 342 201.834C342.162 195.237 337.293 162.891 342.99 131.706C338.892 130.998 334.746 130.595 330.588 130.5C324.502 130.278 318.407 130.41 312.336 130.896C308.178 131.388 304.064 132.203 300.033 133.335Z" fill="#263238"/>
<path opacity="0.2" d="M340.506 153.9L333.801 148.347C334.242 152.685 338.166 163.314 340.236 168.696C340.2 163.98 340.245 159.003 340.506 153.9Z" fill="black"/>
<path d="M316.521 146.097L309.204 160.578C309.05 160.882 308.996 161.227 309.05 161.564C309.104 161.901 309.264 162.212 309.506 162.452C309.748 162.692 310.06 162.849 310.397 162.901C310.735 162.952 311.079 162.895 311.382 162.738L316.161 160.11C316.421 159.97 316.715 159.906 317.009 159.925C317.304 159.945 317.587 160.046 317.826 160.218L322.533 163.611C322.803 163.808 323.13 163.912 323.464 163.909C323.799 163.906 324.123 163.795 324.389 163.593C324.656 163.391 324.85 163.109 324.944 162.788C325.037 162.467 325.025 162.124 324.909 161.811L319.41 146.349C319.315 146.055 319.135 145.795 318.893 145.603C318.651 145.41 318.357 145.293 318.049 145.267C317.741 145.24 317.432 145.304 317.16 145.452C316.888 145.599 316.666 145.824 316.521 146.097Z" fill="white"/>
<path d="M328.338 109.944C327.312 115.848 326.394 126.63 330.588 130.455C330.588 130.455 329.364 135.801 318.195 137.655C310.689 135.243 312.336 130.887 312.336 130.887C318.852 129.177 318.573 124.326 317.34 119.79L328.338 109.944Z" fill="#FF8B7B"/>
<path opacity="0.2" d="M323.856 113.949L317.34 119.745C317.644 120.802 317.854 121.883 317.97 122.976C320.472 122.562 323.847 119.736 324.054 117.117C324.182 116.058 324.115 114.984 323.856 113.949Z" fill="black"/>
<path d="M331.911 102.681C329.742 110.349 328.869 114.948 324.081 118.089C316.881 122.805 308.052 117.189 307.881 109.008C307.719 101.664 311.283 90.351 319.581 88.911C321.404 88.5877 323.279 88.7351 325.029 89.3392C326.778 89.9434 328.345 90.9843 329.58 92.3634C330.815 93.7424 331.677 95.4139 332.085 97.2195C332.493 99.0251 332.433 100.905 331.911 102.681Z" fill="#FF8B7B"/>
<path d="M327.294 107.379C326.286 104.931 325.557 96.867 329.76 94.887C333.963 92.907 338.328 97.74 337.221 100.026C335.52 103.572 329.634 113.049 327.294 107.379Z" fill="#263238"/>
<path d="M329.805 97.731C328.77 95.031 316.431 93.501 314.703 90.594C312.651 87.138 321.066 86.724 326.853 88.479C331.938 90.027 335.331 91.521 334.737 95.301C334.404 97.443 329.805 97.731 329.805 97.731Z" fill="#263238"/>
<path d="M332.487 94.95C332.487 94.95 335.187 95.688 336.663 93.708C336.195 95.67 333.9 97.65 332.487 94.95Z" fill="#263238"/>
<path d="M320.13 86.625C316.422 83.745 311.373 87.129 311.85 90.882C312.327 94.635 324.828 97.488 324.828 97.488C324.828 97.488 325.053 90.45 320.13 86.625Z" fill="#263238"/>
<path d="M311.859 90.9C312.426 93.528 314.343 95.589 318.222 97.119C315.977 95.4589 314.276 93.1689 313.335 90.54L311.859 90.9Z" fill="#263238"/>
<path d="M319.644 102.294C319.509 102.933 319.068 103.374 318.654 103.284C318.24 103.194 318.015 102.6 318.15 101.97C318.285 101.34 318.735 100.899 319.149 100.989C319.563 101.079 319.788 101.7 319.644 102.294Z" fill="#263238"/>
<path d="M312.498 100.746C312.354 101.376 311.913 101.817 311.499 101.727C311.085 101.637 310.86 101.052 310.995 100.422C311.13 99.792 311.58 99.351 311.994 99.432C312.408 99.513 312.633 100.116 312.498 100.746Z" fill="#263238"/>
<path d="M314.703 101.556C313.528 103.326 312.114 104.926 310.5 106.308C311.4 107.595 313.407 107.532 313.407 107.532L314.703 101.556Z" fill="#FF5652"/>
<path d="M314.865 109.683C315.71 109.893 316.593 109.895 317.44 109.69C318.286 109.485 319.07 109.078 319.725 108.504C319.743 108.486 319.757 108.465 319.767 108.442C319.777 108.419 319.782 108.394 319.782 108.369C319.782 108.344 319.777 108.319 319.767 108.296C319.757 108.273 319.743 108.252 319.725 108.234C319.688 108.2 319.64 108.181 319.59 108.181C319.54 108.181 319.492 108.2 319.455 108.234C318.84 108.751 318.113 109.117 317.332 109.303C316.551 109.489 315.737 109.49 314.955 109.305C314.905 109.294 314.853 109.304 314.809 109.332C314.766 109.36 314.736 109.403 314.725 109.453C314.715 109.504 314.724 109.556 314.752 109.599C314.78 109.642 314.824 109.672 314.874 109.683H314.865Z" fill="#263238"/>
<path d="M322.299 100.458C322.368 100.472 322.44 100.467 322.506 100.443C322.572 100.419 322.631 100.377 322.675 100.323C322.72 100.268 322.749 100.202 322.758 100.133C322.768 100.063 322.759 99.9918 322.731 99.927C322.488 99.3727 322.116 98.8843 321.647 98.5024C321.177 98.1205 320.624 97.856 320.031 97.731C319.931 97.7181 319.83 97.7447 319.749 97.8052C319.669 97.8657 319.615 97.9553 319.599 98.055C319.592 98.104 319.594 98.1541 319.605 98.2024C319.617 98.2506 319.638 98.2961 319.667 98.3363C319.697 98.3764 319.733 98.4103 319.776 98.4362C319.818 98.4621 319.865 98.4793 319.914 98.487C320.381 98.5896 320.817 98.8025 321.185 99.1078C321.553 99.4131 321.842 99.802 322.029 100.242C322.054 100.296 322.092 100.344 322.139 100.382C322.186 100.419 322.241 100.445 322.299 100.458Z" fill="#263238"/>
<path d="M309.888 97.605C309.959 97.6245 310.034 97.6221 310.103 97.598C310.172 97.5738 310.232 97.5292 310.275 97.47C310.56 97.0877 310.931 96.7777 311.358 96.5651C311.785 96.3525 312.255 96.2432 312.732 96.246C312.832 96.2556 312.932 96.2249 313.01 96.1607C313.088 96.0966 313.137 96.0043 313.146 95.904C313.156 95.8037 313.125 95.7038 313.061 95.6262C312.997 95.5485 312.904 95.4995 312.804 95.49C312.2 95.4721 311.601 95.6002 311.057 95.8634C310.514 96.1267 310.042 96.5172 309.681 97.002C309.649 97.0405 309.625 97.0851 309.611 97.133C309.597 97.181 309.593 97.2314 309.599 97.281C309.605 97.3307 309.621 97.3786 309.646 97.4219C309.671 97.4653 309.704 97.503 309.744 97.533C309.785 97.5691 309.835 97.5939 309.888 97.605Z" fill="#263238"/>
<path d="M344.952 137.844C346.59 140.706 347.958 143.478 349.38 146.331C350.802 149.184 352.08 152.055 353.295 154.989C354.51 157.923 355.689 160.902 356.715 163.989C357.782 167.068 358.683 170.201 359.415 173.376L359.964 175.833C360.204 176.987 360.307 178.165 360.27 179.343C360.194 181.532 359.708 183.687 358.839 185.697C357.311 189.084 355.138 192.141 352.44 194.697C350.034 197.02 347.412 199.108 344.61 200.934C343.251 201.834 341.847 202.662 340.434 203.454C339.021 204.246 337.617 204.975 336.042 205.668L333.054 200.439C334.143 199.539 335.34 198.639 336.456 197.667C337.572 196.695 338.661 195.705 339.741 194.715C341.827 192.78 343.761 190.689 345.528 188.46C347.1 186.548 348.318 184.372 349.128 182.034C349.407 181.163 349.517 180.246 349.452 179.334C349.426 178.967 349.356 178.605 349.245 178.254L348.633 176.238C346.815 170.646 344.65 165.173 342.153 159.849C340.92 157.149 339.606 154.449 338.292 151.749C336.978 149.049 335.592 146.349 334.251 143.784L344.952 137.844Z" fill="#FF8B7B"/>
<path d="M343.296 131.751C350.802 133.371 356.022 152.955 356.022 152.955L342.603 165.132C338.337 160.385 334.981 154.894 332.703 148.932C329.148 139.131 335.268 130.005 343.296 131.751Z" fill="#263238"/>
<path d="M334.683 199.512L326.052 199.602L331.452 208.305C331.452 208.305 337.599 206.784 338.148 203.697L334.683 199.512Z" fill="#FF8B7B"/>
<path d="M320.679 204.741L325.44 211.725L331.407 208.305L326.052 199.602L320.679 204.741Z" fill="#FF8B7B"/>
<path d="M334.269 109.701C333.31 111.465 331.693 112.779 329.769 113.355C327.213 114.102 325.908 111.825 326.592 109.404C327.213 107.226 329.292 104.211 331.848 104.526C334.404 104.841 335.412 107.532 334.269 109.701Z" fill="#FF8B7B"/>
<path d="M257.772 258.612L248.176 259.308L248.241 260.206L257.837 259.509L257.772 258.612Z" fill="#3EB449"/>
<path d="M266.394 257.99L261.682 258.332L261.747 259.23L266.459 258.888L266.394 257.99Z" fill="#3EB449"/>
<path d="M307.524 152.028L148.62 163.485C145.312 163.743 142.24 165.295 140.07 167.804C137.9 170.313 136.807 173.576 137.028 176.886L142.428 251.784C142.683 255.096 144.237 258.173 146.75 260.346C149.263 262.519 152.532 263.611 155.847 263.385L164.847 262.737C165.5 262.69 166.146 262.904 166.642 263.333C167.138 263.761 167.444 264.369 167.493 265.023L168.501 278.901C168.517 279.17 168.613 279.428 168.777 279.641C168.941 279.855 169.166 280.014 169.421 280.099C169.677 280.184 169.952 280.191 170.211 280.119C170.47 280.047 170.702 279.898 170.877 279.693L185.943 262.278C186.576 261.549 187.472 261.099 188.436 261.027L314.724 251.928C318.032 251.672 321.107 250.121 323.279 247.612C325.451 245.103 326.545 241.838 326.325 238.527L320.925 163.629C320.669 160.32 319.118 157.246 316.609 155.074C314.1 152.902 310.835 151.807 307.524 152.028Z" fill="#2777A5"/>
<path d="M172.107 198.18L180.693 197.559L181.395 207.279L190.773 206.604L190.071 196.884L198.693 196.254L200.7 224.028L192.078 224.649L191.268 213.417L181.89 214.101L182.7 225.333L174.123 225.954L172.107 198.18Z" fill="white"/>
<path opacity="0.2" d="M148.896 163.8C145.589 164.058 142.517 165.61 140.346 168.119C138.176 170.628 137.083 173.891 137.304 177.201L142.704 252.099C142.96 255.411 144.513 258.488 147.026 260.661C149.539 262.834 152.809 263.926 156.123 263.7L157.446 263.601C159.644 263.442 161.728 262.562 163.375 261.097C165.022 259.633 166.139 257.666 166.554 255.501L184.653 161.217L148.896 163.8Z" fill="black"/>
<path d="M227.637 213.894L212.175 215.01C212.294 216.012 212.714 216.953 213.381 217.71C213.764 218.112 214.234 218.421 214.755 218.611C215.277 218.802 215.835 218.869 216.387 218.808C217.145 218.754 217.876 218.506 218.511 218.088C219.008 217.712 219.432 217.248 219.762 216.72L227.412 216.873C226.58 218.759 225.228 220.37 223.515 221.517C221.943 222.513 219.621 223.113 216.549 223.317C214.401 223.567 212.225 223.336 210.177 222.642C208.535 221.953 207.127 220.806 206.118 219.339C204.962 217.669 204.298 215.707 204.201 213.678C204.04 212.269 204.177 210.842 204.602 209.488C205.026 208.135 205.73 206.886 206.667 205.821C208.539 203.733 211.239 202.56 214.767 202.302C217.103 202.024 219.471 202.302 221.679 203.112C223.37 203.834 224.794 205.064 225.756 206.631C226.857 208.577 227.474 210.759 227.556 212.994L227.637 213.894ZM219.537 210.762C219.428 209.592 218.923 208.493 218.106 207.648C217.695 207.331 217.223 207.103 216.719 206.976C216.216 206.849 215.691 206.828 215.179 206.912C214.667 206.996 214.177 207.185 213.741 207.467C213.305 207.748 212.931 208.116 212.643 208.548C212.163 209.395 211.92 210.356 211.941 211.329L219.537 210.762Z" fill="white"/>
<path d="M230.022 193.995L237.753 193.437L239.76 221.202L232.029 221.76L230.022 193.995Z" fill="white"/>
<path d="M242.937 193.059L250.668 192.501L252.675 220.266L244.953 220.824L242.937 193.059Z" fill="white"/>
<path d="M255.933 209.979C255.787 208.57 255.939 207.147 256.379 205.801C256.819 204.455 257.538 203.217 258.489 202.167C260.415 200.025 263.142 198.825 266.67 198.567C270.69 198.279 273.816 199.227 276.048 201.411C277.902 203.366 278.973 205.934 279.057 208.627C279.142 211.32 278.234 213.95 276.507 216.018C274.599 218.142 271.833 219.342 268.209 219.618C265.394 219.956 262.55 219.286 260.181 217.728C258.921 216.854 257.881 215.699 257.144 214.354C256.407 213.009 255.992 211.511 255.933 209.979ZM263.664 209.403C263.649 210.824 264.137 212.204 265.041 213.3C265.405 213.673 265.847 213.963 266.334 214.148C266.822 214.334 267.344 214.412 267.864 214.376C268.385 214.34 268.891 214.191 269.348 213.94C269.806 213.689 270.203 213.342 270.513 212.922C271.24 211.669 271.513 210.204 271.287 208.773C271.296 207.381 270.815 206.03 269.928 204.957C269.581 204.577 269.152 204.282 268.672 204.094C268.193 203.907 267.677 203.833 267.165 203.877C266.63 203.902 266.109 204.05 265.64 204.309C265.172 204.568 264.77 204.931 264.465 205.371C263.74 206.582 263.468 208.011 263.7 209.403H263.664Z" fill="white"/>
<path d="M281.493 190.269L289.728 189.675L290.187 195.975L289.512 208.8L284.418 209.169L281.943 196.569L281.493 190.269ZM283.293 211.221L290.979 210.663L291.474 217.467L283.779 218.016L283.293 211.221Z" fill="white"/>
<path d="M146.7 139.14C146.66 140.457 146.729 141.776 146.907 143.082C138.751 145.805 130.054 146.494 121.572 145.089C121.979 143.55 122.226 141.972 122.31 140.382C122.026 141.983 121.469 143.524 120.663 144.936C119.061 144.63 118.161 144.369 118.161 144.369C118.161 144.369 119.799 135.513 116.847 129.069C113.895 122.625 115.371 119.025 117.603 118.008C121.743 105.282 137.304 107.289 142.569 112.455C149.247 119.007 149.283 137.466 150.471 141.687C149.49 142.11 148.527 142.497 147.564 142.839C147.081 141.66 146.79 140.411 146.7 139.14Z" fill="#263238"/>
<path d="M153.135 158.949L153.945 161.514C154.242 162.414 154.539 163.314 154.845 164.169C155.448 165.969 156.078 167.769 156.753 169.497C157.428 171.225 158.076 173.043 158.778 174.807L159.822 177.507L160.083 178.173L160.146 178.326C160.035 178.229 159.907 178.152 159.768 178.101C159.57 178.029 159.489 178.101 159.615 178.101C159.832 178.1 160.047 178.067 160.254 178.002C160.958 177.779 161.634 177.477 162.27 177.102C163.805 176.208 165.273 175.203 166.662 174.096C168.12 172.962 169.551 171.747 170.955 170.496C172.359 169.245 173.772 167.94 175.131 166.662L177.894 169.002C176.742 170.658 175.527 172.17 174.294 173.709C173.061 175.248 171.675 176.688 170.253 178.119C168.789 179.613 167.196 180.974 165.492 182.187C164.517 182.87 163.47 183.443 162.369 183.897C161.671 184.177 160.938 184.365 160.191 184.455C159.177 184.581 158.147 184.442 157.203 184.05C156.174 183.612 155.297 182.879 154.683 181.944C154.548 181.737 154.422 181.53 154.323 181.341L154.08 180.855L153.756 180.198C153.333 179.298 152.856 178.398 152.487 177.552C151.668 175.752 150.849 173.952 150.102 172.152C149.355 170.352 148.626 168.498 147.933 166.644C147.609 165.744 147.285 164.763 146.979 163.818C146.673 162.873 146.376 161.946 146.079 160.839L153.135 158.949Z" fill="#FFC3BD"/>
<path d="M151.002 150.957C154.107 151.749 156.276 164.511 156.276 164.511L147.726 170.325C147.726 170.325 139.536 157.446 141.921 154.035C144.405 150.489 146.475 149.805 151.002 150.957Z" fill="#2777A5"/>
<path d="M151.002 150.957C154.107 151.749 156.276 164.511 156.276 164.511L147.726 170.325C147.726 170.325 139.536 157.446 141.921 154.035C144.405 150.489 146.475 149.805 151.002 150.957Z" fill="#2777A5"/>
<path opacity="0.4" d="M151.002 150.957C154.107 151.749 156.276 164.511 156.276 164.511L147.726 170.325C147.726 170.325 139.536 157.446 141.921 154.035C144.405 150.489 146.475 149.805 151.002 150.957Z" fill="white"/>
<path opacity="0.3" d="M150.723 153.81L153.108 166.671L148.302 169.929L150.723 153.81Z" fill="black"/>
<path d="M174.987 166.968L177.84 160.092L181.359 166.968C181.359 166.968 179.073 170.388 176.058 169.551L174.987 166.968Z" fill="#FFC3BD"/>
<path d="M180.981 159.381L185.499 161.199L181.359 166.968L177.831 160.092L180.981 159.381Z" fill="#FFC3BD"/>
<path d="M134.217 365.805H141.75L142.254 348.372H134.721L134.217 365.805Z" fill="#FFC3BD"/>
<path d="M83.709 343.35L90.63 346.302L99.693 331.218L92.763 328.266L83.709 343.35Z" fill="#FFC3BD"/>
<path d="M91.962 345.276L84.762 340.848C84.6389 340.769 84.4909 340.738 84.3464 340.761C84.2019 340.784 84.071 340.86 83.979 340.974L79.65 346.167C79.5423 346.303 79.4649 346.46 79.4231 346.629C79.3813 346.797 79.3759 346.972 79.4075 347.143C79.439 347.313 79.5067 347.475 79.606 347.617C79.7052 347.759 79.8338 347.879 79.983 347.967C82.521 349.47 83.817 350.064 86.985 352.008C88.938 353.214 91.656 355.158 94.347 356.814C97.038 358.47 98.847 355.914 97.848 354.969C93.483 350.802 93.609 348.822 92.79 346.356C92.6538 345.908 92.3596 345.524 91.962 345.276Z" fill="#263238"/>
<path d="M142.002 364.932H133.551C133.406 364.93 133.265 364.981 133.154 365.076C133.043 365.17 132.97 365.301 132.948 365.445L131.985 372.141C131.962 372.313 131.976 372.488 132.026 372.653C132.077 372.819 132.163 372.972 132.279 373.101C132.394 373.23 132.537 373.333 132.696 373.402C132.855 373.471 133.027 373.504 133.2 373.5C136.152 373.455 137.574 373.275 141.3 373.275C143.586 373.275 148.32 373.518 151.479 373.518C154.638 373.518 154.8 370.395 153.486 370.107C147.591 368.838 145.269 367.092 143.28 365.427C142.928 365.113 142.474 364.937 142.002 364.932Z" fill="#263238"/>
<path opacity="0.2" d="M142.245 348.381L141.993 357.363H134.46L134.721 348.381H142.245Z" fill="black"/>
<path opacity="0.2" d="M92.7628 328.275L99.6838 331.218L95.0128 338.994L88.0918 336.042L92.7628 328.275Z" fill="black"/>
<path d="M151.002 150.957C151.002 150.957 154.602 152.217 147.402 196.38H116.802C117.315 183.942 117.333 176.274 111.402 150.741C115.681 149.857 120.018 149.285 124.38 149.031C129.003 148.698 133.644 148.698 138.267 149.031C144.243 149.571 151.002 150.957 151.002 150.957Z" fill="#2777A5"/>
<path opacity="0.4" d="M151.002 150.957C151.002 150.957 154.602 152.217 147.402 196.38H116.802C117.315 183.942 117.333 176.274 111.402 150.741C115.681 149.857 120.018 149.285 124.38 149.031C129.003 148.698 133.644 148.698 138.267 149.031C144.243 149.571 151.002 150.957 151.002 150.957Z" fill="white"/>
<path d="M124.398 149.022C129.021 148.697 133.662 148.697 138.285 149.022C139.032 149.094 139.797 149.175 140.553 149.265C140.868 149.738 141.07 150.277 141.143 150.84C141.216 151.404 141.159 151.976 140.976 152.514C139.995 154.935 136.476 155.214 133.92 155.214C124.461 155.214 122.859 149.688 122.796 149.454L122.706 149.121L124.398 149.022Z" fill="white"/>
<path d="M125.775 133.398C126.675 137.898 127.53 146.052 124.398 149.031C124.398 149.031 125.622 153.531 133.92 153.531C143.046 153.531 138.285 149.031 138.285 149.031C133.299 147.843 133.434 144.144 134.298 140.679L125.775 133.398Z" fill="#FFC3BD"/>
<path d="M126.684 130.221C125.613 133.758 127.098 142.128 129.303 145.368C124.956 142.875 123.489 135.279 123.489 135.279L126.684 130.221Z" fill="#263238"/>
<path opacity="0.2" d="M129.249 136.368L134.298 140.67C134.077 141.477 133.932 142.302 133.866 143.136C131.967 142.857 129.366 140.769 129.15 138.78C129.038 137.977 129.072 137.16 129.249 136.368Z" fill="black"/>
<path d="M121.653 125.424C123.399 132.687 123.975 135.801 128.349 138.924C134.928 143.613 143.469 139.887 143.928 132.246C144.342 125.37 141.426 114.651 133.731 112.995C132.035 112.621 130.272 112.686 128.609 113.184C126.946 113.683 125.438 114.598 124.228 115.843C123.018 117.088 122.146 118.622 121.695 120.299C121.245 121.976 121.23 123.74 121.653 125.424Z" fill="#FFC3BD"/>
<path d="M147.411 196.38C147.411 196.38 153.342 254.358 152.811 277.308C152.298 301.176 143.55 355.608 143.55 355.608H133.38C133.38 355.608 134.991 302.553 134.091 279.108C133.11 253.548 124.992 196.362 124.992 196.362L147.411 196.38Z" fill="#2777A5"/>
<path opacity="0.4" d="M147.411 196.38C147.411 196.38 153.342 254.358 152.811 277.308C152.298 301.176 143.55 355.608 143.55 355.608H133.38C133.38 355.608 134.991 302.553 134.091 279.108C133.11 253.548 124.992 196.362 124.992 196.362L147.411 196.38Z" fill="black"/>
<path d="M132.534 355.986H144.468L145.35 352.179L131.976 351.711L132.534 355.986Z" fill="#2777A5"/>
<path opacity="0.2" d="M134.226 210.807C141.732 225.909 135.729 253.458 133.074 263.709C131.715 248.319 129.42 229.509 127.629 215.676C128.763 207.9 130.761 203.841 134.226 210.807Z" fill="black"/>
<path d="M139.338 196.38C139.338 196.38 132.408 256.68 127.179 276.003C120.978 298.98 97.3712 338.103 97.3712 338.103L87.9302 334.089C87.9302 334.089 102.537 289.665 107.289 277.56C117.414 251.73 108.747 213.237 116.838 196.38H139.338Z" fill="#2777A5"/>
<path opacity="0.4" d="M139.338 196.38C139.338 196.38 132.408 256.68 127.179 276.003C120.978 298.98 97.3712 338.103 97.3712 338.103L87.9302 334.089C87.9302 334.089 102.537 289.665 107.289 277.56C117.414 251.73 108.747 213.237 116.838 196.38H139.338Z" fill="black"/>
<path d="M86.625 334.116L98.343 339.102L101.16 335.952L87.642 329.463L86.625 334.116Z" fill="#2777A5"/>
<path d="M133.2 125.523C133.308 126.117 133.704 126.549 134.1 126.477C134.496 126.405 134.721 125.865 134.613 125.271C134.505 124.677 134.109 124.245 133.713 124.308C133.317 124.371 133.047 124.92 133.2 125.523Z" fill="#263238"/>
<path d="M139.914 124.335C140.013 124.929 140.418 125.361 140.814 125.289C141.21 125.217 141.444 124.677 141.336 124.083C141.228 123.489 140.832 123.057 140.436 123.12C140.04 123.183 139.806 123.732 139.914 124.335Z" fill="#263238"/>
<path d="M140.265 123.192L141.624 122.517C141.624 122.517 141.084 123.768 140.265 123.192Z" fill="#263238"/>
<path d="M138.303 125.676C139.075 126.946 140.02 128.103 141.111 129.114C140.844 129.384 140.521 129.594 140.165 129.727C139.809 129.861 139.429 129.916 139.05 129.888L138.303 125.676Z" fill="#ED847E"/>
<path d="M136.341 132.705C136.682 132.704 137.022 132.674 137.358 132.615C137.384 132.614 137.409 132.607 137.432 132.596C137.455 132.584 137.475 132.568 137.491 132.548C137.507 132.528 137.519 132.505 137.525 132.48C137.532 132.455 137.533 132.429 137.528 132.403C137.524 132.378 137.514 132.354 137.499 132.333C137.484 132.312 137.465 132.294 137.443 132.281C137.421 132.267 137.397 132.259 137.371 132.256C137.345 132.253 137.32 132.256 137.295 132.264C136.554 132.412 135.788 132.382 135.061 132.177C134.334 131.972 133.665 131.598 133.11 131.085C133.076 131.052 133.031 131.034 132.984 131.034C132.937 131.034 132.892 131.052 132.858 131.085C132.841 131.101 132.827 131.12 132.817 131.142C132.808 131.164 132.803 131.187 132.803 131.211C132.803 131.235 132.808 131.258 132.817 131.28C132.827 131.302 132.841 131.321 132.858 131.337C133.797 132.228 135.047 132.718 136.341 132.705Z" fill="#263238"/>
<path d="M124.2 121.167C124.397 123.081 124.697 124.983 125.1 126.864C125.1 126.864 129.6 121.167 130.347 118.116C130.168 119.317 129.82 120.487 129.312 121.59C129.312 121.59 135.369 120.267 135.963 116.271C135.953 118.06 135.754 119.843 135.369 121.59C135.369 121.59 141.147 119.322 140.616 115.488C140.085 111.654 131.211 110.169 127.116 111.465C123.021 112.761 119.016 116.964 120.222 122.742C121.428 128.52 123.741 130.689 123.741 130.689C123.741 130.689 122.076 124.866 124.2 121.167Z" fill="#263238"/>
<path d="M121.338 130.896C121.894 132.229 122.955 133.288 124.29 133.839C126.09 134.559 127.161 133.02 126.846 131.238C126.567 129.627 125.298 127.323 123.435 127.359C123.028 127.377 122.631 127.496 122.281 127.706C121.931 127.916 121.639 128.21 121.43 128.561C121.222 128.912 121.105 129.309 121.089 129.717C121.073 130.124 121.158 130.53 121.338 130.896Z" fill="#FFC3BD"/>
<path d="M125.289 118.395C124.389 121.995 126.261 130.275 128.619 133.398C124.119 131.121 122.319 123.597 122.319 123.597L125.289 118.395Z" fill="#263238"/>
<path d="M130.734 123.471C130.78 123.457 130.823 123.434 130.86 123.403C130.897 123.372 130.928 123.334 130.95 123.291C131.14 122.885 131.423 122.53 131.776 122.254C132.13 121.979 132.544 121.791 132.984 121.707C133.077 121.694 133.161 121.645 133.22 121.571C133.279 121.498 133.307 121.405 133.299 121.311C133.295 121.264 133.281 121.218 133.258 121.177C133.236 121.135 133.205 121.099 133.168 121.069C133.131 121.04 133.088 121.018 133.043 121.006C132.997 120.993 132.95 120.99 132.903 120.996C132.345 121.093 131.818 121.322 131.367 121.665C130.916 122.008 130.554 122.455 130.311 122.967C130.28 123.03 130.269 123.1 130.277 123.169C130.286 123.238 130.314 123.303 130.359 123.356C130.403 123.41 130.463 123.449 130.529 123.469C130.596 123.49 130.667 123.49 130.734 123.471Z" fill="#263238"/>
<path d="M142.371 120.681C142.416 120.683 142.461 120.675 142.503 120.658C142.545 120.641 142.583 120.615 142.614 120.582C142.68 120.515 142.717 120.424 142.717 120.33C142.717 120.236 142.68 120.145 142.614 120.078C142.23 119.663 141.754 119.344 141.224 119.146C140.694 118.949 140.125 118.88 139.563 118.944C139.516 118.953 139.471 118.97 139.431 118.996C139.392 119.022 139.357 119.056 139.33 119.095C139.304 119.135 139.285 119.179 139.275 119.226C139.266 119.272 139.266 119.32 139.275 119.367C139.294 119.458 139.348 119.538 139.426 119.59C139.503 119.642 139.597 119.662 139.689 119.646C140.132 119.596 140.58 119.652 140.998 119.809C141.415 119.965 141.79 120.218 142.092 120.546C142.125 120.588 142.168 120.622 142.216 120.645C142.264 120.668 142.317 120.681 142.371 120.681Z" fill="#263238"/>
<path d="M115.137 161.424C113.886 165.375 112.689 169.524 111.672 173.61C110.648 177.644 109.9 181.742 109.431 185.877L109.359 186.633C109.359 186.876 109.359 186.93 109.359 187.146C109.369 187.57 109.402 187.994 109.458 188.415C109.573 189.401 109.738 190.38 109.953 191.349C110.376 193.356 110.853 195.426 111.465 197.478C112.077 199.53 112.599 201.618 113.211 203.688L115.011 209.898L111.672 211.275C109.62 207.351 107.838 203.355 106.173 199.233C105.372 197.163 104.589 195.075 103.941 192.87C103.617 191.772 103.311 190.647 103.041 189.423C102.913 188.775 102.823 188.12 102.771 187.461C102.771 187.128 102.771 186.633 102.771 186.336V185.436C102.847 183.143 103.058 180.856 103.401 178.587C103.698 176.337 104.139 174.141 104.616 171.954C105.552 167.574 106.755 163.255 108.216 159.021L115.137 161.424Z" fill="#FFC3BD"/>
<path d="M111.42 150.741C108.36 151.641 104.679 162.216 104.679 162.216L116.559 170.712C116.559 170.712 120.897 161.91 119.61 157.95C118.269 153.828 114.921 149.679 111.42 150.741Z" fill="#2777A5"/>
<path opacity="0.4" d="M111.42 150.741C108.36 151.641 104.679 162.216 104.679 162.216L116.559 170.712C116.559 170.712 120.897 161.91 119.61 157.95C118.269 153.828 114.921 149.679 111.42 150.741Z" fill="white"/>
<path d="M95.0038 348.138C95.1501 348.087 95.2833 348.003 95.3938 347.894C95.5042 347.786 95.5893 347.654 95.6428 347.508C95.6948 347.414 95.7221 347.309 95.7221 347.202C95.7221 347.095 95.6948 346.99 95.6428 346.896C95.1028 346.104 92.3758 346.167 92.0428 346.176C92.0083 346.177 91.9747 346.187 91.9459 346.206C91.9172 346.225 91.8946 346.252 91.8808 346.284C91.8633 346.312 91.854 346.345 91.854 346.378C91.854 346.412 91.8633 346.445 91.8808 346.473C92.5918 347.184 93.9238 348.345 94.8598 348.165L95.0038 348.138ZM92.4748 346.5C93.5638 346.5 95.0218 346.653 95.3098 347.076C95.3344 347.117 95.3474 347.163 95.3474 347.211C95.3474 347.259 95.3344 347.305 95.3098 347.346C95.27 347.455 95.204 347.552 95.1176 347.629C95.0313 347.706 94.9273 347.76 94.8148 347.787C94.3198 347.913 93.4558 347.4 92.4748 346.5Z" fill="#2777A5"/>
<path d="M93.2758 346.311C94.1038 346.05 94.9858 345.591 95.1748 345.078C95.2218 344.945 95.2225 344.799 95.1767 344.665C95.131 344.531 95.0416 344.417 94.9228 344.34C94.818 344.253 94.6947 344.19 94.5621 344.157C94.4296 344.125 94.2913 344.122 94.1578 344.151C93.0868 344.34 91.9348 346.176 91.8898 346.257C91.874 346.284 91.8657 346.315 91.8657 346.347C91.8657 346.379 91.874 346.41 91.8898 346.437C91.906 346.463 91.9284 346.485 91.9551 346.501C91.9818 346.517 92.0119 346.526 92.0428 346.527C92.4621 346.515 92.8775 346.442 93.2758 346.311ZM94.1038 344.511H94.2208C94.3055 344.493 94.3929 344.495 94.477 344.515C94.561 344.535 94.6395 344.574 94.7068 344.628C94.8868 344.772 94.8688 344.88 94.8418 344.961C94.6618 345.456 93.2938 346.05 92.3848 346.167C92.7984 345.475 93.3927 344.909 94.1038 344.529V344.511Z" fill="#2777A5"/>
<path d="M144.828 366.246C145.462 366.298 146.096 366.136 146.628 365.787C146.752 365.675 146.846 365.534 146.902 365.377C146.959 365.221 146.976 365.052 146.952 364.887C146.945 364.789 146.913 364.695 146.86 364.613C146.806 364.531 146.732 364.465 146.646 364.419C145.746 363.915 142.731 365.445 142.389 365.616C142.356 365.63 142.328 365.653 142.308 365.682C142.288 365.712 142.277 365.747 142.277 365.782C142.277 365.818 142.288 365.853 142.308 365.883C142.328 365.912 142.356 365.935 142.389 365.949C143.19 366.13 144.007 366.23 144.828 366.246ZM146.169 364.689C146.283 364.682 146.398 364.703 146.502 364.752C146.537 364.771 146.567 364.8 146.588 364.835C146.608 364.87 146.619 364.91 146.619 364.95C146.636 365.054 146.626 365.16 146.592 365.259C146.557 365.358 146.499 365.446 146.421 365.517C145.962 365.931 144.72 366.003 143.055 365.724C144.027 365.205 145.08 364.855 146.169 364.689Z" fill="#2777A5"/>
<path d="M142.497 365.985H142.569C143.469 365.58 145.269 363.96 145.107 363.105C145.107 362.898 144.927 362.655 144.432 362.601C144.255 362.581 144.075 362.598 143.905 362.651C143.735 362.703 143.577 362.791 143.442 362.907C142.542 363.699 142.326 365.724 142.317 365.805C142.316 365.837 142.323 365.868 142.337 365.896C142.351 365.925 142.372 365.949 142.398 365.967C142.427 365.986 142.463 365.992 142.497 365.985ZM144.297 362.934H144.405C144.729 362.934 144.756 363.105 144.756 363.141C144.846 363.654 143.64 364.941 142.722 365.49C142.794 364.635 143.131 363.823 143.685 363.168C143.85 363.018 144.065 362.935 144.288 362.934H144.297Z" fill="#2777A5"/>
<path d="M116.379 194.589L115.605 197.289C115.497 197.496 115.749 197.712 116.1 197.712H147.6C147.879 197.712 148.104 197.577 148.122 197.406L148.401 194.706C148.401 194.517 148.176 194.355 147.879 194.355H116.883C116.786 194.347 116.688 194.365 116.6 194.406C116.512 194.447 116.436 194.51 116.379 194.589Z" fill="#263238"/>
<path d="M120.537 198.045H119.7C119.538 198.045 119.412 197.964 119.421 197.856L119.808 194.256C119.808 194.157 119.97 194.067 120.132 194.067H120.96C121.131 194.067 121.248 194.157 121.239 194.256L120.852 197.856C120.852 198 120.708 198.045 120.537 198.045Z" fill="#2777A5"/>
<path opacity="0.4" d="M120.537 198.045H119.7C119.538 198.045 119.412 197.964 119.421 197.856L119.808 194.256C119.808 194.157 119.97 194.067 120.132 194.067H120.96C121.131 194.067 121.248 194.157 121.239 194.256L120.852 197.856C120.852 198 120.708 198.045 120.537 198.045Z" fill="black"/>
<path d="M145.224 198.045H144.396C144.234 198.045 144.108 197.964 144.117 197.856L144.513 194.256C144.513 194.157 144.666 194.067 144.828 194.067H145.656C145.827 194.067 145.953 194.157 145.935 194.256L145.548 197.856C145.539 198 145.395 198.045 145.224 198.045Z" fill="#2777A5"/>
<path opacity="0.4" d="M145.224 198.045H144.396C144.234 198.045 144.108 197.964 144.117 197.856L144.513 194.256C144.513 194.157 144.666 194.067 144.828 194.067H145.656C145.827 194.067 145.953 194.157 145.935 194.256L145.548 197.856C145.539 198 145.395 198.045 145.224 198.045Z" fill="black"/>
<path d="M132.885 198.045H132.057C131.886 198.045 131.76 197.964 131.778 197.856L132.165 194.256C132.165 194.157 132.318 194.067 132.489 194.067H133.317C133.479 194.067 133.605 194.157 133.596 194.256L133.209 197.856C133.2 198 133.047 198.045 132.885 198.045Z" fill="#2777A5"/>
<path opacity="0.4" d="M132.885 198.045H132.057C131.886 198.045 131.76 197.964 131.778 197.856L132.165 194.256C132.165 194.157 132.318 194.067 132.489 194.067H133.317C133.479 194.067 133.605 194.157 133.596 194.256L133.209 197.856C133.2 198 133.047 198.045 132.885 198.045Z" fill="black"/>
<path d="M133.506 124.371L134.865 123.705C134.865 123.705 134.325 124.956 133.506 124.371Z" fill="#263238"/>
<path d="M114.759 208.881L121.212 213.831L113.733 215.478C113.733 215.478 110.556 211.878 111.654 208.908L114.759 208.881Z" fill="#FFC3BD"/>
<path d="M122.796 219.96L116.46 220.995L113.004 214.497L121.212 213.831L122.796 219.96Z" fill="#FFC3BD"/>
</svg>
