<svg width="281" height="281" viewBox="0 0 281 281" fill="none" xmlns="http://www.w3.org/2000/svg">
<g clip-path="url(#clip0_579_17673)">
<path d="M280.875 214.719H0.125V214.859H280.875V214.719Z" fill="#EBEBEB"/>
<path d="M252.743 223.754H234.146V223.894H252.743V223.754Z" fill="#EBEBEB"/>
<path d="M186.105 225.281H181.226V225.422H186.105V225.281Z" fill="#EBEBEB"/>
<path d="M233.586 218.543H222.811V218.683H233.586V218.543Z" fill="#EBEBEB"/>
<path d="M53.8322 219.484H29.5811V219.625H53.8322V219.484Z" fill="#EBEBEB"/>
<path d="M62.3893 219.484H58.835V219.625H62.3893V219.484Z" fill="#EBEBEB"/>
<path d="M126.547 221.855H73.9453V221.996H126.547V221.855Z" fill="#EBEBEB"/>
<path d="M133.201 189.675H24.7806C23.9313 189.674 23.1172 189.335 22.5172 188.734C21.9171 188.133 21.5801 187.318 21.5801 186.469V34.0609C21.5875 33.2164 21.9278 32.409 22.527 31.8139C23.1263 31.2188 23.9361 30.8843 24.7806 30.8828H133.201C134.051 30.8828 134.867 31.2206 135.468 31.8219C136.069 32.4231 136.407 33.2386 136.407 34.089V186.469C136.407 187.319 136.069 188.135 135.468 188.736C134.867 189.337 134.051 189.675 133.201 189.675ZM24.7806 30.9951C23.9685 30.9966 23.1902 31.3203 22.6164 31.895C22.0427 32.4698 21.7205 33.2488 21.7205 34.0609V186.469C21.7205 187.281 22.0427 188.06 22.6164 188.635C23.1902 189.209 23.9685 189.533 24.7806 189.535H133.201C134.013 189.533 134.792 189.21 135.367 188.635C135.941 188.06 136.265 187.281 136.266 186.469V34.0609C136.265 33.2483 135.941 32.4693 135.367 31.8947C134.792 31.3201 134.013 30.9966 133.201 30.9951H24.7806Z" fill="#EBEBEB"/>
<path d="M254.658 189.675H146.233C145.383 189.674 144.568 189.335 143.967 188.734C143.366 188.133 143.028 187.319 143.026 186.469V34.0609C143.035 33.2159 143.377 32.4085 143.977 31.8136C144.577 31.2187 145.387 30.8842 146.233 30.8828H254.658C255.502 30.8857 256.31 31.221 256.908 31.8159C257.506 32.4108 257.846 33.2174 257.853 34.0609V186.469C257.853 187.317 257.517 188.131 256.918 188.732C256.319 189.333 255.507 189.672 254.658 189.675ZM146.233 30.9951C145.42 30.9966 144.641 31.3201 144.066 31.8947C143.492 32.4693 143.168 33.2483 143.167 34.0609V186.469C143.168 187.281 143.492 188.06 144.066 188.635C144.641 189.21 145.42 189.533 146.233 189.535H254.658C255.471 189.533 256.25 189.21 256.824 188.635C257.399 188.06 257.722 187.281 257.724 186.469V34.0609C257.722 33.2483 257.399 32.4693 256.824 31.8947C256.25 31.3201 255.471 30.9966 254.658 30.9951H146.233Z" fill="#EBEBEB"/>
<path d="M176.458 59.6211H124.828V175.93H176.458V59.6211Z" fill="#EBEBEB"/>
<path d="M174.51 173.751V61.8047H126.777V173.751H174.51Z" fill="#FAFAFA"/>
<path d="M151.191 61.2383H150.096V174.835H151.191V61.2383Z" fill="#F5F5F5"/>
<path d="M177.648 58.1055H123.638V63.5801H177.648V58.1055Z" fill="#E0E0E0"/>
<path d="M177.648 64.1836H123.638V64.8349H177.648V64.1836Z" fill="#F5F5F5"/>
<path d="M177.648 65.6562H123.638V66.3076H177.648V65.6562Z" fill="#F5F5F5"/>
<path d="M177.648 67.1289H123.638V67.7802H177.648V67.1289Z" fill="#F5F5F5"/>
<path d="M177.648 68.6055H123.638V69.2568H177.648V68.6055Z" fill="#F5F5F5"/>
<path d="M177.648 70.0742H123.638V70.7256H177.648V70.0742Z" fill="#F5F5F5"/>
<path d="M177.648 71.5469H123.638V72.1982H177.648V71.5469Z" fill="#F5F5F5"/>
<path d="M177.648 73.0195H123.638V73.6709H177.648V73.0195Z" fill="#F5F5F5"/>
<path d="M177.648 74.4961H123.638V75.1474H177.648V74.4961Z" fill="#F5F5F5"/>
<path d="M177.648 75.9648H123.638V76.6162H177.648V75.9648Z" fill="#F5F5F5"/>
<path d="M177.648 77.4375H123.638V78.0888H177.648V77.4375Z" fill="#F5F5F5"/>
<path d="M177.648 78.9062H123.638V79.5576H177.648V78.9062Z" fill="#F5F5F5"/>
<path d="M177.648 80.3828H123.638V81.0342H177.648V80.3828Z" fill="#F5F5F5"/>
<path d="M177.648 81.8555H123.638V82.5068H177.648V81.8555Z" fill="#F5F5F5"/>
<path d="M177.648 83.3281H123.638V83.9795H177.648V83.3281Z" fill="#F5F5F5"/>
<path d="M177.648 84.7969H123.638V85.4482H177.648V84.7969Z" fill="#F5F5F5"/>
<path d="M177.648 86.2734H123.638V86.9248H177.648V86.2734Z" fill="#F5F5F5"/>
<path d="M177.648 87.7461H123.638V88.3974H177.648V87.7461Z" fill="#F5F5F5"/>
<path d="M177.648 89.2188H123.638V89.8701H177.648V89.2188Z" fill="#F5F5F5"/>
<path d="M237.583 59.6211H185.953V175.93H237.583V59.6211Z" fill="#EBEBEB"/>
<path d="M235.635 173.751V61.8047H187.902V173.751H235.635Z" fill="#FAFAFA"/>
<path d="M212.316 61.2383H211.221V174.835H212.316V61.2383Z" fill="#F5F5F5"/>
<path d="M238.773 58.1055H184.763V63.5801H238.773V58.1055Z" fill="#E0E0E0"/>
<path d="M238.773 64.1836H184.763V64.8349H238.773V64.1836Z" fill="#F5F5F5"/>
<path d="M238.773 65.6562H184.763V66.3076H238.773V65.6562Z" fill="#F5F5F5"/>
<path d="M238.773 67.1289H184.763V67.7802H238.773V67.1289Z" fill="#F5F5F5"/>
<path d="M238.773 68.6055H184.763V69.2568H238.773V68.6055Z" fill="#F5F5F5"/>
<path d="M238.773 70.0742H184.763V70.7256H238.773V70.0742Z" fill="#F5F5F5"/>
<path d="M238.773 71.5469H184.763V72.1982H238.773V71.5469Z" fill="#F5F5F5"/>
<path d="M238.773 73.0195H184.763V73.6709H238.773V73.0195Z" fill="#F5F5F5"/>
<path d="M238.773 74.4961H184.763V75.1474H238.773V74.4961Z" fill="#F5F5F5"/>
<path d="M238.773 75.9648H184.763V76.6162H238.773V75.9648Z" fill="#F5F5F5"/>
<path d="M238.773 77.4375H184.763V78.0888H238.773V77.4375Z" fill="#F5F5F5"/>
<path d="M238.773 78.9062H184.763V79.5576H238.773V78.9062Z" fill="#F5F5F5"/>
<path d="M238.773 80.3828H184.763V81.0342H238.773V80.3828Z" fill="#F5F5F5"/>
<path d="M238.773 81.8555H184.763V82.5068H238.773V81.8555Z" fill="#F5F5F5"/>
<path d="M238.773 83.3281H184.763V83.9795H238.773V83.3281Z" fill="#F5F5F5"/>
<path d="M238.773 84.7969H184.763V85.4482H238.773V84.7969Z" fill="#F5F5F5"/>
<path d="M238.773 86.2734H184.763V86.9248H238.773V86.2734Z" fill="#F5F5F5"/>
<path d="M238.773 87.7461H184.763V88.3974H238.773V87.7461Z" fill="#F5F5F5"/>
<path d="M238.773 89.2188H184.763V89.8701H238.773V89.2188Z" fill="#F5F5F5"/>
<path d="M105.412 126.406V75.9219H40.4466V126.406H105.412Z" fill="#E0E0E0"/>
<path d="M41.3447 125.508L104.508 125.508V76.8258H41.3447L41.3447 125.508Z" fill="#EBEBEB"/>
<path d="M72.1484 85.6172H71.5869V92.4057H72.1484V85.6172Z" fill="#E0E0E0"/>
<path d="M56.7129 114.259H56.1514V92.125H85.3662V104.944H84.8047V92.6865H56.7129V114.259Z" fill="#E0E0E0"/>
<path d="M93.7049 111.846H93.1434V105.226H77.9492V111.615H77.3877V104.664H93.7049V111.846Z" fill="#E0E0E0"/>
<path d="M79.1163 83.125H64.624V88.1111H79.1163V83.125Z" fill="#F5F5F5"/>
<path d="M92.2055 95.0898H78.3926V100.508H92.2055V95.0898Z" fill="#F5F5F5"/>
<path d="M82.4181 108.82H72.9287V114.413H82.4181V108.82Z" fill="#F5F5F5"/>
<path d="M98.4993 109.723H88.3418V113.968H98.4993V109.723Z" fill="#F5F5F5"/>
<path d="M65.4556 96.2422H49.7617V103.48H65.4556V96.2422Z" fill="#F5F5F5"/>
<path d="M61.4407 111.617H51.418V116.907H61.4407V111.617Z" fill="#F5F5F5"/>
<path d="M74.0311 92.5857L71.8672 90.4219L69.7033 92.5857L71.8672 94.7496L74.0311 92.5857Z" fill="#F5F5F5"/>
<path d="M87.2459 104.941L85.082 102.777L82.9182 104.941L85.082 107.105L87.2459 104.941Z" fill="#F5F5F5"/>
<path d="M72.9288 68.8166C77.9836 68.8166 82.0813 64.7189 82.0813 59.6642C82.0813 54.6094 77.9836 50.5117 72.9288 50.5117C67.8741 50.5117 63.7764 54.6094 63.7764 59.6642C63.7764 64.7189 67.8741 68.8166 72.9288 68.8166Z" fill="#E0E0E0"/>
<path d="M72.9289 67.4476C77.227 67.4476 80.7113 63.9633 80.7113 59.6652C80.7113 55.3671 77.227 51.8828 72.9289 51.8828C68.6308 51.8828 65.1465 55.3671 65.1465 59.6652C65.1465 63.9633 68.6308 67.4476 72.9289 67.4476Z" fill="#F0F0F0"/>
<path d="M73.2939 54.3242V59.7652L76.8988 57.7269" fill="#F0F0F0"/>
<path d="M73.2939 60.3296C73.1956 60.3302 73.0988 60.3051 73.0132 60.2566C72.9275 60.2071 72.8564 60.1359 72.8071 60.0501C72.7578 59.9643 72.732 59.867 72.7324 59.7681V54.3271C72.7324 54.1782 72.7916 54.0354 72.8969 53.9301C73.0022 53.8248 73.145 53.7656 73.2939 53.7656C73.4428 53.7656 73.5857 53.8248 73.691 53.9301C73.7963 54.0354 73.8554 54.1782 73.8554 54.3271V58.8191L76.6236 57.2525C76.7532 57.1781 76.907 57.1581 77.0513 57.1971C77.1955 57.2361 77.3184 57.3307 77.3929 57.4603C77.4673 57.5899 77.4873 57.7437 77.4483 57.8879C77.4094 58.0322 77.3147 58.1551 77.1851 58.2295L73.5747 60.2678C73.488 60.3124 73.3913 60.3337 73.2939 60.3296Z" fill="#E0E0E0"/>
<path d="M140.5 240.076C200.627 240.076 249.369 237.23 249.369 233.719C249.369 230.209 200.627 227.363 140.5 227.363C80.3733 227.363 31.6309 230.209 31.6309 233.719C31.6309 237.23 80.3733 240.076 140.5 240.076Z" fill="#F5F5F5"/>
<path d="M55.4155 217.475H54.8877C54.8877 216.689 55.539 198.131 58.7677 195.015C62.0861 191.781 65.9886 194.965 66.0279 195.015L65.6853 195.425C65.545 195.302 62.1142 192.516 59.1383 195.425C56.0612 198.35 55.4211 217.301 55.4155 217.475Z" fill="#003A63"/>
<path d="M55.1516 221.196L54.6238 221.146C54.6238 220.921 56.7069 198.618 48.627 189.348L49.0312 189C57.2572 198.444 55.1516 220.972 55.1516 221.196Z" fill="#003A63"/>
<path d="M55.4097 218.816C55.3367 217.761 53.7813 192.987 59.9915 187.266L60.3509 187.653C54.326 193.195 55.9207 218.536 55.9375 218.783L55.4097 218.816Z" fill="#003A63"/>
<path d="M54.6238 218.802C54.6238 218.634 54.4273 201.957 50.0139 199.447C49.6377 199.201 49.2078 199.048 48.7602 199.002C48.3127 198.956 47.8606 199.018 47.4422 199.184C44.8481 200.25 43.4724 205.197 43.4612 205.248L42.9502 205.107C43.0063 204.894 44.4045 199.863 47.2401 198.689C47.7334 198.493 48.2666 198.417 48.7951 198.469C49.3236 198.521 49.832 198.698 50.2778 198.987C54.9551 201.665 55.146 218.078 55.1516 218.797L54.6238 218.802Z" fill="#003A63"/>
<path d="M56.4373 218.817C56.4092 218.256 55.7242 205.65 59.3066 200.978C60.2555 199.738 61.3111 199.142 62.4566 199.227C65.0002 199.406 66.9486 202.854 67.0609 203L66.5948 203.258C66.5948 203.224 64.6801 199.889 62.4229 199.754C61.4683 199.687 60.5587 200.209 59.7277 201.299C56.2632 205.819 56.9595 218.654 56.9707 218.784L56.4373 218.817Z" fill="#003A63"/>
<path d="M55.7135 220.564L55.1857 220.525C55.1857 220.222 57.4317 190.131 53.7314 185.117L54.1582 184.797C57.9932 189.974 55.8202 219.318 55.7135 220.564Z" fill="#003A63"/>
<path d="M46.207 201.686C46.207 201.686 48.5035 202.528 47.8185 204.527C47.1335 206.526 39.8901 209.805 39.8901 209.805C39.8901 209.805 36.8524 206.998 39.6374 202.506C42.4225 198.014 46.1677 200.254 46.207 201.686Z" fill="#003A63"/>
<path opacity="0.4" d="M46.207 201.686C46.207 201.686 48.5035 202.528 47.8185 204.527C47.1335 206.526 39.8901 209.805 39.8901 209.805C39.8901 209.805 36.8524 206.998 39.6374 202.506C42.4225 198.014 46.1677 200.254 46.207 201.686Z" fill="white"/>
<path d="M56.1735 197.885C56.1735 197.885 53.731 197.784 53.5962 199.89C53.4615 201.995 58.8855 207.812 58.8855 207.812C58.8855 207.812 62.7543 206.414 61.9233 201.164C61.0922 195.914 56.7799 196.594 56.1735 197.885Z" fill="#003A63"/>
<path opacity="0.4" d="M56.1735 197.885C56.1735 197.885 53.731 197.784 53.5962 199.89C53.4615 201.995 58.8855 207.812 58.8855 207.812C58.8855 207.812 62.7543 206.414 61.9233 201.164C61.0922 195.914 56.7799 196.594 56.1735 197.885Z" fill="white"/>
<path d="M58.2398 187.817C58.2398 187.817 56.6114 187.637 56.7462 186.649C56.881 185.661 63.0743 183.106 66.7297 187.211C66.7297 187.211 64.3882 191.231 61.0024 191.281C57.6165 191.332 58.2398 187.817 58.2398 187.817Z" fill="#003A63"/>
<path opacity="0.4" d="M58.2398 187.817C58.2398 187.817 56.6114 187.637 56.7462 186.649C56.881 185.661 63.0743 183.106 66.7297 187.211C66.7297 187.211 64.3882 191.231 61.0024 191.281C57.6165 191.332 58.2398 187.817 58.2398 187.817Z" fill="white"/>
<path d="M55.2079 185.408C55.2079 185.408 56.6846 186.121 57.0945 185.212C57.5044 184.302 53.602 178.855 48.3127 180.422C48.3127 180.422 48.1723 185.077 51.0191 186.907C53.8659 188.738 55.2079 185.408 55.2079 185.408Z" fill="#003A63"/>
<path opacity="0.4" d="M55.2079 185.408C55.2079 185.408 56.6846 186.121 57.0945 185.212C57.5044 184.302 53.602 178.855 48.3127 180.422C48.3127 180.422 48.1723 185.077 51.0191 186.907C53.8659 188.738 55.2079 185.408 55.2079 185.408Z" fill="white"/>
<path d="M62.9177 200.885C62.9177 200.885 61.7947 199.975 63.0019 199.537C64.2091 199.099 70.1666 199.217 70.2284 205.113C70.2284 205.113 63.2995 206.236 62.4404 203.99C61.5813 201.744 62.9177 200.885 62.9177 200.885Z" fill="#003A63"/>
<path opacity="0.4" d="M62.9177 200.885C62.9177 200.885 61.7947 199.975 63.0019 199.537C64.2091 199.099 70.1666 199.217 70.2284 205.113C70.2284 205.113 63.2995 206.236 62.4404 203.99C61.5813 201.744 62.9177 200.885 62.9177 200.885Z" fill="white"/>
<path d="M48.79 187.664C48.79 187.664 49.913 186.76 48.7001 186.317C47.4873 185.873 41.5354 185.997 41.4736 191.892C41.4736 191.892 48.4025 193.043 49.2616 190.797C50.1207 188.551 48.79 187.664 48.79 187.664Z" fill="#003A63"/>
<path opacity="0.4" d="M48.79 187.664C48.79 187.664 49.913 186.76 48.7001 186.317C47.4873 185.873 41.5354 185.997 41.4736 191.892C41.4736 191.892 48.4025 193.043 49.2616 190.797C50.1207 188.551 48.79 187.664 48.79 187.664Z" fill="white"/>
<path d="M52.4513 192.417C52.4513 192.417 52.5468 191.294 51.6596 191.743C50.7724 192.192 47.6673 195.522 50.8847 198.694C50.8847 198.694 55.2083 195.494 54.4278 193.82C53.6473 192.147 52.4513 192.417 52.4513 192.417Z" fill="#003A63"/>
<path opacity="0.4" d="M52.4513 192.417C52.4513 192.417 52.5468 191.294 51.6596 191.743C50.7724 192.192 47.6673 195.522 50.8847 198.694C50.8847 198.694 55.2083 195.494 54.4278 193.82C53.6473 192.147 52.4513 192.417 52.4513 192.417Z" fill="white"/>
<path d="M63.9169 193.984C63.9169 193.984 63.2487 193.108 64.2313 192.995C65.214 192.883 69.6217 194.062 68.5942 198.464C68.5942 198.464 63.2263 198.06 62.9792 196.218C62.7321 194.377 63.9169 193.984 63.9169 193.984Z" fill="#003A63"/>
<path opacity="0.4" d="M63.9169 193.984C63.9169 193.984 63.2487 193.108 64.2313 192.995C65.214 192.883 69.6217 194.062 68.5942 198.464C68.5942 198.464 63.2263 198.06 62.9792 196.218C62.7321 194.377 63.9169 193.984 63.9169 193.984Z" fill="white"/>
<path d="M46.6059 235.134H63.9674L66.2752 218.25H44.3037L46.6059 235.134Z" fill="#263238"/>
<path opacity="0.2" d="M46.6059 235.134H63.9674L66.2752 218.25H44.3037L46.6059 235.134Z" fill="white"/>
<path d="M68.4484 216.887V218.487C68.4491 218.742 68.3994 218.995 68.302 219.231C68.2046 219.467 68.0615 219.682 67.881 219.862C67.7004 220.043 67.486 220.186 67.2499 220.283C67.0139 220.381 66.7609 220.431 66.5056 220.43H43.849C43.5937 220.431 43.3407 220.381 43.1047 220.283C42.8687 220.186 42.6542 220.043 42.4736 219.862C42.2931 219.682 42.15 219.467 42.0526 219.231C41.9553 218.995 41.9055 218.742 41.9063 218.487V216.887H68.4484Z" fill="#263238"/>
<path d="M209.211 220.265C209.085 220.006 209.023 219.72 209.031 219.432C209.039 219.144 209.117 218.862 209.258 218.61C209.398 218.359 209.598 218.145 209.839 217.987C210.08 217.829 210.356 217.733 210.643 217.705C210.395 216.968 210.378 216.174 210.594 215.427C210.81 214.681 211.248 214.018 211.85 213.527C211.997 213.396 212.182 213.315 212.378 213.297C212.587 213.318 212.783 213.404 212.94 213.544L216.309 215.947C216.577 216.11 216.804 216.333 216.971 216.598C217.656 217.924 215.191 219.619 216.202 220.714C216.494 221.029 216.966 221.09 217.325 221.321C218.122 221.815 218.218 222.91 218.588 223.769C218.959 224.628 220.273 225.302 220.75 224.504C220.385 223.679 221.486 222.966 222.384 222.859C223.283 222.753 224.22 222.708 224.714 221.865C225.989 222.988 228.841 219.872 228.774 218.62C229.824 218.699 230.537 219.681 230.767 220.658C230.913 221.692 230.948 222.739 230.874 223.78C230.908 225.807 231.559 227.795 231.525 229.822C231.497 231.4 230.885 233.152 229.442 233.786C228.722 234.04 227.958 234.143 227.196 234.089L210.744 233.983C210.349 234.008 209.954 233.942 209.588 233.792C208.846 233.404 208.689 232.427 208.622 231.591C208.33 228.019 208.036 224.446 207.74 220.872L209.211 220.265Z" fill="#003A63"/>
<path opacity="0.3" d="M209.211 220.265C209.085 220.006 209.023 219.72 209.031 219.432C209.039 219.144 209.117 218.862 209.258 218.61C209.398 218.359 209.598 218.145 209.839 217.987C210.08 217.829 210.356 217.733 210.643 217.705C210.395 216.968 210.378 216.174 210.594 215.427C210.81 214.681 211.248 214.018 211.85 213.527C211.997 213.396 212.182 213.315 212.378 213.297C212.587 213.318 212.783 213.404 212.94 213.544L216.309 215.947C216.577 216.11 216.804 216.333 216.971 216.598C217.656 217.924 215.191 219.619 216.202 220.714C216.494 221.029 216.966 221.09 217.325 221.321C218.122 221.815 218.218 222.91 218.588 223.769C218.959 224.628 220.273 225.302 220.75 224.504C220.385 223.679 221.486 222.966 222.384 222.859C223.283 222.753 224.22 222.708 224.714 221.865C225.989 222.988 228.841 219.872 228.774 218.62C229.824 218.699 230.537 219.681 230.767 220.658C230.913 221.692 230.948 222.739 230.874 223.78C230.908 225.807 231.559 227.795 231.525 229.822C231.497 231.4 230.885 233.152 229.442 233.786C228.722 234.04 227.958 234.143 227.196 234.089L210.744 233.983C210.349 234.008 209.954 233.942 209.588 233.792C208.846 233.404 208.689 232.427 208.622 231.591C208.33 228.019 208.036 224.446 207.74 220.872L209.211 220.265Z" fill="white"/>
<path d="M205.376 202.883L205.589 205.46L205.735 207.302L206.123 212.097L206.342 214.843L206.645 218.509L206.757 220.11L206.791 220.576L206.943 222.417L207.145 224.955L207.274 226.522L207.403 228.111L207.555 229.958L207.667 231.368L207.796 232.934L207.88 233.586H231.306L231.362 232.901L231.463 231.34L231.576 229.941L231.727 228.094L231.862 226.5L231.985 224.933L232.188 222.401L232.339 220.553L232.384 220.087L232.508 218.515L232.8 214.848L233.024 212.097L233.412 207.307L233.563 205.466L233.771 202.888H205.376V202.883ZM206.673 204.079H207.206L206.712 204.573L206.673 204.079ZM208.919 204.079H209.481L211.828 206.426L209.205 209.042L206.92 206.763L206.875 206.134L208.919 204.079ZM207.386 212.552L209.194 210.744L211.811 213.372L209.189 215.994L207.504 214.309L207.386 212.552ZM231.665 214.304L229.981 215.988L227.359 213.372L229.975 210.761L231.789 212.569L231.665 214.304ZM212.664 207.268L215.281 209.89L212.664 212.513L210.042 209.89L212.664 207.268ZM212.664 205.584L211.165 204.084H214.163L212.664 205.584ZM216.129 210.749L218.751 213.36L216.129 215.983L213.495 213.372L216.129 210.749ZM219.593 219.447L216.982 216.83L219.593 214.214L222.215 216.83L219.593 219.447ZM223.063 217.678L225.68 220.301L223.041 222.917L220.419 220.295L223.063 217.678ZM218.751 220.295L216.106 222.917L213.495 220.295L216.112 217.673L218.751 220.295ZM216.982 209.896L219.593 207.274L222.215 209.896L219.593 212.518L216.982 209.896ZM223.041 210.744L225.657 213.355L223.041 215.977L220.424 213.372L223.041 210.744ZM223.889 209.89L226.511 207.268L229.127 209.89L226.511 212.513L223.889 209.89ZM229.127 216.825L226.511 219.441L223.889 216.825L226.511 214.208L229.127 216.825ZM226.511 221.143L229.127 223.759L226.511 226.376L223.889 223.759L226.511 221.143ZM225.657 227.229L223.041 229.846L220.424 227.229L223.041 224.602L225.657 227.229ZM219.571 226.376L216.96 223.759L219.571 221.143L222.193 223.759L219.571 226.376ZM218.728 227.229L216.106 229.846L213.495 227.229L216.112 224.607L218.728 227.229ZM215.258 230.694L213.574 232.378H211.727L210.042 230.694L212.664 228.072L215.258 230.694ZM212.642 226.376L210.02 223.759L212.642 221.143L215.258 223.759L212.642 226.376ZM212.642 219.441L210.02 216.825L212.642 214.208L215.258 216.825L212.642 219.441ZM215.831 204.079H216.393L218.74 206.426L216.117 209.042L213.495 206.426L215.831 204.079ZM218.077 204.079H221.07L219.571 205.578L218.077 204.079ZM222.76 204.079H223.322L225.663 206.426L223.041 209.042L220.424 206.426L222.76 204.079ZM228.004 204.079L226.511 205.578L225.012 204.079H228.004ZM230.25 204.079L232.306 206.134L232.255 206.763L229.975 209.042L227.359 206.426L229.7 204.079H230.25ZM232.496 204.079L232.452 204.567L231.969 204.079H232.496ZM231.935 210.98L230.846 209.89L232.126 208.61L231.935 210.98ZM231.413 217.392L230.851 216.83L231.525 216.157L231.418 217.398L231.413 217.392ZM231.053 221.856L229.975 222.917L227.359 220.301L229.975 217.678L231.267 218.975L231.053 221.856ZM230.902 223.816L230.846 223.759L230.907 223.703V223.816H230.902ZM230.441 229.397L229.998 229.84L227.381 227.229L229.998 224.607L230.773 225.382L230.441 229.397ZM229.15 232.39L229.998 231.542L230.25 231.789L230.206 232.39H229.15ZM227.465 232.39H225.618L223.934 230.705L226.556 228.083L229.172 230.705L227.465 232.39ZM222.221 232.39L223.074 231.542L223.922 232.39H222.221ZM218.684 232.39L216.999 230.705L219.61 228.083L222.232 230.705L220.548 232.39H218.684ZM215.286 232.39L216.14 231.542L216.993 232.39H215.286ZM208.953 231.789L209.205 231.542L210.059 232.39H209.003L208.953 231.789ZM208.436 225.382L209.172 224.602L211.794 227.224L209.172 229.835L208.723 229.391L208.436 225.382ZM208.296 223.698L208.363 223.759L208.307 223.816V223.698H208.296ZM207.88 218.987L209.172 217.69L211.794 220.312L209.172 222.917L208.11 221.862L207.88 218.987ZM207.65 216.179L208.329 216.853L207.768 217.414L207.65 216.179ZM207.038 208.599L208.329 209.89L207.206 211.013L207.016 208.621L207.038 208.599Z" fill="#003A63"/>
<g opacity="0.6">
<path d="M205.376 202.883L205.589 205.46L205.735 207.302L206.123 212.097L206.342 214.843L206.645 218.509L206.757 220.11L206.791 220.576L206.943 222.417L207.145 224.955L207.274 226.522L207.403 228.111L207.555 229.958L207.667 231.368L207.796 232.934L207.88 233.586H231.306L231.362 232.901L231.463 231.34L231.576 229.941L231.727 228.094L231.862 226.5L231.985 224.933L232.188 222.401L232.339 220.553L232.384 220.087L232.508 218.515L232.8 214.848L233.024 212.097L233.412 207.307L233.563 205.466L233.771 202.888H205.376V202.883ZM206.673 204.079H207.206L206.712 204.573L206.673 204.079ZM208.919 204.079H209.481L211.828 206.426L209.205 209.042L206.92 206.763L206.875 206.134L208.919 204.079ZM207.386 212.552L209.194 210.744L211.811 213.372L209.189 215.994L207.504 214.309L207.386 212.552ZM231.665 214.304L229.981 215.988L227.359 213.372L229.975 210.761L231.789 212.569L231.665 214.304ZM212.664 207.268L215.281 209.89L212.664 212.513L210.042 209.89L212.664 207.268ZM212.664 205.584L211.165 204.084H214.163L212.664 205.584ZM216.129 210.749L218.751 213.36L216.129 215.983L213.495 213.372L216.129 210.749ZM219.593 219.447L216.982 216.83L219.593 214.214L222.215 216.83L219.593 219.447ZM223.063 217.678L225.68 220.301L223.041 222.917L220.419 220.295L223.063 217.678ZM218.751 220.295L216.106 222.917L213.495 220.295L216.112 217.673L218.751 220.295ZM216.982 209.896L219.593 207.274L222.215 209.896L219.593 212.518L216.982 209.896ZM223.041 210.744L225.657 213.355L223.041 215.977L220.424 213.372L223.041 210.744ZM223.889 209.89L226.511 207.268L229.127 209.89L226.511 212.513L223.889 209.89ZM229.127 216.825L226.511 219.441L223.889 216.825L226.511 214.208L229.127 216.825ZM226.511 221.143L229.127 223.759L226.511 226.376L223.889 223.759L226.511 221.143ZM225.657 227.229L223.041 229.846L220.424 227.229L223.041 224.602L225.657 227.229ZM219.571 226.376L216.96 223.759L219.571 221.143L222.193 223.759L219.571 226.376ZM218.728 227.229L216.106 229.846L213.495 227.229L216.112 224.607L218.728 227.229ZM215.258 230.694L213.574 232.378H211.727L210.042 230.694L212.664 228.072L215.258 230.694ZM212.642 226.376L210.02 223.759L212.642 221.143L215.258 223.759L212.642 226.376ZM212.642 219.441L210.02 216.825L212.642 214.208L215.258 216.825L212.642 219.441ZM215.831 204.079H216.393L218.74 206.426L216.117 209.042L213.495 206.426L215.831 204.079ZM218.077 204.079H221.07L219.571 205.578L218.077 204.079ZM222.76 204.079H223.322L225.663 206.426L223.041 209.042L220.424 206.426L222.76 204.079ZM228.004 204.079L226.511 205.578L225.012 204.079H228.004ZM230.25 204.079L232.306 206.134L232.255 206.763L229.975 209.042L227.359 206.426L229.7 204.079H230.25ZM232.496 204.079L232.452 204.567L231.969 204.079H232.496ZM231.935 210.98L230.846 209.89L232.126 208.61L231.935 210.98ZM231.413 217.392L230.851 216.83L231.525 216.157L231.418 217.398L231.413 217.392ZM231.053 221.856L229.975 222.917L227.359 220.301L229.975 217.678L231.267 218.975L231.053 221.856ZM230.902 223.816L230.846 223.759L230.907 223.703V223.816H230.902ZM230.441 229.397L229.998 229.84L227.381 227.229L229.998 224.607L230.773 225.382L230.441 229.397ZM229.15 232.39L229.998 231.542L230.25 231.789L230.206 232.39H229.15ZM227.465 232.39H225.618L223.934 230.705L226.556 228.083L229.172 230.705L227.465 232.39ZM222.221 232.39L223.074 231.542L223.922 232.39H222.221ZM218.684 232.39L216.999 230.705L219.61 228.083L222.232 230.705L220.548 232.39H218.684ZM215.286 232.39L216.14 231.542L216.993 232.39H215.286ZM208.953 231.789L209.205 231.542L210.059 232.39H209.003L208.953 231.789ZM208.436 225.382L209.172 224.602L211.794 227.224L209.172 229.835L208.723 229.391L208.436 225.382ZM208.296 223.698L208.363 223.759L208.307 223.816V223.698H208.296ZM207.88 218.987L209.172 217.69L211.794 220.312L209.172 222.917L208.11 221.862L207.88 218.987ZM207.65 216.179L208.329 216.853L207.768 217.414L207.65 216.179ZM207.038 208.599L208.329 209.89L207.206 211.013L207.016 208.621L207.038 208.599Z" fill="white"/>
</g>
<path d="M234.484 201.809H204.663C204.154 201.809 203.742 202.221 203.742 202.729V204.229C203.742 204.737 204.154 205.15 204.663 205.15H234.484C234.993 205.15 235.405 204.737 235.405 204.229V202.729C235.405 202.221 234.993 201.809 234.484 201.809Z" fill="#003A63"/>
<path d="M206.943 235.133H232.199C232.708 235.133 233.12 234.721 233.12 234.212V232.713C233.12 232.204 232.708 231.792 232.199 231.792H206.943C206.434 231.792 206.022 232.204 206.022 232.713V234.212C206.022 234.721 206.434 235.133 206.943 235.133Z" fill="#003A63"/>
<path d="M127.338 64.9727H108.545C106.831 64.9727 105.187 65.6536 103.975 66.8656C102.763 68.0776 102.082 69.7215 102.082 71.4355V89.6955C102.082 91.4096 102.763 93.0534 103.975 94.2654C105.187 95.4775 106.831 96.1584 108.545 96.1584H111.1V102.981L115.429 96.1584H127.321C129.036 96.1584 130.679 95.4775 131.891 94.2654C133.103 93.0534 133.784 91.4096 133.784 89.6955V71.4355C133.784 69.7244 133.106 68.0831 131.897 66.8715C130.689 65.66 129.049 64.9771 127.338 64.9727Z" fill="#003A63"/>
<path opacity="0.4" d="M127.338 64.9727H108.545C106.831 64.9727 105.187 65.6536 103.975 66.8656C102.763 68.0776 102.082 69.7215 102.082 71.4355V89.6955C102.082 91.4096 102.763 93.0534 103.975 94.2654C105.187 95.4775 106.831 96.1584 108.545 96.1584H111.1V102.981L115.429 96.1584H127.321C129.036 96.1584 130.679 95.4775 131.891 94.2654C133.103 93.0534 133.784 91.4096 133.784 89.6955V71.4355C133.784 69.7244 133.106 68.0831 131.897 66.8715C130.689 65.66 129.049 64.9771 127.338 64.9727Z" fill="white"/>
<path d="M121.05 77.5796C121.05 76.204 119.876 75.2775 117.99 75.2775C117.221 75.2336 116.454 75.3828 115.757 75.7113C115.061 76.0398 114.458 76.5373 114.003 77.1585L111.628 75.62C112.998 73.7558 115.199 72.6328 118.259 72.6328C121.858 72.6328 124.262 74.2724 124.262 77.0855C124.262 81.0778 120.073 81.4427 120.073 84.3345H116.962C116.962 80.7128 121.05 80.0278 121.05 77.5796ZM116.558 88.2762C116.55 87.8895 116.658 87.5092 116.867 87.1838C117.076 86.8584 117.377 86.6026 117.732 86.4489C118.087 86.2952 118.479 86.2507 118.86 86.3209C119.24 86.3911 119.591 86.573 119.868 86.8432C120.144 87.1135 120.334 87.4601 120.413 87.8387C120.492 88.2173 120.457 88.6108 120.311 88.9693C120.166 89.3277 119.917 89.6347 119.597 89.8513C119.276 90.0678 118.899 90.1841 118.512 90.1853C118.257 90.1945 118.004 90.1517 117.766 90.0594C117.529 89.9671 117.313 89.8272 117.132 89.6485C116.95 89.4697 116.807 89.2558 116.712 89.0198C116.616 88.7839 116.569 88.5308 116.575 88.2762H116.558Z" fill="white"/>
<path d="M80.335 151.664C80.335 151.664 81.9184 183.372 88.7575 188.83H81.458C81.458 188.83 74.9446 178.026 74.4561 151.664H80.335Z" fill="#263238"/>
<path opacity="0.2" d="M80.335 151.664C80.335 151.664 81.9184 183.372 88.7575 188.83H81.458C81.458 188.83 74.9446 178.026 74.4561 151.664H80.335Z" fill="white"/>
<path d="M74.8494 156.137H81.7615C83.7885 156.137 85.254 154.317 85.0294 152.071L84.7375 149.073C84.5129 146.827 82.6936 145.008 80.6666 145.008H73.7545C71.7275 145.008 70.2676 146.833 70.4866 149.073L70.7842 152.071C71.0032 154.317 72.8224 156.137 74.8494 156.137Z" fill="#263238"/>
<path d="M73.777 158.607H85.473C88.8982 158.607 91.3744 155.524 90.9982 151.729L90.4984 146.675C90.1278 142.874 87.0452 139.797 83.6201 139.797H71.924C68.4933 139.797 66.0226 142.874 66.3932 146.675L66.893 151.729C67.2692 155.536 70.3518 158.607 73.777 158.607Z" fill="#263238"/>
<path opacity="0.5" d="M73.777 158.607H85.473C88.8982 158.607 91.3744 155.524 90.9982 151.729L90.4984 146.675C90.1278 142.874 87.0452 139.797 83.6201 139.797H71.924C68.4933 139.797 66.0226 142.874 66.3932 146.675L66.893 151.729C67.2692 155.536 70.3518 158.607 73.777 158.607Z" fill="white"/>
<path d="M79.5153 185.59H112.346C112.677 185.59 113.005 185.655 113.311 185.782C113.617 185.908 113.895 186.094 114.129 186.328C114.363 186.562 114.549 186.84 114.675 187.146C114.802 187.452 114.867 187.78 114.867 188.111V190.845H76.9941V188.1C76.9971 187.433 77.264 186.795 77.7365 186.324C78.209 185.854 78.8486 185.59 79.5153 185.59Z" fill="#263238"/>
<path opacity="0.5" d="M79.5153 185.59H112.346C112.677 185.59 113.005 185.655 113.311 185.782C113.617 185.908 113.895 186.094 114.129 186.328C114.363 186.562 114.549 186.84 114.675 187.146C114.802 187.452 114.867 187.78 114.867 188.111V190.845H76.9941V188.1C76.9971 187.433 77.264 186.795 77.7365 186.324C78.209 185.854 78.8486 185.59 79.5153 185.59Z" fill="white"/>
<path d="M78.3139 224.907L92.9129 223.632V204.457H98.045V223.627L112.7 224.907C113.318 224.975 113.889 225.268 114.304 225.732C114.718 226.195 114.947 226.795 114.946 227.417V229.36H76.0342V227.406C76.0381 226.781 76.2733 226.18 76.6943 225.718C77.1153 225.257 77.6922 224.968 78.3139 224.907Z" fill="#263238"/>
<path d="M110.252 231.775C110.252 232.442 110.45 233.093 110.82 233.647C111.19 234.201 111.716 234.633 112.332 234.888C112.947 235.143 113.625 235.21 114.278 235.08C114.932 234.95 115.532 234.629 116.003 234.157C116.474 233.686 116.795 233.086 116.925 232.433C117.055 231.779 116.988 231.102 116.734 230.486C116.479 229.87 116.047 229.344 115.493 228.974C114.939 228.604 114.287 228.406 113.621 228.406C112.727 228.406 111.871 228.761 111.239 229.393C110.607 230.025 110.252 230.882 110.252 231.775Z" fill="#263238"/>
<path d="M80.7624 231.775C80.7624 232.442 80.5648 233.093 80.1946 233.647C79.8244 234.201 79.2983 234.633 78.6827 234.888C78.0671 235.143 77.3897 235.21 76.7362 235.08C76.0826 234.95 75.4823 234.629 75.0112 234.157C74.54 233.686 74.2191 233.086 74.0891 232.433C73.9592 231.779 74.0259 231.102 74.2809 230.486C74.5359 229.87 74.9677 229.344 75.5217 228.974C76.0757 228.604 76.7271 228.406 77.3934 228.406C78.2869 228.406 79.1439 228.761 79.7757 229.393C80.4075 230.025 80.7624 230.882 80.7624 231.775Z" fill="#263238"/>
<path d="M96.8494 208.367H94.1206C93.847 208.367 93.5761 208.313 93.3234 208.209C93.0706 208.104 92.841 207.95 92.6475 207.757C92.4541 207.564 92.3007 207.334 92.196 207.081C92.0913 206.828 92.0374 206.558 92.0374 206.284V189.596H98.9326V206.284C98.9326 206.837 98.7131 207.366 98.3225 207.757C97.9318 208.148 97.4019 208.367 96.8494 208.367Z" fill="#263238"/>
<path opacity="0.2" d="M96.8494 208.367H94.1206C93.847 208.367 93.5761 208.313 93.3234 208.209C93.0706 208.104 92.841 207.95 92.6475 207.757C92.4541 207.564 92.3007 207.334 92.196 207.081C92.0913 206.828 92.0374 206.558 92.0374 206.284V189.596H98.9326V206.284C98.9326 206.837 98.7131 207.366 98.3225 207.757C97.9318 208.148 97.4019 208.367 96.8494 208.367Z" fill="white"/>
<path d="M115.295 188.832H76.5681C76.0068 188.832 75.5518 189.287 75.5518 189.848V190.444C75.5518 191.005 76.0068 191.46 76.5681 191.46H115.295C115.856 191.46 116.311 191.005 116.311 190.444V189.848C116.311 189.287 115.856 188.832 115.295 188.832Z" fill="#263238"/>
<path opacity="0.2" d="M110.252 231.775C110.252 232.442 110.45 233.093 110.82 233.647C111.19 234.201 111.716 234.633 112.332 234.888C112.947 235.143 113.625 235.21 114.278 235.08C114.932 234.95 115.532 234.629 116.003 234.157C116.474 233.686 116.795 233.086 116.925 232.433C117.055 231.779 116.988 231.102 116.734 230.486C116.479 229.87 116.047 229.344 115.493 228.974C114.939 228.604 114.287 228.406 113.621 228.406C112.727 228.406 111.871 228.761 111.239 229.393C110.607 230.025 110.252 230.882 110.252 231.775Z" fill="white"/>
<path opacity="0.2" d="M80.7624 231.775C80.7624 232.442 80.5648 233.093 80.1946 233.647C79.8244 234.201 79.2983 234.633 78.6827 234.888C78.0671 235.143 77.3897 235.21 76.7362 235.08C76.0826 234.95 75.4823 234.629 75.0112 234.157C74.54 233.686 74.2191 233.086 74.0891 232.433C73.9592 231.779 74.0259 231.102 74.2809 230.486C74.5359 229.87 74.9677 229.344 75.5217 228.974C76.0757 228.604 76.7271 228.406 77.3934 228.406C78.2869 228.406 79.1439 228.761 79.7757 229.393C80.4075 230.025 80.7624 230.882 80.7624 231.775Z" fill="white"/>
<path d="M82.1037 109.777C82.1037 109.777 83.0864 106.622 87.2078 106.049C91.3292 105.476 96.349 106.863 97.3709 108.581C98.3929 110.3 97.6068 111.99 98.9824 112.557C100.358 113.124 102.318 114.522 101.936 115.926C101.554 117.33 100.167 120.176 101.694 120.732C103.222 121.288 104.182 123.54 103.514 124.663C102.846 125.786 102.604 127.178 103.368 127.571C104.131 127.964 105.052 128.734 104.418 129.902C103.783 131.07 103.177 131.232 104.131 132.226C105.086 133.22 103.435 135.455 103.435 135.455C103.435 135.455 81.3906 138.077 78.7291 135.769C76.0676 133.462 77.7241 131.423 78.2968 130.817C78.8695 130.21 77.4489 130.446 77.2524 128.155C77.0559 125.864 78.4428 125.528 78.7291 124.186C79.0155 122.844 77.6061 121.558 78.5382 120.255C79.4703 118.952 79.7679 118.222 79.0997 116.852C78.4315 115.482 78.3192 109.873 82.1037 109.777Z" fill="#263238"/>
<path d="M119.932 132.249L124.817 131.597L121.83 127.016C121.83 127.016 117.456 128.835 117.989 131.042L119.932 132.249Z" fill="#E4897B"/>
<path d="M128.619 128.527L124.711 125.461L121.83 127.016L124.817 131.598L128.619 128.527Z" fill="#E4897B"/>
<path d="M121.111 132.289C121.111 132.289 115.496 152.07 111.088 150.874C108.651 150.212 106.31 147.865 104.446 145.428C102.887 143.353 101.517 141.143 100.353 138.825V138.752L99.791 129.363C104.154 130.436 110.549 142.188 110.549 142.188L117.613 130.593L121.111 132.289Z" fill="#003A63"/>
<path opacity="0.7" d="M98.9491 142.76C94.8841 139.093 90.3757 135.951 85.5293 133.405C85.9748 133.349 86.424 133.304 86.8769 133.27C89.9537 132.945 93.0498 132.84 96.1416 132.956C96.9109 133.001 97.697 133.063 98.4719 133.13C100.409 137.527 98.9491 142.76 98.9491 142.76Z" fill="white"/>
<path d="M85.5513 162.463C85.1302 157.718 83.4288 149.015 80.4978 139.874C79.5432 136.903 81.1604 133.551 81.1604 133.551C81.1604 133.551 85.1414 133.445 85.5457 133.405C85.95 133.366 86.4385 133.304 86.8933 133.27C89.9701 132.945 93.0662 132.84 96.158 132.956C96.9273 133.001 97.7134 133.063 98.4882 133.13C98.7353 133.13 101.537 133.181 101.779 133.203C101.779 133.203 105.659 137.639 105.894 141.233C106.181 143.995 106.288 146.772 106.214 149.548C106.214 152.811 105.956 157.112 105.743 161.694L85.5513 162.463Z" fill="#003A63"/>
<path opacity="0.8" d="M85.5513 162.463C85.1302 157.718 83.4288 149.015 80.4978 139.874C79.5432 136.903 81.1604 133.551 81.1604 133.551C81.1604 133.551 85.1414 133.445 85.5457 133.405C85.95 133.366 86.4385 133.304 86.8933 133.27C89.9701 132.945 93.0662 132.84 96.158 132.956C96.9273 133.001 97.7134 133.063 98.4882 133.13C98.7353 133.13 101.537 133.181 101.779 133.203C101.779 133.203 105.659 137.639 105.894 141.233C106.181 143.995 106.288 146.772 106.214 149.548C106.214 152.811 105.956 157.112 105.743 161.694L85.5513 162.463Z" fill="white"/>
<path d="M85.5517 162.462L105.766 161.098C105.766 161.098 106.372 167.173 106.232 167.083C106.091 166.993 84.5859 167.841 84.5859 167.841L85.5517 162.462Z" fill="#263238"/>
<path d="M85.7371 162.801L105.749 161.695V163.593L85.5518 164.666L85.7371 162.801Z" fill="black"/>
<path d="M97.0008 164.368C96.8611 164.369 96.7262 164.317 96.6224 164.224C96.5186 164.13 96.4533 164.002 96.4393 163.863L96.3495 162.74C96.3415 162.595 96.3897 162.453 96.4838 162.343C96.578 162.234 96.7109 162.164 96.8548 162.15L99.0447 161.982C99.1202 161.977 99.1959 161.987 99.2673 162.012C99.3388 162.037 99.4043 162.077 99.4602 162.128C99.5143 162.179 99.5575 162.241 99.5874 162.309C99.6173 162.378 99.6332 162.452 99.6343 162.526V163.7C99.6347 163.841 99.5818 163.978 99.486 164.082C99.3902 164.186 99.2587 164.25 99.1177 164.261L97.0121 164.374L97.0008 164.368ZM99.1064 162.319L96.911 162.487C96.8817 162.489 96.8531 162.497 96.8269 162.51C96.8008 162.524 96.7776 162.542 96.7587 162.565C96.7398 162.587 96.7257 162.613 96.7171 162.642C96.7086 162.67 96.7058 162.699 96.7088 162.728L96.7987 163.851C96.7993 163.88 96.8059 163.909 96.818 163.935C96.8302 163.961 96.8477 163.984 96.8693 164.003C96.891 164.022 96.9163 164.036 96.9438 164.045C96.9713 164.054 97.0003 164.057 97.0289 164.054L99.1345 163.941C99.1906 163.938 99.2435 163.914 99.2822 163.873C99.3208 163.833 99.3423 163.778 99.3423 163.722V162.549C99.3426 162.518 99.3368 162.488 99.3252 162.46C99.3136 162.432 99.2965 162.407 99.2749 162.386C99.2533 162.363 99.227 162.346 99.198 162.334C99.1689 162.322 99.1377 162.317 99.1064 162.319Z" fill="white"/>
<path d="M107.001 165.832C101.627 165.299 94.6476 164.866 85.5513 164.664C85.5513 164.664 78.774 180.627 86.809 185.395C89.2403 186.838 93.2495 187.41 97.6628 187.5C98.878 187.529 100.087 187.314 101.218 186.869C102.349 186.424 103.379 185.757 104.249 184.908C105.119 184.059 105.81 183.045 106.283 181.925C106.755 180.806 106.999 179.603 107.001 178.387V165.832Z" fill="#263238"/>
<path d="M87.1916 176.361L80.2066 175.092L84.2718 160.055C84.2718 160.055 83.2274 156.321 82.1044 152.043C81.8181 150.965 81.5429 149.859 81.2397 148.764C80.9365 147.669 80.7119 146.725 80.4761 145.776C79.9278 143.82 79.4966 141.832 79.1846 139.825C79.0555 137.427 78.6568 130.942 80.959 129.925C82.3234 129.319 85.1197 130.751 86.8884 131.082C89.5431 136.173 90.9971 141.805 91.139 147.545C91.4197 157.265 87.1916 176.361 87.1916 176.361Z" fill="#003A63"/>
<path d="M93.8281 131.305C93.8281 131.305 100.353 132.119 103.132 146.016C104.255 151.631 106.928 175.68 106.928 175.68L108.444 174.922L106.338 160.587C106.338 160.587 107.096 143.978 106.507 140.569C105.917 137.161 102.93 129.772 99.8193 129.339C98.556 129.193 93.8281 131.305 93.8281 131.305Z" fill="#003A63"/>
<path d="M94.1318 131.109L94.4575 130.828C98.23 131.341 101.669 133.263 104.082 136.207L102.566 137.69L105.126 139.812L103.891 151.188C103.891 151.188 99.9602 137.768 98.2364 134.545C98.2476 134.517 95.3896 131.727 94.1318 131.109Z" fill="#003A63"/>
<path opacity="0.2" d="M94.1318 131.11L94.4351 130.863C98.2071 131.361 101.648 133.277 104.059 136.22L102.543 137.702L105.126 139.814L103.891 151.19C103.891 151.19 99.9602 137.77 98.2364 134.547C98.2476 134.519 95.3896 131.728 94.1318 131.11Z" fill="black"/>
<path d="M87.0345 131.686C87.0345 131.686 92.088 138.121 90.9931 152.277L85.5634 142.097L87.2928 139.317L83.25 135.527C83.25 135.527 85.861 130.474 87.3602 130.861L87.0345 131.686Z" fill="#003A63"/>
<path opacity="0.2" d="M87.0345 131.686C87.0345 131.686 92.088 138.121 90.9931 152.277L85.5634 142.097L87.2928 139.317L83.25 135.527C83.25 135.527 85.861 130.474 87.3602 130.861L87.0345 131.686Z" fill="black"/>
<path d="M87.4609 130.555C87.4609 130.555 88.9882 131.116 93.8901 130.751C93.8901 130.751 95.7431 132.469 96.327 134.272C96.911 136.074 95.0468 137.82 92.0821 136.243C89.1174 134.665 87.4609 130.555 87.4609 130.555Z" fill="#003A63"/>
<path opacity="0.5" d="M87.4609 130.555C87.4609 130.555 88.9882 131.116 93.8901 130.751C93.8901 130.751 95.7431 132.469 96.327 134.272C96.911 136.074 95.0468 137.82 92.0821 136.243C89.1174 134.665 87.4609 130.555 87.4609 130.555Z" fill="white"/>
<path d="M97.3604 134.263L96.2374 140.973L87.4106 133.252C89.2804 131.192 88.1013 125.768 87.1973 122.809L89.6959 124.684L93.4131 127.463C93.343 128.23 93.4037 129.003 93.5928 129.749C93.8735 130.933 94.3788 132.045 94.9347 132.281L97.3604 134.263Z" fill="#E4897B"/>
<path opacity="0.2" d="M93.5921 129.749C92.1097 129.418 90.1669 127.885 89.8525 126.38C89.7318 125.827 89.679 125.261 89.6953 124.695L93.4124 127.475C93.3436 128.237 93.4043 129.006 93.5921 129.749Z" fill="black"/>
<path d="M87.4606 130.555C90.6098 133.66 93.486 137.03 96.0572 140.628C96.0572 140.628 96.9331 133.89 93.8898 130.751L94.5917 130.667C97.0478 132.277 99.2394 134.258 101.088 136.54L98.1628 135.614L96.1414 141.027L90.1334 136.052L86.0849 136.754C86.0849 136.754 85.8996 131.756 87.4606 130.555Z" fill="#003A63"/>
<path opacity="0.7" d="M87.4606 130.555C90.6098 133.66 93.486 137.03 96.0572 140.628C96.0572 140.628 96.9331 133.89 93.8898 130.751L94.5917 130.667C97.0478 132.277 99.2394 134.258 101.088 136.54L98.1628 135.614L96.1414 141.027L90.1334 136.052L86.0849 136.754C86.0849 136.754 85.8996 131.756 87.4606 130.555Z" fill="white"/>
<path d="M84.4459 116.914C85.5127 121.697 85.8665 123.741 88.6908 125.954C92.9414 129.289 98.5564 127.256 98.9326 122.332C99.2695 117.896 97.4671 110.821 92.4473 109.417C91.3825 109.076 90.2457 109.025 89.1546 109.27C88.0635 109.515 87.0578 110.047 86.2417 110.812C85.4256 111.577 84.8288 112.545 84.513 113.618C84.1973 114.691 84.1741 115.829 84.4459 116.914Z" fill="#E4897B"/>
<path d="M90.6217 117.511C90.6947 117.915 90.9642 118.218 91.2225 118.19C91.4808 118.162 91.638 117.814 91.565 117.409C91.492 117.005 91.2225 116.696 90.9586 116.724C90.6947 116.753 90.5263 117.106 90.6217 117.511Z" fill="#263238"/>
<path d="M95.6704 116.792C95.7434 117.196 96.0129 117.499 96.2712 117.471C96.5295 117.443 96.6867 117.095 96.6137 116.685C96.5407 116.275 96.2712 115.978 96.0129 116.006C95.7546 116.034 95.5806 116.399 95.6704 116.792Z" fill="#263238"/>
<path d="M95.9004 116.054L96.8044 115.672C96.8044 115.672 96.4507 116.48 95.9004 116.054Z" fill="#263238"/>
<path d="M94.2832 117.863C94.8037 118.751 95.4359 119.568 96.1642 120.295C95.9829 120.465 95.7655 120.591 95.5282 120.665C95.2909 120.739 95.0399 120.758 94.7942 120.721L94.2832 117.863Z" fill="#DE5753"/>
<path d="M90.9703 113.658C90.9087 113.674 90.8562 113.715 90.8243 113.77C90.6958 114.031 90.5043 114.256 90.2671 114.425C90.0299 114.594 89.7543 114.7 89.4654 114.736C89.4351 114.737 89.4054 114.745 89.3782 114.758C89.3509 114.772 89.3268 114.79 89.3072 114.814C89.2877 114.837 89.2732 114.864 89.2647 114.893C89.2562 114.922 89.2538 114.953 89.2577 114.983C89.2648 115.047 89.296 115.106 89.3451 115.148C89.3941 115.189 89.4573 115.211 89.5216 115.207C89.8894 115.17 90.2419 115.04 90.5462 114.83C90.8505 114.62 91.0968 114.337 91.2622 114.006C91.2879 113.948 91.2906 113.883 91.2697 113.824C91.2488 113.764 91.206 113.715 91.1499 113.686C91.0954 113.655 91.0316 113.645 90.9703 113.658Z" fill="#263238"/>
<path d="M95.4794 112.556C95.4502 112.553 95.4208 112.556 95.3928 112.565C95.3648 112.573 95.3389 112.587 95.3165 112.606C95.2726 112.651 95.248 112.712 95.248 112.775C95.248 112.838 95.2726 112.898 95.3165 112.943C95.5605 113.243 95.8703 113.482 96.2218 113.643C96.5734 113.804 96.9572 113.881 97.3435 113.87C97.374 113.867 97.4036 113.858 97.4303 113.843C97.4571 113.829 97.4805 113.808 97.4991 113.784C97.5176 113.76 97.5308 113.732 97.5378 113.702C97.5449 113.672 97.5457 113.641 97.5401 113.611C97.5254 113.551 97.4893 113.499 97.4387 113.464C97.388 113.429 97.3262 113.413 97.2649 113.42C96.9586 113.425 96.6554 113.359 96.3781 113.229C96.1009 113.098 95.8569 112.907 95.6646 112.668C95.6435 112.637 95.616 112.611 95.5841 112.592C95.5521 112.573 95.5164 112.56 95.4794 112.556Z" fill="#263238"/>
<path d="M90.8525 116.757L91.7566 116.375C91.7566 116.375 91.4028 117.189 90.8525 116.757Z" fill="#263238"/>
<path d="M86.8997 119.689C86.8997 119.689 89.2524 116.264 87.4612 111.194C87.4612 111.194 92.7786 108.611 96.8045 112.547C96.8045 112.547 93.0593 105.977 85.232 109.122C77.4047 112.266 83.3061 119.79 84.2775 120.413C85.2489 121.037 86.8997 119.689 86.8997 119.689Z" fill="#263238"/>
<path d="M83.4914 121.054C84.1189 121.884 85.0497 122.431 86.0799 122.576C87.4051 122.733 87.7644 121.397 87.2029 120.173C86.6414 119.05 85.3163 117.652 84.1035 118.067C82.8906 118.483 82.666 120.004 83.4914 121.054Z" fill="#E4897B"/>
<path d="M94.7999 122.968C94.7779 122.968 94.756 122.963 94.7358 122.954C94.7155 122.946 94.6972 122.933 94.682 122.917C94.2969 122.56 93.8366 122.295 93.3351 122.141C92.8335 121.986 92.3036 121.946 91.7847 122.024C91.7636 122.028 91.742 122.028 91.721 122.024C91.7001 122.02 91.6801 122.011 91.6624 121.999C91.6447 121.987 91.6295 121.972 91.6177 121.954C91.6059 121.936 91.5978 121.916 91.5937 121.895C91.5871 121.852 91.5975 121.808 91.6226 121.773C91.6478 121.737 91.6857 121.712 91.7285 121.704C92.3003 121.612 92.8857 121.653 93.439 121.825C93.9923 121.996 94.4984 122.293 94.9178 122.693C94.9483 122.723 94.9655 122.764 94.9655 122.808C94.9655 122.851 94.9483 122.892 94.9178 122.923C94.9025 122.938 94.8841 122.95 94.8638 122.958C94.8434 122.966 94.8216 122.969 94.7999 122.968Z" fill="#263238"/>
<path opacity="0.2" d="M81.2168 148.762C80.9472 147.735 80.689 146.724 80.4531 145.775C81.7446 144.22 82.4296 137.555 82.4296 137.555C82.4296 137.555 83.328 145.68 81.2168 148.762Z" fill="black"/>
<path d="M64.7317 132.811L59.8467 132.16L62.8339 127.578C62.8339 127.578 67.2079 129.515 66.6801 131.728L64.7317 132.811Z" fill="#E4897B"/>
<path d="M56.0449 129.089L59.953 126.023L62.8335 127.579L59.8463 132.161L56.0449 129.089Z" fill="#E4897B"/>
<path d="M63.5742 132.851C63.5742 132.851 69.1892 152.633 73.597 151.437C76.0395 150.774 78.3754 148.427 80.2395 145.99C81.7181 144.062 82.684 141.79 83.047 139.387L80.9751 129.926C78.3473 130.487 74.1304 142.75 74.1304 142.75L67.0611 131.155L63.5742 132.851Z" fill="#003A63"/>
<path d="M89.4434 178.983V186.485C96.1252 188.411 110 187.675 118.248 187.007C120.04 186.861 121.71 186.045 122.927 184.722C124.145 183.4 124.82 181.668 124.818 179.871V173.694C124.819 172.699 124.516 171.727 123.95 170.908C123.385 170.09 122.582 169.463 121.651 169.112C117.653 167.607 110.376 165.367 102.762 165.485C99.2115 165.526 95.8207 166.967 93.3268 169.495C90.8328 172.023 89.4372 175.433 89.4434 178.983Z" fill="#263238"/>
<path d="M124.115 200.672C121.684 207.241 118.876 215.467 115.878 225.849C115.822 226.04 115.766 226.231 115.715 226.411C115.665 226.591 115.597 226.81 115.541 227.012L112.425 226.282L111.257 225.995C111.257 225.995 111.307 225.535 111.403 224.721C111.403 224.552 111.442 224.373 111.459 224.159C112.296 216.916 115.507 190.335 118.697 184.815C118.697 184.815 115.086 185.483 112.346 185.023C110.375 184.692 107.983 171.036 107.983 171.036C111.313 170.131 114.742 169.638 118.191 169.57H118.264C118.264 169.57 129.82 171.384 131.74 174.225C134.132 177.723 130.427 183.608 124.115 200.672Z" fill="#E4897B"/>
<path d="M120.106 235.127L112.851 231.926L110.56 229.366L109.847 230.332L108.983 229.956C108.578 226.733 110.139 225.228 110.965 224.543C111.021 224.492 111.105 224.43 111.206 224.357C111.234 224.328 111.266 224.304 111.302 224.284L111.341 224.256L111.453 224.172L111.521 224.133L115.502 225.89C115.502 225.89 115.569 226.098 115.693 226.452C116.091 227.575 117.074 230.13 118.163 231.505C118.208 231.561 118.253 231.623 118.298 231.674C118.421 231.82 118.556 231.955 118.702 232.078C121.779 234.481 120.106 235.127 120.106 235.127Z" fill="#003A63"/>
<path d="M118.32 231.63C117.197 232.073 115.586 230.95 114.39 229.485C113.646 228.475 112.988 227.405 112.425 226.284C112.154 225.722 111.81 225.197 111.403 224.723C111.234 224.572 111.077 224.51 110.942 224.572C110.999 224.521 111.083 224.459 111.184 224.386C111.212 224.358 111.244 224.334 111.279 224.313L111.319 224.285L111.431 224.201L111.498 224.162C111.914 223.847 112.38 223.527 112.38 223.527L115.58 224.942C115.58 224.942 115.67 225.319 115.833 225.897C116.249 227.379 117.13 230.192 118.141 231.512C118.231 231.517 118.276 231.579 118.32 231.63Z" fill="#E4897B"/>
<path opacity="0.1" d="M124.116 200.672C121.685 207.241 118.877 215.467 115.879 225.849C116.294 227.332 117.176 230.145 118.187 231.464C118.232 231.521 118.276 231.582 118.321 231.633C118.445 231.779 118.58 231.914 118.726 232.037C121.78 234.485 120.107 235.131 120.107 235.131L112.852 231.931L110.561 229.37L109.848 230.336L108.984 229.96C108.579 226.737 110.14 225.232 110.966 224.547C111.022 224.496 111.106 224.434 111.207 224.361C111.235 224.332 111.267 224.308 111.303 224.288L111.342 224.26L111.454 224.176C112.291 216.933 115.503 190.351 118.692 184.832C118.692 184.832 115.081 185.5 112.341 185.04C110.371 184.708 107.979 171.053 107.979 171.053C111.309 170.141 114.74 169.643 118.192 169.57H118.265C118.265 169.57 117.047 169.688 115.39 171.766C115.39 171.766 122.128 173.024 123.976 176.595C124.711 178.055 124.56 188.611 124.116 200.672Z" fill="black"/>
<path d="M107.995 171.031C107.995 171.031 119.556 172.845 121.471 175.68C124.801 180.566 118.804 190.167 107.866 228.461L103.599 227.417C103.599 227.417 104.722 192.66 108.427 186.254C108.427 186.254 104.817 186.922 102.083 186.461C98.5788 185.855 96.3608 174.142 107.995 171.031Z" fill="#E4897B"/>
<path d="M102.919 234.885H103.868L104.126 233.717L107.259 235.132H115.188C115.188 235.132 116.451 233.863 112.672 232.852C112.487 232.802 112.309 232.733 112.139 232.644C110.123 231.701 107.259 228.512 107.259 228.512H102.908C102.775 228.714 102.655 228.924 102.548 229.141C102.071 230.095 101.251 232.105 102.919 234.885Z" fill="#003A63"/>
<path d="M102.549 229.143C103.11 228.503 105.738 231.316 107.653 232.276C109.365 233.13 111.286 233.506 112.145 232.636C110.129 231.692 106.962 227.582 106.962 227.582H103.442C103.442 227.582 102.757 228.733 102.549 229.143Z" fill="#E4897B"/>
<g opacity="0.3">
<path d="M178.069 158.052V233.293C178.069 233.531 178.116 233.766 178.208 233.986C178.299 234.206 178.432 234.405 178.601 234.573C178.769 234.741 178.969 234.874 179.189 234.965C179.409 235.055 179.645 235.102 179.883 235.101H214.982C215.072 235.101 215.161 235.083 215.245 235.049C215.328 235.014 215.403 234.964 215.467 234.9C215.53 234.837 215.581 234.761 215.615 234.678C215.65 234.595 215.667 234.506 215.667 234.416V232.17C215.667 231.988 215.595 231.813 215.467 231.684C215.339 231.554 215.165 231.481 214.982 231.479H181.691V159.86H214.415C214.58 159.859 214.744 159.826 214.896 159.762C215.048 159.698 215.187 159.605 215.303 159.488C215.419 159.37 215.511 159.231 215.574 159.078C215.636 158.925 215.668 158.762 215.667 158.597V156.238H179.883C179.645 156.238 179.408 156.284 179.188 156.375C178.968 156.466 178.767 156.599 178.599 156.768C178.43 156.936 178.297 157.137 178.206 157.357C178.115 157.577 178.069 157.814 178.069 158.052Z" fill="white"/>
</g>
<path opacity="0.2" d="M178.069 158.052V177.244C179.275 177.551 180.482 177.847 181.691 178.131V159.86H214.415C214.58 159.859 214.744 159.826 214.896 159.762C215.048 159.698 215.187 159.605 215.303 159.488C215.419 159.37 215.511 159.231 215.574 159.078C215.636 158.925 215.668 158.762 215.667 158.597V156.238H179.883C179.645 156.238 179.408 156.284 179.188 156.375C178.968 156.466 178.767 156.599 178.599 156.768C178.43 156.936 178.297 157.137 178.206 157.357C178.115 157.577 178.069 157.814 178.069 158.052Z" fill="black"/>
<path d="M173.976 151.07L173.527 149.391H155.239L146.816 150.227L146.496 151.07H173.976Z" fill="#263238"/>
<path opacity="0.5" d="M173.976 151.07L173.527 149.391H155.239L146.816 150.227L146.496 151.07H173.976Z" fill="white"/>
<path opacity="0.2" d="M155.239 149.391V151.07H173.977L173.527 149.391H155.239Z" fill="black"/>
<path d="M161.426 138.561C161.396 138.823 161.422 139.089 161.502 139.34C161.583 139.591 161.716 139.822 161.893 140.018C162.07 140.214 162.287 140.369 162.529 140.474C162.771 140.579 163.032 140.632 163.296 140.627H199.305C199.866 140.613 200.403 140.396 200.816 140.016C201.229 139.636 201.49 139.119 201.551 138.561L203.691 115.506C203.714 115.28 203.697 115.052 203.64 114.832C203.541 114.427 203.306 114.068 202.976 113.814C202.645 113.56 202.238 113.426 201.821 113.434H165.823C165.261 113.447 164.723 113.665 164.309 114.046C163.896 114.428 163.636 114.947 163.577 115.506L161.426 138.561Z" fill="#263238"/>
<path opacity="0.5" d="M161.426 138.561C161.396 138.823 161.422 139.089 161.502 139.34C161.583 139.591 161.716 139.822 161.893 140.018C162.07 140.214 162.287 140.369 162.529 140.474C162.771 140.579 163.032 140.632 163.296 140.627H199.305C199.866 140.613 200.403 140.396 200.816 140.016C201.229 139.636 201.49 139.119 201.551 138.561L203.691 115.506C203.714 115.28 203.697 115.052 203.64 114.832C203.541 114.427 203.306 114.068 202.976 113.814C202.645 113.56 202.238 113.426 201.821 113.434H165.823C165.261 113.447 164.723 113.665 164.309 114.046C163.896 114.428 163.636 114.947 163.577 115.506L161.426 138.561Z" fill="white"/>
<path opacity="0.1" d="M163.42 140.627H199.306C199.867 140.613 200.404 140.396 200.817 140.016C201.23 139.636 201.491 139.119 201.552 138.561L203.691 115.506C203.715 115.28 203.698 115.052 203.641 114.832H167.761C167.199 114.848 166.662 115.066 166.249 115.447C165.837 115.828 165.576 116.346 165.515 116.904L163.375 139.954C163.353 140.179 163.368 140.407 163.42 140.627Z" fill="black"/>
<path d="M188.16 126.488H180.714L182.696 147.82L170.916 149.588V151.071H195.729V149.588L190.647 147.82L188.16 126.488Z" fill="#263238"/>
<path opacity="0.5" d="M188.16 126.488H180.714L182.696 147.82L170.916 149.588V151.071H195.729V149.588L190.647 147.82L188.16 126.488Z" fill="white"/>
<path opacity="0.2" d="M180.714 126.488L186.233 150.734L190.647 150.599L188.159 126.488H180.714Z" fill="white"/>
<path d="M128.584 235.135H163.684C163.867 235.135 164.043 235.062 164.172 234.932C164.302 234.803 164.374 234.627 164.374 234.444V232.198C164.374 232.107 164.357 232.017 164.322 231.934C164.287 231.85 164.236 231.774 164.172 231.71C164.108 231.646 164.032 231.595 163.948 231.56C163.864 231.525 163.774 231.507 163.684 231.507H130.392V159.854H163.111C163.276 159.855 163.439 159.823 163.592 159.761C163.745 159.698 163.883 159.606 164 159.49C164.117 159.373 164.21 159.235 164.273 159.083C164.336 158.93 164.369 158.767 164.369 158.602V156.238H128.584C128.105 156.238 127.645 156.429 127.306 156.768C126.967 157.107 126.776 157.567 126.776 158.046V233.321C126.776 233.801 126.967 234.261 127.306 234.601C127.644 234.941 128.104 235.133 128.584 235.135Z" fill="#263238"/>
<g opacity="0.4">
<path d="M128.584 235.135H163.684C163.867 235.135 164.043 235.062 164.172 234.932C164.302 234.803 164.374 234.627 164.374 234.444V232.198C164.374 232.107 164.357 232.017 164.322 231.934C164.287 231.85 164.236 231.774 164.172 231.71C164.108 231.646 164.032 231.595 163.948 231.56C163.864 231.525 163.774 231.507 163.684 231.507H130.392V159.854H163.111C163.276 159.855 163.439 159.823 163.592 159.761C163.745 159.698 163.883 159.606 164 159.49C164.117 159.373 164.21 159.235 164.273 159.083C164.336 158.93 164.369 158.767 164.369 158.602V156.238H128.584C128.105 156.238 127.645 156.429 127.306 156.768C126.967 157.107 126.776 157.567 126.776 158.046V233.321C126.776 233.801 126.967 234.261 127.306 234.601C127.644 234.941 128.104 235.133 128.584 235.135Z" fill="white"/>
</g>
<path d="M217.79 152.816V155.742C217.783 156.03 217.665 156.304 217.461 156.508C217.258 156.712 216.983 156.83 216.695 156.837H124.008C123.865 156.837 123.723 156.808 123.59 156.753C123.458 156.698 123.337 156.617 123.236 156.516C123.135 156.414 123.055 156.293 123 156.16C122.946 156.028 122.918 155.885 122.919 155.742V152.816H217.79Z" fill="#003A63"/>
<path opacity="0.2" d="M122.919 154.828H217.79V152.818H122.919V154.828Z" fill="black"/>
<path d="M220.912 152.205C220.912 152.502 220.794 152.788 220.583 152.999C220.373 153.209 220.087 153.328 219.789 153.328H120.965C120.816 153.328 120.668 153.3 120.53 153.243C120.393 153.186 120.267 153.102 120.162 152.996C120.105 152.94 120.055 152.876 120.016 152.805C119.897 152.624 119.832 152.411 119.831 152.193C119.831 151.895 119.949 151.61 120.16 151.399C120.371 151.189 120.656 151.07 120.954 151.07H219.778C220.076 151.07 220.362 151.189 220.572 151.399C220.783 151.61 220.901 151.895 220.901 152.193L220.912 152.205Z" fill="#003A63"/>
<path opacity="0.2" d="M168.917 151.402C168.812 151.296 168.687 151.212 168.549 151.155C168.411 151.098 168.263 151.069 168.114 151.07H120.948C120.65 151.07 120.365 151.189 120.154 151.399C119.944 151.61 119.825 151.895 119.825 152.193C119.826 152.411 119.891 152.624 120.01 152.805C120.05 152.876 120.099 152.94 120.156 152.996C120.262 153.102 120.387 153.186 120.525 153.243C120.662 153.3 120.81 153.328 120.959 153.328H122.947V155.731C122.946 155.874 122.974 156.017 123.028 156.149C123.083 156.282 123.163 156.403 123.264 156.505C123.365 156.606 123.486 156.687 123.618 156.742C123.751 156.797 123.893 156.826 124.036 156.826H165.037C165.181 156.826 165.323 156.797 165.455 156.742C165.588 156.687 165.708 156.606 165.809 156.505C165.911 156.403 165.991 156.282 166.045 156.149C166.1 156.017 166.127 155.874 166.126 155.731V153.328H168.114C168.305 153.33 168.494 153.283 168.662 153.191C168.83 153.1 168.972 152.967 169.074 152.805C169.216 152.588 169.277 152.328 169.249 152.07C169.22 151.812 169.103 151.572 168.917 151.39V151.402Z" fill="white"/>
<path d="M178.069 158.052V233.293C178.069 233.531 178.116 233.766 178.208 233.986C178.299 234.206 178.432 234.405 178.601 234.573C178.769 234.741 178.969 234.874 179.189 234.965C179.409 235.055 179.645 235.102 179.883 235.101H214.982C215.072 235.101 215.161 235.083 215.245 235.049C215.328 235.014 215.403 234.964 215.467 234.9C215.53 234.837 215.581 234.761 215.615 234.678C215.65 234.595 215.667 234.506 215.667 234.416V232.17C215.667 231.988 215.595 231.813 215.467 231.684C215.339 231.554 215.165 231.481 214.982 231.479H181.691V159.86H214.415C214.58 159.859 214.744 159.826 214.896 159.762C215.048 159.698 215.187 159.605 215.303 159.488C215.419 159.37 215.511 159.231 215.574 159.078C215.636 158.925 215.668 158.762 215.667 158.597V156.238H179.883C179.645 156.238 179.408 156.284 179.188 156.375C178.968 156.466 178.767 156.599 178.599 156.768C178.43 156.936 178.297 157.137 178.206 157.357C178.115 157.577 178.069 157.814 178.069 158.052Z" fill="#263238"/>
</g>
<defs>
<clipPath id="clip0_579_17673">
<rect width="280.75" height="280.75" fill="white" transform="translate(0.125)"/>
</clipPath>
</defs>
</svg>
