<svg width="101" height="68" viewBox="0 0 101 68" fill="none" xmlns="http://www.w3.org/2000/svg">
<path d="M12.5221 57.8425L0.663077 7.75435C0.165649 5.65692 0.834166 3.3979 2.47219 2.09572C3.27829 1.43882 4.28387 1.0757 5.32369 1.06601L38.1476 0.0331403C39.0106 0.0156236 39.86 0.250303 40.5916 0.708407C41.3232 1.16651 41.9053 1.82813 42.2664 2.61216L45.5361 9.39872L87.1901 9.43991C90.2507 9.43991 93.4634 13.6855 93.0991 17.2498L96.6634 58.964C96.147 63.9953 91.705 67.7815 87.3866 67.7815H21.574C17.0623 67.7942 13.2445 63.8559 12.5221 57.8425Z" fill="#9DE6F5"/>
<g opacity="0.3">
<path d="M12.5221 57.8424L0.663077 7.75435C0.165649 5.65692 0.834166 3.3979 2.47219 2.09572C3.27829 1.43882 4.28387 1.0757 5.32369 1.06601L38.1476 0.0331403C39.0106 0.0156236 39.86 0.250303 40.5916 0.708407C41.3232 1.16651 41.9053 1.82813 42.2664 2.61216L45.5361 9.39872L87.1901 9.43991C90.2507 9.43991 93.4634 13.6855 93.0991 17.2498L96.6634 58.964C96.147 63.9953 91.705 67.7815 87.3866 67.7815H21.574C17.0623 67.7942 13.2445 63.8559 12.5221 57.8424Z" fill="#525252"/>
</g>
<path d="M13.0903 59.3003L9.95361 3.81022L87.641 2.63477L90.3658 58.2484L13.0903 59.3003Z" fill="#E0E0E0"/>
<path d="M12.7344 6.08424C12.7264 6.18486 12.6892 6.28098 12.6275 6.36084C12.5657 6.4407 12.4821 6.50085 12.3867 6.53394C12.2913 6.56703 12.1884 6.57162 12.0905 6.54716C11.9925 6.5227 11.9038 6.47024 11.8352 6.3962C11.7666 6.32215 11.7211 6.22973 11.7041 6.13021C11.6872 6.0307 11.6996 5.92841 11.7399 5.83584C11.7801 5.74327 11.8465 5.66443 11.9308 5.60895C12.0151 5.55347 12.1138 5.52376 12.2147 5.52344C12.2858 5.52588 12.3556 5.54237 12.4202 5.57193C12.4849 5.60149 12.543 5.64353 12.5913 5.69566C12.6396 5.74779 12.6771 5.80897 12.7017 5.87566C12.7262 5.94235 12.7373 6.01323 12.7344 6.08424Z" fill="#EBEBEB"/>
<path d="M14.75 6.08424C14.742 6.18486 14.7048 6.28098 14.6431 6.36084C14.5814 6.4407 14.4977 6.50085 14.4023 6.53394C14.307 6.56703 14.204 6.57162 14.1061 6.54716C14.0082 6.5227 13.9195 6.47024 13.8509 6.3962C13.7823 6.32215 13.7367 6.22973 13.7198 6.13021C13.7028 6.0307 13.7152 5.92841 13.7555 5.83584C13.7958 5.74327 13.8621 5.66443 13.9464 5.60895C14.0308 5.55347 14.1294 5.52376 14.2304 5.52344C14.3014 5.52588 14.3712 5.54237 14.4359 5.57193C14.5005 5.60149 14.5586 5.64353 14.6069 5.69566C14.6552 5.74779 14.6927 5.80897 14.7173 5.87566C14.7418 5.94235 14.7529 6.01323 14.75 6.08424Z" fill="#EBEBEB"/>
<path d="M16.7676 6.08424C16.7596 6.18486 16.7224 6.28098 16.6607 6.36084C16.5989 6.4407 16.5153 6.50085 16.4199 6.53394C16.3245 6.56703 16.2216 6.57162 16.1237 6.54716C16.0257 6.5227 15.937 6.47024 15.8684 6.3962C15.7998 6.32215 15.7543 6.22973 15.7373 6.13021C15.7204 6.0307 15.7328 5.92841 15.7731 5.83584C15.8133 5.74327 15.8797 5.66443 15.964 5.60895C16.0483 5.55347 16.147 5.52376 16.248 5.52344C16.3911 5.52921 16.5262 5.59146 16.6235 5.69656C16.7209 5.80166 16.7727 5.94105 16.7676 6.08424Z" fill="#EBEBEB"/>
<path d="M40.5803 6.08398L45.2662 33.9336L8.39641 39.4718L3.71045 11.6222L40.5803 6.08398Z" fill="#EBEBEB"/>
<path d="M40.5833 6.08398L40.4059 6.11567L39.8894 6.19804L37.887 6.51487L30.3432 7.67131L3.72929 11.7141L3.8085 11.6095C5.2089 19.8979 6.80891 29.3997 8.50713 39.456L8.38357 39.3704L45.2566 33.848L45.1805 33.9463C43.7896 25.5565 42.6459 18.6052 41.8284 13.7418C41.4292 11.3086 41.1156 9.40122 40.9001 8.0927C40.7956 7.4432 40.7164 6.94576 40.6593 6.60359C40.6023 6.26141 40.5833 6.08398 40.5833 6.08398C40.5833 6.08398 40.6181 6.24874 40.6783 6.58141C40.7385 6.91409 40.8241 7.41151 40.935 8.05151C41.1599 9.3537 41.4863 11.2547 41.9045 13.6753C42.7378 18.5482 43.9259 25.5153 45.358 33.9209L45.3738 34.0033H45.2851L8.41208 39.5732L8.30753 39.5891L8.28852 39.4877C6.5998 29.4314 5.00613 19.9296 3.61523 11.6381V11.5494H3.71029L30.4034 7.58894L37.9346 6.48003L39.9211 6.19488L40.428 6.122L40.5833 6.08398Z" fill="#263238"/>
<path d="M9.37302 37.5269L43.6543 32.3784L39.5577 8.03613L5.27637 13.1847L9.37302 37.5269Z" fill="#455A64"/>
<g opacity="0.3">
<path d="M9.37207 37.527L18.801 20.5986L27.8086 28.9503L31.9876 23.1333L43.6534 32.3785L9.37207 37.527Z" fill="black"/>
</g>
<g opacity="0.3">
<path d="M29.0542 17.1576C29.103 17.5015 29.0828 17.8516 28.9945 18.1874C28.9062 18.5233 28.7517 18.8382 28.5401 19.1135C28.3285 19.3889 28.064 19.6192 27.7622 19.7909C27.4604 19.9627 27.1273 20.0724 26.7825 20.1137C26.0846 20.2331 25.3677 20.076 24.7839 19.6755C24.2 19.275 23.7952 18.6628 23.6553 17.9687C23.606 17.6251 23.6259 17.2751 23.7138 16.9392C23.8017 16.6034 23.9558 16.2885 24.1672 16.0131C24.3785 15.7376 24.6428 15.5073 24.9445 15.3355C25.2462 15.1637 25.5792 15.0539 25.9239 15.0127C26.6223 14.8915 27.3404 15.0479 27.9252 15.4486C28.51 15.8493 28.9151 16.4626 29.0542 17.1576Z" fill="black"/>
</g>
<path d="M15.3295 61.9328L14.2808 7.94136L93.7361 7.77344L93.4098 61.1281L15.3295 61.9328Z" fill="#EBEBEB"/>
<path d="M18.8882 10.0549C18.8802 10.1556 18.843 10.2517 18.7813 10.3315C18.7195 10.4114 18.6359 10.4716 18.5405 10.5046C18.4452 10.5377 18.3422 10.5423 18.2443 10.5179C18.1463 10.4934 18.0577 10.4409 17.989 10.3669C17.9204 10.2929 17.8749 10.2004 17.8579 10.1009C17.841 10.0014 17.8534 9.89912 17.8937 9.80655C17.9339 9.71397 18.0003 9.63513 18.0846 9.57965C18.1689 9.52417 18.2676 9.49446 18.3686 9.49414C18.5117 9.49991 18.6468 9.56216 18.7441 9.66726C18.8415 9.77236 18.8933 9.91176 18.8882 10.0549Z" fill="#E0E0E0"/>
<path d="M20.7475 10.0549C20.7395 10.1557 20.7023 10.2519 20.6404 10.3319C20.5785 10.4118 20.4947 10.4719 20.3991 10.5049C20.3036 10.5379 20.2005 10.5423 20.1025 10.5176C20.0045 10.4929 19.9158 10.4401 19.8473 10.3657C19.7789 10.2914 19.7336 10.1987 19.717 10.099C19.7004 9.99926 19.7133 9.89688 19.754 9.80437C19.7947 9.71186 19.8616 9.63324 19.9463 9.57814C20.0311 9.52304 20.13 9.49384 20.2311 9.49414C20.3019 9.497 20.3713 9.51377 20.4356 9.54351C20.4999 9.57325 20.5576 9.61537 20.6056 9.66746C20.6536 9.71955 20.6908 9.78058 20.7152 9.84707C20.7395 9.91356 20.7505 9.9842 20.7475 10.0549Z" fill="#E0E0E0"/>
<path d="M16.9111 10.0549C16.9031 10.1556 16.866 10.2517 16.8042 10.3315C16.7425 10.4114 16.6588 10.4716 16.5635 10.5046C16.4681 10.5377 16.3652 10.5423 16.2672 10.5179C16.1693 10.4934 16.0806 10.4409 16.012 10.3669C15.9434 10.2929 15.8978 10.2004 15.8809 10.1009C15.864 10.0014 15.8764 9.89912 15.9166 9.80655C15.9569 9.71397 16.0232 9.63513 16.1076 9.57965C16.1919 9.52417 16.2906 9.49446 16.3915 9.49414C16.5347 9.49991 16.6697 9.56216 16.7671 9.66726C16.8645 9.77236 16.9163 9.91176 16.9111 10.0549Z" fill="#E0E0E0"/>
<path d="M17.1763 63.2504V11.914L96.3053 11.7461L92.0565 64.353L17.1763 63.2504Z" fill="#FAFAFA"/>
<path d="M13.3328 57.7406L18.0663 19.1662C18.4338 16.1499 20.5819 13.9131 23.1134 13.9131H95.3925C98.4499 13.9131 100.823 17.1353 100.462 20.7947L96.6598 58.9065C95.5509 66.8273 92.5062 67.9679 88.1877 67.9679H20.6453C16.1273 67.9679 11.7486 66.8337 13.3328 57.7406Z" fill="#F4B557"/>
</svg>
