<svg width="28" height="28" viewBox="0 0 28 28" fill="none" xmlns="http://www.w3.org/2000/svg">
<path fill-rule="evenodd" clip-rule="evenodd" d="M27.3415 13.9999C27.3415 21.3683 21.3683 27.3415 13.9999 27.3415C6.63477 27.3336 0.666169 21.365 0.658203 13.9999C0.658203 6.63147 6.63147 0.658203 13.9999 0.658203C21.3683 0.658203 27.3415 6.63147 27.3415 13.9999ZM18.6972 15.4719C19.0748 15.3198 19.3295 14.9623 19.3499 14.5558C19.3299 14.1489 19.0751 13.7908 18.6972 13.6385L11.9319 10.2553C11.5836 10.0426 11.1452 10.0439 10.7981 10.2586C10.451 10.4732 10.254 10.8648 10.2887 11.2715V17.8378C10.2684 18.2418 10.4622 18.6266 10.799 18.8507C10.9621 18.9509 11.1501 19.0033 11.3415 19.0019C11.5472 18.9993 11.7494 18.9487 11.9319 18.854L18.6972 15.4719Z" fill="#3EB449"/>
</svg>
